<?xml version="1.0" encoding="UTF-8"?>
<svg width="200px" height="200px" viewBox="0 0 200 200" version="1.1" xmlns="http://www.w3.org/2000/svg" xmlns:xlink="http://www.w3.org/1999/xlink">
    <title>concordia-st-paul_BGL</title>
    <g id="concordia-st-paul_BGL" stroke="none" stroke-width="1" fill="none" fill-rule="evenodd">
        <g id="Concordia-St-Paul" transform="translate(0.000000, 6.000000)">
            <path d="M46.8015546,150.261485 L44.9553574,149.967691 C42.4377833,154.583184 36.2905669,156.99629 36.2905669,156.99629 L41.4095035,157.709383 C40.5915861,159.366967 35.4929727,163.080398 35.4929727,163.080398 L38.304341,163.080398 C42.0181282,160.604896 44.5357023,155.129056 44.5357023,155.129056 L42.5426079,154.60422 C44.5357023,153.702158 46.8015546,150.261485 46.8015546,150.261485" id="Fill-1" fill="#1A1919"></path>
            <path d="M70.4256054,132.868796 C70.4256054,132.868796 70.257672,134.945678 69.8800894,137.92498 C69.5021502,140.904282 69.019743,142.03703 68.4952632,141.365653 C68.1597531,139.918074 65.0545905,133.288451 65.0545905,133.288451 L64.1525282,134.274301 C64.1525282,134.274301 65.3063123,137.568434 66.5859573,141.239792 C67.8659588,144.911507 68.2028952,146.73845 68.9569908,146.694952 C70.0480228,146.631843 70.3835329,142.729799 71.075946,138.890151 C72.8173186,139.28877 73.0062882,147.701839 73.0062882,147.701839 L73.9083505,147.701839 C73.9083505,147.701839 73.5724838,139.62428 72.6073128,136.519118 C71.6424982,133.414312 70.4256054,132.868796 70.4256054,132.868796" id="Fill-2" fill="#1A1919"></path>
            <path d="M99.2238575,159.295658 L99.2070998,159.221853 L99.1860635,159.149474 C98.1467308,155.559408 95.7942377,152.955193 92.3820887,151.619214 C89.7611162,150.592717 87.1458484,150.559201 85.8890224,150.543157 C85.736064,150.541018 85.6041418,150.539591 85.4968214,150.536026 C83.4816212,150.464003 81.0660194,149.815802 81.0004148,147.136713 C80.9783089,146.195074 81.1601476,145.753313 81.2596241,145.651697 C81.2945656,145.616042 81.4521591,145.559351 81.7263433,145.559351 C81.9737865,145.559351 82.1820096,145.603563 82.2433355,145.617825 L85.6843648,146.774461 L85.4679411,143.104173 L85.274693,138.106819 C84.4343131,138.097905 83.5935767,138.071877 82.7521272,138.029805 L82.9521498,143.20151 C82.9521498,143.20151 78.3573364,141.81704 78.4831973,147.198395 C78.6090582,152.328028 83.6445629,152.989065 85.4069717,153.051817 C87.1693805,153.114926 94.6907266,152.674235 96.7679659,159.849374 C97.7117442,164.035229 97.7117442,167.056246 96.0755528,167.591423 C94.4390049,168.126242 91.8900547,166.049003 91.0717808,162.178335 C90.2535068,158.307668 88.0504066,154.688365 83.2983563,157.269048 L84.0745578,158.108002 C84.0745578,158.108002 87.7673088,157.205939 89.2776393,162.220408 C90.620393,167.150731 90.8303988,170.381755 86.4452348,170.528652 C82.0607838,170.675549 80.1725141,166.899009 80.1725141,166.899009 C80.1725141,166.899009 82.3542215,164.549012 81.4521591,161.024551 C80.5500967,157.499733 75.6825254,157.478697 75.6825254,157.478697 L75.78735,158.548693 C75.78735,158.548693 78.430785,159.094209 79.4169923,161.821789 C80.4031996,164.549012 75.598737,169.500372 74.4235601,169.815202 C73.2487397,170.129676 62.1080912,167.255556 57.0098343,164.82177 C53.8839921,163.395228 51.2929695,157.457661 54.5029566,150.849074 C55.2556261,149.29881 55.7754707,147.852658 56.0945797,146.5124 C55.455292,146.725615 54.8099431,146.91708 54.1585328,147.08644 C53.8283709,149.121963 53.1637684,151.210612 51.9536499,153.08355 C48.649178,158.622141 51.4502064,162.556274 51.4502064,162.556274 L53.0696401,164.782193 C53.8918361,165.80976 54.8712691,166.608424 55.9434041,167.102597 C60.711499,169.373085 71.4941749,172.356308 74.1693425,172.356308 C74.503783,172.356308 74.7997165,172.320654 75.0749703,172.247205 C76.1574452,171.957333 77.5597421,170.794635 78.7998105,169.389843 C80.1611046,171.123015 82.6433806,173.050504 86.197435,173.050504 C86.3068948,173.050504 86.4174242,173.048365 86.5297363,173.0448 C88.8059284,172.968499 90.4927494,172.208342 91.5427785,170.785365 C91.930701,170.259459 92.2009632,169.687559 92.3778102,169.080004 C93.3533211,169.79167 94.4336567,170.192072 95.5375243,170.192072 C95.992121,170.192072 96.4360212,170.122189 96.8578156,169.984562 C101.306801,168.529853 99.793262,161.821076 99.2238575,159.295658" id="Fill-3" fill="#020000"></path>
            <path d="M144.072045,53.0120306 C144.072045,53.0120306 141.265669,57.0820077 140.668097,56.9247707 C140.069812,56.7675338 139.304307,52.9963426 139.304307,52.9963426 C139.304307,52.9963426 137.646723,57.1925371 135.223634,58.7028676 C132.800188,60.2139112 132.454338,60.4652764 130.156753,62.6997526 C127.859168,64.9342289 126.443322,64.6825071 121.533678,67.4518029 C116.215432,70.787651 114.138193,71.1652336 101.644451,67.3890508 C89.1503522,63.6125114 87.2834753,53.1749723 87.2834753,53.1749723 L86.1821035,61.7452779 C81.6311454,56.8841244 80.2441799,46.943611 80.2441799,46.943611 L76.593858,52.4297904 C70.9921576,45.7898269 70.8662967,40.1984664 70.8662967,40.1984664 C57.6484089,40.7856983 48.4591387,43.4084536 48.4591387,43.4084536 C48.3322082,43.4433951 48.2138348,43.4779801 48.0883305,43.5129216 C47.9906368,43.6854901 47.8950824,43.8541365 47.7948928,44.0316966 L47.7906143,44.0388276 L47.7874053,44.0441758 C43.2710322,51.688887 42.0741054,59.0184111 42.0741054,64.6646798 C42.0741054,70.8389937 43.5113445,74.9856282 43.6008376,75.2348541 C43.7316901,75.1813722 43.8012167,75.1517788 43.8012167,75.1517788 C43.8012167,75.1517788 46.0988016,73.777649 47.8669152,73.1479881 C49.6350287,72.5186837 51.9208477,73.3997098 52.2670542,74.5014382 C52.8018738,81.2989951 60.8583961,85.4531172 60.8583961,85.4531172 L60.4597772,86.4600042 C51.6060172,85.4741534 50.3891244,75.6131498 50.3891244,75.6131498 C50.3891244,75.6131498 50.0536142,75.3193556 48.5008547,74.8579846 C46.067069,86.0613853 51.1446462,92.8172263 55.1729073,98.1878846 C52.2773941,101.377192 50.221191,113.419903 50.221191,113.419903 C59.8725453,113.377831 64.4880383,119.589938 64.4880383,119.589938 C64.4880383,119.589938 68.1911292,119.063676 70.7404359,118.371263 C73.289386,117.67885 78.8910864,115.476106 83.6431367,119.589938 C88.7100175,123.955492 88.0700167,126.469858 88.0700167,126.469858 C88.0700167,126.469858 104.476855,114.500239 118.544037,103.737529 C132.926049,93.0061959 130.062268,79.8942024 130.062268,79.8942024 C134.562597,83.4300729 130.723305,90.4882653 130.723305,90.4882653 C134.837137,89.1169879 139.154201,90.4501148 140.668453,91.0163105 C140.73905,87.7824347 141.271017,82.9722674 143.289783,77.4999933 C145.109595,72.5650347 148.14951,67.0970393 153.127254,61.7926986 C149.893378,56.0059507 144.072045,53.0120306 144.072045,53.0120306" id="Fill-4" fill="#FFFFFE"></path>
            <polyline id="Fill-5" fill="#1A1919" points="43.60369 75.2434112 43.6054727 75.2476898 43.6061858 75.2501856 43.60369 75.2434112"></polyline>
            <path d="M80.4171049,90.3488557 C79.3588752,90.3488557 78.2418154,90.0903595 77.0969449,89.5808547 C75.9438739,89.0677845 74.9512487,88.3557613 74.1393926,87.461543 C73.3289627,86.5694639 72.6925274,85.4951896 72.247914,84.2690266 C71.8157798,83.0628301 71.5975734,81.7728453 71.5993453,80.4333005 C71.6007823,79.1030259 71.8182756,77.7495758 72.2450616,76.4111007 C72.6957363,74.9995335 73.2900991,73.7726574 74.011749,72.7654138 C74.7444518,71.7431953 75.621556,70.9256344 76.6181031,70.3359067 C77.5982492,69.7632932 78.6300944,69.4516716 79.6858283,69.4095992 C79.7706863,69.4060337 79.8559009,69.404251 79.9411155,69.404251 C80.9094955,69.404251 81.9039034,69.6285187 82.8968851,70.0702796 C83.6563289,70.4082856 84.3227141,70.8425591 84.8789265,71.3616907 C85.1491886,71.613769 85.4026931,71.8940144 85.6369441,72.1995747 L85.8990057,71.3784483 L90.120515,73.2570913 L87.7009912,80.840833 L83.5525739,78.9942793 L83.622457,78.5378999 C83.734056,77.8098322 83.6869919,77.2008509 83.4823343,76.7280704 C83.3864233,76.5070116 83.2598493,76.3205379 83.095838,76.1586658 C82.9293308,75.9942979 82.7203946,75.8559579 82.4754472,75.7468547 C82.2144553,75.6309772 81.9787781,75.5746428 81.754867,75.5746428 C81.6849839,75.5746428 81.6168835,75.5803476 81.5502094,75.591044 C81.2713901,75.6377515 81.0107547,75.7807266 80.7536847,76.0285264 C80.3404475,76.4253625 79.7079342,77.3402606 79.0376269,79.4474497 C78.5145734,81.082928 78.2999325,82.435665 78.4161666,83.3598333 C78.4689354,83.7834104 78.5830303,84.1199902 78.764869,84.3898958 C78.938507,84.6458961 79.1731146,84.8377181 79.4815272,84.9757015 C79.6918896,85.0687601 79.8919121,85.1143981 80.0930043,85.1143981 C80.1429208,85.1143981 80.1928372,85.1115457 80.2427537,85.105841 C80.5023195,85.0758911 80.7604591,84.9710664 81.0314344,84.7842361 C81.632215,84.3709989 82.1980542,83.6108419 82.7136202,82.5248016 L82.973186,81.9775029 L87.511665,83.9973382 L87.4143279,84.3018289 C87.3711858,84.4369599 87.3312526,84.5767261 87.2906063,84.7175619 C87.2520993,84.8516234 87.2132357,84.9867545 87.1718763,85.1197463 L87.0517202,85.5030337 L87.0042995,85.4816409 L86.8959094,85.821073 L86.885213,85.8431789 C85.7724317,87.9254098 84.3572991,89.2924087 82.6644168,89.936688 C81.9481151,90.2098026 81.1922368,90.3488557 80.4171049,90.3488557" id="Fill-6" fill="#15293F"></path>
            <path d="M79.9404024,69.0477046 L79.9404024,69.0477046 C79.8505527,69.0477046 79.7610596,69.0494873 79.6712099,69.0534093 C78.5566459,69.0979776 77.4695359,69.4256438 76.4398299,70.0271375 C75.3969317,70.6443193 74.4834599,71.495039 73.7218768,72.5575473 C72.978121,73.5958104 72.3670005,74.8558453 71.9056295,76.3030671 C71.467434,77.6761273 71.2442359,79.0659451 71.2427992,80.4333005 C71.241027,81.8138481 71.4660078,83.1444793 71.9116908,84.3881131 C72.3730618,85.6609837 73.0337422,86.7748346 73.8755483,87.7014987 C74.7173543,88.6285193 75.744921,89.3669269 76.9290116,89.8963983 L76.9347163,89.8988941 L76.9561091,89.9085209 C78.1426955,90.4365661 79.3086022,90.7054021 80.4171049,90.7054021 C81.2357354,90.7054021 82.0347559,90.5585049 82.7920604,90.2693458 C84.5665918,89.5940469 86.0448332,88.1714268 87.184712,86.0417752 L87.1911298,86.0296527 L87.1971911,86.0175301 L87.2196535,85.9711791 L87.2210797,85.9672571 L87.2727789,85.9904326 L87.5120216,85.2263537 C87.5544506,85.0905095 87.5943838,84.952526 87.6336039,84.8156122 C87.672824,84.6779853 87.7120441,84.5417846 87.7541166,84.4098624 L87.9484344,83.8015943 L87.3647679,83.5416719 L83.4359832,81.7931684 L82.800261,81.5104272 L82.3913023,82.3718432 C81.9031903,83.4004796 81.3779975,84.1132158 80.8296291,84.4904419 C80.6075007,84.6434003 80.40213,84.7286149 80.2013944,84.7517904 C80.1660963,84.7557124 80.129372,84.7578517 80.0930043,84.7578517 C79.9428982,84.7578517 79.7895833,84.7221971 79.6252154,84.6494616 C79.3774157,84.5385757 79.1970032,84.3920351 79.0600894,84.1895167 C78.9128357,83.9713104 78.8147854,83.6771596 78.7702171,83.3163346 C78.6932031,82.7062838 78.7363452,81.5596306 79.3770591,79.5565529 C80.0249039,77.5196034 80.6171275,76.6535522 81.0004148,76.2859529 C81.2047159,76.0891393 81.4033122,75.9771837 81.6093961,75.9425987 C81.6553905,75.9351112 81.7049505,75.9311892 81.7545104,75.9311892 C81.9252962,75.9311892 82.1192574,75.9786099 82.3303329,76.0727381 C82.5389125,76.1654402 82.7079155,76.2766827 82.8458989,76.4128834 C82.9763949,76.5415966 83.0776541,76.6913461 83.1553812,76.8699759 C83.3329413,77.2800042 83.3714483,77.8230244 83.2701892,78.4837048 L83.2413089,78.6712482 L83.1589467,79.2092767 L83.6559724,79.4306921 L87.9195541,81.3285885 L90.5569278,73.0613473 L89.9736179,72.801425 L86.4077974,71.214437 L85.6800862,70.8906929 L85.4936125,71.4750724 C85.3734563,71.3445764 85.2493782,71.2197852 85.1220911,71.1006987 C84.541277,70.5587482 83.8481509,70.1055777 83.061253,69.7533099 L83.0416429,69.7443962 C82.0030233,69.2823121 80.959412,69.0477046 79.9404024,69.0477046 Z M79.9404024,69.7607974 C80.8642141,69.7607974 81.8033573,69.9740121 82.7517707,70.396163 L82.7531969,70.3965196 L82.7535534,70.3968761 C83.4752033,70.7177679 84.1041512,71.1260135 84.6354053,71.6223261 C85.0593389,72.017736 85.432643,72.4780374 85.7560306,72.9989517 L86.1175686,71.8658473 L89.6837457,73.4528352 L87.4824282,80.3530776 L83.9462011,78.7792818 L83.9750814,78.5917384 C84.1002292,77.7756037 84.0371204,77.1120709 83.8096438,76.5861649 C83.695549,76.3230337 83.5422341,76.0984095 83.3464901,75.9048048 C83.1503896,75.7119132 82.9097208,75.5500411 82.6202051,75.4209713 C82.3114359,75.2840575 82.0247726,75.2180964 81.7545104,75.2180964 C81.6650173,75.2180964 81.5776634,75.2252274 81.4917358,75.2394892 C81.1458858,75.2972497 80.8200024,75.4694616 80.5062415,75.7714564 C79.8783633,76.3747329 79.2615381,77.5666675 78.6978382,79.3394162 C78.1444782,81.0693793 77.9401771,82.4349519 78.0624726,83.4044016 C78.1227289,83.8896612 78.2607124,84.2800795 78.469292,84.5892052 C78.6785847,84.898331 78.9609695,85.1336516 79.3360563,85.3008718 C79.5931262,85.4153232 79.8434218,85.4709445 80.0930043,85.4709445 C80.156113,85.4709445 80.2195782,85.467379 80.2826869,85.4602481 C80.5953781,85.4242369 80.9112782,85.2998022 81.2335962,85.0776738 C81.8775189,84.6348432 82.4847175,83.8386751 83.0355816,82.6774035 L83.146111,82.4449352 L87.0748957,84.1930822 C86.9903942,84.4579962 86.9169457,84.7396678 86.8313745,85.0134955 L86.7860931,84.9931723 L86.5636082,85.6895074 L86.5561207,85.705552 C85.501813,87.6751143 84.160842,88.9854223 82.5374863,89.6033172 C81.8575524,89.8632395 81.1498078,89.9923093 80.4171049,89.9923093 C79.4041566,89.9923093 78.3434311,89.7452226 77.2420593,89.2549713 L77.2356415,89.252119 L77.2342153,89.2517624 C76.1324869,88.7611546 75.1862128,88.084073 74.4032369,87.2219438 C73.6199045,86.3598146 73.012706,85.3322479 72.5830676,84.1474443 C72.163056,82.9754763 71.9541198,81.7357645 71.9558912,80.4340136 C71.9573287,79.1322627 72.1680476,77.8262333 72.5848503,76.5194908 C73.024472,75.1407259 73.5963725,73.9573484 74.3016212,72.9729238 C75.00687,71.9884992 75.840832,71.2101584 76.7995852,70.6428931 C77.7291017,70.099873 78.6978382,69.8057222 79.7000901,69.765789 C79.7803131,69.7625801 79.8601795,69.7607974 79.9404024,69.7607974 L79.9404024,69.7607974 Z" id="Fill-7" fill="#CEA431"></path>
            <path d="M95.8798088,97.3018668 C95.7257808,97.3018668 95.56997,97.2950925 95.41202,97.2822568 C94.5894675,97.214513 93.6977449,96.9692091 92.7628803,96.5531194 C91.9203612,96.1783892 91.165909,95.7077479 90.52056,95.1547445 C90.1465429,94.8345658 89.794275,94.4748105 89.4683916,94.0804702 L89.3015279,94.6031672 L84.7216895,92.5647915 L86.9804109,85.4841367 L87.3462275,85.6513569 L91.5010626,87.5004065 L91.3719928,87.9952929 C91.1466555,88.8584917 91.1216972,89.579072 91.2978312,90.1374236 C91.3780541,90.3923543 91.496071,90.6034298 91.6575865,90.7831292 C91.8226675,90.9656809 92.0294644,91.1111518 92.2897432,91.2266729 C92.5157936,91.327219 92.7240167,91.3778485 92.9079947,91.3778485 C93.0188806,91.3778485 93.1219225,91.3603778 93.2231817,91.3243666 C93.3404854,91.2826507 93.4339006,91.2227509 93.5087753,91.1425279 C93.5857894,91.0590961 93.6453326,90.9514191 93.6895444,90.8130791 C93.7269817,90.6950622 93.7401739,90.5756192 93.7294776,90.4494017 C93.7177115,90.3135576 93.6770652,90.1666605 93.6082518,90.012989 C93.5312378,89.8393509 93.3722181,89.5844202 93.1607861,89.2941914 C92.9276047,88.9729431 92.6191921,88.5896558 92.2448184,88.1553823 L90.2449497,85.8242819 C89.4263192,84.8708769 88.8843686,83.8326138 88.6340731,82.7380164 C88.3809251,81.6341488 88.4344071,80.5056794 88.7927362,79.3836279 C89.0665638,78.5257773 89.4498512,77.7927179 89.932615,77.2044164 C90.423936,76.6054184 91.0282821,76.1440474 91.7281827,75.833139 C92.3510692,75.556459 93.0167413,75.4159797 93.7070151,75.4159797 C93.790447,75.4159797 93.8742354,75.418119 93.9583803,75.422041 C94.7224593,75.4591218 95.5328892,75.6659187 96.3675643,76.03744 C97.2311197,76.4217971 97.9934159,76.9173965 98.632347,77.5096201 C98.9650048,77.8183893 99.2673561,78.1567518 99.5361921,78.5214988 L99.8364042,77.5812859 L104.191975,79.5198287 L102.987561,83.2952984 L101.649799,82.6998659 L100.758433,85.49412 L97.8311872,84.1912995 L97.8800341,83.7523909 C97.9502737,83.1205907 97.8903739,82.5875538 97.7017609,82.1678987 C97.5234877,81.7742715 97.2500166,81.5047224 96.8407014,81.321101 C96.6948739,81.2562096 96.5586732,81.2187722 96.4370909,81.2102151 C96.4185504,81.2087889 96.40001,81.2080758 96.3818262,81.2080758 C96.2980378,81.2080758 96.2206672,81.2223377 96.1457925,81.2522876 C96.0595082,81.286516 95.9924775,81.332154 95.9364997,81.3959758 C95.8762434,81.4637196 95.8291793,81.5521431 95.7928115,81.6658814 C95.7778366,81.7133021 95.7771235,81.7803328 95.7906722,81.8637646 C95.804221,81.947553 95.8413018,82.0912412 95.9397086,82.2983947 C96.1211908,82.6827517 96.4609795,83.1740726 96.9234201,83.7199451 L96.9961556,83.8030205 L97.913906,84.8933393 L96.9401778,87.9468026 L99.5985877,89.1298235 L97.0307406,97.1795714 L96.8200217,97.2180784 C96.514818,97.2733431 96.1982048,97.3018668 95.8798088,97.3018668" id="Fill-8" fill="#15293F"></path>
            <path d="M92.9079947,91.0213022 C92.7739332,91.0213022 92.6142004,90.9810124 92.4330749,90.9004329 C92.2209298,90.8059481 92.0529964,90.6890009 91.9214308,90.5431734 C91.7955699,90.4034073 91.7025113,90.2354739 91.6379764,90.0301032 C91.4821656,89.5369995 91.5089066,88.88345 91.7164166,88.0872819 L91.961364,88.372519 L91.9617205,88.3732321 L91.9745562,88.3882071 C92.3439383,88.8167758 92.6459331,89.1918626 92.87234,89.5034842 C93.1483069,89.8821364 93.2509923,90.0871506 93.2827249,90.1577468 C93.3351372,90.2754071 93.3661568,90.3837972 93.3743574,90.4800647 C93.3811317,90.5606442 93.3732877,90.6305273 93.3493991,90.7064717 C93.321945,90.7916863 93.2880731,90.8558646 93.2467137,90.9007895 C93.2235382,90.9257477 93.1850312,90.9592631 93.1019559,90.9888564 C93.041343,91.0106058 92.9775212,91.0213022 92.9079947,91.0213022 Z M96.1375919,81.7592965 C96.1568454,81.7029622 96.1793078,81.6594635 96.2042661,81.6312964 C96.2171017,81.616678 96.2352856,81.6002768 96.2787843,81.5831626 C96.3101603,81.5706835 96.3426061,81.5646222 96.3821827,81.5646222 C96.3918095,81.5646222 96.4021493,81.5649788 96.4121326,81.5656918 C96.4909294,81.5713966 96.5893362,81.5995638 96.6966566,81.647341 C97.0243228,81.7942381 97.2346851,82.0006784 97.3776602,82.316222 C97.5384627,82.6749077 97.5887357,83.1455489 97.525627,83.7128142 L97.5092259,83.8589982 L97.268557,83.5734046 L97.2421726,83.5416719 L97.2307631,83.5309756 L97.2043787,83.5006691 L97.2001001,83.4949644 C96.6367568,82.8296488 96.3796869,82.3950188 96.2623831,82.1468625 C96.176812,81.9671631 96.1507841,81.8562772 96.1425835,81.8063607 C96.1386615,81.7824721 96.1379484,81.7671406 96.1375919,81.7592965 Z M93.706302,75.0594333 L93.706302,75.0594333 C92.9664683,75.0594333 92.2519493,75.2102524 91.5834248,75.5072556 C90.831825,75.840983 90.1836237,76.3358694 89.6566481,76.978366 C89.1453606,77.6012525 88.7403239,78.3742451 88.4529475,79.2755944 C88.0750083,80.4586153 88.0190305,81.6509064 88.2867969,82.8182393 C88.5495716,83.9688145 89.11755,85.0587768 89.9746875,86.0563937 L90.4938191,86.6618094 L87.4963335,85.3279694 L86.7682658,85.0038687 L86.5186833,85.7593905 L86.5015691,85.8128725 L84.2852767,92.760892 L84.8689432,93.0204578 L85.0596955,93.1053158 L89.5204474,95.0905661 L89.617428,94.7864321 C89.8324255,95.0135521 90.0563366,95.2267668 90.2884483,95.4257197 C90.9605383,96.0011856 91.7442272,96.4900107 92.6177659,96.8790028 C93.5897114,97.3111371 94.5195844,97.5664243 95.3827832,97.637377 C95.5492903,97.6512823 95.7165106,97.6584132 95.8801654,97.6584132 C96.2199541,97.6584132 96.5576035,97.6281068 96.8838435,97.5689201 L97.3052813,97.4922626 L100.035357,88.9340796 L97.4290029,87.7735211 L97.3769471,87.7503456 L97.4058274,87.6594262 L98.3135945,84.814186 L98.2893494,84.7853058 L100.249641,85.6577748 L100.976996,85.9818755 L101.868362,83.1876214 L102.478769,83.4589532 L103.206124,83.7830539 L104.628744,79.3237281 L104.045078,79.0641624 L99.6174847,77.0935305 L99.3974955,77.7830912 C99.2324146,77.5966174 99.0580634,77.4179877 98.8747985,77.2482716 C98.2066306,76.6289505 97.4118887,76.1119582 96.5126787,75.7115566 C95.6377138,75.3225645 94.7844983,75.1050712 93.9758511,75.0658511 C93.8852883,75.0615726 93.7957952,75.0594333 93.706302,75.0594333 Z M93.706302,75.7725261 C93.7840292,75.7725261 93.8624694,75.7743088 93.9412661,75.7782308 C94.6679077,75.8131724 95.4287777,76.0096294 96.2220934,76.3629669 L96.2224499,76.3629669 C97.0514203,76.7319924 97.7748529,77.2012075 98.3898954,77.7713251 C98.8883473,78.2334093 99.3080024,78.757889 99.6495738,79.3404858 L100.054967,78.0690414 L103.754849,79.7155726 L102.768642,82.8075429 L102.066602,82.4952083 L101.43088,82.212467 L100.539514,85.0063645 L98.2141181,83.9713104 L98.2340847,83.791611 C98.3135945,83.0778051 98.2387198,82.4934256 98.0269312,82.0220712 C97.8144296,81.5521431 97.4807021,81.2177026 96.9868854,80.9959307 C96.7972027,80.9114292 96.622495,80.8657913 96.4620491,80.8543818 C96.4349516,80.8525991 96.4082106,80.8515294 96.3821827,80.8515294 C96.2520433,80.8515294 96.1308175,80.8747049 96.0145834,80.9206994 C95.8737476,80.9766772 95.7610789,81.0558305 95.6694465,81.1595855 C95.5778141,81.262984 95.5061482,81.3927668 95.4533794,81.5567782 C95.4223598,81.6548284 95.4145158,81.7714191 95.438761,81.9208121 C95.4630061,82.0694919 95.5211232,82.2477651 95.6177472,82.4513531 C95.8099258,82.8588856 96.1547061,83.3641118 96.6513752,83.9502741 L96.6535145,83.9531265 L96.6556538,83.9559789 L96.7134143,84.0237227 L96.7230411,84.0326363 L97.5145741,84.9724926 L96.72625,87.442646 L96.5034085,88.1425466 L99.1618184,89.3255675 L96.7561999,96.8672368 C96.4727455,96.918936 96.180734,96.9453205 95.8801654,96.9453205 C95.7357641,96.9453205 95.5895801,96.9389026 95.4412568,96.92678 C94.6504369,96.8618886 93.8057785,96.6269245 92.9076381,96.2275926 L92.9076381,96.227236 C92.0950689,95.865698 91.3759148,95.4182323 90.7523152,94.8841258 C90.2274789,94.4345208 89.7554115,93.9125368 89.3361129,93.3217395 L89.082965,94.1154117 L85.3492112,92.453549 L85.1588154,92.3690475 L87.1811465,86.0292961 L87.1982608,85.9754576 L87.2061048,85.9793796 L91.0799813,87.7032814 L91.0268559,87.9057998 C90.7783431,88.8570656 90.7655074,89.6350498 90.9576859,90.2447441 C91.0539534,90.5499478 91.1976416,90.805235 91.392316,91.0216587 C91.5873468,91.2373693 91.8358597,91.4149294 92.1442723,91.5525563 C92.4223785,91.6755648 92.6748133,91.7343949 92.9079947,91.7343949 C93.0605965,91.7343949 93.2049978,91.7090801 93.3429813,91.6602333 C93.5180455,91.5974811 93.6578117,91.5058487 93.7697673,91.385336 C93.8817229,91.2644668 93.9676505,91.1136477 94.0293331,90.9218257 C94.0813888,90.7571013 94.0995727,90.5923768 94.0845978,90.4190953 C94.0699794,90.2461703 94.0214891,90.0629055 93.9337786,89.8671615 C93.8489206,89.6764092 93.6863354,89.410069 93.4492321,89.0841856 C93.2121287,88.7579457 92.9001506,88.3696666 92.514724,87.9225575 L92.5143675,87.9218444 L90.5155684,85.5921702 C89.7365145,84.6851162 89.2209484,83.7046137 88.9817058,82.6585065 C88.7417501,81.6131125 88.7941624,80.5498912 89.1325249,79.492018 C89.3920907,78.6780226 89.7500633,77.9884619 90.2082254,77.4304668 C90.6656744,76.8724717 91.2229564,76.4474684 91.8729405,76.1586658 C92.4526849,75.9012393 93.0652316,75.7725261 93.706302,75.7725261 L93.706302,75.7725261 Z" id="Fill-9" fill="#CEA431"></path>
            <path d="M109.41324,90.4094685 C109.657118,90.5046664 109.879603,90.5674186 110.076773,90.5970119 C110.163414,90.6098476 110.24542,90.616622 110.32279,90.616622 C110.440094,90.616622 110.546345,90.600934 110.637621,90.5706275 C110.774891,90.5249896 110.887203,90.4458363 110.990958,90.3214016 C111.110401,90.1780699 111.212373,89.9759081 111.293666,89.721334 C111.37068,89.4799521 111.403126,89.2549713 111.389933,89.0528095 C111.377454,88.8599179 111.327894,88.6909149 111.233766,88.5211989 C111.064407,88.2138559 110.738523,87.9279057 110.282857,87.6829583 L109.41324,90.4094685 Z M99.6902201,99.6158529 L102.608196,90.4690118 L105.266606,91.6523893 L106.305938,88.3942683 L103.647172,87.2108909 L104.659051,84.0394107 L103.591907,83.5644909 L104.796321,79.7886646 L112.616453,83.2692705 C113.779507,83.7873324 114.76928,84.3660072 115.557961,84.9892503 C116.37053,85.63246 116.996625,86.3434135 117.41842,87.1028573 C117.849128,87.8776326 118.089084,88.7386922 118.131869,89.6621473 C118.173585,90.56314 118.027758,91.5429295 117.698665,92.5747748 C117.35959,93.6379961 116.910698,94.5172395 116.364469,95.1882598 C115.798273,95.8842384 115.11513,96.37342 114.334294,96.642256 C113.838338,96.8133983 113.288543,96.9003956 112.699885,96.9003956 C112.381845,96.9003956 112.045622,96.8750808 111.700485,96.8251643 C110.752428,96.6875374 109.683859,96.3563058 108.524014,95.8400266 L107.898988,95.5619205 L107.269683,97.5350482 L108.250899,97.9718175 L106.727376,102.747756 L99.6902201,99.6158529 L99.6902201,99.6158529 Z" id="Fill-10" fill="#15293F"></path>
            <path d="M109.85928,90.1848443 L110.483593,88.2274046 C110.685041,88.3753714 110.832651,88.5318952 110.921431,88.6930542 C110.989532,88.8160627 111.025186,88.937645 111.034457,89.0763416 C111.04444,89.233222 111.016986,89.4143476 110.953877,89.613657 C110.88756,89.8208105 110.805554,89.9869611 110.716417,90.093925 C110.640473,90.1852009 110.577008,90.2151508 110.524595,90.2326215 C110.4704,90.2504489 110.401943,90.2600756 110.32279,90.2600756 C110.263603,90.2600756 110.198712,90.2547274 110.129185,90.2443876 C110.04504,90.2315519 109.954834,90.2119418 109.85928,90.1848443 Z M104.577758,79.3012657 L103.155138,83.7602349 L103.738804,84.0201572 L104.170226,84.2119792 L104.222281,84.2351547 L104.193401,84.3264306 L103.210403,87.4069914 L103.794069,87.6665572 L105.817113,88.5671933 L105.869169,88.5903689 L105.839932,88.6812882 L105.047686,91.1649904 L102.389276,89.9816129 L99.2534508,99.8115969 L99.8371172,100.071519 L106.218585,102.911411 L106.945939,103.235512 L108.687668,97.7760735 L108.104002,97.5161512 L107.706096,97.3393042 L108.117551,96.0493194 L108.379256,96.16591 C109.568694,96.6950249 110.66864,97.0355267 111.649143,97.1777887 C112.011394,97.230201 112.364731,97.256942 112.699885,97.256942 C113.327763,97.256942 113.917134,97.1635268 114.450884,96.9791924 C115.295186,96.6886071 116.032167,96.1616315 116.640792,95.4132406 C117.215188,94.7079918 117.685473,93.7891718 118.038454,92.6831649 C118.380382,91.6106733 118.531558,90.5884548 118.487702,89.6453896 C118.442778,88.6670263 118.187847,87.7531979 117.730041,86.9295758 C117.285428,86.1287726 116.629026,85.3821644 115.77902,84.7100745 C114.966807,84.0675779 113.951363,83.473215 112.761567,82.9437437 L104.577758,79.3012657 Z M110.32279,90.9731684 C110.48181,90.9731684 110.623715,90.9510625 110.749933,90.90899 C110.950312,90.8423159 111.117889,90.7257252 111.264786,90.5499478 C111.41097,90.3741705 111.535404,90.136354 111.633098,89.8300807 C111.726157,89.5380692 111.761455,89.2724421 111.745767,89.029634 C111.730079,88.7868259 111.665187,88.564341 111.545744,88.3486304 C111.30971,87.9204182 110.844061,87.5292868 110.127046,87.2101778 L110.122411,87.208395 L110.067859,87.1841499 L108.974688,90.6105607 L109.048493,90.643363 L109.049206,90.6437195 C109.414666,90.8063047 109.74055,90.9072073 110.024361,90.9496363 C110.129898,90.9653244 110.229018,90.9731684 110.32279,90.9731684 L110.32279,90.9731684 Z M105.01524,80.2764201 L112.471339,83.5951539 C113.608722,84.1014498 114.563553,84.6576622 115.336902,85.2691392 C116.109895,85.8806163 116.702118,86.5477146 117.106798,87.2757823 C117.511478,88.00385 117.73539,88.8100014 117.775679,89.6785484 C117.815969,90.547452 117.67442,91.4769684 117.358877,92.4663847 C117.034063,93.4846812 116.611912,94.3193563 116.087789,94.9632791 C115.564022,95.6068453 114.93757,96.0575199 114.218416,96.3053197 C113.754906,96.4650525 113.24861,96.5438492 112.699885,96.5438492 C112.396464,96.5438492 112.080207,96.5196041 111.751471,96.4721834 C110.826947,96.3381219 109.80045,96.0179433 108.669128,95.5144998 L107.680425,95.074165 L106.832914,97.7311487 L107.81413,98.1675615 L106.508457,102.260001 L100.126989,99.4197524 L102.826759,90.9567673 L105.485169,92.1397882 L106.742708,88.1985244 L104.083941,87.0151469 L105.09582,83.8433102 L104.460098,83.5605689 L104.028677,83.3683904 L105.01524,80.2764201 L105.01524,80.2764201 Z" id="Fill-11" fill="#CEA431"></path>
            <path d="M73.0062882,147.701839 C73.0062882,147.701839 72.8173186,139.28877 71.075946,138.890151 C70.3835329,142.729799 70.0480228,146.631843 68.9569908,146.694952 C68.2028952,146.73845 67.8659588,144.911507 66.5859573,141.239792 C65.3063123,137.568434 64.1525282,134.274301 64.1525282,134.274301 L65.0545905,133.288451 C65.0545905,133.288451 68.1597531,139.918074 68.4952632,141.365653 C69.019743,142.03703 69.5021502,140.904282 69.8800894,137.92498 C70.257672,134.945678 70.4256054,132.868796 70.4256054,132.868796 C70.4256054,132.868796 71.6424982,133.414312 72.6073128,136.519118 C73.5724838,139.62428 73.9083505,147.701839 73.9083505,147.701839 L73.0062882,147.701839 Z M44.5357023,155.129056 C44.5357023,155.129056 42.0181282,160.604896 38.304341,163.080398 L35.4929727,163.080398 C35.4929727,163.080398 40.5915861,159.366967 41.4095035,157.709383 L36.2905669,156.99629 C36.2905669,156.99629 42.4377833,154.583184 44.9553574,149.967691 L46.8015546,150.261485 C46.8015546,150.261485 44.5357023,153.702158 42.5426079,154.60422 L44.5357023,155.129056 Z M85.3741694,153.051817 C83.6117606,152.989065 78.5766125,152.328028 78.450395,147.198395 C78.3245342,141.81704 82.9193475,143.20151 82.9193475,143.20151 L82.4786562,131.80914 L85.908989,133.414312 C85.908989,133.414312 86.1607108,131.620527 84.9334781,126.3333 C82.6676258,118.339887 69.9221619,120.888837 66.3342355,121.549874 C62.7466658,122.210554 53.4311782,124.004696 53.4311782,124.004696 C53.368426,122.273663 57.0504806,121.014698 57.0504806,121.014698 C54.8160044,119.220913 46.5708691,119.630228 46.5708691,119.630228 C46.5708691,119.630228 42.2488137,121.266419 42.0808803,130.078464 C42.0391644,139.183945 47.9763749,142.121174 49.0674069,142.666334 C51.6480897,143.589789 52.5291158,144.408063 51.9418839,144.638749 C49.0884431,146.086327 46.9274154,144.093233 46.1301777,143.107025 C45.33294,142.121174 44.2839805,142.247035 42.9412268,144.764609 C41.5984731,147.282183 39.54227,149.191489 36.9409076,150.408382 C34.3391885,151.625275 32.2202333,153.870091 28.0661113,154.121813 C20.2192383,154.373535 20.9747601,163.4373 21.1844094,167.171411 C16.8206381,169.731414 14.2189191,176.864481 15.6458178,180.077321 C17.0723599,183.289804 19.0497662,184.066005 20.2299347,182.807396 C22.8263056,179.959304 21.2999305,177.347245 21.2999305,177.347245 C26.7600819,178.60621 21.0795848,185.214798 21.0795848,185.214798 C21.0795848,185.214798 26.2880145,185.891523 27.2478374,183.924456 C28.2076602,181.957746 26.9173189,179.943616 26.2409503,179.015169 C25.5642253,178.086722 26.1147329,177.457418 26.1147329,177.457418 C31.3705833,179.424484 29.136107,183.609982 29.136107,183.609982 C29.136107,183.609982 30.111618,183.877392 31.7481659,181.186536 C33.7779845,177.52017 30.8040311,176.780693 29.3407647,176.765005 C27.8771417,176.749317 27.0588678,175.962419 27.0588678,175.962419 L27.9402505,175.097081 C27.9402505,175.097081 31.3231626,175.458975 32.6609247,174.640701 C33.9983302,173.822427 37.8533098,169.699681 37.8533098,169.699681 C46.1929299,172.81554 51.4174042,162.556274 51.4174042,162.556274 C51.4174042,162.556274 48.6163757,158.622141 51.9208477,153.08355 C56.2322066,146.411497 53.6201478,137.001881 53.6201478,137.001881 C56.7042741,139.488079 57.679785,144.24013 54.4697978,150.849074 C51.2598107,157.457661 53.8508333,163.395228 56.977032,164.82177 C62.0752889,167.255556 73.2159375,170.129676 74.3907578,169.815202 C75.5655782,169.500372 80.3700408,164.549012 79.38419,161.821789 C78.3979827,159.094209 75.7545478,158.548693 75.7545478,158.548693 L75.6497231,157.478697 C75.6497231,157.478697 80.5172945,157.499733 81.4193568,161.024551 C82.3214192,164.549012 80.1393553,166.899009 80.1393553,166.899009 C80.1393553,166.899009 82.027625,170.675549 86.4124325,170.528652 C90.7975966,170.381755 90.5879473,167.150731 89.2451936,162.220408 C87.7345065,157.205939 84.0417555,158.108002 84.0417555,158.108002 L83.2655541,157.269048 C88.0176044,154.688365 90.220348,158.307668 91.0386219,162.178335 C91.8568959,166.049003 94.4062026,168.126242 96.042394,167.591423 C97.6789419,167.056246 97.6789419,164.035229 96.7348071,159.849374 C94.6579244,152.674235 87.1362217,153.114926 85.3741694,153.051817 L85.3741694,153.051817 Z" id="Fill-12" fill="#CEA431"></path>
            <path d="M16.5478801,105.300629 C18.7926962,106.244763 20.63925,107.901991 22.2337255,107.356832 C23.8278444,106.810959 25.254743,104.734076 25.5485373,100.789604 C25.9050836,96.4679048 19.2544238,97.7735777 19.2544238,97.7735777 C19.2544238,97.7735777 19.2701118,93.6037677 19.6320064,93.9025535 C20.4028597,94.5796351 23.95941,96.546345 25.4540525,94.9885939 C26.9486949,93.4308427 25.3752557,90.9920654 24.3369926,89.9374011 C23.298373,88.88345 23.7861284,86.6175977 23.7861284,86.6175977 L20.9223478,86.397252 L20.1985586,85.6103541 C27.6571526,82.6838213 29.8912723,77.7428014 29.8912723,77.7428014 C32.7104846,78.0915038 35.8905219,77.5655979 38.4990153,76.898143 C38.2148478,76.1793455 36.4199933,71.3930667 36.4182106,64.6885684 C36.4164278,59.282612 37.601588,52.6184034 41.9863956,45.337013 C28.8469479,49.5649401 26.1147329,52.6294563 26.1147329,52.6294563 C29.7026593,52.8494455 29.2619679,54.4859934 29.2619679,54.4859934 C17.9009737,59.017698 13.9040886,63.4235418 13.9040886,63.4235418 C18.341665,62.6052678 18.9395933,64.6193984 18.9395933,64.6193984 C6.03653597,73.4941946 1.69380092,78.0262558 2.63793576,89.9848218 C3.58207061,101.943744 12.1210001,106.496485 12.1210001,106.496485 C12.1210001,106.496485 14.3030641,104.356137 16.5478801,105.300629" id="Fill-13" fill="#CEA431"></path>
            <path d="M192.751681,80.6379581 C195.143394,77.9314145 199.675455,70.787651 196.21339,65.815255 C196.307874,63.2976809 197.881314,61.3149264 193.947537,59.5528742 C190.013761,57.7904654 191.021005,55.7132261 190.234107,53.7622042 C189.447565,51.8108258 186.614804,51.2128975 184.978256,51.0556606 C183.342065,50.8984236 182.429663,49.2618757 181.800002,47.8770495 C181.170697,46.4925798 179.219319,47.5625756 176.985199,49.5135974 C174.750367,51.4646193 174.813475,57.6646045 177.016575,59.6156263 C178.747252,57.8532175 179.450005,56.5525363 179.544489,55.8914993 C179.638974,55.2308188 180.572769,54.8111637 181.191377,55.6294377 C181.810342,56.4477116 181.117929,57.5490834 179.985181,58.9442495 C178.852076,60.3394155 177.289333,62.0073395 178.138983,63.9273418 C178.988633,65.8469876 179.638974,66.6756014 180.436212,66.1931942 C181.23345,65.7107869 182.901374,64.1262947 183.373441,63.329057 C183.845508,62.5318193 184.233787,62.238025 184.61137,62.7418251 C184.988953,63.2452686 185.083437,64.1580274 183.793096,65.5007811 C182.502755,66.8435348 181.53794,68.1545559 182.576203,69.5814545 C183.614823,71.0079966 184.412061,71.2493785 185.188262,71.5745489 C185.964464,71.8997192 186.688253,70.5780017 187.317914,69.81214 C187.947218,69.0462784 189.069626,68.1755921 190.129282,69.2876603 C191.188581,70.3997285 190.569973,71.0921416 189.468245,71.5221365 C188.366873,71.9521315 187.506527,72.4869511 186.866883,73.1793642 C186.226882,73.8717773 185.293087,73.6935041 183.897921,73.5362671 C182.502755,73.3786736 179.817247,72.4662714 178.957257,70.0324857 C178.096911,67.5987 177.761401,67.3469783 176.523472,66.3400913 C175.285543,65.3328477 177.047951,62.1438968 175.579337,61.3676953 C174.110722,60.5914938 171.6559,59.1856314 172.621071,54.6118543 C173.586243,50.6884178 174.488305,49.157051 174.488305,49.157051 C174.488305,49.157051 167.732464,48.4122256 167.134536,57.3183979 C166.91419,61.661133 168.236264,62.1963091 168.236264,62.1963091 C168.236264,62.1963091 164.900059,69.5290422 167.134536,73.8090251 C169.369012,78.089008 170.879699,79.0017667 170.879699,79.0017667 C170.879699,79.0017667 165.592472,79.6310711 163.704203,71.0079966 C160.557324,73.9662621 157.063883,76.3265992 158.606302,83.911054 C155.144237,82.6838213 155.396315,73.3369577 161.029392,69.4973096 C158.720041,68.8558826 157.105955,67.829029 155.979269,66.7533285 C151.937815,70.3109484 149.444843,74.5246137 147.924529,78.6812315 C146.13324,83.5812486 145.702889,88.3931987 145.703601,91.8520552 C145.703601,92.5277107 145.720359,93.149171 145.745674,93.7121578 C150.399674,96.0942442 157.729555,99.3758972 163.200759,99.6147833 C163.200759,99.6147833 159.644566,96.2946233 160.164054,95.4763493 C160.683185,94.6580754 161.973527,95.1461874 163.59403,95.6649624 C165.21489,96.1844505 173.795892,97.2651426 179.166907,94.9572178 C179.166907,94.9572178 175.327615,93.5727481 176.334502,91.012745 C178.202092,91.09689 186.845846,89.3555174 189.23756,84.2362243 C189.23756,84.2362243 183.321029,84.7396678 180.740346,81.7182937 C180.740346,81.7182937 190.359968,83.3445018 192.751681,80.6379581" id="Fill-14" fill="#CEA431"></path>
            <path d="M52.9698071,118.622985 C57.3546147,119.294361 58.9284104,120.531934 58.9284104,120.531934 L61.4877004,119.839877 C61.4877004,119.839877 59.6208235,117.825747 57.0401408,116.860219 C54.459458,115.895405 49.8436084,114.657476 49.5712069,116.168163 C49.2980924,117.67885 49.3822374,118.203329 52.9698071,118.622985" id="Fill-15" fill="#15293F"></path>
            <path d="M39.9269836,76.4018305 L39.9686995,76.4927498 C40.8240543,76.2396018 41.5795761,75.9868105 42.1882008,75.7700302 L42.1878443,75.7696737 C42.1671646,75.7119132 40.5644885,71.322114 40.5634189,64.6646798 C40.5623493,59.0130629 41.7350303,51.7174107 46.0185787,44.1040756 C45.3964052,44.2855577 44.7927722,44.4656136 44.2076796,44.6435303 C39.2174563,52.2408208 37.9313934,59.132506 37.9288968,64.6885684 C37.9274714,71.4133899 39.8267941,76.1608051 39.9269836,76.4018305" id="Fill-16" fill="#15293F"></path>
            <path d="M146.505474,78.1628131 C148.09068,73.8204346 150.722705,69.3714487 154.972738,65.626642 C154.325963,64.7741395 153.943745,63.9654923 153.724113,63.3686337 C149.189199,68.3463778 146.404215,73.4253812 144.707054,78.0226904 C142.597726,83.7391987 142.170583,88.7119512 142.169514,91.7857376 C142.674027,92.0724009 143.369649,92.4592538 144.206463,92.9067195 C144.198263,92.5701397 144.192915,92.2196546 144.192915,91.8520552 C144.193628,88.2698337 144.633249,83.2895937 146.505474,78.1628131" id="Fill-17" fill="#15293F"></path>
            <path d="M73.0062882,147.77814 C73.0062882,147.77814 72.8173186,139.365071 71.075946,138.966095 C70.3835329,142.8061 70.0480228,146.708144 68.9569908,146.771253 C68.2028952,146.814751 67.8659588,144.987807 66.5859573,141.316093 C65.3063123,137.644378 64.1525282,134.350602 64.1525282,134.350602 L65.0545905,133.364752 C65.0545905,133.364752 68.1597531,139.994375 68.4952632,141.441954 C69.019743,142.11333 69.5021502,140.980226 69.8800894,138.001281 C70.257672,135.021979 70.4256054,132.945097 70.4256054,132.945097 C70.4256054,132.945097 71.6424982,133.490613 72.6073128,136.595418 C73.5724838,139.700581 73.9083505,147.77814 73.9083505,147.77814 L73.0062882,147.77814 Z M96.7348071,159.925675 C94.6579244,152.750535 87.1362217,153.19087 85.3741694,153.128118 C83.6117606,153.065366 78.5766125,152.404329 78.450395,147.274696 C78.3248907,141.892985 82.9193475,143.277811 82.9193475,143.277811 L82.4786562,131.885441 L85.908989,133.490613 C85.908989,133.490613 86.1607108,131.696828 84.9334781,126.409601 C82.6676258,118.416188 69.9221619,120.965138 66.3342355,121.626175 C65.1861562,121.837607 63.4512014,122.165273 61.6228315,122.512906 C61.1981848,123.50874 60.600613,124.42756 59.8354645,125.19663 C58.7237528,126.31369 57.6259465,127.445012 56.5976667,128.639799 C56.4554047,128.80488 56.3174212,128.974239 56.1783681,129.142529 C55.8410752,129.64312 55.489164,130.131589 55.1764728,130.650364 C54.8659209,131.165217 54.6277479,131.744605 54.3382322,132.277285 C54.2640706,132.508684 54.1881262,132.739369 54.1235913,132.973977 C54.0658308,133.18327 54.0173404,133.394702 53.9692067,133.605777 C53.9738418,134.217967 53.8608166,134.880787 53.867591,135.478002 C53.8743653,136.058103 53.8212399,136.62002 53.718198,137.161258 C56.7235276,139.669205 57.6452,144.388096 54.4697978,150.925375 C51.2598107,157.533962 53.8508333,163.471172 56.977032,164.898071 C62.0752889,167.331857 73.2159375,170.205977 74.3907578,169.891503 C75.5655782,169.576673 80.3700408,164.625313 79.38419,161.897733 C78.3979827,159.17051 75.7545478,158.624994 75.7545478,158.624994 L75.6497231,157.554998 C75.6497231,157.554998 80.5172945,157.576034 81.4193568,161.100852 C82.3214192,164.625313 80.1393553,166.97531 80.1393553,166.97531 C80.1393553,166.97531 82.027625,170.751493 86.4124325,170.604953 C90.7975966,170.458055 90.5879473,167.227032 89.2451936,162.296709 C87.7345065,157.28224 84.0417555,158.184303 84.0417555,158.184303 L83.2655541,157.344992 C88.0176044,154.764666 90.220348,158.383612 91.0386219,162.254636 C91.8568959,166.125304 94.4062026,168.202543 96.042394,167.667723 C97.6789419,167.132547 97.6789419,164.11153 96.7348071,159.925675 L96.7348071,159.925675 Z" id="Fill-18" fill="#CEA431"></path>
            <path d="M192.751681,80.6379581 C190.359968,83.3445018 180.740346,81.7182937 180.740346,81.7182937 C183.321029,84.7396678 189.23756,84.2362243 189.23756,84.2362243 C186.845846,89.3555174 178.202092,91.09689 176.334502,91.012745 C175.327615,93.5727481 179.166907,94.9572178 179.166907,94.9572178 C173.795892,97.2651426 165.21489,96.1844505 163.59403,95.6649624 C161.973527,95.1461874 160.683185,94.6580754 160.164054,95.4763493 C159.644566,96.2946233 163.200759,99.6147833 163.200759,99.6147833 C157.729555,99.3758972 150.399674,96.0942442 145.745674,93.7121578 C145.720359,93.149171 145.703601,92.5277107 145.703601,91.8520552 C145.702889,88.3931987 146.13324,83.5812486 147.924529,78.6812315 C149.444843,74.5246137 151.937815,70.3109484 155.979269,66.7533285 C157.105955,67.829029 158.720041,68.8558826 161.029392,69.4973096 C155.396315,73.3369577 155.144237,82.6838213 158.606302,83.911054 C157.063883,76.3265992 160.557324,73.9662621 163.704203,71.0079966 C165.592472,79.6310711 170.879699,79.0017667 170.879699,79.0017667 C170.879699,79.0017667 169.369012,78.089008 167.134536,73.8090251 C164.900059,69.5290422 168.236264,62.1963091 168.236264,62.1963091 C168.236264,62.1963091 166.91419,61.661133 167.134536,57.3183979 C167.732464,48.4122256 174.488305,49.157051 174.488305,49.157051 C174.488305,49.157051 173.586243,50.6884178 172.621071,54.6118543 C171.6559,59.1856314 174.110722,60.5914938 175.579337,61.3676953 C177.047951,62.1438968 175.285543,65.3328477 176.523472,66.3400913 C177.761401,67.3469783 178.096911,67.5987 178.957257,70.0324857 C179.817247,72.4662714 182.502755,73.3786736 183.897921,73.5362671 C185.293087,73.6935041 186.226882,73.8717773 186.866883,73.1793642 C187.506527,72.4873076 188.366873,71.9521315 189.468245,71.5221365 C190.569973,71.0921416 191.188581,70.3997285 190.129282,69.2876603 C189.069626,68.1755921 187.947218,69.0462784 187.317914,69.81214 C186.688253,70.5780017 185.964464,71.8997192 185.188262,71.5745489 C184.412061,71.2493785 183.614823,71.0079966 182.576203,69.5814545 C181.53794,68.1545559 182.502755,66.8435348 183.793096,65.5007811 C185.083437,64.1580274 184.988953,63.2452686 184.61137,62.7418251 C184.233787,62.238025 183.845508,62.5318193 183.373441,63.329057 C182.901374,64.1262947 181.23345,65.7107869 180.436212,66.1931942 C179.638974,66.6756014 178.988633,65.8469876 178.138983,63.9273418 C177.289333,62.0073395 178.852076,60.3394155 179.985181,58.9442495 C181.117929,57.5490834 181.810342,56.4477116 181.191377,55.6294377 C180.572769,54.8111637 179.638974,55.2308188 179.544489,55.8914993 C179.450005,56.5525363 178.747252,57.8532175 177.016575,59.6156263 C174.813475,57.6646045 174.750367,51.4646193 176.985199,49.5135974 C179.219319,47.5625756 181.170697,46.4925798 181.800002,47.8770495 C182.429663,49.2618757 183.342065,50.8984236 184.978613,51.0556606 C186.614804,51.2128975 189.447565,51.8108258 190.234107,53.7622042 C191.021005,55.7132261 190.013761,57.7904654 193.947537,59.5528742 C197.881314,61.3149264 196.307874,63.2976809 196.21339,65.815255 C199.675455,70.787651 195.143394,77.9314145 192.751681,80.6379581 Z M142.169514,91.7857376 C142.170583,88.7119512 142.597726,83.7391987 144.707054,78.0226904 C146.404215,73.4253812 149.189199,68.3463778 153.724113,63.3686337 C153.943745,63.9654923 154.325963,64.7741395 154.972738,65.626642 C150.722705,69.3714487 148.09068,73.8204346 146.505474,78.1628131 C144.633249,83.2895937 144.193628,88.2698337 144.192915,91.8520552 C144.192915,92.2196546 144.198263,92.5701397 144.206463,92.9067195 C143.369649,92.4592538 142.674027,92.0724009 142.169514,91.7857376 Z M130.723305,90.4882653 C130.723305,90.4882653 134.562597,83.4300729 130.062268,79.8942024 C130.062268,79.8942024 132.926049,93.0061959 118.544037,103.737529 C104.476855,114.500239 88.0700167,126.469858 88.0700167,126.469858 C88.0700167,126.469858 88.7100175,123.955492 83.6431367,119.589938 C78.8910864,115.476106 73.289386,117.67885 70.7404359,118.371263 C68.1911292,119.063676 64.4880383,119.589938 64.4880383,119.589938 C64.4880383,119.589938 59.8725453,113.377831 50.221191,113.419903 C50.221191,113.419903 52.2773941,101.377192 55.1729073,98.1878846 C51.1446462,92.8172263 46.067069,86.0613853 48.5008547,74.8579846 C50.0536142,75.3193556 50.3891244,75.6131498 50.3891244,75.6131498 C50.3891244,75.6131498 51.6060172,85.4741534 60.4597772,86.4600042 L60.8583961,85.4531172 C60.8583961,85.4531172 52.8018738,81.2989951 52.2670542,74.5014382 C51.9208477,73.3997098 49.6350287,72.5186837 47.8669152,73.1479881 C46.0988016,73.777649 43.8012167,75.1517788 43.8012167,75.1517788 C43.8012167,75.1517788 43.7316901,75.1813722 43.6008376,75.2348541 C43.5113445,74.9856282 42.0741054,70.8389937 42.0741054,64.6646798 C42.0741054,59.0184111 43.2710322,51.688887 47.7874053,44.0441758 L47.7906143,44.0388276 L47.7948928,44.0316966 C47.8950824,43.8541365 47.9906368,43.6858466 48.0883305,43.5129216 C48.2138348,43.4779801 48.3322082,43.4433951 48.4591387,43.4084536 C48.4591387,43.4084536 57.4815452,40.8352582 70.5022629,40.2162937 C70.5386306,40.517932 70.5664412,40.7753584 70.5807031,40.9589798 C70.5903298,41.0827014 71.7287825,45.1983164 71.7701418,45.3152637 L72.6301317,48.0471221 C72.6793351,48.184749 73.6102778,49.7007843 73.7118935,49.8059655 L76.7592955,52.9542701 L79.7631988,48.3508996 C79.7631988,48.3508996 81.1797577,56.450564 86.3143822,62.7093794 L87.4107624,54.5334141 C87.4107624,54.5334141 88.9143185,64.212579 101.350657,67.9716476 C113.786638,71.7307162 115.854251,71.3549163 121.148252,68.0343997 C126.035076,65.2779396 127.444504,65.5285917 129.731393,63.3044553 C132.017925,61.0803189 132.362705,60.8296668 134.774742,59.3261107 C137.186421,57.822198 139.191638,54.0007338 139.191638,54.0007338 C139.191638,54.0007338 139.598814,57.399334 140.19389,57.5558578 C140.788966,57.7127382 143.937271,54.0164218 143.937271,54.0164218 L144.495979,53.4024489 C145.12671,53.7233407 150.102671,56.3799678 153.127254,61.7926986 C148.14951,67.0970393 145.109595,72.5650347 143.289783,77.4999933 C141.271017,82.9722674 140.73905,87.7824347 140.668453,91.0163105 C139.154201,90.4501148 134.837137,89.1169879 130.723305,90.4882653 Z M85.908989,133.414312 L82.4786562,131.80914 L82.9193475,143.20151 C82.9193475,143.20151 78.3245342,141.81704 78.450395,147.198395 C78.5766125,152.328028 83.6117606,152.989065 85.3741694,153.051817 C87.1362217,153.114926 94.6579244,152.674235 96.7348071,159.849374 C97.6789419,164.035229 97.6789419,167.056246 96.042394,167.591423 C94.4062026,168.126242 91.8568959,166.049003 91.0386219,162.178335 C90.220348,158.307668 88.0176044,154.688365 83.2655541,157.269048 L84.0417555,158.108002 C84.0417555,158.108002 87.7345065,157.205939 89.2451936,162.220408 C90.5879473,167.150731 90.7975966,170.381755 86.4124325,170.528652 C82.027625,170.675549 80.1393553,166.899009 80.1393553,166.899009 C80.1393553,166.899009 82.3214192,164.549012 81.4193568,161.024551 C80.5172945,157.499733 75.6497231,157.478697 75.6497231,157.478697 L75.7545478,158.548693 C75.7545478,158.548693 78.3979827,159.094209 79.38419,161.821789 C80.3700408,164.549012 75.5655782,169.500372 74.3907578,169.815202 C73.2159375,170.129676 62.0752889,167.255556 56.977032,164.82177 C53.8508333,163.395228 51.2598107,157.457661 54.4697978,150.849074 C57.679785,144.24013 56.7042741,139.488079 53.6201478,137.001881 C53.6201478,137.001881 56.2322066,146.411497 51.9208477,153.08355 C48.6163757,158.622141 51.4174042,162.556274 51.4174042,162.556274 C51.4174042,162.556274 46.1929299,172.81554 37.8533098,169.699681 C37.8533098,169.699681 33.9983302,173.822427 32.6609247,174.640701 C31.3231626,175.458975 27.9402505,175.097081 27.9402505,175.097081 L27.0588678,175.962419 C27.0588678,175.962419 27.8771417,176.749317 29.3407647,176.765005 C30.8040311,176.780693 33.7779845,177.52017 31.7481659,181.186536 C30.111618,183.877392 29.136107,183.609982 29.136107,183.609982 C29.136107,183.609982 31.3705833,179.424484 26.1147329,177.457418 C26.1147329,177.457418 25.5642253,178.086722 26.2409503,179.015169 C26.9173189,179.943616 28.2076602,181.957746 27.2478374,183.924456 C26.2880145,185.891523 21.0795848,185.214798 21.0795848,185.214798 C21.0795848,185.214798 26.7600819,178.60621 21.2999305,177.347245 C21.2999305,177.347245 22.8263056,179.959304 20.2299347,182.807396 C19.0497662,184.066005 17.0723599,183.289804 15.6458178,180.077321 C14.2189191,176.864481 16.8206381,169.731414 21.1844094,167.171411 C20.9747601,163.4373 20.2192383,154.373535 28.0661113,154.121813 C32.2202333,153.870091 34.3391885,151.625275 36.9409076,150.408382 C39.54227,149.191489 41.5984731,147.282183 42.9412268,144.764609 C44.2839805,142.247035 45.33294,142.121174 46.1301777,143.107025 C46.9274154,144.093233 49.0884431,146.086327 51.9418839,144.638749 C52.5291158,144.408063 51.6480897,143.589789 49.0674069,142.666334 C47.9763749,142.121174 42.0391644,139.183945 42.0808803,130.078464 C42.2488137,121.266419 46.5708691,119.630228 46.5708691,119.630228 C46.5708691,119.630228 54.8160044,119.220913 57.0504806,121.014698 C57.0504806,121.014698 53.368426,122.273663 53.4311782,124.004696 C53.4311782,124.004696 62.7466658,122.210554 66.3342355,121.549874 C69.9221619,120.888837 82.6676258,118.339887 84.9334781,126.3333 C86.1607108,131.620527 85.908989,133.414312 85.908989,133.414312 Z M49.5712069,115.811616 C49.8436084,114.300929 54.459458,115.538858 57.0401408,116.503673 C59.6208235,117.4692 61.4877004,119.483331 61.4877004,119.483331 L58.9284104,120.175388 C58.9284104,120.175388 57.3546147,118.937815 52.9698071,118.266438 C49.3822374,117.846783 49.2980924,117.322303 49.5712069,115.811616 Z M39.9686995,76.4927498 L39.9269836,76.4018305 C39.8267941,76.1608051 37.9274714,71.4133899 37.9288968,64.6885684 C37.9313934,59.132506 39.2174563,52.2408208 44.2076796,44.6435303 C44.7927722,44.4656136 45.3964052,44.2855577 46.0185787,44.1040756 C41.7350303,51.7174107 40.5623493,59.0130629 40.5634189,64.6646798 C40.5644885,71.322114 42.1671646,75.7119132 42.1878443,75.7696737 L42.1882008,75.7700302 C41.5795761,75.9868105 40.8240543,76.2396018 39.9686995,76.4927498 Z M29.8912723,77.7428014 C29.8912723,77.7428014 27.6571526,82.6838213 20.1985586,85.6103541 L20.9223478,86.397252 L23.7861284,86.6175977 C23.7861284,86.6175977 23.298373,88.88345 24.3369926,89.9374011 C25.3752557,90.9920654 26.9486949,93.4308427 25.4540525,94.9885939 C23.95941,96.546345 20.4028597,94.5796351 19.6320064,93.9025535 C19.2701118,93.6037677 19.2544238,97.7735777 19.2544238,97.7735777 C19.2544238,97.7735777 25.9050836,96.4679048 25.5485373,100.789604 C25.254743,104.734076 23.8278444,106.810959 22.2337255,107.356832 C20.63925,107.901991 18.7926962,106.244763 16.5478801,105.300629 C14.3030641,104.356137 12.1210001,106.496485 12.1210001,106.496485 C12.1210001,106.496485 3.58207061,101.943744 2.63793576,89.9848218 C1.69380092,78.0262558 6.03653597,73.4941946 18.9395933,64.6193984 C18.9395933,64.6193984 18.341665,62.6052678 13.9040886,63.4235418 C13.9040886,63.4235418 17.9009737,59.017698 29.2619679,54.4859934 C29.2619679,54.4859934 29.7026593,52.8494455 26.1147329,52.6294563 C26.1147329,52.6294563 28.8469479,49.5649401 41.9863956,45.337013 C37.601588,52.6184034 36.4164278,59.282612 36.4182106,64.6885684 C36.4199933,71.3930667 38.2148478,76.1793455 38.4990153,76.898143 C35.8905219,77.5655979 32.7104846,78.0915038 29.8912723,77.7428014 Z M198.80263,65.2151874 C198.831153,65.0301398 198.864669,64.839031 198.89961,64.643287 C199.222641,62.8202653 199.824135,59.4266567 194.976887,57.2552892 C193.339982,56.5218733 193.283291,56.158196 193.096461,54.9541388 C193.003046,54.3547843 192.887168,53.6092458 192.569129,52.8205652 C191.268091,49.5941769 187.405981,48.7598583 185.219638,48.549496 C185.216073,48.5491394 184.834568,48.4689165 184.091882,46.8355775 C183.493597,45.5184951 182.281696,44.7326669 180.850162,44.7326669 C179.543776,44.7323103 178.114738,45.3780158 176.307405,46.8024187 L174.763915,46.6544519 C174.68084,46.6451817 174.450868,46.6237889 174.110366,46.6237889 C170.059642,46.6237889 165.144294,49.3802491 164.622666,57.1497515 L164.62124,57.1700746 L164.62017,57.1907543 C164.490388,59.755036 164.844795,61.4454224 165.372127,62.5599864 C164.95782,63.6759766 164.429775,65.3246472 164.116727,67.1647831 L163.642877,67.6104661 L161.703264,67.0717245 C160.070282,66.6178409 158.728954,65.8979738 157.717789,64.9324461 L157.313109,64.5459498 L156.978668,64.1052585 C156.495548,63.4681101 156.227068,62.8805216 156.086946,62.4997301 L156.038812,62.368521 L154.33345,58.9613637 C151.454338,54.7170355 147.679582,52.2985813 146.175669,51.4489312 C146.21275,51.1865131 146.288694,50.9340782 146.352873,50.7679276 C147.129074,49.1153351 147.787615,47.2081684 148.047181,45.1459041 L148.05146,45.1127453 L148.054669,45.0795865 C148.237577,43.2333893 148.131683,41.4346127 147.826122,39.7110675 L147.551225,38.6378628 L147.180417,37.0376826 C146.381753,34.4088661 145.178052,32.0153702 143.911956,29.9837688 L145.324949,25.7947053 C145.409094,25.5451228 147.361186,19.6221741 145.093907,14.3816553 C143.700167,11.1599021 140.949055,9.31192211 137.546177,9.31156557 C135.838676,9.31156557 134.125114,9.80502577 132.844399,10.6653722 C132.324555,11.0147877 131.730192,11.2069662 131.170771,11.2069662 C130.596731,11.2069662 130.118959,11.0130049 129.75029,10.6307872 C128.019614,8.83450649 126.135979,7.92388701 124.152155,7.92388701 C123.105691,7.92388701 122.067428,8.18523551 121.066246,8.7000885 C120.400574,9.04308613 119.945977,9.21672423 119.715292,9.21672423 C119.616885,9.21672423 119.219336,9.14434531 118.246321,8.2112634 C116.657193,6.68738412 114.249792,5.81348892 111.641655,5.81313237 C109.193608,5.81313237 106.89317,6.60502191 105.330428,7.98521299 L105.294773,8.01658907 L105.260544,8.04903479 C104.351708,8.91544252 103.903885,8.94004423 103.855752,8.94004423 C103.844699,8.94004423 102.737622,8.89226701 100.841508,4.74848484 L100.822255,4.70676892 L100.801575,4.66540954 C99.3108548,1.70072629 96.5244447,0 93.1568641,0 C89.3899514,0 85.3670385,2.09542314 83.1457545,5.21484753 C80.0331045,9.58539319 77.2006999,17.5349515 77.0816134,17.8711748 L76.5817354,19.2823854 L74.9779897,21.7571739 C71.0670324,26.0820816 70.2241567,31.1336309 70.0480228,36.0981829 C70.0380395,36.4265621 70.1228975,37.1988416 70.2280787,38.0488482 C70.0255603,37.9454497 69.8241116,37.8413382 69.6283677,37.7279564 C67.5892788,37.8292156 60.0761333,38.4945312 44.053295,42.8419013 C22.7792414,49.3877365 18.4361498,54.7166789 18.4361498,54.7166789 L24.8771604,54.590818 C14.2189191,57.4863313 6.87584617,66.3400913 6.87584617,66.3400913 L12.2693234,66.2851831 C3.1132121,73.1658154 -0.77777867,78.707616 0.127849165,90.182705 C1.16860808,103.364938 10.5379342,108.505624 10.936553,108.718126 L12.6034074,109.606639 L13.876278,108.30168 C14.1975263,108.005746 14.8771038,107.577534 15.3495277,107.577534 C15.4315334,107.577534 15.5,107.591083 15.5720127,107.621389 C16.1489047,107.864197 16.7436241,108.190794 17.31909,108.507407 C18.6375985,109.232266 20.0010319,109.981726 21.5684099,109.981726 C22.0789843,109.981726 22.5767231,109.900077 23.048434,109.738562 C24.3929704,109.278617 27.5730077,107.504085 28.0593369,100.976791 C28.2144346,99.0963648 27.5209519,97.8391823 26.8734636,97.0964961 C27.0242828,96.9745573 27.1562049,96.8508357 27.2706563,96.7317492 C29.7072944,94.1924258 28.4508249,90.5941596 26.2295409,88.272686 C26.1614405,88.0099113 26.1878249,87.4233925 26.2473682,87.1474256 L26.7315582,84.8972613 C28.9831486,83.2464515 30.4121866,81.55143 31.2404439,80.363774 C31.4222825,80.3687656 31.6055474,80.3712614 31.7902384,80.3712614 C33.8204135,80.3712614 36.0983884,80.0667708 38.5642633,79.4727645 L41.8558996,78.542535 C41.9329136,78.5172202 42.0077883,78.4904792 42.0844458,78.4648079 L45.4160153,77.1249065 C45.467358,77.0956697 45.5151352,77.0682157 45.5725392,77.0357699 C44.3335404,86.8008625 48.4598518,93.3313662 52.0880679,98.2620463 C49.5847557,102.773428 48.0551717,111.147989 47.7396281,112.996326 L47.5260568,114.247804 C47.2486637,114.699191 47.1359951,115.128473 47.0932095,115.364507 C47.0176217,115.783806 46.912797,116.407762 46.9915938,117.095183 C46.662858,117.105167 46.462479,117.114793 46.4457213,117.115506 L46.0499548,117.135116 L45.6795031,117.275596 C45.0737308,117.504855 39.7583372,119.810284 39.5636628,130.03033 L39.5636628,130.048514 L39.5633063,130.066698 C39.5440528,134.280363 40.721369,137.970261 42.9059287,140.799457 C41.7421613,141.662656 41.0265727,143.004696 40.7195862,143.579806 C39.6438858,145.597145 38.0137557,147.127086 35.8741208,148.127555 C34.9895292,148.541505 34.1912218,149.032826 33.4189423,149.508103 C31.7175029,150.554923 30.2474622,151.459838 27.9459552,151.606735 C25.2326372,151.702289 23.0398768,152.644998 21.4279306,154.409189 C18.4785789,157.636647 18.4393588,162.649333 18.5940999,165.914585 C14.1657937,169.48504 11.4674506,176.872325 13.3446674,181.098826 C14.375443,183.419943 15.813038,184.987678 17.4249843,185.604146 C17.4249843,185.604146 19.2544238,185.78135 20.5604532,186.615312 C21.8664827,187.449274 23.0348852,187.84504 23.0348852,187.84504 C25.6975736,187.84504 27.613654,187.258521 28.7538893,186.099033 C28.9032823,186.122921 29.0576668,186.134687 29.2149038,186.134687 C30.8543041,186.134687 32.4302392,184.90995 33.8992103,182.494705 L33.9259513,182.45085 L33.9509095,182.405925 C35.4402038,179.715426 34.9938077,177.84641 34.3566593,176.752169 C34.3259963,176.699757 34.2946202,176.648057 34.2625311,176.597428 C35.4434127,175.762753 37.3423788,173.870204 38.6209542,172.546348 C39.4096348,172.719273 40.1997416,172.806627 40.9845002,172.806627 C47.3481402,172.806627 51.5261508,167.205996 53.0364813,164.782193 C53.8590338,165.80976 54.8384668,166.608424 55.9106018,167.102597 C60.6786967,169.373085 71.4617292,172.356308 74.1368968,172.356308 C74.4709808,172.356308 74.7672708,172.320654 75.0421681,172.247205 C76.1242864,171.957333 77.5265833,170.794635 78.7670082,169.389843 C80.1283024,171.123015 82.6105783,173.050504 86.1642762,173.050504 C86.2740925,173.050504 86.3846219,173.048365 86.496934,173.0448 C88.7731262,172.968499 90.4595906,172.208342 91.5099763,170.785365 C91.8975422,170.259459 92.1681609,169.687559 92.3450079,169.080004 C93.3201623,169.79167 94.4008544,170.192072 95.504722,170.192072 C95.9593187,170.192072 96.4032189,170.122189 96.8250133,169.984562 C101.273643,168.529853 99.7604598,161.821076 99.1910552,159.295658 L99.1742975,159.221853 L99.1532613,159.149474 C98.1142851,155.559408 95.7614354,152.955193 92.349643,151.619214 C89.7283139,150.592717 87.1130462,150.559201 85.8562201,150.543157 C85.7032617,150.541018 85.5713396,150.539591 85.4640191,150.536026 C83.4488189,150.464003 81.0332171,149.815802 80.967256,147.136713 C80.9455067,146.195074 81.1273453,145.753313 81.2268218,145.651697 C81.2614068,145.616042 81.4190003,145.559351 81.693541,145.559351 C81.9413408,145.559351 82.1492073,145.603563 82.2105333,145.617825 L85.6515625,146.774461 L85.4351388,143.104173 L85.1541803,135.84061 L87.9284678,137.138795 L88.4023179,133.764084 C88.4554433,133.384005 88.5431537,132.164973 88.1324123,129.540435 L89.5539628,128.503598 C89.7183307,128.383799 106.136222,116.400274 120.063281,105.745242 C125.536268,101.657794 128.713453,97.2394712 130.528274,93.2072881 L131.519473,92.8767696 C132.455407,92.5644349 133.499375,92.4064849 134.621783,92.4064849 C136.946466,92.4064849 139.008373,93.0832099 139.787071,93.3741518 L140.028096,93.464358 C140.028096,93.464358 145.010832,95.0830786 146.311513,95.9220323 C147.612551,96.7613425 154.640793,100.034438 157.242512,100.915465 C159.843875,101.796847 163.641451,101.586841 164.50144,101.14615 C165.361787,100.705459 165.907303,99.6147833 165.907303,99.6147833 L164.50144,97.9571991 C164.50144,97.9571991 178.474494,100.223051 182.943446,94.8944656 C179.880356,93.2579177 179.166907,92.5861843 179.166907,92.5861843 C179.166907,92.5861843 188.239586,90.7210901 191.518387,85.3019415 L192.162666,83.9231766 C193.20913,83.5309756 194.030613,82.9929471 194.638168,82.3051691 C197.836389,78.6862232 202.116015,71.1919746 198.80263,65.2151874 L198.80263,65.2151874 Z" id="Fill-19" fill="#1A1919"></path>
            <path d="M88.7460286,8.29612144 C85.3738129,7.92139118 84.7345252,16.1429944 84.7345252,16.1429944 C89.6716231,14.533544 92.118601,8.67049515 88.7460286,8.29612144" id="Fill-20" fill="#CEA431"></path>
            <path d="M134.143655,40.5411075 C134.050596,41.6759946 133.538952,42.5848314 133.063675,43.4384034 C132.58626,44.2934017 132.149134,45.0913525 132.149847,46.0062506 C132.150204,46.0839777 132.153413,46.1627744 132.15983,46.2426408 C132.227218,47.0758897 132.411552,47.9030774 132.411909,48.780538 C132.412265,49.4041377 132.317067,50.0537652 132.017212,50.7397605 C131.717713,51.4257557 131.215339,52.1466925 130.409188,52.9218244 C129.04718,54.2317758 127.991447,55.0407796 127.206331,55.5545629 C126.421929,56.0683463 125.903154,56.2879789 125.633962,56.412057 C125.579767,56.4370153 125.521293,56.450564 125.46282,56.450564 C125.369048,56.450564 125.280981,56.4170487 125.200758,56.3653494 C125.120178,56.3136502 125.044591,56.2426975 124.966863,56.1564132 C124.811409,55.9834882 124.647398,55.7449587 124.454506,55.4522341 C124.06908,54.8678546 123.570984,54.0677645 122.852543,53.1817467 C122.121267,52.2803974 120.909722,51.761979 119.371581,51.7612659 C117.752147,51.7609093 115.77688,52.3399407 113.660777,53.6481094 L113.656499,53.6506052 L113.651151,53.6538141 C111.5978,54.6860159 109.904561,54.9263282 108.777161,54.9263282 C107.810564,54.9263282 107.259343,54.7501943 107.249004,54.7469854 L107.238307,54.7434199 L107.227967,54.7377151 C106.307721,54.2417591 105.650963,53.6848337 105.191731,52.8722644 C104.732856,52.0607648 104.470438,51.0061006 104.302148,49.5078927 C104.244387,49.1121262 104.019763,48.6899753 103.682827,48.2489274 C103.346247,47.8078795 102.900207,47.3486477 102.412808,46.8726583 C101.438367,45.9199663 100.299201,44.9020264 99.5358355,43.7860362 C99.0274004,43.0422804 98.6840462,42.2496778 98.6836897,41.402167 C98.6836897,41.2353033 98.697595,41.0663003 98.7254056,40.8962277 C98.7599906,40.4958261 98.8305868,40.1549677 98.9375507,39.8797139 C99.0448712,39.6051732 99.1882028,39.3933846 99.3775289,39.2625321 C99.5033898,39.1758913 99.6495738,39.1288272 99.804315,39.1291838 C100.1466,39.131323 100.507781,39.3416854 100.898199,39.7506441 C101.288261,40.1617421 101.710412,40.7817763 102.157521,41.6424793 C103.85076,44.9034526 104.524633,46.6291371 105.360734,49.2426222 C105.69767,50.2969298 106.116256,51.3929534 106.790128,52.215506 C107.465427,53.037702 108.381395,53.5935578 109.766934,53.5956971 C110.412996,53.5956971 111.161387,53.4726886 112.03136,53.1920865 C113.617635,52.6797294 115.01708,52.0764529 116.294229,51.5983242 C117.571022,51.1212651 118.726589,50.7672145 119.82903,50.766858 C120.846257,50.7654318 121.81642,51.0749141 122.759128,51.8575334 C124.229882,53.0776351 124.973994,53.9679315 125.586541,54.3095029 C125.790129,54.4239543 125.973037,54.4795756 126.170208,54.4795756 C126.365952,54.4795756 126.581662,54.4239543 126.84408,54.2959542 C127.106142,54.167954 127.412415,53.9690011 127.78251,53.6912515 C128.905631,52.8490889 129.813399,52.0497119 130.464809,51.3002514 C131.117289,50.5504343 131.510203,49.8516034 131.618236,49.2180205 C131.635707,49.1171178 131.643195,49.0190676 131.643195,48.922087 C131.644264,48.4892396 131.485601,48.0685149 131.317668,47.5818291 C131.150448,47.0958563 130.978236,46.5439225 130.978236,45.8568576 C130.978236,45.4785619 131.030291,45.060333 131.161857,44.5904048 C131.400387,43.7354066 131.786883,42.9474391 132.109557,42.2250761 C132.433301,41.5030696 132.689658,40.8473808 132.688232,40.2744108 C132.686449,39.8390676 132.549892,39.4511452 132.175518,39.0742756 C130.741845,37.640246 127.333618,34.6295683 126.234386,33.758882 C125.793338,33.4108927 125.526998,33.0564856 125.38331,32.601889 C125.239621,32.1472923 125.211811,31.6042722 125.211454,30.8508896 C125.211454,30.4126941 125.221438,29.9021197 125.226429,29.2963474 C125.220011,29.0606702 125.217872,28.8520906 125.217872,28.6666864 C125.218585,27.5496266 125.308435,27.2957656 125.317705,27.2675984 L125.347298,27.1888016 L125.43073,27.1859493 C125.43073,27.1859493 125.448558,27.1855927 125.484925,27.1830969 C125.52165,27.1806011 125.576201,27.1763225 125.647154,27.1691916 C125.789059,27.1552863 125.9955,27.1296149 126.252213,27.0846901 C126.764927,26.9944839 127.47802,26.8254809 128.273831,26.511007 C129.865811,25.8809895 131.785813,24.6715841 133.115731,22.3415535 L133.235531,22.1315476 L133.84986,23.4390032 L133.808857,23.4985465 C133.806718,23.5017554 133.397046,24.0954052 132.790561,24.7621469 C132.185145,25.4263928 131.390047,26.1655135 130.582469,26.465369 L130.582469,26.4657256 C130.526135,26.4910404 130.48014,26.5299039 130.438424,26.5873079 C130.396708,26.6447119 130.360697,26.7210128 130.331817,26.8137148 C130.2737,26.9987624 130.244107,27.2469187 130.227705,27.521816 C130.19312,28.0730367 130.207739,28.7290821 130.077599,29.2703195 C129.990602,29.6297182 129.833722,29.9516796 129.530301,30.1342314 C129.236863,30.3100088 128.988707,30.3973626 128.763726,30.3977192 C128.61255,30.3980757 128.473854,30.3556467 128.35655,30.2786327 C128.23889,30.2019752 128.142266,30.0946547 128.057764,29.9670111 C127.889474,29.7113674 127.76504,29.3712221 127.634187,28.9800907 C127.561452,28.7615278 127.497986,28.6089259 127.440939,28.5105191 C127.383178,28.4110427 127.336827,28.3707529 127.297251,28.3522125 C127.269797,28.3393769 127.239847,28.332959 127.195278,28.332959 C127.054086,28.3297501 126.796303,28.4192432 126.401963,28.4395664 C126.324236,28.4442015 126.263266,28.4741514 126.199801,28.5390428 C126.137049,28.6039343 126.078932,28.7069762 126.032581,28.8396114 C125.939165,29.1052385 125.893884,29.4842473 125.894241,29.8939191 C125.893171,30.6387445 126.042207,31.4901773 126.260057,31.9804286 C126.358821,32.2046963 126.575957,32.4478609 126.87403,32.6300561 C127.172459,32.8126079 127.549686,32.9363295 127.969341,32.9363295 C128.446043,32.9359729 128.97908,32.778736 129.523883,32.3590809 C130.068329,31.9394258 130.623115,31.2548567 131.127629,30.2019752 L131.362949,30.2857636 C130.686224,33.0832266 129.289988,34.5721643 128.861776,34.9761314 C129.12669,35.1365773 129.722479,35.507029 130.423806,36.0054808 C131.372933,36.6800666 132.512098,37.5849813 133.281169,38.523768 C133.7921,39.1498634 134.146863,39.7927166 134.148646,40.4152466 C134.148646,40.4573191 134.14722,40.4993915 134.143655,40.5411075 Z M121.034157,61.6030159 L117.436247,59.2219991 C117.16028,59.6815874 116.052491,61.419038 114.468712,62.3688776 C113.856878,62.7346942 113.170883,62.9824939 112.434258,62.982851 C111.240184,62.9835635 109.940216,62.3275182 108.648092,60.5594046 L108.467679,60.3126745 L108.769317,60.3608083 C108.769674,60.3608083 108.847045,60.3732874 108.988593,60.3921844 C109.129786,60.4114379 109.33373,60.4367527 109.583669,60.4620675 C110.083904,60.5126971 110.76776,60.5633266 111.500106,60.5633266 C112.276664,60.5636832 113.107774,60.5062792 113.829424,60.3337108 C114.552143,60.162212 115.158985,59.8741225 115.500557,59.4362835 C115.898819,58.9274918 116.036803,58.506054 116.037159,58.1630563 C116.036803,57.7330614 115.820735,57.4028994 115.56117,57.1565259 C115.30303,56.911935 115.00567,56.7607594 114.87981,56.7051381 L114.957537,56.4673217 C115.678117,56.6227759 116.258574,56.8623751 116.774854,57.0591887 C117.291846,57.2567154 117.742164,57.4086042 118.209596,57.4082476 C118.679881,57.4075345 119.178689,57.2584981 119.808707,56.8210157 L120.190568,56.5557452 L119.994468,56.9775396 C119.989119,56.984314 119.593353,57.848939 119.007904,58.325998 C118.894522,58.4176305 118.771513,58.4925052 118.640304,58.5449175 C120.484362,59.7931864 121.529756,60.7979342 121.534035,60.8014996 L121.616754,60.8817226 L121.034157,61.6030159 Z M106.548033,19.5016614 L106.594741,19.5989986 C106.594741,19.5989986 106.602585,19.6157563 106.619343,19.6489151 C106.6361,19.6824305 106.661772,19.7312773 106.695644,19.794386 C106.763387,19.9202469 106.865003,20.1003028 106.999421,20.317083 C107.268614,20.7499304 107.669372,21.3282486 108.194208,21.9047841 C109.244594,23.0599944 110.513542,24.27867 112.482035,24.2776004 L114.864121,24.09077 C114.886227,24.4972329 114.909046,25.1040749 114.897993,25.8549616 C114.89728,25.9048781 114.899776,26.0168337 114.889436,26.2521543 C114.848433,27.1891582 114.836667,28.021694 114.76928,28.740135 C114.701893,29.4582194 114.580667,30.0639917 114.306839,30.5453294 C114.124288,30.865508 113.871496,31.1275696 113.530995,31.3168958 C113.076754,31.5696872 112.474191,31.6948349 111.668396,31.6948349 C111.444842,31.6948349 111.205242,31.6852082 110.948529,31.6659547 L110.948886,31.6659547 L110.945677,31.6655981 C109.871759,31.5621997 109.056337,31.2102884 108.445573,30.7389341 C107.834096,30.2679363 107.427633,29.6796347 107.157728,29.1077343 C106.61863,27.963577 106.619699,26.8835979 106.618986,26.8732581 L106.618986,26.8251243 L106.650719,26.7894697 C106.73736,26.6907063 106.84575,26.6261714 106.964836,26.626528 C107.071087,26.6268845 107.163789,26.6750183 107.244012,26.7409794 C107.324948,26.8080101 107.399466,26.8960771 107.475054,27.0016148 C107.625517,27.2123337 107.780971,27.4947185 107.956392,27.8116882 C108.306164,28.4449146 108.736159,29.2154113 109.311625,29.7862421 C109.695625,30.1670337 110.140595,30.457619 110.671136,30.5720704 C111.022334,30.6473016 111.335382,30.6811736 111.613488,30.6811736 C112.434614,30.6793908 112.954816,30.3945103 113.314927,30.0069443 C113.674326,29.6186653 113.867218,29.1173611 113.984878,28.689862 C114.037647,28.4998227 114.064031,28.2876776 114.063675,28.0716105 C114.064031,27.7603455 114.140332,27.1513643 114.035151,26.8800325 C113.92997,26.6079876 113.774872,26.3858592 113.58519,26.2564328 C113.457903,26.1701486 113.316354,26.1216583 113.150916,26.1213017 C113.143429,26.1213017 113.003662,26.4129567 112.996175,26.4133132 C112.818971,27.0247903 112.678849,27.4865179 112.538726,27.8309417 C112.391472,28.1903405 112.242792,28.4317224 112.028508,28.5736278 C111.886246,28.6673995 111.720808,28.7069762 111.53897,28.7062631 C111.429867,28.7062631 111.313633,28.6930709 111.186345,28.6702519 C110.855114,28.6114217 110.601609,28.402129 110.444729,28.1126133 C110.286066,27.8227411 110.212617,27.4537156 110.212617,27.0422611 C110.212617,26.5627062 110.316729,26.023608 110.515325,25.4841533 C109.886377,24.889434 108.764326,24.3303692 107.959601,23.6162068 C107.13063,22.879582 106.326262,22.122634 105.782528,21.4184548 C105.421347,20.9485267 105.171408,20.5032003 105.117926,20.0839017 L105.104734,19.9787205 L106.548033,19.5016614 Z M117.332492,35.8321993 C119.274957,36.1869629 125.289181,37.7115553 126.688626,38.1083914 C128.087358,38.5052276 130.384942,40.656272 128.985498,43.3710162 C127.94153,45.4175925 128.045998,45.2507288 126.938922,44.7911405 C125.832202,44.3319087 125.080245,43.6009886 124.140745,43.9978247 C123.200889,44.3943043 123.472578,46.2736604 123.472578,46.2736604 C123.472578,46.2736604 125.351934,46.5870646 126.134909,48.111657 L124.850629,49.6465892 C124.850629,49.6465892 122.000041,47.0466529 115.766184,47.1718007 C115.453136,45.1355643 116.079588,44.7597644 116.079588,44.7597644 L118.585753,44.9790404 L118.460248,42.1598281 C118.460248,42.1598281 115.139732,41.6795601 114.659464,41.6374876 C114.179196,41.5961282 114.450528,39.7164157 114.534316,37.7115553 C114.617748,35.7070515 115.390384,35.4770791 117.332492,35.8321993 Z M95.3749392,49.5749234 C95.3660255,49.5635139 93.0880506,47.0844469 93.0859113,43.2975676 C93.0859113,42.8187258 93.1247749,42.3188478 93.2071371,41.8011424 C93.1957276,41.8139781 93.1864574,41.8228917 93.1746914,41.8367971 C92.9875045,42.0489422 92.7368524,42.370547 92.4854872,42.8048205 C91.9834699,43.6737241 91.4796698,44.9922326 91.4793133,46.7960008 L91.4793133,47.1714442 L91.2532629,46.8715887 C91.2436361,46.8583964 88.6647361,43.4298463 88.6643793,37.6117223 C88.664023,35.2274966 89.0979399,32.4435824 90.3176851,29.3334282 L90.5601367,29.3833447 C90.5601367,29.3833447 90.5565712,29.4942306 90.551223,29.6960359 C90.5455183,29.8978411 90.5380308,30.1898526 90.5305433,30.5517472 C90.5159249,31.2751798 90.50095,32.2770752 90.50095,33.3884303 C90.50095,35.6803105 90.5644152,38.442832 90.8186328,40.18777 C90.8799588,40.610634 90.9537639,40.9732417 91.0371958,41.2506348 C91.2140428,40.8948015 91.5570404,40.2291294 91.9977317,39.5024878 C92.6516378,38.4282136 93.505923,37.2234433 94.378392,36.6854148 L94.5930329,36.5542057 L94.5695009,36.8045013 C94.5695009,36.8045013 94.5573783,36.9317883 94.5391944,37.1635435 C94.5210105,37.3952987 94.4967654,37.7308088 94.4725202,38.1458288 C94.4236734,38.9762254 94.3751831,40.1243047 94.3751831,41.3946795 C94.3751831,42.7887759 94.4340132,44.330126 94.6144257,45.7577377 C94.7944816,47.1849929 95.0989722,48.4995795 95.5792402,49.4323048 L95.3749392,49.5749234 Z M138.759148,27.1549297 C136.033707,23.9285414 134.405003,19.6367925 136.127835,18.5407689 C141.296332,15.6274283 142.956768,24.9935455 142.956768,24.9935455 C142.956768,24.9935455 144.71062,19.7936729 142.800244,15.3767762 C140.889156,10.9598795 136.252983,11.3984316 134.248123,12.7454639 C132.243619,14.0924961 129.61195,14.0924961 127.95187,12.369664 C126.291433,10.6468318 124.349682,9.8321233 122.219317,10.9285035 C120.089309,12.0248836 118.805029,12.2131401 116.51814,10.0203798 C114.231608,7.82726294 109.407179,7.73349124 106.995143,9.86349938 C103.674983,13.0274921 101.106066,11.3356794 98.5688817,5.79138304 C95.7810455,0.246730103 88.1377605,2.53361866 85.1930438,6.66848716 C82.2483272,10.8033557 79.4501511,18.7076326 79.4501511,18.7076326 L82.0893075,17.6426286 C82.0893075,17.6426286 82.4155475,14.322112 84.2321513,10.6257956 C86.2790842,6.65814732 88.5342401,6.53264299 90.1422643,7.59764706 C91.7502885,8.66265113 92.3977768,10.3751435 90.3301643,13.8001281 C88.2629083,17.2251127 87.5947403,16.9327447 82.5406952,19.1461847 C74.4381785,23.4482735 72.809118,29.128414 72.5584659,36.1869629 C72.2660979,45.9606126 77.2991067,50.3461332 77.2991067,50.3461332 L80.3272552,45.3965562 C81.2877912,51.1815214 85.3809438,57.9059864 85.3809438,57.9059864 C85.2971554,53.0608775 87.0934361,47.2135166 87.0934361,47.2135166 C87.0934361,47.2135166 88.2211924,56.3603578 91.4368843,59.5350468 C97.6604015,65.2151874 104.259719,67.0945434 111.276552,68.4312359 C119.044984,69.7675717 119.295637,66.1340075 124.349682,64.5470195 C129.40337,62.9596749 129.194434,61.8529549 132.911787,58.5951906 C136.629139,55.3374262 140.179272,47.9258963 140.179272,47.9258963 L140.638504,54.982306 C140.638504,54.982306 144.85716,50.471281 145.567044,44.8328564 C146.318644,37.2316439 141.484588,30.3816746 138.759148,27.1549297 L138.759148,27.1549297 Z" id="Fill-21" fill="#CEA431"></path>
        </g>
    </g>
</svg>