<?xml version="1.0" encoding="UTF-8"?>
<!DOCTYPE svg PUBLIC "-//W3C//DTD SVG 1.1//EN" "http://www.w3.org/Graphics/SVG/1.1/DTD/svg11.dtd">
<svg xmlns="http://www.w3.org/2000/svg" version="1.1" width="3840px" height="2160px" style="shape-rendering:geometricPrecision; text-rendering:geometricPrecision; image-rendering:optimizeQuality; fill-rule:evenodd; clip-rule:evenodd" xmlns:xlink="http://www.w3.org/1999/xlink">
<g><path style="opacity:1" fill="#b8bdbe" d="M 948.5,497.5 C 968.836,497.333 989.169,497.5 1009.5,498C 1077.18,516.388 1134.01,551.888 1180,604.5C 1190.81,617.443 1198.47,632.109 1203,648.5C 1204.5,663.47 1204.83,678.47 1204,693.5C 1202.76,711.585 1201.09,729.585 1199,747.5C 1266.18,734.306 1333.35,734.473 1400.5,748C 1430.37,754.617 1458.03,766.283 1483.5,783C 1500.25,795.085 1513.42,810.252 1523,828.5C 1534.36,857.615 1532.7,885.949 1518,913.5C 1511.49,923.191 1504.49,932.524 1497,941.5C 1464.42,972.057 1426.92,994.89 1384.5,1010C 1334.93,1027.78 1283.93,1039.45 1231.5,1045C 1209.96,1047.35 1188.46,1049.52 1167,1051.5C 1167.86,1061.83 1167.53,1072.16 1166,1082.5C 1162.2,1098.91 1155.86,1114.25 1147,1128.5C 1140.64,1137.36 1134.47,1146.36 1128.5,1155.5C 1135.68,1172.03 1146.35,1185.86 1160.5,1197C 1172.17,1203.27 1184.67,1206.1 1198,1205.5C 1199.5,1205.83 1201,1206.17 1202.5,1206.5C 1178.13,1241.7 1144.63,1255.36 1102,1247.5C 1099.83,1247.67 1097.67,1247.83 1095.5,1248C 1084.48,1262.7 1074.65,1278.2 1066,1294.5C 1061.41,1306.05 1058.74,1318.05 1058,1330.5C 1050.92,1368.77 1035.92,1403.44 1013,1434.5C 991.446,1460.39 965.113,1479.73 934,1492.5C 927.907,1481.31 921.574,1470.31 915,1459.5C 900.814,1486.17 884.314,1511.5 865.5,1535.5C 876.429,1554.52 884.429,1574.69 889.5,1596C 874.652,1613.68 859.652,1631.18 844.5,1648.5C 835.805,1624.45 824.972,1601.45 812,1579.5C 800.939,1588.28 789.439,1596.45 777.5,1604C 752.618,1619.87 726.618,1633.87 699.5,1646C 690.721,1648.53 682.054,1651.36 673.5,1654.5C 673.167,1654 672.833,1653.5 672.5,1653C 682.357,1621.71 690.69,1590.04 697.5,1558C 696.833,1557.83 696.167,1557.67 695.5,1557.5C 650.395,1598.9 599.061,1630.4 541.5,1652C 530.298,1655.21 519.298,1658.88 508.5,1663C 505.446,1663.82 502.446,1663.65 499.5,1662.5C 461.974,1637.81 424.307,1613.31 386.5,1589C 383.825,1585.84 384.491,1585 388.5,1586.5C 441.467,1583.94 493.8,1576.77 545.5,1565C 576.64,1557.23 605.973,1545.23 633.5,1529C 640.62,1524.38 647.286,1519.21 653.5,1513.5C 643.915,1515.84 634.249,1519 624.5,1523C 535.787,1550.1 445.453,1557.44 353.5,1545C 348.067,1544.56 343.9,1542.06 341,1537.5C 319.751,1505.75 297.918,1474.42 275.5,1443.5C 274.167,1442.5 274.167,1441.5 275.5,1440.5C 324.306,1447.66 373.306,1453.33 422.5,1457.5C 414.001,1439.84 405.501,1422.17 397,1404.5C 372.833,1346.33 358.333,1285.83 353.5,1223C 287.558,1233.52 223.558,1226.02 161.5,1200.5C 179.809,1193.76 198.475,1188.26 217.5,1184C 217.957,1183.59 218.291,1183.09 218.5,1182.5C 153.382,1175.22 90.0487,1160.39 28.5,1138C 73.1669,1131.06 117.167,1121.9 160.5,1110.5C 134.075,1106.07 107.742,1101.07 81.5,1095.5C 101.118,1087.54 121.118,1080.37 141.5,1074C 170.328,1063.81 198.328,1051.81 225.5,1038C 226.357,1037.31 227.023,1036.48 227.5,1035.5C 197.133,1020.96 170.966,1000.96 149,975.5C 111.5,920.816 112.5,866.816 152,813.5C 180.093,779.736 214.593,754.903 255.5,739C 298.001,722.432 342.001,712.099 387.5,708C 461.671,701.399 535.337,704.899 608.5,718.5C 609.167,718.167 609.833,717.833 610.5,717.5C 634.233,672.953 661.733,630.953 693,591.5C 710.47,571.348 731.303,555.848 755.5,545C 816.528,521.994 879.528,506.994 944.5,500C 946.066,499.392 947.4,498.558 948.5,497.5 Z"/></g>
<g><path style="opacity:1" fill="#9f0439" d="M 960.5,508.5 C 988.02,505.909 1014.69,509.409 1040.5,519C 1088.6,539.087 1130.76,567.92 1167,605.5C 1177.32,617.818 1185.32,631.484 1191,646.5C 1194.91,664.021 1195.58,681.688 1193,699.5C 1190.29,719.452 1188.12,739.452 1186.5,759.5C 1230.19,752.136 1274.19,748.969 1318.5,750C 1356.24,750.846 1392.91,757.513 1428.5,770C 1451.25,778.439 1471.09,791.272 1488,808.5C 1515.48,843.615 1516.48,879.615 1491,916.5C 1475.66,937.173 1457.16,954.339 1435.5,968C 1386.77,996.51 1334.43,1015.84 1278.5,1026C 1236.54,1034.09 1194.2,1038.92 1151.5,1040.5C 1157.61,1056.26 1158.11,1072.26 1153,1088.5C 1144.77,1111.64 1132.43,1132.31 1116,1150.5C 1115.83,1151.5 1115.67,1152.5 1115.5,1153.5C 1121.88,1167.91 1130.04,1181.25 1140,1193.5C 1149.69,1204.93 1161.86,1212.09 1176.5,1215C 1177.96,1215.42 1178.46,1216.26 1178,1217.5C 1168.85,1227.16 1157.68,1233.33 1144.5,1236C 1126.88,1239.63 1109.38,1239.13 1092,1234.5C 1090.74,1234.76 1089.74,1235.43 1089,1236.5C 1076.38,1254.1 1065.05,1272.43 1055,1291.5C 1053.86,1295.24 1052.53,1298.91 1051,1302.5C 1046.65,1352.94 1028.65,1397.6 997,1436.5C 980.351,1453.74 961.184,1467.4 939.5,1477.5C 938.186,1476.69 937.019,1475.69 936,1474.5C 929.759,1461.68 922.759,1449.35 915,1437.5C 913.445,1435.48 911.611,1435.15 909.5,1436.5C 899.736,1469.41 883.069,1498.24 859.5,1523C 858.833,1523.67 858.167,1523.67 857.5,1523C 852.645,1514.47 846.645,1506.81 839.5,1500C 857.468,1477.02 871.634,1451.85 882,1424.5C 882.497,1422.19 882.663,1419.86 882.5,1417.5C 863.753,1412.96 847.086,1404.46 832.5,1392C 829.697,1391.25 827.03,1391.58 824.5,1393C 804.673,1406.75 784.673,1420.25 764.5,1433.5C 760.469,1419.97 751.803,1410.8 738.5,1406C 729.438,1403.77 720.438,1401.44 711.5,1399C 695.743,1383.57 679.076,1369.24 661.5,1356C 631.63,1336.78 601.297,1318.44 570.5,1301C 540.156,1258.96 520.489,1212.3 511.5,1161C 515.46,1133.68 519.96,1106.51 525,1079.5C 517.38,1078.4 510.213,1075.9 503.5,1072C 500.593,1068.44 497.759,1064.94 495,1061.5C 492.883,1063.03 491.216,1065.03 490,1067.5C 474.758,1095.66 458.758,1123.32 442,1150.5C 435.027,1162.53 433.693,1175.2 438,1188.5C 443.635,1205.44 451.635,1221.1 462,1235.5C 482.503,1262.51 505.67,1287.17 531.5,1309.5C 532.614,1310.72 532.781,1312.06 532,1313.5C 527,1320.5 522,1327.5 517,1334.5C 473.525,1291.06 436.192,1243.06 405,1190.5C 403.667,1189.17 402.333,1189.17 401,1190.5C 395.72,1237.26 400.72,1282.93 416,1327.5C 431.689,1372.88 452.689,1415.54 479,1455.5C 480.009,1457.02 480.509,1458.69 480.5,1460.5C 466.452,1459.5 452.452,1458.16 438.5,1456.5C 417.84,1424.71 401.673,1390.71 390,1354.5C 373.697,1307.55 365.53,1259.21 365.5,1209.5C 310.269,1221.69 255.603,1219.53 201.5,1203C 200.167,1202 198.833,1201 197.5,1200C 223.233,1194.09 247.9,1185.42 271.5,1174C 273.439,1173.09 274.439,1171.59 274.5,1169.5C 205.996,1171.44 139.329,1161.61 74.5,1140C 127.041,1131.53 178.374,1118.7 228.5,1101.5C 228.5,1100.5 228.5,1099.5 228.5,1098.5C 197.375,1100.59 166.375,1099.43 135.5,1095C 131.902,1094.85 128.569,1093.85 125.5,1092C 153.462,1081.79 181.129,1070.79 208.5,1059C 222.581,1052.46 236.247,1045.13 249.5,1037C 251.037,1035.89 251.703,1034.39 251.5,1032.5C 217.765,1020.92 188.599,1002.26 164,976.5C 130.04,936.014 123.707,892.014 145,844.5C 157.181,821.984 173.348,802.818 193.5,787C 228.632,761.036 267.632,742.703 310.5,732C 383.72,714.876 457.72,710.542 532.5,719C 559.687,721.574 586.687,725.408 613.5,730.5C 615.548,728.772 617.381,726.772 619,724.5C 639.558,685.71 662.891,648.71 689,613.5C 700.154,599.68 712.32,586.847 725.5,575C 743.659,562.421 763.325,552.755 784.5,546C 841.971,527.274 900.637,514.774 960.5,508.5 Z"/></g>
<g><path style="opacity:1" fill="#fefefe" d="M 958.5,549.5 C 1035.48,547.069 1094.98,577.736 1137,641.5C 1140.92,648.342 1144.59,655.342 1148,662.5C 1149.6,673.761 1149.93,685.094 1149,696.5C 1143.75,766.296 1136.25,835.796 1126.5,905C 1095.36,912.184 1064.03,913.184 1032.5,908C 1023.94,906.482 1015.61,904.148 1007.5,901C 921.012,848.193 830.345,803.86 735.5,768C 711.703,759.733 687.536,752.899 663,747.5C 662.333,746.5 662.333,745.5 663,744.5C 680.241,712.346 698.241,680.679 717,649.5C 728.786,630.454 742.619,612.954 758.5,597C 762.609,593.612 767.275,591.279 772.5,590C 833.806,572.669 895.806,559.169 958.5,549.5 Z"/></g>
<g><path style="opacity:1" fill="#a10d3c" d="M 868.5,611.5 C 877.873,626.482 881.373,642.815 879,660.5C 873.75,676.18 863.917,688.013 849.5,696C 830.101,705.679 809.601,711.179 788,712.5C 765.559,713.327 743.392,710.494 721.5,704C 719.336,703.086 717.336,701.919 715.5,700.5C 735.729,700.871 756.062,700.371 776.5,699C 828.59,692.071 859.257,662.904 868.5,611.5 Z"/></g>
<g><path style="opacity:1" fill="#fefefe" d="M 351.5,964.5 C 343.555,970.776 336.222,977.776 329.5,985.5C 323.366,991.804 317.366,998.304 311.5,1005C 276.368,1001.96 244.035,990.957 214.5,972C 181.827,945.5 171.66,912 184,871.5C 196.888,838.283 218.721,812.783 249.5,795C 279.328,778.835 310.995,767.835 344.5,762C 521.123,734.897 688.123,763.897 845.5,849C 895.7,879.598 946.033,909.931 996.5,940C 1029.19,958.511 1062.86,975.178 1097.5,990C 1104.44,993.212 1104.11,994.545 1096.5,994C 1045.58,980.247 995.575,963.914 946.5,945C 907.303,929.048 868.303,912.715 829.5,896C 775.87,874.884 720.37,861.384 663,855.5C 557.383,848.913 461.549,878.08 375.5,943C 367.007,949.662 359.007,956.828 351.5,964.5 Z"/></g>
<g><path style="opacity:1" fill="#fefefe" d="M 1274.5,788.5 C 1314.26,787.472 1353.59,790.972 1392.5,799C 1409.89,803.129 1426.22,809.795 1441.5,819C 1468.44,839.952 1472.94,865.119 1455,894.5C 1437.69,917.759 1416.19,936.259 1390.5,950C 1297.2,998.075 1201.53,1003.41 1103.5,966C 1091.63,960.472 1079.96,954.472 1068.5,948C 1063.77,945.31 1059.44,942.144 1055.5,938.5C 1056.17,938.167 1056.83,937.833 1057.5,937.5C 1087.54,943.134 1117.54,941.301 1147.5,932C 1157.42,928.076 1165.58,921.909 1172,913.5C 1173.62,875.35 1176.45,837.017 1180.5,798.5C 1211.68,792.515 1243.02,789.182 1274.5,788.5 Z"/></g>
<g><path style="opacity:1" fill="#fefdfd" d="M 342.5,1081.5 C 346.436,1079.23 349.769,1076.23 352.5,1072.5C 354.273,1071.69 354.773,1070.35 354,1068.5C 312.847,1082.28 271.68,1085.44 230.5,1078C 228.114,1077.72 227.448,1076.72 228.5,1075C 263.192,1065.77 296.192,1052.44 327.5,1035C 338.36,1028.4 348.694,1021.07 358.5,1013C 387.846,982.973 419.846,956.306 454.5,933C 525.887,890.235 602.887,873.235 685.5,882C 708.265,885.014 730.932,888.681 753.5,893C 755.286,893.196 756.619,894.029 757.5,895.5C 755.941,897.131 753.941,897.964 751.5,898C 725.317,899.551 699.317,902.551 673.5,907C 658.702,909.649 645.368,915.482 633.5,924.5C 632.121,925.863 632.287,926.863 634,927.5C 658.139,918.921 682.972,915.421 708.5,917C 710.044,917.29 711.377,917.956 712.5,919C 675.445,925.061 655.278,946.894 652,984.5C 651.333,993.5 651.333,1002.5 652,1011.5C 652.902,1019.84 653.735,1028.17 654.5,1036.5C 646.314,1034.91 638.981,1031.41 632.5,1026C 616.031,1009.21 601.864,990.711 590,970.5C 576.854,955.714 560.354,948.88 540.5,950C 515.653,953.172 492.653,961.505 471.5,975C 460.818,981.673 450.485,988.84 440.5,996.5C 442.074,997.631 443.741,997.798 445.5,997C 458.828,992.834 472.161,988.668 485.5,984.5C 486.5,984.833 487.167,985.5 487.5,986.5C 484.863,992.912 483.363,999.578 483,1006.5C 482.266,1016.85 482.433,1027.18 483.5,1037.5C 483.406,1039.92 482.906,1042.26 482,1044.5C 460.874,1084.91 433.374,1120.41 399.5,1151C 374.21,1172.97 344.876,1186.31 311.5,1191C 308.118,1191.82 304.784,1191.66 301.5,1190.5C 336.519,1175.33 367.019,1153.67 393,1125.5C 394.5,1123.33 396,1121.17 397.5,1119C 387.55,1121.76 377.55,1124.76 367.5,1128C 355.811,1130.67 344.144,1133 332.5,1135C 292.238,1138.38 251.904,1139.38 211.5,1138C 210.692,1137.69 210.025,1137.19 209.5,1136.5C 210.665,1135.42 211.998,1134.58 213.5,1134C 251.788,1126.68 288.121,1114.02 322.5,1096C 329.765,1091.88 336.432,1087.05 342.5,1081.5 Z"/></g>
<g><path style="opacity:1" fill="#b8bebf" d="M 773.5,927.5 C 776.518,927.335 779.518,927.502 782.5,928C 803.955,934.78 825.622,940.78 847.5,946C 848.731,947.183 848.731,948.349 847.5,949.5C 834.174,953.998 821.507,959.831 809.5,967C 831.122,967.314 850.122,974.314 866.5,988C 871.333,994.167 876.833,999.667 883,1004.5C 884.286,999.008 884.953,993.341 885,987.5C 886.15,982.013 889.484,979.679 895,980.5C 903.618,982.224 911.785,985.224 919.5,989.5C 920.583,990.365 920.749,991.365 920,992.5C 917.052,994.043 916.218,996.21 917.5,999C 923.907,1001.18 929.907,1004.01 935.5,1007.5C 935.291,1008.09 934.957,1008.59 934.5,1009C 927.508,1009.5 920.508,1009.67 913.5,1009.5C 913.656,1012.84 914.989,1015.67 917.5,1018C 933.577,1025.53 946.41,1021.7 956,1006.5C 956.5,1007 957,1007.5 957.5,1008C 955.896,1013.48 953.896,1018.81 951.5,1024C 973.768,1022.28 995.768,1018.62 1017.5,1013C 1018.12,1010.5 1017.45,1008.17 1015.5,1006C 1030.25,1003.64 1044.08,1006.47 1057,1014.5C 1057.31,1015.77 1057.81,1016.93 1058.5,1018C 1053.72,1029.31 1051.22,1041.14 1051,1053.5C 1050.23,1067.02 1050.4,1080.52 1051.5,1094C 1051.34,1101.49 1049.84,1108.65 1047,1115.5C 1045.27,1117.62 1043.1,1119.12 1040.5,1120C 1021.69,1119.2 1003.03,1116.87 984.5,1113C 964.998,1109.71 961.165,1100.21 973,1084.5C 973.483,1083.55 973.649,1082.55 973.5,1081.5C 957.757,1083.45 942.09,1085.95 926.5,1089C 916.138,1091.68 906.138,1095.34 896.5,1100C 866.5,1105.67 836.5,1111.33 806.5,1117C 789.672,1118.97 773.506,1120.13 758,1120.5C 744.129,1119.21 730.295,1117.87 716.5,1116.5C 718.97,1131.49 725.97,1143.99 737.5,1154C 758.264,1170.27 781.931,1179.93 808.5,1183C 819.548,1183.78 830.548,1184.95 841.5,1186.5C 835.491,1196.52 829.991,1206.85 825,1217.5C 824.311,1218.36 823.478,1219.02 822.5,1219.5C 810.476,1214.15 799.81,1206.82 790.5,1197.5C 788.854,1198.78 787.687,1200.45 787,1202.5C 774.564,1245.73 774.397,1288.73 786.5,1331.5C 721.013,1323.94 663.013,1298.44 612.5,1255C 585.36,1230.55 565.86,1201.05 554,1166.5C 552.053,1152.17 552.053,1137.84 554,1123.5C 558.074,1095.37 564.574,1067.87 573.5,1041C 567.092,1045.31 560.092,1048.98 552.5,1052C 529.113,1053.23 513.946,1042.73 507,1020.5C 502.388,992.964 513.888,978.964 541.5,978.5C 541.649,979.552 541.483,980.552 541,981.5C 534.755,988.323 530.922,996.323 529.5,1005.5C 532.236,1017.34 539.569,1023.18 551.5,1023C 552.755,1013.48 555.922,1004.64 561,996.5C 565.431,990.533 571.265,988.367 578.5,990C 581.343,995.506 583.51,1001.34 585,1007.5C 599.046,1032.21 618.879,1050.71 644.5,1063C 654.744,1067.87 665.244,1072.04 676,1075.5C 676.692,1074.97 677.192,1074.31 677.5,1073.5C 672.614,1044.59 673.781,1015.92 681,987.5C 689.541,963.293 706.041,947.126 730.5,939C 744.919,934.981 759.252,931.147 773.5,927.5 Z"/></g>
<g><path style="opacity:1" fill="#fbf8f9" d="M 893.5,949.5 C 910.283,948.113 925.949,951.613 940.5,960C 956.88,973.382 973.547,986.382 990.5,999C 987.793,999.328 985.126,998.995 982.5,998C 963.565,991.356 945.232,983.356 927.5,974C 909.282,964.779 889.948,959.945 869.5,959.5C 865.243,959.885 861.076,960.551 857,961.5C 855.933,960.809 854.766,960.309 853.5,960C 866.501,954.917 879.834,951.417 893.5,949.5 Z"/></g>
<g><path style="opacity:0.929" fill="#be5b7e" d="M 351.5,964.5 C 344.778,972.224 337.445,979.224 329.5,985.5C 336.222,977.776 343.555,970.776 351.5,964.5 Z"/></g>
<g><path style="opacity:1" fill="#b8bebf" d="M 1777.5,1030.5 C 1811.83,1030.33 1846.17,1030.5 1880.5,1031C 1885.86,1031.17 1891.2,1031.67 1896.5,1032.5C 1864.81,1071.69 1833.31,1111.02 1802,1150.5C 1788.96,1135.38 1772.8,1124.88 1753.5,1119C 1695.25,1105.53 1638.58,1110.53 1583.5,1134C 1557.34,1147.17 1533.67,1163.83 1512.5,1184C 1476.48,1218.58 1446.65,1257.75 1423,1301.5C 1411.28,1324.34 1402.94,1348.34 1398,1373.5C 1395.51,1390.64 1396.18,1407.64 1400,1424.5C 1405.45,1444.28 1417.61,1458.11 1436.5,1466C 1468.68,1478.38 1502.01,1485.71 1536.5,1488C 1555.81,1489.52 1575.14,1490.52 1594.5,1491C 1809.07,1492.58 2023.57,1494.41 2238,1496.5C 2238.33,1496.17 2238.67,1495.83 2239,1495.5C 2313.27,1496.42 2387.61,1497.75 2462,1499.5C 2477.56,1499.14 2492.72,1498.98 2507.5,1499C 2500.65,1500.56 2493.65,1501.73 2486.5,1502.5C 2478.17,1502.54 2469.84,1502.54 2461.5,1502.5C 2416.85,1506.22 2372.19,1509.72 2327.5,1513C 2175.83,1522.71 2024.17,1532.37 1872.5,1542C 1760.81,1548.65 1649.47,1554.49 1538.5,1559.5C 1474.42,1563.13 1410.25,1565.13 1346,1565.5C 1304.95,1567.3 1265.45,1560.47 1227.5,1545C 1175.51,1521.19 1151.67,1480.69 1156,1423.5C 1158.85,1391.96 1167.18,1361.96 1181,1333.5C 1246.06,1190.55 1354.56,1099.05 1506.5,1059C 1573.55,1043.07 1641.55,1034.07 1710.5,1032C 1733,1031.83 1755.34,1031.33 1777.5,1030.5 Z"/></g>
<g><path style="opacity:1" fill="#9f0038" d="M 1756.5,1045.5 C 1791.17,1045.33 1825.83,1045.5 1860.5,1046C 1841.26,1069.15 1822.26,1092.48 1803.5,1116C 1802.17,1116.67 1800.83,1116.67 1799.5,1116C 1766.52,1101.7 1732.02,1095.2 1696,1096.5C 1648.4,1097.69 1603.24,1108.53 1560.5,1129C 1499.66,1167.82 1450.82,1218.32 1414,1280.5C 1395.81,1311.08 1384.81,1344.08 1381,1379.5C 1377.14,1408.01 1382.8,1434.35 1398,1458.5C 1410.75,1471.3 1425.92,1480.13 1443.5,1485C 1477.8,1494.88 1512.8,1500.55 1548.5,1502C 1576.5,1503 1604.5,1504 1632.5,1505C 1792.69,1506.1 1952.69,1508.26 2112.5,1511.5C 2120.94,1510.81 2129.44,1510.47 2138,1510.5C 2141.33,1510.97 2144.5,1511.8 2147.5,1513C 2008.05,1521.77 1868.22,1527.94 1728,1531.5C 1648.55,1534.88 1569.05,1537.38 1489.5,1539C 1434.78,1540.12 1380.11,1540.96 1325.5,1541.5C 1301.67,1538.97 1278.34,1533.8 1255.5,1526C 1199.42,1503.89 1176.59,1463.05 1187,1403.5C 1191.15,1383.58 1197.15,1364.25 1205,1345.5C 1234.75,1276.82 1277.58,1217.66 1333.5,1168C 1383.69,1127.07 1440.02,1097.4 1502.5,1079C 1558.43,1063.18 1615.43,1053.51 1673.5,1050C 1701.32,1048.33 1728.98,1046.83 1756.5,1045.5 Z"/></g>
<g><path style="opacity:1" fill="#a0063a" d="M 1939.5,1065.5 C 1967.66,1065.36 1995.99,1065.53 2024.5,1066C 2024.83,1066.33 2025.17,1066.67 2025.5,1067C 2023.04,1070.75 2020.71,1074.58 2018.5,1078.5C 2016.89,1079.32 2015.23,1079.99 2013.5,1080.5C 1993.06,1079.74 1974.23,1079.41 1957,1079.5C 1952.77,1080.8 1950.27,1083.63 1949.5,1088C 1960.83,1088.5 1972.16,1088.67 1983.5,1088.5C 1981.97,1093.89 1979.3,1098.72 1975.5,1103C 1974.5,1103.5 1973.5,1104 1972.5,1104.5C 1961.93,1103.98 1951.43,1103.64 1941,1103.5C 1936.68,1105.82 1933.85,1109.32 1932.5,1114C 1952.83,1114.5 1973.16,1114.67 1993.5,1114.5C 1993.63,1116.65 1993.13,1118.65 1992,1120.5C 1989.81,1124.2 1987.15,1127.53 1984,1130.5C 1957.65,1129.88 1929.15,1129.88 1898.5,1130.5C 1900.11,1125.95 1902.27,1121.62 1905,1117.5C 1916.76,1100.31 1928.26,1082.98 1939.5,1065.5 Z"/></g>
<g><path style="opacity:1" fill="#a0043a" d="M 2083.5,1065.5 C 2090.24,1065.28 2097.07,1065.62 2104,1066.5C 2106.53,1087.99 2108.36,1109.33 2109.5,1130.5C 2101.49,1130.67 2093.49,1130.5 2085.5,1130C 2084.74,1128.56 2084.07,1127.06 2083.5,1125.5C 2083.74,1122.68 2083.74,1119.68 2083.5,1116.5C 2068.16,1116.33 2052.83,1116.5 2037.5,1117C 2030.99,1121.09 2024.66,1125.42 2018.5,1130C 2010.81,1130.83 2003.15,1130.66 1995.5,1129.5C 1996.68,1127.24 1998.35,1125.41 2000.5,1124C 2028.27,1104.47 2055.93,1084.97 2083.5,1065.5 Z M 2080.5,1085.5 C 2081.17,1085.83 2081.83,1086.17 2082.5,1086.5C 2082.2,1091.43 2082.53,1096.26 2083.5,1101C 2075.48,1101.83 2067.48,1101.66 2059.5,1100.5C 2065.99,1094.76 2072.99,1089.76 2080.5,1085.5 Z"/></g>
<g><path style="opacity:1" fill="#a0053a" d="M 2390.5,1065.5 C 2418.74,1065.17 2446.91,1065.5 2475,1066.5C 2475.42,1068.79 2474.75,1070.79 2473,1072.5C 2470.97,1075.87 2468.3,1078.53 2465,1080.5C 2463.73,1080.38 2462.4,1080.05 2461,1079.5C 2442.24,1080.33 2423.41,1080.83 2404.5,1081C 2403.58,1081.37 2402.75,1081.87 2402,1082.5C 2401.07,1084.54 2400.57,1086.38 2400.5,1088C 2411.55,1088.81 2422.55,1088.64 2433.5,1087.5C 2434.58,1088.36 2434.75,1089.36 2434,1090.5C 2432.07,1094.76 2429.73,1098.76 2427,1102.5C 2425.43,1103.85 2423.59,1104.51 2421.5,1104.5C 2411.2,1103.55 2401.03,1103.22 2391,1103.5C 2387.35,1106.28 2384.52,1109.78 2382.5,1114C 2383.11,1114.87 2383.94,1115.37 2385,1115.5C 2404.8,1114.35 2424.64,1114.18 2444.5,1115C 2442.87,1119.71 2440.2,1124.21 2436.5,1128.5C 2435.56,1129.55 2434.4,1130.22 2433,1130.5C 2406.07,1129.7 2377.9,1129.7 2348.5,1130.5C 2361.73,1108.4 2375.73,1086.73 2390.5,1065.5 Z"/></g>
<g><path style="opacity:1" fill="#a00239" d="M 2616.5,1065.5 C 2622.26,1065.15 2627.93,1065.65 2633.5,1067C 2645.02,1079.02 2656.35,1091.18 2667.5,1103.5C 2676.44,1091.8 2684.77,1079.64 2692.5,1067C 2699.72,1065.57 2707.05,1065.07 2714.5,1065.5C 2701.62,1087.58 2687.62,1109.08 2672.5,1130C 2667.05,1130.9 2661.72,1130.56 2656.5,1129C 2644.96,1116.96 2633.62,1104.79 2622.5,1092.5C 2620.85,1093.65 2619.35,1094.98 2618,1096.5C 2611.23,1107.6 2604.06,1118.44 2596.5,1129C 2595.39,1129.64 2594.22,1130.14 2593,1130.5C 2587.08,1130.73 2581.08,1130.39 2575,1129.5C 2588.09,1107.86 2601.93,1086.53 2616.5,1065.5 Z"/></g>
<g><path style="opacity:1" fill="#a0053a" d="M 2814.5,1065.5 C 2821.65,1065.62 2828.99,1065.62 2836.5,1065.5C 2836.51,1067.31 2836.01,1068.98 2835,1070.5C 2832.83,1073.33 2830.67,1076.17 2828.5,1079C 2829.17,1079.33 2829.83,1079.67 2830.5,1080C 2828.15,1080.85 2826.32,1082.35 2825,1084.5C 2824.31,1085.33 2824.48,1086 2825.5,1086.5C 2842.94,1078.91 2860.61,1071.91 2878.5,1065.5C 2887.33,1065.4 2896.33,1065.57 2905.5,1066C 2905.96,1066.41 2906.29,1066.91 2906.5,1067.5C 2904.72,1069.23 2902.72,1070.73 2900.5,1072C 2879.58,1079.8 2858.91,1088.13 2838.5,1097C 2850.63,1106.79 2862.46,1116.96 2874,1127.5C 2874.62,1128.45 2874.45,1129.28 2873.5,1130C 2862.17,1130.67 2850.83,1130.67 2839.5,1130C 2830.65,1121.65 2821.65,1113.48 2812.5,1105.5C 2806.42,1113.32 2800.59,1121.32 2795,1129.5C 2787.62,1130.8 2780.29,1130.8 2773,1129.5C 2772.33,1128.5 2772.33,1127.5 2773,1126.5C 2786.86,1106.1 2800.69,1085.77 2814.5,1065.5 Z"/></g>
<g><path style="opacity:1" fill="#a0053a" d="M 2924.5,1065.5 C 2953.01,1065.52 2981.35,1065.52 3009.5,1065.5C 3009.83,1066 3010.17,1066.5 3010.5,1067C 3008.26,1071.9 3005.26,1076.23 3001.5,1080C 2981.17,1080.33 2960.83,1080.67 2940.5,1081C 2937.21,1082.41 2935.54,1084.91 2935.5,1088.5C 2946.5,1088.5 2957.5,1088.5 2968.5,1088.5C 2967.13,1093.74 2964.8,1098.58 2961.5,1103C 2959.63,1103.98 2957.63,1104.48 2955.5,1104.5C 2946.19,1104.22 2937.19,1103.88 2928.5,1103.5C 2926.88,1104.15 2925.22,1104.65 2923.5,1105C 2921.38,1108.08 2919.38,1111.25 2917.5,1114.5C 2937.9,1114.19 2958.57,1114.52 2979.5,1115.5C 2977.46,1120.37 2974.8,1124.87 2971.5,1129C 2970.23,1129.31 2969.07,1129.81 2968,1130.5C 2941.73,1129.72 2913.89,1129.72 2884.5,1130.5C 2884.34,1128.8 2884.51,1127.13 2885,1125.5C 2898.43,1105.64 2911.59,1085.64 2924.5,1065.5 Z"/></g>
<g><path style="opacity:1" fill="#a00339" d="M 3035.5,1065.5 C 3040.93,1065.16 3046.26,1065.66 3051.5,1067C 3063.04,1079.04 3074.38,1091.21 3085.5,1103.5C 3094.4,1091.38 3103.07,1079.05 3111.5,1066.5C 3118.44,1065.54 3125.44,1065.2 3132.5,1065.5C 3132.65,1066.55 3132.48,1067.55 3132,1068.5C 3118.13,1089.02 3104.3,1109.52 3090.5,1130C 3084.72,1130.9 3079.05,1130.57 3073.5,1129C 3062.33,1116.5 3051.17,1104 3040,1091.5C 3031.5,1104 3023,1116.5 3014.5,1129C 3007.28,1130.43 2999.95,1130.93 2992.5,1130.5C 2992.35,1129.45 2992.52,1128.45 2993,1127.5C 3006.25,1108 3019.25,1088.34 3032,1068.5C 3033.15,1067.36 3034.31,1066.36 3035.5,1065.5 Z"/></g>
<g><path style="opacity:1" fill="#a0043a" d="M 3152.5,1065.5 C 3184.32,1065.53 3216.32,1065.53 3248.5,1065.5C 3246.53,1071.26 3243.2,1076.09 3238.5,1080C 3226.45,1080.19 3214.45,1080.69 3202.5,1081.5C 3192.23,1097.77 3181.56,1113.77 3170.5,1129.5C 3163.25,1130.11 3155.59,1130.44 3147.5,1130.5C 3147.35,1129.45 3147.52,1128.45 3148,1127.5C 3157.97,1112.03 3168.14,1096.7 3178.5,1081.5C 3166.77,1080.65 3155.1,1080.31 3143.5,1080.5C 3146.03,1075.28 3149.03,1070.28 3152.5,1065.5 Z"/></g>
<g><path style="opacity:1" fill="#a00439" d="M 3269.5,1065.5 C 3277.11,1065.33 3284.45,1065.67 3291.5,1066.5C 3280.79,1082.08 3270.46,1097.91 3260.5,1114C 3261,1114.5 3261.5,1115 3262,1115.5C 3277.09,1114.68 3292.26,1114.18 3307.5,1114C 3317.83,1098.33 3328.17,1082.67 3338.5,1067C 3339.42,1066.63 3340.25,1066.13 3341,1065.5C 3347.96,1065.57 3355.12,1065.57 3362.5,1065.5C 3362.51,1067.31 3362.01,1068.98 3361,1070.5C 3350.94,1084.9 3341.27,1099.56 3332,1114.5C 3327.97,1121.53 3322.13,1126.37 3314.5,1129C 3304.92,1129.18 3295.42,1129.68 3286,1130.5C 3271.83,1130.31 3256.33,1130.15 3239.5,1130C 3233.99,1129.16 3231.83,1126 3233,1120.5C 3244.21,1101.38 3256.38,1083.04 3269.5,1065.5 Z"/></g>
<g><path style="opacity:1" fill="#9f0038" d="M 3508.5,1065.5 C 3515.75,1065.19 3522.92,1065.52 3530,1066.5C 3530.32,1067.91 3529.98,1069.24 3529,1070.5C 3525.36,1075.61 3521.86,1080.78 3518.5,1086C 3533.95,1080.62 3549.28,1074.62 3564.5,1068C 3567.1,1067.08 3569.77,1066.41 3572.5,1066C 3589.83,1065.33 3607.17,1065.33 3624.5,1066C 3628.7,1072.85 3632.86,1079.69 3637,1086.5C 3649.09,1079.87 3661.25,1073.37 3673.5,1067C 3682.77,1065.45 3692.1,1065.11 3701.5,1066C 3703.12,1066.85 3703.46,1067.85 3702.5,1069C 3680.42,1079.54 3658.76,1090.87 3637.5,1103C 3631.44,1111.4 3625.77,1120.06 3620.5,1129C 3612.92,1130.4 3605.25,1130.9 3597.5,1130.5C 3597.3,1128.01 3597.8,1125.68 3599,1123.5C 3604.85,1116.47 3609.68,1108.8 3613.5,1100.5C 3608.27,1090.45 3602.44,1080.78 3596,1071.5C 3574.68,1079.08 3553.85,1087.58 3533.5,1097C 3544.98,1107.14 3556.48,1117.31 3568,1127.5C 3568.62,1128.45 3568.45,1129.28 3567.5,1130C 3556.5,1130.67 3545.5,1130.67 3534.5,1130C 3525.54,1123.04 3517.21,1115.37 3509.5,1107C 3506.97,1106.1 3504.81,1106.6 3503,1108.5C 3498.96,1115.42 3494.79,1122.25 3490.5,1129C 3482.94,1130.6 3475.27,1130.93 3467.5,1130C 3466.83,1127.76 3467.33,1125.59 3469,1123.5C 3481.94,1103.93 3495.11,1084.59 3508.5,1065.5 Z"/></g>
<g><path style="opacity:1" fill="#a0063a" d="M 2176.5,1065.5 C 2197.25,1065.54 2218.25,1065.54 2239.5,1065.5C 2248.5,1066.2 2251.33,1070.53 2248,1078.5C 2246.65,1082.18 2243.98,1084.18 2240,1084.5C 2236.2,1083.58 2232.54,1083.58 2229,1084.5C 2226.63,1083.73 2224.46,1082.57 2222.5,1081C 2207.83,1080.33 2193.17,1080.33 2178.5,1081C 2176.34,1082.6 2175.01,1084.77 2174.5,1087.5C 2191.06,1088.17 2207.56,1088.84 2224,1089.5C 2227.39,1088.5 2230.72,1089.5 2234,1092.5C 2234.82,1096.74 2234.16,1100.74 2232,1104.5C 2227.93,1112.14 2222.76,1118.97 2216.5,1125C 2214.11,1126.86 2211.45,1128.19 2208.5,1129C 2202.92,1129.19 2197.42,1129.69 2192,1130.5C 2175.41,1129.33 2158.25,1129.33 2140.5,1130.5C 2135.68,1130.93 2131.51,1129.59 2128,1126.5C 2127.12,1120.41 2128.96,1115.24 2133.5,1111C 2140.41,1109.62 2147.41,1109.12 2154.5,1109.5C 2154.58,1110.93 2154.25,1112.26 2153.5,1113.5C 2153.83,1114.5 2154.5,1115.17 2155.5,1115.5C 2171.46,1114.68 2187.46,1114.18 2203.5,1114C 2206.95,1111.3 2208.12,1108.13 2207,1104.5C 2191.33,1104.83 2175.67,1105.17 2160,1105.5C 2155.67,1105.08 2151.67,1103.74 2148,1101.5C 2146.72,1098.21 2147.05,1094.88 2149,1091.5C 2153.65,1083.7 2159.15,1076.54 2165.5,1070C 2169.16,1068.18 2172.82,1066.68 2176.5,1065.5 Z"/></g>
<g><path style="opacity:1" fill="#a1063b" d="M 2274.5,1065.5 C 2306.56,1065.18 2338.56,1065.52 2370.5,1066.5C 2368.12,1071.43 2365.12,1075.93 2361.5,1080C 2348.91,1079.94 2336.25,1080.6 2323.5,1082C 2313.42,1098.17 2303.08,1114.17 2292.5,1130C 2285.12,1129.75 2277.45,1129.92 2269.5,1130.5C 2269.35,1129.45 2269.52,1128.45 2270,1127.5C 2280.29,1112.42 2290.46,1097.25 2300.5,1082C 2295.34,1080.85 2290,1080.35 2284.5,1080.5C 2279.25,1080.51 2274.09,1080.85 2269,1081.5C 2267.75,1080.79 2266.58,1079.96 2265.5,1079C 2268.14,1074.21 2271.14,1069.71 2274.5,1065.5 Z"/></g>
<g><path style="opacity:1" fill="#a00439" d="M 2499.5,1065.5 C 2525.17,1065.33 2550.84,1065.5 2576.5,1066C 2578.56,1066.31 2580.56,1066.81 2582.5,1067.5C 2583.65,1070.45 2583.82,1073.45 2583,1076.5C 2578.03,1085.61 2572.2,1094.11 2565.5,1102C 2560.62,1105.19 2555.45,1106.69 2550,1106.5C 2546.51,1107.33 2543.34,1108 2540.5,1108.5C 2545.78,1115.28 2551.61,1121.62 2558,1127.5C 2558.48,1128.45 2558.65,1129.45 2558.5,1130.5C 2547.57,1130.52 2536.91,1130.36 2526.5,1130C 2521.22,1122.38 2515.55,1115.05 2509.5,1108C 2504.83,1107.33 2500.17,1107.33 2495.5,1108C 2490.44,1114.73 2485.77,1121.73 2481.5,1129C 2480.27,1129.78 2478.94,1130.28 2477.5,1130.5C 2471.9,1130.19 2465.73,1129.86 2459,1129.5C 2458.88,1127.83 2459.21,1126.16 2460,1124.5C 2473.19,1104.77 2486.36,1085.1 2499.5,1065.5 Z M 2515.5,1079.5 C 2528.84,1079.33 2542.17,1079.5 2555.5,1080C 2556.43,1080.39 2557.09,1081.05 2557.5,1082C 2555.57,1086.27 2552.57,1089.6 2548.5,1092C 2534.49,1092.83 2520.49,1092.67 2506.5,1091.5C 2508.1,1088.06 2509.93,1084.73 2512,1081.5C 2513.3,1080.92 2514.47,1080.25 2515.5,1079.5 Z"/></g>
<g><path style="opacity:1" fill="#a0063a" d="M 3401.5,1065.5 C 3423.47,1065.5 3445.47,1065.5 3467.5,1065.5C 3469.78,1066.21 3472.11,1066.71 3474.5,1067C 3475.95,1075.46 3473.62,1082.79 3467.5,1089C 3460.13,1089.48 3452.8,1089.82 3445.5,1090C 3444.98,1089.44 3444.64,1088.77 3444.5,1088C 3445.8,1085.56 3446.8,1083.06 3447.5,1080.5C 3433.16,1080.33 3418.83,1080.5 3404.5,1081C 3396.63,1091.24 3389.63,1102.07 3383.5,1113.5C 3383.83,1113.83 3384.17,1114.17 3384.5,1114.5C 3398.79,1113.68 3413.12,1113.18 3427.5,1113C 3429.53,1110.91 3431.19,1108.57 3432.5,1106C 3436.09,1105.79 3439.59,1105.29 3443,1104.5C 3446.95,1105.26 3451.12,1105.59 3455.5,1105.5C 3455.66,1106.87 3455.49,1108.21 3455,1109.5C 3451.31,1113.69 3447.81,1118.02 3444.5,1122.5C 3438.88,1127.71 3432.22,1130.37 3424.5,1130.5C 3406.34,1130.2 3387,1130.2 3366.5,1130.5C 3358.34,1131.83 3354.51,1128.5 3355,1120.5C 3364.81,1103.05 3375.97,1086.55 3388.5,1071C 3392.56,1068.27 3396.89,1066.43 3401.5,1065.5 Z"/></g>
<g><path style="opacity:0.929" fill="#be5b7e" d="M 352.5,1072.5 C 349.769,1076.23 346.436,1079.23 342.5,1081.5C 345.231,1077.77 348.564,1074.77 352.5,1072.5 Z"/></g>
<g><path style="opacity:0.929" fill="#be5b7e" d="M 2836.5,1078.5 C 2837.83,1079.17 2837.83,1079.17 2836.5,1078.5 Z"/></g>
<g><path style="opacity:1" fill="#efe6e8" d="M 2208.5,1083.5 C 2211.85,1083.33 2215.18,1083.5 2218.5,1084C 2219.17,1084.67 2219.83,1085.33 2220.5,1086C 2216.84,1085.49 2213.01,1085.65 2209,1086.5C 2208.52,1085.55 2208.35,1084.55 2208.5,1083.5 Z"/></g>
<g><path style="opacity:1" fill="#ebd6dc" d="M 2082.5,1086.5 C 2081.83,1086.17 2081.17,1085.83 2080.5,1085.5C 2081.99,1082.81 2082.65,1083.15 2082.5,1086.5 Z"/></g>
<g><path style="opacity:0.929" fill="#be5b7e" d="M 2197.5,1085.5 C 2198.83,1086.17 2198.83,1086.17 2197.5,1085.5 Z"/></g>
<g><path style="opacity:0.929" fill="#be5b7e" d="M 2201.5,1085.5 C 2202.83,1086.17 2202.83,1086.17 2201.5,1085.5 Z"/></g>
<g><path style="opacity:0.929" fill="#be5b7e" d="M 2205.5,1085.5 C 2206.83,1086.17 2206.83,1086.17 2205.5,1085.5 Z"/></g>
<g><path style="opacity:1" fill="#fdfbfc" d="M 899.5,1118.5 C 911.267,1118.7 923.1,1118.7 935,1118.5C 949.798,1119.82 964.631,1121.32 979.5,1123C 983.281,1123.37 983.948,1124.7 981.5,1127C 966.95,1127.25 952.283,1128.91 937.5,1132C 935.22,1132.23 933.22,1133.07 931.5,1134.5C 940.515,1135.57 949.681,1136.57 959,1137.5C 979.655,1138.42 999.322,1143.75 1018,1153.5C 1018.75,1154.64 1018.58,1155.64 1017.5,1156.5C 982.521,1147.77 947.187,1146.1 911.5,1151.5C 891.084,1153.7 870.417,1155.54 849.5,1157C 815.511,1158.95 783.177,1152.61 752.5,1138C 750.649,1136.32 748.982,1134.48 747.5,1132.5C 748.5,1132.17 749.5,1131.83 750.5,1131.5C 765.149,1133.3 779.649,1133.96 794,1133.5C 829.373,1129.3 864.539,1124.3 899.5,1118.5 Z"/></g>
<g><path style="opacity:1" fill="#b8bdbf" d="M 3659.5,1175.5 C 3682.5,1175.33 3705.5,1175.5 3728.5,1176C 3755.23,1177.95 3781.9,1180.45 3808.5,1183.5C 3798.78,1206.78 3788.11,1229.61 3776.5,1252C 3738.22,1234.22 3699.22,1232.89 3659.5,1248C 3654.26,1253.65 3651.09,1260.15 3650,1267.5C 3652.25,1269.38 3654.75,1270.88 3657.5,1272C 3673.51,1277.34 3689.51,1282.67 3705.5,1288C 3733.07,1298.99 3740.91,1318.16 3729,1345.5C 3718.16,1365.19 3707.82,1385.19 3698,1405.5C 3683.7,1423.42 3665.2,1434.92 3642.5,1440C 3600.5,1449.33 3558.16,1451 3515.5,1445C 3490.92,1442.42 3466.59,1438.42 3442.5,1433C 3440.84,1432.27 3440.34,1431.11 3441,1429.5C 3453.25,1406 3465.75,1382.67 3478.5,1359.5C 3485.65,1364.38 3493.32,1368.22 3501.5,1371C 3524.4,1374.67 3547.4,1375.34 3570.5,1373C 3576.3,1372.2 3581.97,1370.87 3587.5,1369C 3589.96,1367.54 3592.13,1365.71 3594,1363.5C 3596.77,1358.29 3599.27,1352.95 3601.5,1347.5C 3599.28,1344.38 3596.28,1342.21 3592.5,1341C 3571.43,1334.53 3550.43,1327.86 3529.5,1321C 3514.7,1311.97 3509.2,1298.8 3513,1281.5C 3515.92,1269.75 3520.58,1258.75 3527,1248.5C 3534.08,1236.66 3541.42,1225 3549,1213.5C 3563.55,1199.47 3580.72,1189.97 3600.5,1185C 3620.28,1180.26 3639.95,1177.09 3659.5,1175.5 Z"/></g>
<g><path style="opacity:1" fill="#b8bdbe" d="M 1703.5,1176.5 C 1723.51,1176.62 1743.51,1177.12 1763.5,1178C 1784.23,1178.39 1804.56,1181.39 1824.5,1187C 1830.22,1189.28 1835.39,1192.44 1840,1196.5C 1843.84,1202.42 1844.51,1208.76 1842,1215.5C 1811.39,1277.71 1781.06,1340.04 1751,1402.5C 1746.2,1412.26 1739.03,1419.76 1729.5,1425C 1714.01,1432.94 1697.68,1438.27 1680.5,1441C 1647.82,1445.46 1614.99,1447.29 1582,1446.5C 1561.15,1446.52 1540.32,1446.02 1519.5,1445C 1507.35,1443.69 1495.02,1441.69 1482.5,1439C 1473.1,1436.24 1465.93,1430.74 1461,1422.5C 1460.2,1416.43 1460.53,1410.43 1462,1404.5C 1493.06,1339.71 1524.73,1275.05 1557,1210.5C 1560.53,1206.63 1564.37,1203.13 1568.5,1200C 1588.49,1189.27 1609.82,1182.93 1632.5,1181C 1656.3,1179.08 1679.96,1177.58 1703.5,1176.5 Z M 1686.5,1233.5 C 1689.58,1233.84 1692.91,1234.34 1696.5,1235C 1701.62,1237.96 1702.78,1242.13 1700,1247.5C 1679.24,1291.35 1658.24,1335.02 1637,1378.5C 1627.96,1388.68 1616.96,1391.68 1604,1387.5C 1603.67,1387.83 1603.33,1388.17 1603,1388.5C 1601.66,1387.1 1600.5,1385.6 1599.5,1384C 1621.07,1337.64 1643.24,1291.48 1666,1245.5C 1671.02,1239.1 1677.85,1235.1 1686.5,1233.5 Z"/></g>
<g><path style="opacity:1" fill="#b8bdbe" d="M 2344.5,1177.5 C 2362.61,1177.53 2380.44,1177.53 2398,1177.5C 2417.38,1178.19 2436.54,1179.69 2455.5,1182C 2466.39,1183.71 2476.72,1187.04 2486.5,1192C 2495.04,1197.34 2497.88,1204.84 2495,1214.5C 2463.46,1280.23 2431.46,1345.57 2399,1410.5C 2386.32,1424.1 2370.82,1432.93 2352.5,1437C 2334.7,1440.97 2316.7,1443.64 2298.5,1445C 2255.97,1447.7 2213.63,1447.7 2171.5,1445C 2157.24,1443.63 2143.24,1440.96 2129.5,1437C 2122.65,1433.85 2117.49,1429.02 2114,1422.5C 2112.29,1413.45 2113.62,1404.78 2118,1396.5C 2147.62,1335.93 2177.29,1275.26 2207,1214.5C 2208.67,1212.17 2210.33,1209.83 2212,1207.5C 2226.55,1195.19 2243.38,1187.69 2262.5,1185C 2289.75,1180.36 2317.09,1177.86 2344.5,1177.5 Z M 2340.5,1233.5 C 2344.7,1233.74 2348.86,1235.07 2353,1237.5C 2354.71,1240.45 2354.71,1243.45 2353,1246.5C 2331.94,1290.96 2310.61,1335.29 2289,1379.5C 2278.79,1390.14 2266.96,1392.31 2253.5,1386C 2252.42,1384.27 2252.26,1382.44 2253,1380.5C 2256.06,1374.67 2258.72,1368.67 2261,1362.5C 2280.32,1324.4 2298.82,1286.24 2316.5,1248C 2322.26,1239.29 2330.26,1234.46 2340.5,1233.5 Z"/></g>
<g><path style="opacity:1" fill="#b8bdbe" d="M 2765.5,1178.5 C 2810.36,1178.62 2855.36,1179.28 2900.5,1180.5C 2857.43,1267.98 2814.26,1355.65 2771,1443.5C 2721.24,1444.5 2671.41,1444.83 2621.5,1444.5C 2623.03,1439.09 2624.86,1433.76 2627,1428.5C 2627.67,1425.5 2627.67,1422.5 2627,1419.5C 2614.65,1380.46 2602.32,1341.46 2590,1302.5C 2589.31,1301.64 2588.48,1300.98 2587.5,1300.5C 2565.37,1346.59 2543.37,1392.75 2521.5,1439C 2513.28,1439.86 2505.11,1440.69 2497,1441.5C 2496.44,1440.98 2495.77,1440.64 2495,1440.5C 2469.66,1441.38 2444.33,1442.38 2419,1443.5C 2418.5,1443.17 2418,1442.83 2417.5,1442.5C 2425.62,1434.22 2432.78,1425.22 2439,1415.5C 2472.74,1346.46 2506.4,1277.46 2540,1208.5C 2541.72,1204.46 2542.88,1200.29 2543.5,1196C 2542.27,1190.87 2541.44,1185.71 2541,1180.5C 2545.42,1179.85 2549.92,1179.51 2554.5,1179.5C 2596.83,1180.86 2639.17,1182.19 2681.5,1183.5C 2693.31,1219.42 2704.81,1255.42 2716,1291.5C 2716.74,1292.57 2717.74,1293.24 2719,1293.5C 2733.19,1264.77 2747.19,1235.77 2761,1206.5C 2765.1,1197.48 2766.6,1188.15 2765.5,1178.5 Z"/></g>
<g><path style="opacity:1" fill="#b8bdbf" d="M 2988.5,1178.5 C 3069.33,1178.78 3150.33,1178.78 3231.5,1178.5C 3219.26,1206.65 3206.76,1234.65 3194,1262.5C 3174.6,1250.25 3153.44,1242.75 3130.5,1240C 3106.5,1239.33 3082.5,1239.33 3058.5,1240C 3054.39,1239.69 3051.23,1241.19 3049,1244.5C 3043.74,1255.18 3038.91,1266.01 3034.5,1277C 3061.02,1276.66 3087.52,1276.49 3114,1276.5C 3114.37,1277.42 3114.87,1278.25 3115.5,1279C 3103.83,1299.33 3092.17,1319.67 3080.5,1340C 3079.5,1340.5 3078.5,1341 3077.5,1341.5C 3057.36,1341.8 3037.03,1341.47 3016.5,1340.5C 3012.08,1340.44 3007.75,1340.94 3003.5,1342C 2997.06,1352.88 2991.39,1364.22 2986.5,1376C 2987.34,1377.59 2988.67,1378.42 2990.5,1378.5C 3020.16,1377.9 3049.83,1377.07 3079.5,1376C 3103.75,1372.8 3127.42,1367.14 3150.5,1359C 3153.55,1357.94 3156.55,1357.78 3159.5,1358.5C 3140.64,1386.86 3121.97,1415.36 3103.5,1444C 3055.83,1444.17 3008.17,1444.33 2960.5,1444.5C 2910.93,1444.49 2861.59,1444.15 2812.5,1443.5C 2823.25,1434.58 2832.42,1424.25 2840,1412.5C 2873.51,1343.81 2906.84,1274.81 2940,1205.5C 2941.35,1202.29 2942.18,1198.96 2942.5,1195.5C 2941.19,1190.25 2940.52,1184.91 2940.5,1179.5C 2956.68,1179.83 2972.68,1179.5 2988.5,1178.5 Z"/></g>
<g><path style="opacity:1" fill="#fdfcfd" d="M 926.5,1179.5 C 960.768,1178.19 994.435,1182.02 1027.5,1191C 1031.12,1192.49 1034.78,1193.82 1038.5,1195C 1039.06,1195.72 1039.39,1196.56 1039.5,1197.5C 1037.3,1202.74 1034.96,1207.9 1032.5,1213C 1001.95,1212.99 971.452,1214.15 941,1216.5C 929.467,1216.67 918.3,1214.83 907.5,1211C 903.071,1208.23 900.737,1204.23 900.5,1199C 901.73,1192.87 904.063,1187.21 907.5,1182C 913.953,1181.01 920.286,1180.18 926.5,1179.5 Z"/></g>
<g><path style="opacity:1" fill="#b8bdbf" d="M 1893.5,1179.5 C 1938.83,1180.71 1984.16,1181.71 2029.5,1182.5C 2029.31,1184.56 2028.81,1186.56 2028,1188.5C 1998.6,1249.96 1969.77,1311.62 1941.5,1373.5C 1941.71,1374.09 1942.04,1374.59 1942.5,1375C 1972.49,1374.33 2002.49,1373.67 2032.5,1373C 2046.34,1371.72 2059.68,1368.39 2072.5,1363C 2087.41,1356.63 2102.24,1350.13 2117,1343.5C 2117.52,1345.29 2117.19,1346.96 2116,1348.5C 2097.66,1379.84 2079.83,1411.51 2062.5,1443.5C 1966.83,1444.45 1871.17,1444.45 1775.5,1443.5C 1813.39,1365.71 1851.89,1288.05 1891,1210.5C 1891.72,1208.05 1892.72,1205.72 1894,1203.5C 1894.43,1195.49 1894.27,1187.49 1893.5,1179.5 Z"/></g>
<g><path style="opacity:1" fill="#b8bdbf" d="M 3245.5,1179.5 C 3282.76,1179.9 3319.93,1181.23 3357,1183.5C 3365.41,1182.52 3373.91,1182.18 3382.5,1182.5C 3353.16,1245.84 3323.83,1309.17 3294.5,1372.5C 3294.61,1373.44 3294.94,1374.28 3295.5,1375C 3298.67,1375.17 3301.83,1375.33 3305,1375.5C 3331.88,1374.21 3359.04,1373.38 3386.5,1373C 3397.15,1372.09 3407.49,1369.75 3417.5,1366C 3435.3,1359.07 3452.8,1351.57 3470,1343.5C 3470.67,1344.5 3470.67,1345.5 3470,1346.5C 3450.81,1378.22 3432.64,1410.55 3415.5,1443.5C 3319.83,1444.74 3224.16,1444.41 3128.5,1442.5C 3167.14,1363.22 3206.31,1284.22 3246,1205.5C 3246.99,1202.54 3247.82,1199.54 3248.5,1196.5C 3247.22,1190.87 3246.22,1185.2 3245.5,1179.5 Z"/></g>
<g><path style="opacity:1" fill="#9f0339" d="M 3662.5,1183.5 C 3706.2,1182.08 3748.54,1184.58 3789.5,1191C 3790.02,1191.56 3790.36,1192.23 3790.5,1193C 3785.33,1206.5 3779.5,1219.67 3773,1232.5C 3759.14,1227.22 3744.97,1224.39 3730.5,1224C 3711.49,1223.04 3692.83,1223.71 3674.5,1226C 3667.97,1226.91 3661.63,1228.57 3655.5,1231C 3652.7,1232.79 3650.2,1234.96 3648,1237.5C 3644.19,1244.3 3640.86,1251.3 3638,1258.5C 3637.33,1261.5 3637.33,1264.5 3638,1267.5C 3641.65,1274.2 3646.81,1278.37 3653.5,1280C 3673.87,1286.01 3693.87,1293.01 3713.5,1301C 3723.67,1309.83 3725.83,1320.33 3720,1332.5C 3708.81,1354.88 3697.15,1376.88 3685,1398.5C 3670.94,1410.87 3654.77,1419.37 3636.5,1424C 3622.7,1426.99 3608.87,1429.49 3595,1431.5C 3572.89,1432.76 3550.22,1432.76 3527,1431.5C 3505.41,1429.06 3483.58,1426.06 3461.5,1422.5C 3461.67,1421.18 3461.34,1420.01 3460.5,1419C 3467.89,1404.39 3475.39,1389.89 3483,1375.5C 3483.69,1374.64 3484.52,1373.98 3485.5,1373.5C 3496.94,1378.82 3508.77,1381.48 3521,1381.5C 3525.67,1382.17 3530.33,1382.83 3535,1383.5C 3542.33,1383.5 3549.67,1383.5 3557,1383.5C 3568.6,1382.6 3580.1,1380.77 3591.5,1378C 3597.2,1376.07 3602.36,1373.24 3607,1369.5C 3612.21,1361.62 3616.54,1353.29 3620,1344.5C 3620.31,1339.43 3618.98,1334.76 3616,1330.5C 3611.58,1327.04 3606.74,1324.2 3601.5,1322C 3582.56,1315.8 3563.56,1309.8 3544.5,1304C 3530.34,1296.84 3526.5,1286.01 3533,1271.5C 3535.12,1265.26 3537.78,1259.26 3541,1253.5C 3548.67,1241.17 3556.33,1228.83 3564,1216.5C 3577.12,1204.02 3592.62,1195.85 3610.5,1192C 3627.79,1188.03 3645.12,1185.2 3662.5,1183.5 Z"/></g>
<g><path style="opacity:1" fill="#9f0038" d="M 1688.5,1185.5 C 1722.24,1184.77 1755.91,1185.94 1789.5,1189C 1799.99,1190.21 1810.33,1192.21 1820.5,1195C 1825.38,1196.61 1829.38,1199.44 1832.5,1203.5C 1802,1269.51 1770.16,1334.84 1737,1399.5C 1727.25,1409.8 1715.41,1416.63 1701.5,1420C 1680.1,1424.88 1658.44,1427.88 1636.5,1429C 1589.68,1432.93 1543.01,1431.6 1496.5,1425C 1489.3,1423.49 1482.63,1420.83 1476.5,1417C 1475.02,1415.7 1474.35,1414.03 1474.5,1412C 1474.92,1408.73 1475.76,1405.56 1477,1402.5C 1507.32,1340.53 1537.65,1278.53 1568,1216.5C 1578.78,1205.07 1591.95,1197.91 1607.5,1195C 1634.4,1189.82 1661.4,1186.65 1688.5,1185.5 Z M 1686.5,1233.5 C 1677.85,1235.1 1671.02,1239.1 1666,1245.5C 1643.24,1291.48 1621.07,1337.64 1599.5,1384C 1600.5,1385.6 1601.66,1387.1 1603,1388.5C 1603.33,1388.17 1603.67,1387.83 1604,1387.5C 1616.96,1391.68 1627.96,1388.68 1637,1378.5C 1658.24,1335.02 1679.24,1291.35 1700,1247.5C 1702.78,1242.13 1701.62,1237.96 1696.5,1235C 1692.91,1234.34 1689.58,1233.84 1686.5,1233.5 Z"/></g>
<g><path style="opacity:1" fill="#9f0038" d="M 2342.5,1185.5 C 2375.9,1184.86 2409.24,1186.02 2442.5,1189C 2451.59,1190.15 2460.59,1191.82 2469.5,1194C 2475.39,1195.61 2480.72,1198.28 2485.5,1202C 2455.1,1266.3 2424.27,1330.47 2393,1394.5C 2386.69,1403.47 2378.52,1410.31 2368.5,1415C 2350.77,1421.68 2332.44,1425.68 2313.5,1427C 2268.81,1431.51 2224.15,1432.17 2179.5,1429C 2162.89,1428.44 2146.89,1425.11 2131.5,1419C 2129.27,1417.38 2127.94,1415.21 2127.5,1412.5C 2128.29,1407.28 2129.79,1402.28 2132,1397.5C 2161.7,1336.44 2191.7,1275.44 2222,1214.5C 2226.6,1209.9 2231.77,1206.06 2237.5,1203C 2247.12,1198.53 2257.12,1195.19 2267.5,1193C 2292.53,1189.26 2317.53,1186.76 2342.5,1185.5 Z M 2340.5,1233.5 C 2330.26,1234.46 2322.26,1239.29 2316.5,1248C 2298.82,1286.24 2280.32,1324.4 2261,1362.5C 2258.72,1368.67 2256.06,1374.67 2253,1380.5C 2252.26,1382.44 2252.42,1384.27 2253.5,1386C 2266.96,1392.31 2278.79,1390.14 2289,1379.5C 2310.61,1335.29 2331.94,1290.96 2353,1246.5C 2354.71,1243.45 2354.71,1240.45 2353,1237.5C 2348.86,1235.07 2344.7,1233.74 2340.5,1233.5 Z"/></g>
<g><path style="opacity:1" fill="#fefefe" d="M 948.5,1319.5 C 946.167,1315.17 942.833,1311.83 938.5,1309.5C 934.314,1305.15 929.647,1301.32 924.5,1298C 923.517,1297.41 922.85,1297.74 922.5,1299C 944.708,1335.08 951.541,1373.91 943,1415.5C 942.692,1416.31 942.192,1416.97 941.5,1417.5C 930.495,1402.67 916.829,1390.83 900.5,1382C 884.5,1374 868.5,1366 852.5,1358C 816.729,1338.65 798.729,1308.48 798.5,1267.5C 799.276,1255.79 800.443,1244.13 802,1232.5C 803.049,1231.48 804.216,1231.32 805.5,1232C 814.57,1238.81 824.737,1243.31 836,1245.5C 843,1231.5 850,1217.5 857,1203.5C 860.667,1198.17 864.333,1192.83 868,1187.5C 869.818,1185.35 871.318,1185.35 872.5,1187.5C 871.858,1192.37 871.192,1197.2 870.5,1202C 869.632,1212.2 872.132,1221.7 878,1230.5C 883.747,1235.96 890.581,1239.12 898.5,1240C 917.191,1240.59 935.858,1240.09 954.5,1238.5C 965.196,1238.67 975.696,1240 986,1242.5C 985.584,1245.12 984.084,1245.79 981.5,1244.5C 965.58,1246.39 949.914,1249.89 934.5,1255C 932.445,1255.69 930.779,1256.85 929.5,1258.5C 945.101,1257.33 960.101,1260.17 974.5,1267C 986.679,1276.47 991.512,1288.97 989,1304.5C 986.124,1321.47 980.291,1337.3 971.5,1352C 970.668,1352.69 970.002,1352.52 969.5,1351.5C 964.974,1339.09 957.974,1328.42 948.5,1319.5 Z"/></g>
<g><path style="opacity:1" fill="#9f0038" d="M 2781.5,1187.5 C 2813.49,1187.66 2845.16,1187.66 2876.5,1187.5C 2878.54,1188.04 2880.54,1188.71 2882.5,1189.5C 2843.04,1267.62 2804.21,1346.28 2766,1425.5C 2764.17,1427.07 2762.01,1427.91 2759.5,1428C 2720.49,1429.02 2681.49,1429.18 2642.5,1428.5C 2642.99,1421.33 2642.16,1414.33 2640,1407.5C 2624.37,1359.25 2609.04,1310.92 2594,1262.5C 2592.99,1261.66 2591.82,1261.33 2590.5,1261.5C 2565.11,1315.28 2539.95,1369.28 2515,1423.5C 2494.22,1424.53 2473.39,1425.53 2452.5,1426.5C 2450.93,1426.52 2449.6,1426.02 2448.5,1425C 2485.64,1350.57 2521.8,1275.74 2557,1200.5C 2557.5,1196.51 2557.67,1192.51 2557.5,1188.5C 2594.84,1188.97 2632.17,1189.81 2669.5,1191C 2670.94,1191.22 2672.27,1191.72 2673.5,1192.5C 2687.65,1235.48 2701.82,1278.48 2716,1321.5C 2717.67,1322.83 2719.33,1322.83 2721,1321.5C 2739.28,1282 2757.95,1242.66 2777,1203.5C 2778.2,1198.05 2779.7,1192.71 2781.5,1187.5 Z"/></g>
<g><path style="opacity:1" fill="#9f0339" d="M 2973.5,1186.5 C 3045.16,1186.51 3122.66,1186.51 3206,1186.5C 3208.47,1187.12 3210.97,1187.79 3213.5,1188.5C 3207.01,1203.49 3200.51,1218.49 3194,1233.5C 3193.09,1236.58 3191.26,1238.91 3188.5,1240.5C 3158.89,1226.53 3127.73,1220.86 3095,1223.5C 3080.36,1223.95 3066.69,1223.95 3054,1223.5C 3051.26,1224.28 3048.43,1224.78 3045.5,1225C 3035.55,1244.24 3025.88,1263.57 3016.5,1283C 3025.25,1284.15 3034.08,1284.99 3043,1285.5C 3058.78,1284.85 3076.61,1284.85 3096.5,1285.5C 3089.53,1298.61 3082.2,1311.44 3074.5,1324C 3072.57,1324.25 3070.73,1324.75 3069,1325.5C 3047.75,1325.73 3026.59,1325.4 3005.5,1324.5C 3002.38,1324.43 2999.38,1324.93 2996.5,1326C 2986.18,1345.79 2976.85,1365.96 2968.5,1386.5C 3001.79,1386 3035.29,1385.33 3069,1384.5C 3070.4,1385.05 3071.73,1385.38 3073,1385.5C 3092.58,1382.92 3112.25,1379.25 3132,1374.5C 3132.17,1374.83 3132.33,1375.17 3132.5,1375.5C 3121.55,1394.02 3109.89,1411.52 3097.5,1428C 3014.67,1428.65 2931.67,1428.65 2848.5,1428C 2847.69,1427.69 2847.03,1427.19 2846.5,1426.5C 2849.67,1420.83 2852.83,1415.17 2856,1409.5C 2888.55,1340.41 2921.55,1271.75 2955,1203.5C 2956.09,1198.56 2956.75,1193.56 2957,1188.5C 2962.6,1187.85 2968.1,1187.19 2973.5,1186.5 Z"/></g>
<g><path style="opacity:1" fill="#9f0038" d="M 1934.5,1187.5 C 1936.85,1187.84 1939.19,1188.34 1941.5,1189C 1964.87,1189.08 1988.2,1189.92 2011.5,1191.5C 1982.89,1253.71 1954.06,1315.71 1925,1377.5C 1924.02,1379.74 1923.52,1382.07 1923.5,1384.5C 1958.82,1383.61 1994.16,1382.78 2029.5,1382C 2037.52,1381.16 2045.52,1380.16 2053.5,1379C 2065.66,1375.5 2077.66,1371.83 2089.5,1368C 2078.57,1386.6 2068.07,1405.43 2058,1424.5C 2056.79,1426.05 2055.29,1427.22 2053.5,1428C 1968.5,1428.61 1883.5,1428.44 1798.5,1427.5C 1798.34,1425.8 1798.51,1424.13 1799,1422.5C 1835.27,1351.16 1871.27,1279.49 1907,1207.5C 1908.99,1201.68 1909.99,1195.68 1910,1189.5C 1918.27,1188.85 1926.43,1188.18 1934.5,1187.5 Z"/></g>
<g><path style="opacity:1" fill="#9f0238" d="M 3263.5,1187.5 C 3297.31,1187.93 3331.31,1189.1 3365.5,1191C 3335.16,1255.19 3305.49,1319.69 3276.5,1384.5C 3290.04,1383.88 3303.54,1383.21 3317,1382.5C 3335.73,1382.51 3354.39,1382.51 3373,1382.5C 3396.01,1381.4 3418.17,1376.4 3439.5,1367.5C 3440.31,1367.81 3440.97,1368.31 3441.5,1369C 3432.19,1385.79 3423.03,1402.62 3414,1419.5C 3412.36,1422.74 3410.2,1425.58 3407.5,1428C 3322,1428.78 3237,1428.44 3152.5,1427C 3152,1426.5 3151.5,1426 3151,1425.5C 3151.65,1422.5 3152.65,1419.5 3154,1416.5C 3189.26,1346.99 3224.26,1277.32 3259,1207.5C 3261.21,1200.95 3262.71,1194.28 3263.5,1187.5 Z"/></g>
<g><path style="opacity:1" fill="#b9b9bc" d="M 1684.5,1219.5 C 1693.87,1218.1 1702.37,1220.1 1710,1225.5C 1715.58,1233.62 1715.75,1241.78 1710.5,1250C 1710.83,1250.33 1711.17,1250.67 1711.5,1251C 1691.47,1291.88 1671.64,1332.71 1652,1373.5C 1644.82,1389.27 1632.48,1396.93 1615,1396.5C 1591.75,1395.25 1585.41,1384.25 1596,1363.5C 1616.62,1321.59 1637.29,1279.59 1658,1237.5C 1664.22,1227.64 1673.05,1221.64 1684.5,1219.5 Z M 1686.5,1233.5 C 1677.85,1235.1 1671.02,1239.1 1666,1245.5C 1643.24,1291.48 1621.07,1337.64 1599.5,1384C 1600.5,1385.6 1601.66,1387.1 1603,1388.5C 1603.33,1388.17 1603.67,1387.83 1604,1387.5C 1616.96,1391.68 1627.96,1388.68 1637,1378.5C 1658.24,1335.02 1679.24,1291.35 1700,1247.5C 1702.78,1242.13 1701.62,1237.96 1696.5,1235C 1692.91,1234.34 1689.58,1233.84 1686.5,1233.5 Z"/></g>
<g><path style="opacity:1" fill="#b9b9bc" d="M 2335.5,1219.5 C 2364.85,1217.66 2373.35,1230 2361,1256.5C 2342.26,1293.36 2324.26,1330.69 2307,1368.5C 2295.78,1393.68 2276.95,1401.85 2250.5,1393C 2243.31,1387.46 2241.48,1380.62 2245,1372.5C 2267.37,1326.44 2289.7,1280.44 2312,1234.5C 2318.54,1226.69 2326.37,1221.69 2335.5,1219.5 Z M 2340.5,1233.5 C 2330.26,1234.46 2322.26,1239.29 2316.5,1248C 2298.82,1286.24 2280.32,1324.4 2261,1362.5C 2258.72,1368.67 2256.06,1374.67 2253,1380.5C 2252.26,1382.44 2252.42,1384.27 2253.5,1386C 2266.96,1392.31 2278.79,1390.14 2289,1379.5C 2310.61,1335.29 2331.94,1290.96 2353,1246.5C 2354.71,1243.45 2354.71,1240.45 2353,1237.5C 2348.86,1235.07 2344.7,1233.74 2340.5,1233.5 Z"/></g>
<g><path style="opacity:1" fill="#9f0038" d="M 550.5,1304.5 C 585.563,1322.87 619.563,1343.03 652.5,1365C 672.004,1378.83 690.004,1394.5 706.5,1412C 719.334,1412.56 731.334,1415.9 742.5,1422C 750.895,1428.78 754.562,1437.44 753.5,1448C 753.759,1449.26 754.426,1450.26 755.5,1451C 800.585,1472.3 835.752,1504.46 861,1547.5C 868.056,1560.93 873.389,1574.93 877,1589.5C 869.056,1601.78 860.723,1613.78 852,1625.5C 850.951,1626.52 849.784,1626.68 848.5,1626C 830.086,1584.99 806.253,1547.49 777,1513.5C 766.539,1501.71 755.539,1490.71 744,1480.5C 742.893,1480.59 741.893,1480.92 741,1481.5C 719.206,1517.3 691.706,1548.13 658.5,1574C 612.279,1609.11 561.112,1634.94 505,1651.5C 503.5,1651 502,1650.5 500.5,1650C 473.187,1632.03 445.854,1614.03 418.5,1596C 454.351,1592.39 490.017,1587.39 525.5,1581C 563.571,1573.63 599.571,1560.63 633.5,1542C 657.572,1527.93 677.072,1509.1 692,1485.5C 692.49,1484.21 692.657,1482.87 692.5,1481.5C 690.473,1481.34 688.473,1481.5 686.5,1482C 655.701,1500.56 622.701,1513.89 587.5,1522C 517.34,1539.21 446.34,1544.21 374.5,1537C 368.45,1536.28 362.45,1535.28 356.5,1534C 353.966,1533.48 351.8,1532.32 350,1530.5C 332.957,1505.58 315.79,1480.75 298.5,1456C 331.164,1459 363.831,1462.33 396.5,1466C 428.005,1468.42 459.505,1470.59 491,1472.5C 517.479,1471.72 543.979,1470.89 570.5,1470C 596.253,1468.6 621.586,1464.6 646.5,1458C 656.531,1455.33 666.031,1451.49 675,1446.5C 675.667,1445.5 675.667,1444.5 675,1443.5C 657.89,1426.38 639.057,1411.55 618.5,1399C 585.825,1381.88 551.825,1367.88 516.5,1357C 528.24,1339.67 539.574,1322.17 550.5,1304.5 Z"/></g>
<g><path style="opacity:0.929" fill="#be5b7e" d="M 938.5,1309.5 C 942.833,1311.83 946.167,1315.17 948.5,1319.5C 944.833,1316.5 941.5,1313.17 938.5,1309.5 Z"/></g>
<g><path style="opacity:0.929" fill="#be5b7e" d="M 3779.5,1413.5 C 3778.83,1412.17 3778.83,1412.17 3779.5,1413.5 Z"/></g>
<g><path style="opacity:1" fill="#baa3ad" d="M 3779.5,1413.5 C 3780.83,1414.17 3780.83,1414.17 3779.5,1413.5 Z"/></g>
<g><path style="opacity:0.929" fill="#be5b7e" d="M 2513.5,1498.5 C 2514.83,1499.17 2514.83,1499.17 2513.5,1498.5 Z"/></g>
<g><path style="opacity:0.929" fill="#be5b7e" d="M 2515.5,1498.5 C 2516.83,1499.17 2516.83,1499.17 2515.5,1498.5 Z"/></g>
<g><path style="opacity:1" fill="#9f0138" d="M 738.5,1506.5 C 739.539,1512.69 739.373,1519.02 738,1525.5C 734.94,1545.53 731.773,1565.53 728.5,1585.5C 751.353,1577.24 772.353,1565.57 791.5,1550.5C 796.857,1557.37 801.857,1564.53 806.5,1572C 772.861,1599.16 735.528,1620.16 694.5,1635C 693.056,1635.78 691.723,1635.61 690.5,1634.5C 694.956,1620.68 698.789,1606.68 702,1592.5C 704.871,1575.4 708.204,1558.4 712,1541.5C 721.842,1530.51 730.675,1518.84 738.5,1506.5 Z"/></g>
</svg>
