<svg width="200" height="201" viewBox="0 0 200 201" fill="none" xmlns="http://www.w3.org/2000/svg">
<g clip-path="url(#clip0_5_234704)">
<path d="M189.946 25.3321C181.484 14.6901 163.952 2 128.427 2C104.235 2 78.3374 8.71985 57.3668 20.4251C35.3777 32.6969 21.1187 48.8123 17.2014 65.7819L1.23624 135.011C-2.01077 149.07 1.21012 163.529 10.0545 174.659C18.5072 185.301 36.048 197.991 71.5736 197.991C95.7651 197.991 121.663 191.271 142.633 179.566C164.623 167.294 178.882 151.179 182.799 134.209L198.764 64.9801C202.002 50.9216 198.79 36.4621 189.946 25.3321ZM124.997 59.8116C125.937 60.997 126.085 63.0277 125.432 65.8429L110.268 131.595C108.918 137.443 105.297 143.422 88.6791 143.422C79.0164 143.422 75.9609 141.391 75.0034 140.18C74.0632 139.003 73.9152 136.972 74.5681 134.148L89.7237 68.3967C91.073 62.5484 94.6943 56.5694 111.312 56.5694C120.975 56.5694 124.031 58.6001 124.988 59.8116H124.997Z" fill="#BCBBBA"/>
<path d="M14.7987 138.149L30.7726 68.9109C35.2993 49.2743 54.6682 38.8328 54.6682 38.8328L31.2949 140.18C28.0305 154.369 38.32 168.558 74.2373 168.558C97.802 168.558 119.809 161.995 123.499 146.002L142.372 64.1608C147.961 39.9484 107.247 42.014 98.9859 42.9989C115.325 36.3837 165.972 35.5818 160.392 59.829L140.283 147.022C133.362 177.039 98.0545 184.055 71.5822 184.055C26.9511 184.055 9.58437 160.792 14.8074 138.149M111.312 50.9041C124.222 50.9041 133.92 54.1987 130.942 67.1241L115.778 132.876C112.801 145.793 101.571 149.096 88.679 149.096C75.7868 149.096 66.0719 145.801 69.0577 132.876L84.2133 67.1241C87.1905 54.1987 98.4114 50.9041 111.312 50.9041ZM128.427 15.9365C173.058 15.9365 190.424 39.1901 185.201 61.8424L169.236 131.08C164.71 150.717 145.341 161.158 145.341 161.158L168.714 59.8116C171.987 45.6224 161.698 31.4331 125.772 31.4331C102.207 31.4331 80.2003 38.0048 76.5093 53.9895L57.6366 135.83C52.0479 160.043 92.7617 157.977 101.023 156.992C84.6834 163.616 34.037 164.409 39.6257 140.171L59.7345 52.9785C66.6551 22.9614 101.963 15.9452 128.427 15.9452M71.5735 192.335C120.139 192.335 169.915 164.915 177.288 132.946L193.254 63.7163C198.947 39.0071 182.955 7.67395 128.427 7.67395C79.8608 7.67395 30.0849 35.0937 22.7117 67.0631L6.74651 136.292C1.04466 161.002 17.0447 192.335 71.5735 192.335Z" fill="white"/>
<path d="M161.132 177.518H159.896V176.367H161.132C161.445 176.367 161.706 176.629 161.706 176.943C161.706 177.257 161.445 177.518 161.132 177.518ZM162.699 176.943C162.699 176.08 162.002 175.374 161.14 175.374H158.921V180.647H159.904V178.503H160.618L161.61 180.647H162.699L161.663 178.416C162.263 178.198 162.699 177.623 162.699 176.943Z" fill="#BCBBBA"/>
<path d="M160.801 181.641C158.799 181.641 157.18 180.011 157.18 178.015C157.18 176.019 158.799 174.389 160.801 174.389C162.803 174.389 164.422 176.01 164.422 178.015C164.422 180.019 162.803 181.641 160.801 181.641ZM160.801 173.395C158.25 173.395 156.187 175.461 156.187 178.015C156.187 180.568 158.25 182.634 160.801 182.634C163.351 182.634 165.415 180.568 165.415 178.015C165.415 175.461 163.351 173.395 160.801 173.395Z" fill="#BCBBBA"/>
<path d="M128.427 15.9365C101.963 15.9365 66.655 22.944 59.7258 52.9698L39.6257 140.162C34.037 164.401 84.6833 163.608 101.023 156.984C92.7617 157.977 52.0479 160.034 57.6365 135.822L76.5092 53.9808C80.1915 37.9961 102.207 31.4244 125.771 31.4244C161.689 31.4244 171.987 45.6137 168.714 59.8029L145.341 161.15C145.341 161.15 164.709 150.708 169.236 131.072L185.201 61.8337C190.424 39.1814 173.058 15.9278 128.427 15.9278" fill="#DB1E25"/>
<path d="M71.5735 184.055C98.0458 184.055 133.354 177.039 140.274 147.022L160.383 59.8378C165.972 35.5906 115.325 36.3924 98.9859 43.0077C107.247 42.0141 147.961 39.9572 142.372 64.1695L123.5 146.011C119.817 161.995 97.8107 168.567 74.2373 168.567C38.3287 168.567 28.0305 154.378 31.3036 140.18L54.6682 38.8328C54.6682 38.8328 35.308 49.2743 30.7726 68.9109L14.8075 138.149C9.58438 160.801 26.9511 184.055 71.5822 184.055" fill="black"/>
</g>
<defs>
<clipPath id="clip0_5_234704">
<rect width="200" height="196" fill="white" transform="translate(0 2)"/>
</clipPath>
</defs>
</svg>
