<svg width="200" height="201" viewBox="0 0 200 201" fill="none" xmlns="http://www.w3.org/2000/svg">
<g clip-path="url(#clip0_5_234800)">
<g clip-path="url(#clip1_5_234800)">
<path d="M124.462 200C108.453 200 95.4331 186.967 95.4331 170.941C95.4331 154.916 108.453 141.883 124.462 141.883C140.471 141.883 153.491 154.922 153.491 170.941C153.491 186.96 140.471 200 124.462 200Z" fill="#0058A4"/>
<path d="M84.1787 177.934C76.3519 177.934 68.8878 177.119 62.5935 175.571C35.4666 168.907 16.8644 149.841 9.17441 135.541C-1.92948 114.899 -2.97624 92.9631 6.14359 72.1022C8.10713 67.6095 10.4606 64.1236 12.7115 61.48C10.7753 60.5349 9.04442 59.3227 7.64874 57.8913C4.92579 55.0971 3.53011 51.6591 3.61905 47.9334C3.74904 42.6189 7.79926 39.2973 11.0559 36.6264C12.2258 35.6676 13.4299 34.6745 14.0661 33.9006C16.6249 30.7708 19.6352 25.1755 20.2646 22.3813C20.5314 21.1965 20.7572 19.9842 20.9761 18.82C22.0845 12.9096 23.3365 6.21169 30.4654 2.60247C33.9273 0.849228 37.2591 0 40.6457 0C46.6116 0 51.2296 2.65726 55.2935 5.00634C55.403 5.06797 55.5125 5.13646 55.6219 5.1981L56.5045 4.9173C65.6106 1.99295 74.5457 0.506797 83.0498 0.506797C96.2883 0.506797 105.347 4.12971 109.39 6.1706C114.138 5.28028 118.626 4.82827 122.752 4.82827C130.031 4.82827 136.339 6.19799 141.614 8.91689C143.872 8.09506 147.545 6.92395 151.616 6.92395C156.768 6.92395 161.229 8.81416 164.506 12.3823C168.864 17.1284 169.569 23.977 169.562 27.9286C176.198 35.7429 175.767 45.4474 174.768 50.9879C178.059 53.8164 183.19 58.8912 187.952 66.3151C194.951 77.2249 202.572 95.6272 199.145 121.316C197.886 130.719 194.828 137.787 190.052 142.328C186.105 146.081 181.014 148.06 175.329 148.06C172.517 148.06 169.979 147.574 168.036 147.04C161.94 151.69 152.355 156.361 140.56 157.95C124.305 176.434 93.4969 177.92 84.1787 177.92V177.934Z" fill="#0058A4"/>
<path d="M166.777 140.164C166.777 140.164 189.067 150.834 193.117 120.522C199.288 74.3279 167.933 53.3506 167.933 53.3506C167.933 53.3506 173.003 39.1398 163.37 30.2571C163.37 30.2571 164.41 21.2786 160.031 16.512C154.496 10.4852 145.808 13.841 142.667 15.0327C144.843 16.8065 146.3 20.2787 146.3 20.2787C142.435 15.7107 132.884 7.35537 108.405 12.5877C108.405 12.5877 90.2744 0.479366 58.3652 10.718C58.3652 10.718 62.4975 13.5397 65.0495 14.7108C52.9535 14.9231 46.8987 1.10944 33.2087 8.04023C27.7286 10.8139 27.756 16.827 26.1961 23.7236C25.2656 27.8327 21.6054 34.2978 18.773 37.7564C15.9064 41.2697 9.79682 44.1735 9.70104 48.0772C9.55737 54.2273 16.8847 57.8433 22.9669 57.6242C31.3957 57.316 37.8199 55.7271 47.2682 47.454C47.2682 47.454 42.3833 57.4393 23.7605 59.8568C23.7605 59.8568 16.4879 63.6236 11.7125 74.5471C3.311 93.7643 4.48091 113.975 14.5244 132.658C22.4538 147.409 40.4882 163.874 64.0369 169.654C84.6369 174.715 122.341 171.818 137.433 152.19C150.405 150.971 161.051 145.56 166.777 140.164Z" fill="#231F20"/>
<path d="M87.6129 48.3307C85.6973 46.4405 82.297 45.7488 82.297 45.7488C80.4909 57.4873 95.775 58.0694 97.1433 50.2346C95.1592 54.7136 87.7156 54.0356 87.6129 48.3239V48.3307Z" fill="white"/>
<path d="M126.042 61.3704C129.272 54.1794 150.734 53.0768 153.744 60.2199C153.039 55.2272 146.793 52.8097 140.232 53.1315C132.617 53.5014 126.583 56.1586 126.049 61.3773L126.042 61.3704Z" fill="white"/>
<path d="M156.864 61.1376C157.377 64.4386 155.543 67.3356 153.765 67.678C152.752 61.4595 145.78 62.9799 146.663 69.3285L147.929 80.8136C150.522 80.8205 153.874 81.2999 156.159 81.8067C157.363 78.3207 160.914 75.28 164.02 74.4444C165.792 76.7935 166.935 79.9644 165.86 86.0528C167.167 87.1897 169.199 89.4086 170.184 90.84C174.447 97.038 176.465 110.797 175.322 118.166C179.674 108.763 183.546 72.3967 156.857 61.1376H156.864Z" fill="white"/>
<path d="M159.217 82.6628C160.579 83.1422 161.865 83.7243 163.076 84.4023C163.076 84.4023 164.143 81.1835 162.816 78.355C160.319 79.5603 159.217 82.4025 159.217 82.6628Z" fill="white"/>
<path d="M125.433 86.8677C126.542 86.2513 127.705 85.6692 128.923 85.135C128.211 82.9846 126.98 80.567 125.693 79.1904C124.907 82.3202 125.173 84.9227 125.433 86.8677Z" fill="white"/>
<path d="M120.932 89.8675C120.98 89.8333 121.028 89.7922 121.076 89.7579C120.357 84.1284 121.541 76.2045 123.785 73.0816C127.828 74.8827 130.216 79.6836 131.919 83.9298C134.8 82.8888 138.734 81.93 141.812 81.4163L140.882 71.1777C140.081 61.9594 132.98 63.4798 132.569 69.3765C128.451 70.5818 121.185 69.1025 122.259 60.8705C103.328 70.2805 95.878 86.5322 88.3386 111.995C87.2781 99.4213 90.4868 86.7377 94.4344 78.4166C99.5588 67.6232 111.73 56.8024 124.312 52.7891C97.5268 52.8165 92.6283 67.8698 79.6087 63.8154C72.1514 61.4869 71.1594 51.6317 71.1594 51.6317C20.7916 67.5342 35.1316 123.474 60.5139 130.309C61.4375 110.626 67.1639 94.778 76.9063 84.9023C73.0682 94.7711 66.0898 115.022 67.376 132.98C68.2107 144.622 78.8151 161.435 92.6283 154.902C96.5622 153.039 103.985 146.485 107.085 130.315C107.604 127.59 108.001 124.672 108.419 121.672C110.102 109.639 111.839 97.1955 120.932 89.8607V89.8675Z" fill="white"/>
<path d="M63.2505 151.752C41.1248 144.828 18.8076 125.624 18.9102 93.8671C18.9376 86.183 22.9331 77.4647 25.2797 73.0062C23.884 74.5677 22.2489 76.8483 20.8464 80.0466C13.7995 96.1682 14.6479 113.187 23.2957 129.274C29.891 141.54 45.7429 156.176 66.295 161.223C68.4227 161.744 70.7899 162.168 73.3076 162.476C69.6405 160.36 66.3429 157.141 63.2574 151.738L63.2505 151.752Z" fill="white"/>
<path d="M165.614 95.3943C160.024 82.0326 133.924 87.5732 124.92 94.8327C113.276 104.222 116.526 127.727 110.437 141.759C127.445 145.752 139.363 135.239 147.792 126.877C146.697 132.267 145.465 134.89 142.626 138.534C152.601 138.027 175.876 119.919 165.614 95.3874V95.3943ZM122.957 107.078C124.14 103.606 125.755 100.688 128.108 98.7912C132.029 95.6271 141.073 92.3535 149.413 92.3535C153.716 92.3535 162.097 92.0248 163.281 103.441C160.743 98.8734 154.749 97.0311 151.363 97.0105C143.584 96.9626 133.698 98.4488 122.957 107.078Z" fill="white"/>
<path d="M87.9141 29.1888C81.8867 31.5447 76.8992 34.8252 73.4305 42.16C83.8365 29.2504 96.8287 46.1254 108.117 47.8855C116.361 49.173 123.552 44.8789 132.111 47.454C133.233 39.311 126.904 33.8047 124.387 31.62C132.097 33.6472 137.666 38.9617 139.281 47.0089C145.11 44.9817 147.306 49.5497 149.003 44.0503C151.732 35.1745 132.877 18.0118 109.171 24.2304C98.0944 18.0529 79.8411 19.0734 73.0542 33.387C76.3929 31.894 81.3325 28.7025 87.921 29.1888H87.9141Z" fill="white"/>
<path d="M124.462 193.912C111.812 193.912 101.515 183.611 101.515 170.941C101.515 158.271 111.805 147.971 124.462 147.971C137.119 147.971 147.408 158.271 147.408 170.941C147.408 183.611 137.119 193.912 124.462 193.912Z" fill="#231F20"/>
<path d="M141.327 170.941C141.327 180.262 133.78 187.816 124.469 187.816C115.158 187.816 107.611 180.262 107.611 170.941C107.611 161.62 115.158 154.066 124.469 154.066C133.78 154.066 141.327 161.62 141.327 170.941Z" fill="white"/>
<path d="M133.158 172.578C130.879 172.777 129.183 173.503 126.863 175.229C123.354 177.845 120.377 178.694 120.377 178.694C120.377 178.694 120.747 178.893 123.819 177.879C124.106 177.783 124.393 177.667 124.681 177.543L124.736 178.331L124.236 179.317H130.305L129.675 174.516C130.578 173.968 131.461 173.544 132.295 173.4C136.613 172.674 139.671 173.989 139.671 173.989C139.671 173.989 137.96 172.167 133.158 172.578Z" fill="#0058A4"/>
<path d="M119.146 176.934C120.665 176.427 122.444 175.544 124.503 174.099C133.062 168.092 137.338 170.003 140.827 173.27C140.827 173.27 138.925 168.907 132.569 169.277C131.303 169.352 130.161 169.633 129.1 170.051L128.136 162.62H120.836L110.875 179.31H117.319L117.265 178.324L117.812 177.297C118.236 177.208 118.674 177.091 119.146 176.934ZM123.278 167.113H123.956L124.346 172.763C122.758 173.722 120.658 174.907 118.647 175.742L123.271 167.113H123.278Z" fill="#0058A4"/>
<path d="M127.459 158.162C127.636 159.819 126.439 161.305 124.783 161.483C123.128 161.662 121.643 160.463 121.465 158.806C121.287 157.148 122.485 155.662 124.14 155.484C125.796 155.306 127.281 156.505 127.459 158.162Z" fill="#231F20"/>
<path d="M125.885 156.354C125.885 156.819 125.249 157.196 124.462 157.196C123.675 157.196 123.039 156.819 123.039 156.354V152.971C123.039 152.505 123.675 152.128 124.462 152.128C125.249 152.128 125.885 152.505 125.885 152.971V156.354Z" fill="white"/>
<path d="M160.455 161.059H158.964V160.004H163.212V161.059H161.701V165.545H160.455V161.059Z" fill="#0058A4"/>
<path d="M168.528 163.422C168.501 162.757 168.48 161.949 168.48 161.148H168.467C168.289 161.853 168.056 162.641 167.844 163.291L167.174 165.449H166.195L165.607 163.312C165.429 162.655 165.244 161.867 165.108 161.141H165.094C165.067 161.888 165.039 162.744 165.005 163.435L164.895 165.538H163.739L164.095 160.004H165.758L166.298 161.853C166.476 162.497 166.64 163.182 166.763 163.833H166.797C166.948 163.189 167.133 162.463 167.324 161.846L167.906 160.004H169.548L169.842 165.538H168.631L168.542 163.422H168.528Z" fill="#0058A4"/>
</g>
</g>
<defs>
<clipPath id="clip0_5_234800">
<rect width="200" height="200" fill="white" transform="translate(0 0.299805)"/>
</clipPath>
<clipPath id="clip1_5_234800">
<rect width="200" height="200" fill="white"/>
</clipPath>
</defs>
</svg>
