<?xml version="1.0" encoding="UTF-8"?>
<svg width="200px" height="200px" viewBox="0 0 200 200" version="1.1" xmlns="http://www.w3.org/2000/svg" xmlns:xlink="http://www.w3.org/1999/xlink">
    <!-- Generator: Sketch 54.1 (76490) - https://sketchapp.com -->
    <title>albany-st-ga</title>
    <desc>Created with Sketch.</desc>
    <g id="albany-st-ga" stroke="none" stroke-width="1" fill="none" fill-rule="evenodd">
        <g id="albany-st-ga_BGD">
            <g id="albany-st-ga" transform="translate(0.000000, 9.000000)">
                <g id="g10" transform="translate(99.574060, 90.860975) scale(-1, 1) rotate(-180.000000) translate(-99.574060, -90.860975) translate(0.000000, 0.120234)" fill-rule="nonzero">
                    <g id="g12" transform="translate(0.075221, 0.000000)">
                        <path d="M105.250371,179.71025 C137.977609,174.77681 160.640881,153.124526 167.643222,120.856894 C167.944859,119.471173 168.512026,118.268811 169.197292,117.073964 C171.810476,112.517013 174.03928,107.682016 177.112066,103.459471 C181.334984,97.6558215 182.360249,91.5019838 180.785117,84.7567343 C180.139719,81.9935567 180.766311,79.6902825 182.106001,77.2787957 C186.723078,68.9705511 191.174668,60.5713028 195.736834,52.2320223 C196.243825,51.3055274 198.115738,48.4467899 198.115738,43.1605884 C198.115738,40.8171069 197.84578,37.3298603 197.218352,34.1153655 C196.460793,29.7822385 196.808704,25.3539319 196.518382,20.9902303 C196.206214,16.2926781 194.622056,12.9990335 190.381085,10.7792483 C186.081441,8.52835191 182.158656,5.61728381 178.045561,3.03379166 C176.588397,2.11874516 175.108355,1.29744448 173.5479,0.629888559 C173.067941,0.42456446 171.903281,0.0592961982 167.85298,0.0592961982 C163.601403,0.0592961982 162.055497,0.401119777 161.547035,0.515707476 C159.146267,1.05674714 156.643346,0.854166206 154.216238,1.23230056 C151.624116,1.63592589 149.926374,2.73701872 148.73487,5.13028973 C145.791464,11.0428661 141.837086,16.1094682 136.027001,19.5812126 C133.535675,21.0698116 131.515986,21.0022539 129.216474,19.1385932 C116.831304,9.09579151 102.546799,5.02050658 86.678888,5.00259891 C61.8967386,4.97471163 40.8421755,13.58526 23.8909287,31.4936117 C11.1850157,44.917154 3.26125255,60.8718933 1.26965105,79.4866325 C1.15446935,80.5657521 0.578850432,84.6888113 0.578850432,95.7765124 C0.578850432,99.1902337 0.328024126,104.63159 1.56580834,113.386305 C2.91052673,120.497107 5.36041831,127.277054 8.87933559,133.740201 C22.1073589,158.036174 42.5366834,172.819212 69.2193715,179.342776 C71.6276533,179.931933 80.8372417,181.235824 88.5112614,181.235824 C95.6072436,181.235824 96.8875457,180.94559 98.777256,180.688112 C100.640019,180.406137 102.785227,180.081857 105.250371,179.71025 Z" id="path14" fill="#2954AB"></path>
                        <path d="M5.43032342,94.2636584 C4.88291622,129.035209 27.8503467,160.106491 62.3198578,171.359094 C83.4466332,178.25539 104.43786,176.949325 124.72276,168.333651 C145.188943,159.641327 157.34544,143.635638 162.358933,122.165214 C163.166056,118.708424 164.25902,115.507136 166.083886,112.471924 C169.049106,107.538484 171.749547,102.443476 174.76366,97.5408457 C176.291403,95.0557142 176.992464,92.6149199 176.341049,89.7390208 C174.841138,83.1185164 175.822774,77.0834119 179.692153,71.2496278 C183.136531,66.053847 185.464627,60.1271805 188.816484,54.8606857 C192.148031,49.625302 193.310198,44.3259678 192.282676,38.2028654 C191.290509,32.2946852 190.885067,26.2805468 190.396881,20.2980457 C190.248695,18.4818782 189.628873,17.3755551 188.068785,16.4120876 C182.74162,13.1229519 177.470871,9.73747694 172.264812,6.25985599 C170.360211,4.9876295 168.519549,4.36384423 166.296762,5.15524625 C165.718311,5.36190217 165.066896,5.40299289 164.444064,5.44233266 C158.066811,5.84713029 153.260177,7.87937715 149.894781,14.2346105 C146.460181,20.716693 140.212308,24.9378845 133.034702,27.3002999 C131.727357,27.7309709 130.573464,28.1862151 129.257093,26.9583031 C109.811662,8.81721932 86.7638879,7.14870943 62.881384,14.3165214 C30.20981,24.1214809 12.5152273,47.5775297 6.59537187,80.5462138 C5.75266129,85.239182 5.61602951,89.9990316 5.43032342,94.2636584" id="path16" fill="#FFFFFF"></path>
                        <path d="M86.8014985,169.459362 C102.64233,169.248198 115.90157,167.008047 127.982846,160.127532 C144.135094,150.92721 153.438451,136.813738 156.943007,118.761028 C157.383051,116.494576 158.045749,114.446803 159.19889,112.474179 C162.4838,106.853889 165.625789,101.148682 168.977646,95.5682209 C170.209769,93.5166912 170.804769,91.5117529 170.230831,89.1806741 C168.42477,81.8522792 170.052557,75.367792 174.112997,68.9810718 C178.333658,62.3417054 181.672727,55.1448188 185.460114,48.2268802 C186.335689,46.6267621 186.701264,45.0750391 186.504184,43.2248298 C185.800866,36.6291993 185.190822,30.0223718 184.687592,23.4084804 C184.554451,21.6568647 183.690159,20.7325491 182.332417,19.8962314 C179.239321,17.9901874 176.056712,16.1875466 173.174988,13.9953405 C169.942734,11.536661 166.739815,10.8737839 162.70495,11.8125279 C159.708138,12.510574 157.630528,13.4267737 155.947078,16.2145997 C151.708364,23.2349645 145.76965,28.5845726 138.130186,31.776317 C135.932975,32.6944705 135.673461,33.3986787 136.916116,35.4922911 C143.422749,46.4570788 147.25903,58.2423281 147.132658,71.1257094 C146.914517,93.459579 131.64988,110.522595 109.504008,113.117442 C108.005601,113.293288 107.039761,113.796777 106.085956,114.968328 C99.4619779,123.105311 90.8687085,125.449165 81.1493779,122.160705 C66.44732,117.187437 57.1331307,107.09361 55.8720474,91.3013396 C54.6676056,76.2184629 62.6492514,65.5196226 74.8080807,57.8117323 C85.8537114,50.8088769 97.4911826,49.464411 109.272326,56.3374865 C115.059093,59.7138686 118.952542,64.5585598 120.369709,71.2322688 C122.186301,79.7872229 118.991657,87.251635 111.460511,91.762746 C107.096177,94.3771313 102.293304,95.7455693 97.2880854,96.4647319 C95.3639272,96.7412751 93.464592,97.08996 93.0914949,99.4601156 C92.7417163,101.690497 94.1739279,102.99055 95.8483517,103.947179 C101.344764,107.083841 107.282726,107.579063 113.322988,106.228661 C131.756694,102.107566 143.619076,83.7768095 140.909609,63.8055808 C136.694965,32.7312176 110.962546,13.7355552 79.6720336,16.9082121 C40.8236711,20.8466984 9.42822465,52.8740083 11.7206658,99.1760576 C13.4396206,133.890496 40.7111402,163.227371 75.4527263,168.506491 C79.9300423,169.186577 84.4192432,169.41728 86.8014985,169.459362" id="path18" fill="#2A55AB"></path>
                        <path d="M99.8884821,112.301339 C96.2635727,111.109498 92.8951676,110.110786 90.0841515,107.875145 C83.9791993,103.018355 84.5599069,95.44047 91.5502126,92.1144368 C95.2578653,90.3499709 99.3070223,89.3061706 103.187684,87.8979044 C108.711928,85.8929662 113.599049,83.226729 114.069182,76.4529235 C114.5175,69.9773788 110.746662,64.0025427 104.33255,60.8584418 C103.994807,60.6937183 103.662329,60.5178729 103.317064,60.3705084 C88.9295061,54.2054737 69.4999466,64.486343 63.877764,81.2375718 C58.928435,95.9837872 68.2638367,112.368972 83.7843764,116.178956 C89.7561871,117.645086 95.1232194,116.427694 99.8884821,112.301339" id="path20" fill="#2B56AB"></path>
                        <path d="M13.3232534,94.7588812 C12.6609307,136.994844 48.0208351,165.284913 82.2972533,167.469454 C98.7007394,168.515508 114.616792,166.277613 128.991563,157.534188 C143.173767,148.907243 151.610576,136.159202 154.86991,120.03478 C155.655972,116.144388 156.938493,112.644764 158.970218,109.293932 C161.30734,105.441114 163.18787,101.285451 165.770966,97.6152418 C168.439814,93.8232934 169.016009,89.908103 168.053929,85.5916243 C166.96924,80.7258166 167.853841,76.4416513 170.467778,72.0536321 C175.142023,64.2091986 179.198702,55.9984956 183.548743,47.9585281 C184.334053,46.5081792 184.991486,45.120278 184.800424,43.3678357 C184.121929,37.1493711 183.551752,30.9188076 182.926664,24.6936548 C182.789009,23.3265695 182.616753,22.0798706 181.18078,21.2156731 C177.210606,18.825378 173.384103,16.1981424 169.419946,13.7977774 C166.335877,11.9326138 159.805173,13.6710034 157.840395,16.7690388 C153.522699,23.5752329 148.028543,29.1437459 140.645582,32.5586036 C138.45138,33.5736975 138.391203,34.3665048 139.496955,36.3911317 C145.404827,47.2062253 149.052303,58.6773576 148.921418,71.1518608 C148.678454,94.1276412 132.852667,111.97595 110.006485,114.907458 C108.565247,115.092321 107.828831,115.815993 106.968301,116.749326 C99.2325533,125.147071 90.0660984,127.503701 79.3425648,123.453244 C65.6477939,118.280834 56.6747327,108.67697 54.3646146,94.0291979 C52.0680363,79.4678456 58.4918512,68.1271695 69.5440262,59.3058171 C82.565793,48.9120009 97.2647668,47.3438958 109.815423,54.5331173 C115.950464,58.0470946 120.227541,63.0805567 121.908735,70.0857417 C124.327096,80.1659669 120.462231,88.8913558 111.367989,93.8638731 C107.138301,96.1761651 102.527242,97.3432074 97.8447222,98.2825526 C96.6742804,98.5177646 95.0637946,98.2246889 94.8907859,99.9237764 C94.7418479,101.37638 96.0491923,102.092536 97.1421562,102.650132 C103.034232,105.65829 109.153477,105.867201 115.388562,103.884055 C130.220677,99.165537 140.272485,84.2231863 139.426247,68.1926231 C137.896248,39.2000742 117.479711,19.318196 88.467648,18.5696506 C50.6876521,17.5951364 19.0606748,44.7903048 14.1868679,82.4038627 C13.6543771,86.5106795 13.3546958,90.6227567 13.3232534,94.7588812" id="path22" fill="#E09A14"></path>
                        <path d="M95.6535288,113.230164 C93.5345477,112.024796 91.65477,111.091463 89.9209215,109.940201 C86.1237555,107.418999 83.8851728,103.959203 84.1777832,99.2497023 C84.4703937,94.5454619 87.3791973,91.7672548 91.4847701,90.1448179 C95.4368917,88.5832506 99.4980841,87.2982265 103.484807,85.8223274 C108.046973,84.1330092 111.962988,81.6794397 112.284935,76.2237233 C112.618165,70.5732994 109.9606,66.2329237 105.255514,63.3981305 C98.4276865,59.2862036 91.1944163,59.4147811 83.9558807,62.3628218 C69.7705924,68.1424245 61.6123272,83.1290371 65.3308118,96.4654834 C68.7157656,108.607083 82.5582709,117.453459 93.2592381,114.294254 C93.9557864,114.087598 94.5996798,113.704345 95.6535288,113.230164" id="path24" fill="#E09A14"></path>
                        <path d="M147.242481,107.504667 C151.651948,101.146428 155.996724,94.7415972 160.509996,88.4577541 C161.82411,86.6279098 161.873004,85.239182 160.473137,83.5025207 C158.934112,81.5945229 157.619245,79.5054194 155.737211,76.8271586 C153.428672,87.3726226 150.102391,96.7217367 146.466951,105.967899 C146.090093,106.800534 145.838854,107.570046 147.242481,107.504667" id="path26" fill="#2D5AAB"></path>
                        <path d="M147.242481,107.504667 C146.536154,107.218355 146.605358,106.541275 146.466951,105.967899 C145.425889,107.464087 144.800049,109.109069 144.340448,111.206438 C145.960712,110.116047 146.712924,108.893395 147.242481,107.504667" id="path28" fill="#4C7273"></path>
                        <path d="M156.446547,81.7560903 C154.948141,86.7436371 153.450487,91.7304325 151.952833,96.7179793 C152.104027,96.8036476 152.255222,96.8900674 152.406416,96.9757356 C154.660796,93.7128264 157.070883,90.5438517 159.12066,87.1577005 C160.792827,84.3967773 157.316856,83.6468041 156.446547,81.7560903" id="path30" fill="#F5F9FC"></path>
                    </g>
                </g>
            </g>
        </g>
    </g>
</svg>