<?xml version="1.0" encoding="UTF-8"?>
<svg width="200px" height="200px" viewBox="0 0 200 200" version="1.1" xmlns="http://www.w3.org/2000/svg" xmlns:xlink="http://www.w3.org/1999/xlink">
    <title>charleston-wv_BGD</title>
    <g id="charleston-wv_BGD" stroke="none" stroke-width="1" fill="none" fill-rule="evenodd">
        <g id="charleston-wv" transform="translate(0.000000, 5.000000)">
            <path d="M99.9624765,0.225140713 L100.146341,0.225140713 C108.84803,1.47467167 117.459662,3.92870544 125.688555,6.99437148 C146.120075,14.6378987 164.874296,26.6716698 180.604128,41.7598499 C183.193246,44.3414634 185.891182,46.8742964 188.255159,49.6660413 C185.534709,49.6697936 182.814259,49.6547842 180.093809,49.6697936 C184.487805,60.4765478 188.881801,71.2833021 193.253283,82.0938086 C189.939962,80.3339587 186.705441,78.4277674 183.399625,76.6529081 C188.65666,89.9737336 193.95122,103.287054 199.223265,116.604128 C199.377111,117.020638 199.523452,117.440901 199.662289,117.864916 C193.009381,119.362101 186.547842,121.849906 180.35272,124.667917 C169.013133,129.714822 158.180113,136.243902 148.052533,143.407129 C131.868668,154.91182 117.091932,168.4803 103.711069,183.125704 C102.251407,185.196998 101.302064,187.654784 100.060038,189.868668 C98.5403377,187.332083 97.9324578,184.382739 95.8649156,182.412758 C82.836773,168.022514 68.1763602,154.990619 52.3302064,143.778612 C36.217636,132.435272 18.945591,123.159475 0,117.530957 L0,117.429644 C0.243902439,117.140713 0.457786116,116.836773 0.637898687,116.510319 C5.93245779,103.238274 11.3283302,89.9324578 16.6003752,76.6566604 C13.2833021,78.424015 10,80.2476548 6.69043152,82.0262664 C11.0281426,71.3133208 15.6247655,60.6604128 19.9324578,49.9437148 C17.0769231,49.8161351 14.206379,49.804878 11.3470919,49.7448405 C20.217636,40.6829268 30.120075,32.5966229 40.5290807,25.3733583 C51.587242,17.7636023 63.4033771,11.2120075 75.988743,6.48030019 C83.7410882,3.57223265 91.7673546,1.43339587 99.9624765,0.225140713" id="Fill-1" fill="#E6AD30"></path>
            <path d="M101.298311,9.60600375 C116.015009,15.054409 130.596623,21.1219512 144.589118,28.2439024 C151.729831,31.9399625 158.956848,36.011257 165.399625,40.836773 C168.649156,43.3170732 171.909944,46.1125704 174.30394,49.4521576 C172.356473,49.4934334 170.412758,49.467167 168.465291,49.467167 C171.320826,56.0787992 174.288931,62.641651 177.129456,69.2570356 C174.345216,68.120075 171.594747,66.8855535 168.791745,65.7973734 C174.926829,80.7242026 181.106942,95.6397749 187.272045,110.559099 C183.223265,112.750469 179.193246,114.971857 175.189493,117.249531 C157.290807,127.467167 139.624765,138.390244 123.076923,150.694184 C115.894934,156.101313 108.750469,161.921201 102.461538,168.35272 C102.116323,168.705441 101.879925,169.031895 101.782364,169.523452 C101.320826,171.425891 100.930582,173.350844 100.442777,175.249531 C99.5684803,173.324578 99.3658537,171.125704 98.6153846,169.155722 C98.3789869,168.78424 98.0412758,168.469043 97.7298311,168.161351 C87.8123827,158.750469 76.9981238,150.157598 65.8874296,142.198874 C50.5741088,131.290807 34.4052533,121.590994 17.5459662,113.260788 C16.0487805,112.465291 14.4540338,111.864916 13.0131332,110.97561 C19.0731707,95.9662289 25.0919325,80.9268293 31.1106942,65.8986867 C28.6754221,66.8968105 26.3076923,68.0450281 23.8761726,69.054409 C26.3864916,62.7054409 28.9718574,56.3864916 31.4746717,50.0337711 C29.3545966,50.0375235 27.2345216,50.0375235 25.1144465,50.0375235 C30.4803002,44.5103189 36.9005629,39.8949343 43.3058161,35.6472795 C60.5065666,24.4615385 79.8761726,16.011257 99.2420263,9.36210131 C100,9.02439024 100.581614,9.369606 101.298311,9.60600375" id="Fill-2" fill="#521E2B"></path>
            <path d="M98.7729831,21.7485929 C99.8949343,21.5046904 100.866792,21.8386492 101.928705,22.1425891 C115.508443,26.1050657 128.701689,31.7598499 140.712946,39.2532833 C149.624765,44.8818011 158.251407,51.8424015 164.679174,60.2514071 C160.893058,59.5947467 157.20075,58.4202627 153.437148,57.6360225 C153.579737,58 153.726079,58.3639775 153.876173,58.7242026 C160.878049,74.3827392 167.969981,90.0187617 174.941839,105.684803 C174.011257,106.43152 172.994371,107.031895 171.981238,107.658537 C160.574109,114.893058 149.155722,122.116323 137.748593,129.358349 C136.746717,130.018762 135.737336,130.65666 134.664165,131.196998 C135.992495,128.071295 138.018762,125.245779 139.272045,122.097561 C138.150094,122.919325 137.339587,123.984991 136.427767,125.016886 C129.707317,132.427767 123.02439,139.883677 116.30394,147.298311 C115.459662,148.273921 114.675422,149.26454 113.624765,150.033771 C114.108818,148.412758 114.97561,147.073171 115.681051,145.545966 C119.377111,137.778612 122.705441,129.834897 125.628518,121.741088 C129.984991,109.560976 133.692308,96.4690432 134.634146,83.5272045 C134.97561,76.9418386 134.765478,70.5778612 132.570356,64.2926829 C131.88743,62.4652908 131.148218,60.5928705 129.966229,59.0318949 C129.362101,63.8949343 127.793621,68.5065666 124.577861,72.2739212 C123.324578,73.8311445 121.744841,74.8930582 120.195122,76.120075 C120.168856,81.3245779 118.49531,86.4052533 115.662289,90.7467167 C114.851782,91.9624765 114.086304,93.1594747 112.983114,94.1425891 C111.369606,92.4540338 109.816135,90.7091932 108.17636,89.043152 C106.243902,87.065666 104.491557,84.8893058 102.442777,83.0281426 C99.2082552,86.4990619 96.206379,90.1913696 92.9793621,93.6697936 C91.1332083,91.6135084 89.6360225,89.2045028 88.2626642,86.8142589 C86.0900563,82.8592871 84.4015009,78.6454034 84.9643527,74.0375235 C83.4859287,72.6153846 81.9212008,71.3020638 80.5478424,69.7711069 C77.879925,66.8855535 75.5572233,63.7898687 74.8592871,59.8273921 C74.0938086,61.260788 73.564728,62.7842402 73.0881801,64.3339587 C71.5834897,69.2457786 70.8330206,74.6866792 71.684803,79.782364 C71.9099437,81.6097561 72.5403377,83.3208255 72.84803,85.1294559 C72.3001876,84.7579737 71.7711069,84.3677298 71.3058161,83.891182 C69.1894934,81.7523452 67.0956848,79.5984991 64.8780488,77.564728 C58.727955,71.4484053 52.5365854,65.3921201 46.4052533,59.249531 C45.9324578,58.8592871 45.3395872,58.1013133 44.6604128,58.3189493 C41.7523452,58.8292683 38.8968105,59.6472795 35.9812383,60.1050657 C36.5891182,59.1407129 37.3508443,58.3114447 38.1425891,57.4934334 C42.2138837,52.9530957 46.7954972,48.8517824 51.4821764,44.956848 C65.2082552,33.793621 81.2570356,25.0281426 98.7729831,21.7485929" id="Fill-3" fill="#454849"></path>
            <path d="M74.9756098,65.0769231 C76.9118199,68.6041276 78.6378987,72.2476548 80.5140713,75.804878 C83.3245779,81.3921201 86.2363977,86.9305816 89.0168856,92.5290807 C85.1369606,92.1913696 81.4296435,91.3545966 78.315197,88.8893058 C75.5084428,86.6791745 73.9624765,83.4446529 73.3733583,79.9737336 C72.630394,75.4409006 73.3058161,70.5778612 74.6041276,66.1988743 C74.7242026,65.8236398 74.8517824,65.4484053 74.9756098,65.0769231" id="Fill-4" fill="#E6AD30"></path>
            <path d="M130.806754,65.5196998 C131.448405,66.84803 131.782364,68.2101313 132.153846,69.6322702 C133.159475,73.6472795 133.636023,78.1463415 132.690432,82.206379 C131.973734,85.3095685 130.292683,88.1350844 127.688555,90.011257 C124.754221,92.1726079 120.803002,93.0881801 117.219512,93.3170732 C121.688555,84.0262664 126.281426,74.7804878 130.806754,65.5196998" id="Fill-5" fill="#E6AD30"></path>
            <path d="M102.247655,95.8649156 L102.382739,96.0037523 C102.296435,112.851782 102.371482,129.714822 102.348968,146.566604 C102.356473,149.031895 102.318949,151.497186 102.382739,153.962477 L102.326454,154.645403 C101.459662,153.061914 100.769231,151.407129 99.9774859,149.786116 C93.4258912,135.849906 86.8442777,121.928705 80.3114447,107.988743 C82.4878049,108.551595 84.641651,109.204503 86.8217636,109.771107 C86.945591,106.851782 87.15197,103.93621 87.272045,101.016886 C88.8818011,102.97561 90.3677298,105.035647 91.9362101,107.02439 C94.7317073,103.988743 97.4934334,100.923077 100.281426,97.879925 C100.930582,97.1782364 101.485929,96.4577861 102.247655,95.8649156" id="Fill-6" fill="#FFFFFE"></path>
            <path d="M102.382739,96.0037523 C105.853659,99.5534709 108.926829,103.497186 112.307692,107.133208 C114.011257,105.335835 115.354597,103.26454 117.065666,101.497186 C117.283302,104.356473 117.08818,107.242026 117.178236,110.116323 C119.422139,109.58349 121.572233,108.742964 123.827392,108.251407 C123.121951,110.135084 122.187617,111.876173 121.358349,113.707317 C115.636023,125.988743 109.902439,138.270169 104.180113,150.551595 C103.658537,151.737336 103.118199,152.893058 102.382739,153.962477 C102.318949,151.497186 102.356473,149.031895 102.348968,146.566604 C102.371482,129.714822 102.296435,112.851782 102.382739,96.0037523" id="Fill-7" fill="#454849"></path>
            <path d="M100.840525,99.891182 C100.866792,100.904315 100.863039,101.909944 100.769231,102.919325 C100.060038,102.818011 99.3470919,102.724203 98.6341463,102.637899 C99.3771107,101.726079 100.097561,100.79925 100.840525,99.891182" id="Fill-8" fill="#521E2B"></path>
            <path d="M103.606004,99.9362101 C104.442777,100.754221 105.159475,101.651032 105.82364,102.615385 C105.08818,102.739212 104.348968,102.859287 103.609756,102.97561 C103.557223,101.958724 103.549719,100.949343 103.606004,99.9362101" id="Fill-9" fill="#521E2B"></path>
        </g>
    </g>
</svg>