<?xml version="1.0" encoding="UTF-8"?>
<svg width="200px" height="200px" viewBox="0 0 200 200" version="1.1" xmlns="http://www.w3.org/2000/svg" xmlns:xlink="http://www.w3.org/1999/xlink">
    <!-- Generator: Sketch 54.1 (76490) - https://sketchapp.com -->
    <title>eastern</title>
    <desc>Created with Sketch.</desc>
    <g id="eastern" stroke="none" stroke-width="1" fill="none" fill-rule="evenodd">
        <g id="eastern_BGD">
            <g id="eastern" transform="translate(0.000000, 46.000000)">
                <g id="g10" transform="translate(99.999998, 53.907347) scale(-1, 1) rotate(-180.000000) translate(-99.999998, -53.907347) translate(0.000000, 0.122037)">
                    <g id="g12">
                        <path d="M165.781013,4.73649706 L165.781013,4.24903944 L164.401578,4.24903944 L164.401578,0.642743487 L163.837962,0.642743487 L163.837962,4.24903944 L162.458527,4.24903944 L162.458527,4.73649706 L165.781013,4.73649706 Z M166.27412,4.73649706 L167.06847,4.73649706 L168.24429,1.27507115 L169.412877,4.73649706 L170.19864,4.73649706 L170.19864,0.642743487 L169.67186,0.642743487 L169.67186,3.05880218 L169.67751,3.47369483 L169.68316,4.09534453 L168.515476,0.642743487 L167.966323,0.642743487 L166.7896,4.09534453 L166.7896,3.97016939 L166.79525,3.5102372 L166.804064,3.05880218 L166.804064,0.642743487 L166.27412,0.642743487 L166.27412,4.73649706 L166.27412,4.73649706 Z" id="path14" fill="#6A1F32"></path>
                        <path d="M136.155477,70.1862129 C136.484742,68.5520887 136.627115,66.9044051 136.636607,65.3118628 C138.249714,64.7317498 139.780787,64.1129927 141.224403,63.4607894 C144.944177,69.7403372 151.950731,73.9688117 160.421239,69.3190943 C163.592538,71.2784163 168.906888,72.7299417 172.806549,69.5771734 C179.51864,72.2002242 186.840221,66.0320887 184.847453,59.1979646 C184.888357,58.3367217 184.854007,57.4431624 184.717284,56.5414675 L199.938526,56.6006766 L194.544176,47.4045186 L194.544176,24.7661011 L199.271859,15.624203 L176.018075,15.624203 C175.281126,12.5484743 173.201352,9.74241784 168.824629,8.47211278 L167.928809,7.57557043 L167.513894,7.45331055 C165.488357,6.85602243 163.399318,6.69624842 161.341917,6.89380774 L161.341917,0 L38.5966092,0 L38.5966092,6.89380774 C36.5396601,6.69624842 34.4499426,6.85602243 32.4248579,7.45331055 L32.0097167,7.57557043 L31.1136715,8.47211278 C26.7369485,9.74241784 24.6569485,12.5484743 23.9199994,15.624203 L0.666578514,15.624203 L5.39414676,24.7661011 L5.39414676,47.4045186 L0,56.6006766 L15.2207906,56.5414675 C15.0844742,57.4431624 15.0501465,58.3367217 15.0909149,59.1979646 C13.09835,66.0320887 20.4200221,72.2002242 27.1322027,69.5771734 C31.0314117,72.7299417 36.3457618,71.2784163 39.5175131,69.3190943 C47.9882474,73.9688117 54.9938969,69.7403372 58.7143488,63.4607894 C60.1570606,64.1129927 61.68836,64.7317498 63.3012414,65.3118628 C63.3116368,66.9044051 63.4535577,68.5520887 63.7828233,70.1862129 L60.9830493,68.0329926 L61.2076821,72.6284728 C61.7923148,84.6024838 68.6804503,90.4644045 70.8474559,92.0194327 C72.2937835,95.4361558 80.0431618,110.446777 100.057851,106.781692 C120.075025,110.447229 127.668923,95.4282462 129.093104,92.0173988 C131.263952,90.4596588 138.146437,84.597738 138.730844,72.6284728 L138.955251,68.0329926 L136.155477,70.1862129" id="path16" fill="#95A7A4" fill-rule="nonzero"></path>
                        <path d="M127.704178,90.9091503 C128.81672,90.1886983 136.433669,84.8237267 137.032991,72.5453089 L137.077737,71.6216931 L136.380788,72.1579643 C135.217172,73.0524276 134.354121,73.5195462 133.64655,73.8616931 L133.070279,74.1331055 C134.531522,71.1281338 134.999771,67.7240661 134.930844,64.5195464 L134.929488,64.4250831 L134.926324,64.3299419 L134.931748,64.108247 C137.476607,63.2409024 139.827341,62.2802244 141.954799,61.2384165 C145.276833,68.0122017 152.103273,72.522936 160.489036,67.3100548 C163.525646,69.6015802 169.122708,71.2002242 172.485193,67.5523147 C178.360674,70.7961564 185.056945,65.148021 183.132199,59.4085861 C183.236832,57.9136709 183.089939,56.3378517 182.538301,54.832767 L196.963385,54.8890382 L192.844063,47.8664395 L192.844063,24.3527678 L196.479317,17.3240674 L174.585758,17.3247679 C174.260561,14.1958867 172.609261,11.1889037 167.941465,9.99249693 L167.032764,9.08429356 C164.633442,8.37649697 162.104403,8.35231618 159.641804,8.87340091 L159.641804,1.70100561 L40.2964962,1.70100561 L40.2964962,8.87340091 C37.8348013,8.35231618 35.3050839,8.37649697 32.9057619,9.08429356 L31.9968354,9.99249693 C27.3297168,11.1889037 25.6784174,14.1958867 25.3532197,17.3247679 L3.45957053,17.3240674 L7.09428231,24.3527678 L7.09428231,47.8664395 L2.97484738,54.8890382 L17.4007679,54.832767 C16.8488809,56.3378517 16.7014459,57.9136709 16.8061465,59.4085861 C14.8815364,65.148021 21.5777622,70.7961564 27.4528807,67.5523147 C30.8155924,71.2002242 36.4128804,69.6015802 39.4492646,67.3100548 C47.835253,72.522936 54.6616935,68.0122017 57.9839534,61.2384165 C60.110733,62.2802244 62.4616934,63.2409024 65.006552,64.108247 L65.0122018,64.3299419 L65.0094899,64.4250831 L65.007456,64.5195464 C64.9383035,67.7240661 65.407456,71.1281338 66.8689249,74.1331055 L66.2922017,73.8616931 C65.5839532,73.5195462 64.7213543,73.0524276 63.5584165,72.1579643 L62.8610154,71.6216931 L62.9059871,72.5453089 C63.5050832,84.8237267 71.1218061,90.1886983 72.2348005,90.9091503 C72.8849699,92.6840655 79.8314104,108.931749 100.057399,105.051975 C120.282031,108.931749 127.053556,92.6840655 127.704178,90.9091503" id="path18" fill="#6A1F32" fill-rule="nonzero"></path>
                        <path d="M132.749149,74.1145744 C134.233217,71.0587553 134.694234,67.5699418 134.605646,64.3111848 C134.696042,67.5674559 134.237285,71.0537835 132.749149,74.1145744 Z M65.007456,64.5195464 C64.9425972,67.7209023 65.4144616,71.1394332 66.8781904,74.1373993 C65.407456,71.1281338 64.9383035,67.7240661 65.007456,64.5195464 L65.007456,64.5195464 Z" id="path20" fill="#6A1F32" fill-rule="nonzero"></path>
                        <path d="M148.962934,40.2174001 C148.96542,40.2558182 149.435251,41.8040668 146.89446,42.0350272 L146.872087,43.1292645 C151.244968,43.1898294 150.089714,40.5618069 148.962934,40.2174001 L148.962934,40.2174001 Z M51.1712982,35.3138974 L50.9211287,35.8686997 L51.8067784,37.8707335 L52.9624846,35.3138974 L51.1712982,35.3138974 Z M36.7654228,30.784632 L45.3654226,48.9181909 L46.7405638,48.9215807 L38.1297166,30.7988693 L36.7654228,30.784632 Z M33.783728,41.6298295 L25.8546886,41.6298295 L25.8546886,42.8621458 L34.2908466,42.8621458 L33.783728,41.6298295 Z M44.7143492,23.5143497 L44.1968351,22.2865531 L9.13480203,22.2865531 C9.13480203,22.2865531 10.0371749,22.7807904 11.1129037,23.508926 L44.7143492,23.5143497 Z M84.6820318,26.3190954 C84.1233877,25.6253101 83.4239527,25.0033892 82.5875686,24.4598864 C80.0718624,22.8390955 76.722258,22.2820333 72.7353654,22.2820333 L56.6698291,22.2865531 L54.573332,27.0447451 L46.9651966,27.0447451 L47.496722,28.2772874 L55.8058743,28.2772874 L57.9019195,23.5096039 C57.9019195,23.5096039 71.9728796,23.4897169 73.9143484,23.5118638 C77.3028229,23.5502819 81.3044047,24.0716378 83.8201109,25.6924287 C84.1258736,25.8912988 84.4131052,26.0998864 84.6820318,26.3190954 Z M84.8257606,41.0341233 C81.9950262,41.7407899 78.7044048,42.4354792 75.7663258,41.9423718 C74.582597,43.1683605 78.1647438,44.0754791 84.8641787,42.2770611 L84.8257606,41.0341233 Z M101.613783,23.5240672 L101.11254,22.2898977 L92.0404497,22.2865531 L92.0481333,41.7102814 L86.7222577,41.7265526 L86.7025967,42.958869 L93.2806756,42.9430498 L93.2772858,23.5096039 L101.613783,23.5240672 Z M108.500788,42.9468916 L107.989602,41.7102814 L103.074122,41.7102814 L103.074122,42.9430498 L108.500788,42.9468916 Z M171.454233,23.5143497 L170.496719,22.2865531 L151.021691,22.2994345 L146.95751,28.6553665 L146.942369,31.4359314 L152.019431,23.5096039 L171.454233,23.5143497 Z M188.353894,23.5096039 L187.500108,22.2883158 L179.251747,22.2914797 L172.595476,32.7746884 L172.630052,34.8015811 L180.202255,23.508926 L188.353894,23.5096039 Z M158.48542,36.9787561 C158.156154,36.0885867 157.696493,35.2714115 157.089714,34.6522025 C156.920448,34.4779652 156.762256,34.3211291 156.60542,34.1767223 L156.020561,35.003163 C156.833216,35.4610161 157.566098,36.0244059 158.215815,36.6912985 L158.48542,36.9787561 Z M76.4320885,30.7724286 C76.181467,33.1981913 64.9195464,32.4861009 64.7651961,40.7256487 C64.7236142,42.9525413 65.407908,44.9697164 67.1238401,46.3636147 C64.4431622,43.0085865 65.4533317,38.0275697 69.0081339,35.74305 C71.4277948,34.1875698 75.2734444,33.9351404 77.1801111,32.5740105 C78.2560432,31.8058749 77.2888116,30.9299427 76.4320885,30.7724286 L76.4320885,30.7724286 Z" id="path22" fill="#95A7A4"></path>
                        <path d="M14.7001126,40.9152532 L14.7001126,43.5353661 C14.5134234,46.0752531 11.0594122,48.0221457 9.99514099,48.5642926 C9.80058733,48.6632756 9.25706192,48.9181909 9.25706192,48.9181909 L11.4374912,48.9175129 L11.9281353,48.6768349 C14.70922,47.255818 15.891864,45.2822588 15.9426211,44.1138972 L15.9328132,40.9152532 L14.7001126,40.9152532" id="path24" fill="#95A7A4"></path>
                        <polyline id="path26" fill="#95A7A4" points="178.967453 40.8024849 178.973781 48.9215807 180.435476 48.9181909 180.447453 38.7658747 178.967453 40.8024849"></polyline>
                        <path d="M111.884969,26.2022592 C112.089715,26.5484739 112.239771,26.9520897 112.283839,27.4164965 L112.268698,43.5353661 C112.171071,44.4024848 111.728359,45.1871175 111.14011,45.8691514 L111.682709,47.2463265 C112.868924,46.216722 113.473895,45.0865525 113.508246,44.29853 L113.517059,28.6490388 C113.427568,27.7209033 112.919319,27.0368355 112.389376,26.5636152 C112.340562,26.5204513 112.155251,26.3886999 111.884969,26.2022592" id="path28" fill="#95A7A4" fill-rule="nonzero"></path>
                        <path d="M135.447228,43.6126543 C135.356155,44.7500554 134.957511,45.257626 134.419658,45.8436147 L134.975816,47.2221457 C136.086776,46.2198859 136.654234,45.137852 136.687002,44.3751401 L136.694912,28.726327 C136.606098,27.7984174 136.096946,27.1136716 135.567228,26.6411293 C135.519319,26.5972875 135.334008,26.4653101 135.062821,26.2788694 C135.268471,26.6253101 135.41785,27.0296038 135.462595,27.4937846 L135.447228,43.6126543" id="path30" fill="#95A7A4" fill-rule="nonzero"></path>
                        <path d="M162.611973,26.6641801 C162.817397,27.0103948 162.966776,27.4140106 163.010843,27.8781914 L162.99638,43.997287 C162.911634,46.4501683 159.673216,48.2770609 158.374233,48.915027 L159.867341,48.9215807 L160.614685,48.9245186 C163.014007,47.6928802 164.187115,45.8840666 164.23525,44.7604509 L164.244064,29.1109597 C164.154572,28.1837281 163.646324,27.4987564 163.11638,27.02644 C163.068245,26.9825982 162.882934,26.8506208 162.611973,26.6641801" id="path32" fill="#95A7A4" fill-rule="nonzero"></path>
                        <polyline id="path34" fill="#95A7A4" points="29.4809032 32.1767224 25.8569485 32.1767224 25.8569485 33.4092647 29.9884738 33.4092647 29.4809032 32.1767224"></polyline>
                        <path d="M127.33898,32.1767224 L123.714799,32.1767224 L123.714799,33.4092647 L127.845647,33.4092647 L127.33898,32.1767224 Z M131.641353,41.6298295 L123.712539,41.6298295 L123.712539,42.8621458 L132.148923,42.8621458 L131.641353,41.6298295 L131.641353,41.6298295 Z" id="path36" fill="#95A7A4"></path>
                        <path d="M14.0546437,26.06644 C14.4299883,26.5396604 14.6729262,27.0097168 14.6897171,27.4436151 L14.6897171,32.2006772 L9.83977377,32.2006772 L9.80976247,39.3629369 L11.0722031,39.9656487 L11.0722031,33.4334455 L15.9221465,33.4334455 L15.9221465,28.6761575 C15.8901917,27.8614682 15.0613556,26.9175135 14.0546437,26.06644" id="path38" fill="#95A7A4"></path>
                        <path d="M68.5213542,24.7389824 L65.7839532,30.4472309 C65.7839532,30.4472309 69.6094898,29.3938976 74.1602241,29.5145755 C77.5660998,29.604745 78.820337,30.3880218 78.820337,31.9001122 C78.820337,32.6508466 78.4781901,33.2205641 77.8108455,33.6619201 C77.521806,33.8128805 77.141015,33.9798862 76.6860998,34.1670048 C76.2250828,34.3667788 75.6535574,34.5665528 74.9753654,34.7665528 C73.6470038,35.1358183 72.5624841,35.4937844 71.7059869,35.8406771 C70.8571734,36.1859878 70.1609022,36.5152533 69.6560435,36.8174002 C67.7613542,38.0235019 66.8616932,39.8112984 66.8616932,42.0684735 C66.8616932,44.2865526 67.9787554,46.0881344 70.2232751,47.4194338 C72.4621451,48.7697163 75.4320885,49.3568349 79.0503935,49.2474564 C79.7570602,49.2257615 80.5545743,49.1731061 81.4673426,49.0861005 C82.3825968,49.0212417 83.3609019,48.9023717 84.4244047,48.7288123 L84.9857606,48.6368349 L84.9857606,43.5774 L84.0357041,43.818304 C83.1527663,44.0420328 82.2553652,44.2146882 81.3446307,44.3360441 C80.4334443,44.458304 79.5335573,44.5294904 78.6228229,44.5493774 C77.0987551,44.5493774 76.0397721,44.3337842 75.3170603,43.9554791 C74.6449699,43.5767221 74.3179642,43.0770611 74.3179642,42.3850837 C74.3179642,41.638417 74.7496027,41.0375131 75.6632749,40.559547 C75.8610151,40.4461007 76.2517495,40.2725414 76.8772862,40.0424849 C77.502145,39.8338973 78.2863257,39.5859877 79.2522014,39.2935583 C80.3236138,38.9649708 81.2415799,38.6259877 82.0153652,38.2759312 C82.8293765,37.920451 83.498755,37.5455358 84.0162691,37.1403381 C85.5733312,35.9245189 86.3188679,34.3166093 86.3188679,32.3758184 C86.3188679,30.0332196 85.2799979,28.1364965 83.1507324,26.7529937 C80.9134443,25.3111858 76.4738964,24.706892 73.4286987,24.6955926 C70.8133316,24.6861011 68.8870039,24.7197734 68.5213542,24.7389824 L68.5213542,24.7389824 Z M101.837512,24.7453101 L94.5105061,24.7389824 L94.513444,44.1753661 L86.6415798,44.1753661 L86.6223707,48.9215807 L95.8754778,48.9053095 C99.6042913,43.5566091 100.371975,38.0506205 100.371975,38.0506205 C100.371975,38.0506205 100.727681,40.1694905 101.840901,43.0508464 L101.837512,24.7453101 Z M104.846551,48.915027 L110.713218,48.9215807 L108.813331,44.1914113 L102.299432,44.1762701 C102.939658,45.6675695 103.773331,47.2996598 104.846551,48.915027 L104.846551,48.915027 Z M171.698075,24.7453101 L162.571973,24.7421463 C162.5896,24.7651971 162.838188,24.946666 163.24655,25.2535587 C163.953216,25.8282479 165.009035,26.8386434 165.364516,28.0286999 C165.407002,28.2158185 165.43751,28.4115247 165.453329,28.6160445 L165.453329,45.1186429 C165.366098,45.9642926 164.881126,46.7425977 164.328809,47.3731062 C163.502369,48.3100553 162.528132,48.9215807 162.528132,48.9215807 L172.31751,48.9215807 L181.588018,34.5532195 L181.574685,48.9215807 L188.469148,48.9215807 L188.462368,24.7389824 L180.645645,24.7453101 L171.697171,38.4958182 L171.698075,24.7453101 Z M145.7209,38.6508447 C147.711183,38.6501685 151.514121,38.8433889 151.514121,41.638417 C151.514121,44.21853 148.540109,44.436835 146.595477,44.436835 L145.7209,44.436835 L145.7209,38.6508447 Z M161.878866,24.7389824 L152.822369,24.7453101 L147.195025,33.5261009 C146.780109,34.1733325 146.310957,34.363615 145.821917,34.363615 L145.624403,24.7421463 L135.033217,24.7421463 C134.996607,24.7453101 137.610166,26.3789824 137.917737,28.4395473 L137.933104,45.097852 C137.714121,47.215818 135.005194,48.9102813 135.005194,48.9102813 L147.174234,48.9215807 C154.931748,48.9215807 159.228697,46.7984169 159.228697,42.0820328 C159.228697,40.3629368 158.635702,38.8682476 157.415815,37.6246318 C156.501691,36.6845189 155.395476,35.9771742 154.098979,35.5129935 C154.40203,35.242711 154.693781,34.9071178 154.970166,34.5403381 L161.878866,24.7389824 Z M114.910958,28.4395473 L114.926325,45.097852 C114.707116,47.215818 111.989828,48.9141231 111.989828,48.9141231 L134.52429,48.9175129 L132.57785,44.0946882 L122.382596,44.0946882 L122.382596,39.939434 L127.742596,39.939434 L127.742596,34.6393212 L122.382596,34.6393212 L122.382596,29.5663269 L132.797737,29.5697168 L130.848358,24.7412423 L112.02576,24.7421463 C111.989828,24.7453101 114.603387,26.3789824 114.910958,28.4395473 Z M17.1502369,28.4395473 L17.1657849,34.6393212 L12.3155025,34.6393212 L12.3155025,39.939434 L17.1657849,39.939434 L17.1657849,45.097852 C16.9459657,47.215818 14.2289036,48.9141231 14.2289036,48.9141231 L36.7633889,48.9175129 L34.8167223,44.0946882 L24.6221463,44.0946882 L24.6221463,39.939434 L29.9812422,39.939434 L29.9812422,34.6393212 L24.6221463,34.6393212 L24.6221463,29.5663269 L35.0370613,29.5697168 L33.0874568,24.7412423 L14.2652652,24.7421463 C14.2540561,24.748474 16.8424177,26.3789824 17.1502369,28.4395473 L17.1502369,28.4395473 Z M58.8463262,24.727683 L56.7502811,29.4865529 L46.8264395,29.4865529 L44.7911853,24.7389824 L34.5270048,24.7389824 C34.5270048,24.7389824 37.7093776,25.9209033 39.4216939,29.9500557 L48.1703943,48.9215807 L55.3907331,48.9215807 L66.6802243,24.727683 L58.8463262,24.727683 Z M51.9373998,40.9143493 C51.7315241,40.3733323 48.9186428,34.0574003 48.9186428,34.0574003 L55.0164958,34.0574003 C55.0164958,34.0574003 52.1455354,40.3629368 51.9373998,40.9143493 L51.9373998,40.9143493 Z" id="path40" fill="#FFFFFF"></path>
                        <polyline id="path42" fill="#95A7A4" points="129.77898 22.2707339 107.180562 22.2707339 109.664856 23.5096039 130.441579 23.5111859 129.77898 22.2707339"></polyline>
                        <polyline id="path44" fill="#95A7A4" points="144.870731 22.2707339 133.640901 22.2707339 134.281127 23.5102819 145.521352 23.5111859 144.870731 22.2707339"></polyline>
                        <path d="M47.6501683,57.9769477 C47.6501683,57.9769477 50.675027,59.0456482 50.4092643,62.8953657 C52.7290382,62.149151 53.992993,60.1080211 57.7100551,53.4709591 C53.7276823,68.8686988 44.0515243,68.0822582 40.9647447,64.3896029 C40.9647447,64.3896029 41.7927673,64.8795464 42.9902814,64.926552 C45.3762701,65.0205633 49.675931,62.6671171 47.6501683,57.9769477" id="path46" fill="#95A7A4"></path>
                        <path d="M29.1640671,64.2445182 C29.1640671,64.2445182 31.6964964,67.2960435 35.6467788,63.9168346 C35.7480217,64.1159306 36.1778522,65.1893769 37.7529934,65.3102809 C33.5724285,67.9159305 29.7717507,67.8192073 29.1640671,64.2445182" id="path48" fill="#95A7A4"></path>
                        <path d="M26.4221462,65.5005633 C23.6759316,66.5001113 20.0387566,65.4621453 18.7219204,62.2160436 C20.317717,64.2793204 23.7197734,65.1161566 26.166779,63.8804504 L26.4221462,65.5005633" id="path50" fill="#95A7A4"></path>
                        <path d="M20.1698526,58.2632754 C19.8241577,55.9437274 21.8734006,52.0307332 23.3041802,51.055366 C22.3269825,53.0494902 22.5660333,55.651976 24.7048581,57.8603375 C28.4969484,58.8467782 25.8230502,61.2736708 25.8230502,61.2736708 C23.6838412,62.8070041 20.1942142,62.1188685 20.1698526,58.2632754 L20.1698526,58.2632754 Z M38.819886,59.1315239 C38.4741233,56.8126539 40.5233888,52.8992077 41.9538973,51.9242925 C40.9767221,53.9184167 40.5355922,56.8357048 42.6743492,59.0449703 C47.7303943,58.4790946 45.4454226,61.8167216 45.4454226,61.8167216 C43.339208,63.8653091 38.8438408,62.9873431 38.819886,59.1315239 Z M28.8806772,59.6811285 C28.5353665,57.3615805 30.58418,53.4483602 32.0144625,52.473219 C31.0377393,54.4675693 31.2768354,57.0698291 33.4155924,59.2781906 C37.1593211,60.4603375 34.5337844,62.6915239 34.5337844,62.6915239 C32.3945755,64.2248572 28.904858,63.5367216 28.8806772,59.6811285 L28.8806772,59.6811285 Z" id="path52" fill="#FFFFFF"></path>
                        <path d="M36.8964963,18.3001351 C41.3692645,16.183525 38.9193211,13.3749149 37.0635019,12.3140788 C36.1319765,11.7812426 35.2009031,11.7123161 35.2009031,11.7123161 C40.579208,10.7389602 49.2646315,15.0820109 49.2646315,21.3834797 C47.5681344,17.626847 43.6205639,16.3602482 41.7674566,16.2026889 C39.0519764,19.0456492 36.8964963,18.3001351 36.8964963,18.3001351" id="path54" fill="#95A7A4"></path>
                        <path d="M30.2818072,14.1437059 C32.722711,11.6324969 36.3889256,12.7324291 36.6879087,15.0646098 C36.6879087,15.0646098 36.58192,18.763412 33.1294907,16.0149149 C30.1315247,16.4537397 28.6302818,18.571073 28.1132196,20.3356379 C27.6490389,19.0241803 28.5645191,15.4994798 30.2818072,14.1437059" id="path56" fill="#FFFFFF"></path>
                        <path d="M152.591635,58.1206765 C152.591635,58.1206765 149.567228,59.1891511 149.832539,63.0388685 C147.512087,62.2926538 146.248584,60.2510719 142.53107,53.613784 C146.513895,69.0117497 156.189827,68.225761 159.276606,64.5326538 C159.276606,64.5326538 158.448584,65.0225972 157.251296,65.0698289 C154.864629,65.1640662 150.56542,62.8106199 152.591635,58.1206765" id="path58" fill="#95A7A4"></path>
                        <path d="M171.077058,64.2445182 C171.077058,64.2445182 168.545081,67.2960435 164.595024,63.9168346 C164.493555,64.1159306 164.064177,65.1893769 162.488132,65.3102809 C166.669148,67.9159305 170.469374,67.8192073 171.077058,64.2445182" id="path60" fill="#95A7A4"></path>
                        <path d="M173.773555,65.5613543 C176.520674,66.5602243 180.384402,65.5224842 181.701464,62.2763826 C180.105532,64.3401114 176.703724,65.1767215 174.256493,63.9412413 L173.773555,65.5613543" id="path62" fill="#95A7A4"></path>
                        <path d="M180.07186,58.2632754 C180.417171,55.9437274 178.367905,52.0307332 176.937171,51.055366 C177.913894,53.0494902 177.675702,55.651976 175.536945,57.8603375 C171.744402,58.8467782 174.417849,61.2736708 174.417849,61.2736708 C176.55751,62.8070041 180.047905,62.1188685 180.07186,58.2632754 L180.07186,58.2632754 Z M161.421917,59.1315239 C161.767002,56.8126539 159.717736,52.8992077 158.287228,51.9242925 C159.264629,53.9184167 159.706663,56.8357048 157.56768,59.0449703 C152.510731,58.4790946 154.795928,61.8167216 154.795928,61.8167216 C156.902143,63.8653091 161.397962,62.9873431 161.421917,59.1315239 Z M171.360674,59.6811285 C171.706888,57.3615805 169.657397,53.4483602 168.226662,52.473219 C169.203612,54.4675693 168.964516,57.0698291 166.825759,59.2781906 C163.08203,60.4603375 165.707566,62.6915239 165.707566,62.6915239 C167.846323,64.2248572 171.336719,63.5367216 171.360674,59.6811285 L171.360674,59.6811285 Z" id="path64" fill="#FFFFFF"></path>
                        <path d="M163.344855,18.3001351 C158.872312,16.183525 161.32203,13.3749149 163.177849,12.3140788 C164.109148,11.7812426 165.0409,11.7123161 165.0409,11.7123161 C159.661917,10.7389602 150.976945,15.0820109 150.976945,21.3834797 C152.672991,17.626847 156.620561,16.3602482 158.47412,16.2026889 C161.189375,19.0456492 163.344855,18.3001351 163.344855,18.3001351" id="path66" fill="#95A7A4"></path>
                        <path d="M169.959544,14.1437059 C167.518866,11.6324969 163.852425,12.7324291 163.553442,15.0646098 C163.553442,15.0646098 163.659657,18.763412 167.11186,16.0149149 C170.109826,16.4537397 171.610843,18.571073 172.128131,20.3356379 C172.592538,19.0241803 171.677284,15.4994798 169.959544,14.1437059" id="path68" fill="#FFFFFF"></path>
                        <path d="M52.5084733,17.2113442 L147.732878,17.2113442 C149.792539,14.1430053 152.790731,11.6485647 156.142821,10.1299432 L156.142821,5.33579648 L45.1441797,5.33579648 L45.1441797,10.6407229 C48.0709593,12.1792087 50.6657614,14.4650392 52.5084733,17.2113442" id="path70" fill="#95A7A4" fill-rule="nonzero"></path>
                        <path d="M77.2763822,65.7538967 C81.8838398,63.6542357 87.1821447,61.9821453 89.0268904,57.3064392 C85.7681334,59.6931059 81.5728793,60.9520889 77.0131054,62.3595465 L77.3089246,57.7676822 C73.9672298,59.6723149 72.2142355,63.208134 72.2750264,67.6673429 C70.824405,65.9825972 68.8931056,63.568812 67.927004,61.3708459 C67.5905068,68.4630491 69.1127666,75.3545744 73.3387552,79.719772 C71.984179,80.4124274 68.7398853,78.9566082 67.5283599,78.08045 C69.0601113,83.3107324 72.9392072,87.3077944 74.8262128,87.676156 C80.3224839,104.507342 96.3227095,101.932653 99.8257602,101.189828 L99.8917489,101.196608 C103.458528,101.947342 119.311861,104.438415 124.791409,87.6578509 C126.678641,87.2892634 130.557511,83.2924273 132.089714,78.0621449 C130.877285,78.9385291 127.633669,80.3941223 126.278189,79.7014669 C130.50463,75.3362693 132.027341,68.4442921 131.690618,61.3527668 C130.724517,63.5507329 128.792539,65.9645181 127.342822,67.6490379 C127.403613,63.1898289 125.650844,59.6540098 122.309149,57.7493771 L122.604743,62.3412414 C118.044291,60.9335578 113.849489,59.6752527 110.590958,57.2881342 C112.434799,61.9638403 117.734234,63.6361566 122.341014,65.7355916 C127.892652,68.265083 116.096494,73.3941225 116.096494,73.3941225 C117.045195,73.9803371 122.332878,77.0580772 120.435703,84.238642 C121.791183,85.4110713 122.604743,88.0485854 121.384404,90.3932181 C120.09898,87.2594328 117.018076,84.4119753 114.068698,83.6074555 C114.688133,84.4255346 115.131749,86.656269 115.282709,87.9019187 C113.587342,85.4110713 110.26576,82.3331053 107.757511,83.7254216 C104.977624,91.4922011 100.027116,92.3613536 99.8553647,92.3188677 C99.6818054,92.3622576 94.5378507,90.8327661 92.3685853,84.0919753 C89.8601107,82.6998849 85.7923142,85.2644046 84.3349131,87.9204498 C84.4863256,86.6745741 84.7127662,84.4255346 85.3319753,83.6074555 C82.3832748,84.4119753 79.5184161,87.277286 78.2336704,90.4115232 C77.0131054,88.0668905 77.8266647,85.4289244 79.1823709,84.256947 C77.4535574,77.2042919 82.199546,73.8336705 83.5215798,73.4124275 C83.5215798,73.4124275 71.7251959,68.2836141 77.2763822,65.7538967" id="path72" fill="#6A1F32" fill-rule="nonzero"></path>
                        <path d="M117.732426,67.4820322 C120.234121,67.5803373 114.835251,71.1224841 108.110958,71.6388683 C105.815365,88.2187549 99.7186416,89.5792068 99.7161557,89.494461 C99.5950258,89.494461 93.133557,88.2187549 91.9254214,72.0888118 C79.3676816,68.9572864 82.418981,67.4354785 82.3098285,67.4027102 C88.7466644,65.9880209 93.1150259,64.0723148 97.19141,50.8650835 C95.0845174,62.6727668 90.0338961,66.6171735 84.8842917,67.7961565 C84.3559301,68.605648 88.8002238,69.1324277 88.8537831,68.9753655 C98.2436134,60.8648572 100.456947,44.2033887 100.456947,44.2033887 C100.456947,44.2033887 103.115478,62.7839532 111.18802,68.9753655 C111.242483,69.1324277 115.695816,68.5468909 115.157059,67.7961565 C110.008359,66.6171735 104.864178,60.8072301 102.995704,50.7988688 C107.265986,65.8777385 117.732426,67.4820322 117.732426,67.4820322" id="path74" fill="#95A7A4"></path>
                        <path d="M109.522483,78.980111 C110.408811,74.4562693 118.180788,75.1771733 117.526325,82.6967211 C116.86915,82.3274556 116.163387,81.978755 115.412878,81.6522013 C115.543952,81.2836138 115.599093,80.8872296 115.619206,80.4748002 C115.739206,77.9651958 112.464404,76.3658738 110.347116,78.341467 L110.401579,78.339885 C110.925873,78.339885 111.351184,78.7995461 111.351184,79.3658737 C111.351184,79.6734443 111.22576,79.9496025 111.026664,80.1376251 C110.537398,80.0063257 109.928585,79.8840658 109.418528,79.7690376 C109.388924,79.6931054 109.477511,79.0992071 109.522483,78.980111" id="path76" fill="#FFFFFF"></path>
                        <path d="M90.3401107,78.980111 C89.6854215,74.2980772 81.6809019,75.1771733 82.3351392,82.6967211 C82.9923143,82.3274556 83.698077,81.978755 84.4483595,81.6522013 C84.317964,81.2836138 84.2628228,80.8872296 84.2427098,80.4748002 C84.1233877,77.9651958 87.3975119,76.3658738 89.514574,78.341467 L89.4601108,78.339885 C88.935817,78.339885 88.5114102,78.7995461 88.5114102,79.3658737 C88.5114102,79.6734443 88.636382,79.9496025 88.835026,80.1376251 C89.3238396,80.0063257 89.9333311,79.8840658 90.4431616,79.7690376 C90.4732181,79.6931054 90.3844045,79.0992071 90.3401107,78.980111" id="path78" fill="#FFFFFF"></path>
                        <path d="M83.9767211,85.4827097 C81.1685855,86.3111843 79.3138963,89.4090373 80.2354782,91.9873423 C80.3979641,89.7019187 82.2890375,87.2445176 83.9767211,85.4827097" id="path80" fill="#FFFFFF"></path>
                        <path d="M99.9715229,87.3624837 L99.8465512,87.4427097 C99.7925399,87.47593 99.7435003,87.5046306 99.6983026,87.5290374 C99.6155907,87.4888114 99.5258732,87.4415797 99.4372856,87.3900543 C98.99141,87.1319752 98.3118619,86.6235007 97.5670032,85.6472295 C96.0779637,83.6953651 94.2399976,79.7514104 93.6549129,71.9378513 L93.552766,70.5703937 L92.3159299,70.2616932 C91.094235,69.9568344 90.1035006,69.8949135 90.1035006,69.8949135 C99.3177376,61.0673431 100.26124,48.6497163 100.337625,48.3227107 L99.9715229,87.3624837" id="path82" fill="#5C656D"></path>
                        <path d="M97.0422575,82.3970601 C97.7450823,79.5161562 97.3830484,76.5902806 97.1498281,75.321806 C97.0594326,76.741467 96.9875682,78.239998 96.5979637,79.5911845 C95.4616925,80.7093765 96.2225965,81.579659 97.0422575,82.3970601 Z M102.532879,82.4720883 C103.352992,81.6544612 104.11367,80.7841788 102.977173,79.6659867 C102.58802,78.3152523 102.516156,76.8164953 102.425534,75.3970603 C102.192314,76.6655348 101.83028,79.5911845 102.532879,82.4720883 L102.532879,82.4720883 Z" id="path84" fill="#6A1F32"></path>
                        <path d="M99.7545738,92.3975118 L99.7518619,92.3041785 C98.9889241,92.1272293 94.3886982,90.3697153 92.3685853,84.0919753 C89.8601107,82.6998849 85.7923142,85.2644046 84.3349131,87.9204498 C84.4863256,86.6745741 84.7127662,84.4255346 85.3319753,83.6074555 C82.3832748,84.4119753 79.5184161,87.277286 78.2336704,90.4115232 C77.0131054,88.0668905 77.8266647,85.4289244 79.1823709,84.256947 C77.4535574,77.2042919 82.199546,73.8336705 83.5215798,73.4124275 C83.5215798,73.4124275 71.7251959,68.2836141 77.2763822,65.7538967 C81.8838398,63.6542357 87.1821447,61.9821453 89.0268904,57.3064392 C85.7681334,59.6931059 81.5728793,60.9520889 77.0131054,62.3595465 L77.3089246,57.7676822 C73.9672298,59.6723149 72.2142355,63.208134 72.2750264,67.6673429 C70.824405,65.9825972 68.8931056,63.568812 67.927004,61.3708459 C67.5905068,68.4630491 69.1127666,75.3545744 73.3387552,79.719772 C71.984179,80.4124274 68.7398853,78.9566082 67.5283599,78.08045 C69.0601113,83.3107324 72.9392072,87.3077944 74.8262128,87.676156 C80.28045,104.378302 96.0777377,101.971071 99.7430484,101.207455 C89.0804498,98.7595456 91.2962689,91.4598847 91.2962689,91.4598847 C92.4892632,94.5073423 97.0250823,97.251749 97.2605625,97.4375117 C97.0481332,97.2081332 93.573557,92.6318621 99.7545738,92.3975118 L99.7545738,92.3975118 Z M107.757511,83.7254216 C107.353218,84.8551391 106.903274,85.8390939 106.428472,86.6955911 C110.329715,84.9251956 115.065308,89.0221447 117.321579,92.6318621 C117.104856,91.0790938 117.43028,88.9692633 117.104856,87.4750261 C118.526777,87.7236136 120.349376,89.3602238 121.333782,90.2881333 C120.015138,87.1862125 116.988472,84.4119753 114.086099,83.6124273 C114.688133,84.4255346 115.131749,86.656269 115.282709,87.9019187 C113.587342,85.4110713 110.26576,82.3331053 107.757511,83.7254216 L107.757511,83.7254216 Z" id="path86" fill="#C7C7BF"></path>
                        <path d="M91.4047435,85.8928792 C88.2598848,86.7717492 86.2946871,88.5848565 84.5728792,90.8155909 C84.898303,88.5884724 87.2298283,84.4280205 91.4047435,85.8928792 Z M71.0178513,69.7773994 C72.6447439,72.8250829 75.8194331,75.4266648 77.9581901,76.4580772 C77.0244049,76.602258 72.2110716,76.9270037 71.0178513,69.7773994 Z M70.2589813,80.560224 C72.5360434,83.138755 74.8436139,84.216947 76.982371,85.2479075 C76.0481337,85.3927662 71.4517496,85.1312973 70.2589813,80.560224 Z M121.384404,90.3932181 C120.50915,88.2596588 118.802709,86.2598848 116.870732,84.9459866 C118.761805,86.2343481 120.440223,88.1864385 121.333782,90.2881333 C120.349376,89.3602238 118.526777,87.7236136 117.104856,87.4750261 C117.43028,88.9692633 117.104856,91.0790938 117.321579,92.6318621 C115.065308,89.0221447 110.329715,84.9251956 106.428472,86.6955911 C103.639093,91.7267774 100.002483,92.3554779 99.8553647,92.3188677 C99.8438393,92.3215796 99.8076811,92.3170598 99.7518619,92.3041785 L99.7545738,92.3975118 C93.573557,92.6318621 97.0481332,97.2081332 97.2605625,97.4375117 C97.0250823,97.251749 92.4892632,94.5073423 91.2962689,91.4598847 C91.2962689,91.4598847 89.0804498,98.7595456 99.7430484,101.207455 L99.8257602,101.189828 C103.458528,101.947342 119.311861,104.438415 124.791409,87.6578509 C126.678641,87.2892634 130.557511,83.2924273 132.089714,78.0621449 C130.877285,78.9385291 127.633669,80.3941223 126.278189,79.7014669 C130.50463,75.3362693 132.027341,68.4442921 131.690618,61.3527668 C130.724517,63.5507329 128.792539,65.9645181 127.342822,67.6490379 C127.403613,63.1898289 125.650844,59.6540098 122.309149,57.7493771 L122.604743,62.3412414 C118.044291,60.9335578 113.849489,59.6752527 110.590958,57.2881342 C112.434799,61.9638403 117.734234,63.6361566 122.341014,65.7355916 C127.892652,68.265083 116.096494,73.3941225 116.096494,73.3941225 C117.045195,73.9803371 122.332878,77.0580772 120.435703,84.238642 C121.791183,85.4110713 122.604743,88.0485854 121.384404,90.3932181 L121.384404,90.3932181 Z M114.068698,83.6074555 C114.388246,84.0298284 114.658528,84.8164951 114.867794,85.658077 C114.660788,84.8212408 114.392991,84.0264386 114.086099,83.6124273 L114.068698,83.6074555 L114.068698,83.6074555 Z" id="path88" fill="#FFFFFF"></path>
                        <path d="M141.80316,13.8112539 C141.52994,13.8825081 141.094234,13.925672 140.461917,13.925672 L139.801804,13.925672 C139.183951,13.925672 138.759545,13.8825081 138.49333,13.8119771 C138.204968,13.7360449 138.173556,13.6505985 138.173556,13.624203 L138.173556,12.30235 C138.227115,12.2264404 138.281578,12.1977398 138.386889,12.1744404 C138.619658,12.1234121 138.996155,12.0578302 139.518867,11.9769489 L143.52316,11.4327229 C144.407906,11.3055364 145.025759,11.2056946 145.379883,11.1306438 C145.769036,11.0625986 146.075929,10.9755477 146.304403,10.8605195 C146.588245,10.7276607 146.712087,10.4648585 146.712087,10.1347116 L146.712087,8.4336947 C146.712087,7.31726535 144.717962,6.91279079 141.429827,6.91279079 L138.832991,6.91279079 C135.562482,6.91279079 133.594573,7.36112976 133.594573,8.55597719 L133.594573,9.13312972 L138.173556,9.13312972 L138.173556,8.52338962 C138.173556,8.5057399 138.20316,8.42038397 138.511635,8.34436137 C138.793895,8.27550262 139.240674,8.23322013 139.889714,8.23322013 L140.637737,8.23322013 C141.20994,8.23322013 141.599996,8.27550262 141.844742,8.34348002 C142.105081,8.41622578 142.132426,8.49690374 142.132426,8.52338962 L142.132426,9.87889241 C142.079544,9.95410145 142.025307,9.98375116 141.91977,10.006802 C141.687228,10.0580788 141.310731,10.1234122 140.788019,10.2040901 L136.783725,10.7708246 C135.899658,10.8901918 135.249262,10.9907342 134.836607,11.0729941 C134.447454,11.1561579 134.13672,11.2679997 133.931296,11.4151636 C133.714573,11.5790054 133.594573,11.8019884 133.594573,12.0689489 L133.594573,13.7025985 C133.594573,14.8328132 135.57107,15.2461239 138.832991,15.2461239 L141.473669,15.2461239 C144.734686,15.2461239 146.712087,14.8328132 146.712087,13.7025985 L146.712087,12.7473443 L142.132426,12.7473443 L142.132426,13.624203 C142.132426,13.6492652 142.100335,13.7353443 141.80316,13.8112539 L141.80316,13.8112539 Z M130.918641,15.2461239 L130.918641,13.925672 L124.669149,13.925672 L124.669149,11.8562935 L130.215364,11.8562935 L130.215364,10.5358415 L124.669149,10.5358415 L124.669149,8.23322013 L130.918641,8.23322013 L130.918641,6.91279079 L120.09107,6.91279079 L120.09107,15.2461239 L130.918641,15.2461239 Z M105.881579,15.2461239 L110.459884,15.2461239 L110.459884,8.23322013 L116.269828,8.23322013 L116.269828,6.91279079 L105.881579,6.91279079 L105.881579,15.2461239 Z M100.827116,11.1561579 L100.827116,6.91279079 L92.3762689,6.91279079 C89.2307322,6.91279079 87.3148001,7.31884727 87.3148001,8.4336947 L87.3148001,13.7025985 C87.3148001,14.83209 89.2286983,15.2461239 92.3762689,15.2461239 L95.2815795,15.2461239 C98.7430484,15.2461239 100.827116,14.8271635 100.827116,13.6802708 L100.827116,12.6363839 L96.2490371,12.6363839 L96.2490371,13.524542 C96.2490371,13.6962482 95.9157038,13.925672 94.6212406,13.925672 L93.5649694,13.925672 C92.9369468,13.925672 92.5037265,13.8745533 92.2311841,13.7889262 C91.9500542,13.7010166 91.893105,13.597107 91.893105,13.524542 L91.893105,8.63453086 C91.893105,8.5617851 91.9500542,8.45789809 92.2311841,8.36996589 C92.5037265,8.28424838 92.9369468,8.23322013 93.5649694,8.23322013 L96.2490371,8.23322013 L96.2490371,9.83588676 L94.0483592,9.83588676 L94.0483592,11.1561579 L100.827116,11.1561579 Z M78.3670037,13.8144403 C78.0928794,13.8833895 77.6573992,13.925672 77.0239529,13.925672 L75.8797721,13.925672 C75.2463258,13.925672 74.8103936,13.8833895 74.5362693,13.8144403 C74.2366083,13.7394121 74.2076818,13.6546663 74.2076818,13.6355025 L74.2076818,11.1561579 L78.6951393,11.1561579 L78.6951393,13.6355025 C78.6951393,13.6546663 78.6664387,13.7394121 78.3670037,13.8144403 L78.3670037,13.8144403 Z M69.6293768,13.7025985 C69.6293768,14.8328132 71.6060999,15.2461239 74.8680207,15.2461239 L78.0359303,15.2461239 C81.2980771,15.2461239 83.2741222,14.8328132 83.2741222,13.7025985 L83.2741222,6.91279079 L78.6951393,6.91279079 L78.6951393,9.83588676 L74.2076818,9.83588676 L74.2076818,6.91279079 L69.6293768,6.91279079 L69.6293768,13.7025985 Z M64.9710718,15.2461239 L64.9710718,13.925672 L58.7215805,13.925672 L58.7215805,11.8562935 L64.267343,11.8562935 L64.267343,10.5358415 L58.7215805,10.5358415 L58.7215805,8.23322013 L64.9710718,8.23322013 L64.9710718,6.91279079 L54.1432755,6.91279079 L54.1432755,15.2461239 L64.9710718,15.2461239 L64.9710718,15.2461239 Z" id="path90" fill="#6A1F32"></path>
                    </g>
                </g>
            </g>
        </g>
    </g>
</svg>