<?xml version="1.0" encoding="UTF-8"?>
<svg width="200px" height="200px" viewBox="0 0 200 200" version="1.1" xmlns="http://www.w3.org/2000/svg" xmlns:xlink="http://www.w3.org/1999/xlink">
    <title>massachusetts_BGD</title>
    <g id="massachusetts_BGD" stroke="none" stroke-width="1" fill="none" fill-rule="evenodd">
        <g id="UMass_Logo_White" transform="translate(0.000000, 18.000000)">
            <path d="M199.970175,57.9807018 L181.045614,57.9807018 L192.807018,0.0421052632 L48.8157895,0.0421052632 L39.5842105,43.9052632 L16.8842105,43.9052632 L10.8280702,73.0947368 L14.6877193,73.0947368 L11.3403509,88.745614 L7.67894737,88.754386 L1.27719298,117.833333 L32.8596491,117.833333 L32.3789474,120.082456 L32.3701754,120.117544 C29.9754386,131.54386 32.4070175,142.787719 39.0438596,150.963158 C45.1596491,158.494737 54.1122807,162.638596 64.254386,162.638596 L115.985965,162.638596 C125.450877,162.638596 135.112281,158.329825 143.185965,150.507018 C150.492982,143.42807 155.826316,134.121053 157.82807,124.963158 L159.354386,117.822807 L174.854386,117.822807 C182.663158,117.822807 189.9,111.917544 191.685965,104.089474 L194.094737,92.6578947 C194.561404,90.3614035 194.554386,88.0473684 194.096491,85.8824561 L199.970175,57.9807018" id="Fill-1" fill="#FFFFFE"></path>
            <path d="M190.473684,83.9333333 L195.107018,61.9245614 L168.089474,61.9245614 C167.819298,61.9245614 167.545614,61.9368421 167.270175,61.9526316 L168.926316,54.2087719 L177.784211,54.2087719 L187.978947,3.9877193 L52.0157895,3.9877193 L42.7807018,47.8508772 L20.0912281,47.8508772 L15.6736842,69.1526316 L19.5614035,69.1526316 L14.5315789,92.6842105 L10.8491228,92.6912281 L6.18245614,113.887719 L34.7947368,113.887719 L38.8438596,95.0280702 C39.5140351,96.5508772 40.177193,98.0473684 40.8263158,99.5105263 L36.2403509,120.870175 L36.2298246,120.926316 C34.077193,131.187719 36.2210526,141.22807 42.1052632,148.477193 C47.4561404,155.066667 55.3210526,158.694737 64.254386,158.694737 L115.984211,158.694737 C134.194737,158.694737 150.326316,140.826316 153.968421,124.135088 L156.163158,113.877193 L174.852632,113.877193 C180.770175,113.877193 186.473684,109.191228 187.838596,103.210526 L190.226316,91.8719298 C190.807018,89.0192982 190.450877,86.222807 189.250877,83.9333333 L190.473684,83.9333333" id="Fill-2" fill="#1A1919"></path>
            <polyline id="Fill-3" fill="#732122" points="123.312281 9.77192982 112.310526 61.9245614 118.221053 61.9245614 128.003509 15.554386 173.829825 15.554386 168.329825 42.6438596 159.573684 42.6438596 155.447368 61.9245614 161.363158 61.9245614 164.250877 48.4245614 173.05614 48.4245614 180.905263 9.77192982 123.312281 9.77192982"></polyline>
            <polyline id="Fill-4" fill="#732122" points="56.7087719 9.77192982 48.5701754 48.4245614 57.7070175 48.4245614 53.9473684 65.9421053 62.1350877 55.3561404 64.8631579 42.6438596 55.6982456 42.6438596 61.4017544 15.554386 107.636842 15.554386 97.854386 61.9245614 103.764912 61.9245614 114.764912 9.77192982 56.7087719 9.77192982"></polyline>
            <polyline id="Fill-5" fill="#732122" points="106.005263 119.836842 107.263158 113.877193 86.8947368 113.877193 85.6385965 119.836842 106.005263 119.836842"></polyline>
            <path d="M146.124561,113.877193 L146.249123,113.284211 C145.633333,113.484211 145.001754,113.633333 144.364912,113.733333 L142.668421,121.670175 C140.224561,132.870175 128.615789,147.12807 115.984211,147.12807 L64.2526316,147.12807 C51.6245614,147.12807 44.9035088,135.924561 47.5491228,123.296491 L51.9736842,102.689474 L45.7894737,110.649123 L44.8175439,108.473684 L41.8912281,122.110526 C40.0982456,130.661404 41.8122807,138.940351 46.5964912,144.833333 C50.8280702,150.040351 57.0982456,152.912281 64.2526316,152.912281 L115.984211,152.912281 C131.180702,152.912281 145.219298,137.096491 148.322807,122.878947 L150.249123,113.877193 L146.124561,113.877193" id="Fill-6" fill="#732122"></path>
            <path d="M121.464912,61.9245614 L121.259649,75.0649123 L121.82807,72.3473684 C123.273684,65.5701754 130.114035,61.9245614 135.817544,61.9245614 L155.447368,61.9245614 L159.573684,42.6438596 L168.329825,42.6438596 L173.829825,15.554386 L128.005263,15.554386 L118.221053,61.9245614 L121.464912,61.9245614" id="Fill-7" fill="#FFFFFE"></path>
            <path d="M142.580702,113.877193 L107.263158,113.877193 L106.005263,119.836842 L85.6368421,119.836842 L86.8929825,113.877193 L80.4508772,113.877193 L80.4491228,113.887719 L52.1842105,113.887719 L55.5421053,98.0982456 L51.9736842,102.689474 L47.5508772,123.296491 C44.9035088,135.924561 51.622807,147.12807 64.254386,147.12807 L115.984211,147.12807 C128.615789,147.12807 140.224561,132.870175 142.668421,121.670175 L144.364912,113.733333 C143.775439,113.82807 143.178947,113.877193 142.580702,113.877193" id="Fill-8" fill="#FFFFFE"></path>
            <polyline id="Fill-9" fill="#FFFFFE" points="62.1350877 55.3561404 67.9385965 47.8508772 94.2666667 47.8508772 89.8526316 69.1350877 86.1701754 69.1508772 81.2263158 92.6736842 82.054386 92.6736842 94.0666667 61.9245614 97.8526316 61.9245614 107.636842 15.554386 61.4017544 15.554386 55.6982456 42.6438596 64.8649123 42.6438596 62.1350877 55.3561404"></polyline>
            <polyline id="Fill-10" fill="#FFFFFE" points="155.445614 61.9245614 159.570175 42.6438596 168.32807 42.6438596 173.82807 15.554386 143.687719 28.945614 136.610526 61.9245614 155.445614 61.9245614"></polyline>
            <path d="M142.580702,113.877193 L125.463158,113.877193 L124.003509,120.678947 C122.778947,126.278947 116.977193,133.407018 110.661404,133.407018 L74.8175439,133.407018 C71.4631579,133.407018 68.9578947,131.819298 67.5298246,129.392982 L49.4789474,138.805263 C52.3017544,143.831579 57.4052632,147.12807 64.2508772,147.12807 L115.982456,147.12807 C128.612281,147.12807 140.221053,132.870175 142.664912,121.670175 L144.363158,113.733333 C143.773684,113.82807 143.177193,113.877193 142.580702,113.877193" id="Fill-11" fill="#FFFFFE"></path>
            <polyline id="Fill-12" fill="#FFFFFE" points="94.2666667 47.8508772 89.8526316 69.1350877 86.1684211 69.1526316 81.2263158 92.6736842 82.054386 92.6736842 94.0649123 61.9245614 97.8526316 61.9245614 107.633333 15.554386 86.3754386 28.945614 82.3105263 47.8508772 94.2666667 47.8508772"></polyline>
            <path d="M86.8947368,113.877193 L68.1052632,113.887719 L66.4684211,121.491228 C65.8473684,124.452632 66.2701754,127.247368 67.5298246,129.391228 L85.8561404,119.836842 L85.6385965,119.836842 L86.8947368,113.877193" id="Fill-13" fill="#FFFFFE"></path>
            <path d="M192.170175,64.3052632 L168.089474,64.3052632 C164.964912,64.3052632 161.494737,65.6438596 159.117544,68.0245614 L159.901754,64.3052632 L135.817544,64.3052632 C130.980702,64.3052632 125.3,67.4912281 124.159649,72.8350877 L122.063158,82.8596491 C121.387719,85.9368421 121.985965,88.9263158 123.698246,91.0526316 C124.761404,92.3754386 126.192982,93.2666667 127.840351,93.6649123 L120.554386,93.6649123 L119.680702,97.8 L118.524561,97.8 L119.045614,64.3052632 L95.6912281,64.3052632 L82.5578947,97.9298246 L81.4964912,97.9298246 L82.1245614,95.0578947 L78.2912281,95.0578947 L84.2350877,66.777193 L87.9122807,66.7596491 L91.3403509,50.2333333 L69.1070175,50.2333333 L52.2684211,72.0052632 L44.2017544,50.2333333 L22.0315789,50.2333333 L18.6,66.7684211 L22.5070175,66.7684211 L16.4596491,95.0631579 L12.7649123,95.0684211 L9.14561404,111.507018 L32.8701754,111.507018 L38.0684211,87.3017544 C40.3421053,92.5508772 46.345614,106.050877 46.345614,106.050877 L60.0298246,88.4368421 L55.1245614,111.507018 L95.0052632,111.496491 L98.6175439,101.121053 L101.710526,101.121053 L100.659649,111.496491 L142.580702,111.496491 C145.136842,111.496491 147.687719,110.354386 149.682456,108.552632 L149.063158,111.496491 L174.852632,111.496491 C179.624561,111.496491 184.407018,107.542105 185.524561,102.642105 L187.892982,91.3964912 C188.480702,88.4982456 187.898246,85.7105263 186.292982,83.7438596 C185.45614,82.722807 184.385965,81.9807018 183.159649,81.5491228 L188.542105,81.5491228 L192.170175,64.3052632" id="Fill-14" fill="#FFFFFE"></path>
            <path d="M104.935088,91.1842105 L99.3526316,91.1842105 L105.394737,74.0438596 L105.791228,74.0438596 L104.935088,91.1842105 Z M116.62807,66.6894737 L97.3192982,66.6894737 L84.1842105,100.314035 L80.9649123,100.314035 L79.1280702,109.114035 L93.3122807,109.114035 L96.9263158,98.7385965 L104.345614,98.7385965 L103.294737,109.114035 L117.150877,109.114035 L119.05614,100.182456 L116.101754,100.182456 L116.62807,66.6894737 L116.62807,66.6894737 Z" id="Fill-15" fill="#732122"></path>
            <path d="M148.294737,83.5017544 L136.277193,83.5017544 L137.984211,75.422807 L144.749123,75.422807 L143.961404,79.1666667 L154.338596,79.1666667 L156.964912,66.6894737 L135.817544,66.6894737 C131.810526,66.6894737 127.345614,69.3157895 126.491228,73.3245614 L124.389474,83.3701754 C123.470175,87.5754386 125.57193,91.5122807 129.842105,91.5122807 L141.335088,91.5122807 L139.429825,100.182456 L132.92807,100.182456 L133.847368,96.045614 L122.484211,96.045614 L119.72807,109.114035 L142.580702,109.114035 C146.257895,109.114035 150.068421,105.894737 150.921053,102.152632 L153.287719,90.922807 C154.073684,87.0473684 152.168421,83.5017544 148.294737,83.5017544" id="Fill-16" fill="#732122"></path>
            <path d="M85.9736842,64.3877193 L88.4157895,52.6157895 L70.2754386,52.6157895 L51.5263158,76.8561404 L42.5438596,52.6157895 L23.9684211,52.6157895 L21.5280702,64.3877193 L25.4508772,64.3877193 L18.3877193,97.4403509 L14.6807018,97.445614 L12.1087719,109.124561 L30.945614,109.124561 L37.3122807,79.4754386 C40.3631579,86.7122807 43.6789474,94.2122807 46.9035088,101.449123 L64.5210526,78.7789474 L58.0666667,109.124561 L76.6140351,109.124561 L79.1666667,97.4403509 L75.3578947,97.4403509 L82.3,64.4052632 L85.9736842,64.3877193" id="Fill-17" fill="#732122"></path>
            <path d="M180.594737,83.5017544 L168.577193,83.5017544 L170.285965,75.422807 L177.050877,75.422807 L176.261404,79.1666667 L186.638596,79.1666667 L189.264912,66.6894737 L168.117544,66.6894737 C164.112281,66.6894737 159.649123,69.3157895 158.791228,73.3245614 L156.689474,83.3701754 C155.770175,87.5754386 157.87193,91.5122807 162.142105,91.5122807 L173.635088,91.5122807 L171.729825,100.182456 L165.229825,100.182456 L166.147368,96.045614 L154.785965,96.045614 L152.026316,109.114035 L174.882456,109.114035 C178.559649,109.114035 182.368421,105.894737 183.222807,102.152632 L185.587719,90.922807 C186.373684,87.0473684 184.470175,83.5017544 180.594737,83.5017544" id="Fill-18" fill="#732122"></path>
            <path d="M174.668421,56.3964912 L175.008772,58.7789474 L176.375439,56.3964912 L177.321053,56.3964912 L176.607018,59.722807 L175.996491,59.722807 L176.57193,57.0403509 L175.075439,59.722807 L174.54386,59.722807 L174.189474,57.0403509 L173.612281,59.722807 L173.001754,59.722807 L173.717544,56.3964912 L174.668421,56.3964912 Z M170.194737,56.9508772 L170.312281,56.3964912 L173.150877,56.3964912 L173.031579,56.9508772 L171.94386,56.9508772 L171.347368,59.722807 L170.685965,59.722807 L171.282456,56.9508772 L170.194737,56.9508772 L170.194737,56.9508772 Z" id="Fill-19" fill="#1A1919"></path>
        </g>
    </g>
</svg>