<?xml version="1.0" encoding="UTF-8"?>
<svg width="200px" height="200px" viewBox="0 0 200 200" version="1.1" xmlns="http://www.w3.org/2000/svg" xmlns:xlink="http://www.w3.org/1999/xlink">
    <!-- Generator: Sketch 54.1 (76490) - https://sketchapp.com -->
    <title>mo-southern-st</title>
    <desc>Created with Sketch.</desc>
    <g id="mo-southern-st" stroke="none" stroke-width="1" fill="none" fill-rule="evenodd">
        <g id="mo-southern-st_BGD" transform="translate(-0.000000, 0.000000)">
            <g id="mo-southern-st" transform="translate(6.000000, 1.000000)">
                <g id="g10" transform="translate(94.260663, 99.561029) scale(-1, 1) rotate(-180.000000) translate(-94.260663, -99.561029) translate(0.228484, 0.528165)">
                    <g id="g12" transform="translate(0.411272, 0.000000)">
                        <path d="M15.7890019,135.455563 C15.1262144,134.363639 14.4311192,133.023945 13.816679,131.873616 C13.426839,131.143993 13.0664734,130.484641 12.7626349,129.986363 C12.5729014,129.675623 12.3979738,129.417358 12.2467628,129.222062 C12.1817819,129.138103 12.0632442,128.988437 11.9029852,128.832839 C11.74428,128.678153 11.5222389,128.49609 11.2375016,128.359657 C8.59028158,127.092971 6.38952002,128.079945 5.37847664,130.359159 C4.61698389,132.075756 4.52274322,134.473608 4.61324132,136.619582 C4.76229996,140.142667 5.48239133,144.044936 5.91079955,145.936296 C1.75022692,151.518202 3.77695192,156.673925 9.84178193,160.750044 C8.82502644,161.864326 7.36807293,163.765724 7.4840973,165.97558 L7.53998458,167.041495 L8.61367838,167.678032 C8.41859842,167.876522 8.22365554,168.087789 8.03588708,168.309094 C7.00213235,169.526043 4.98721998,172.663555 7.95536918,175.152667 C11.2962221,177.954343 24.0831677,182.748677 34.5609588,178.536124 C37.9548201,177.352028 40.6029084,175.593452 42.1323371,173.10434 C48.4400597,174.272922 53.6367085,174.389278 56.4589476,172.24376 L74.9369364,176.058877 C74.8985511,176.718229 74.9163728,177.499869 75.059861,178.347216 C75.4935244,180.911617 77.0531588,183.874366 81.0671724,185.887101 C84.8298532,187.773442 87.757652,188.111559 90.7256641,188.106084 C93.4016732,188.100608 96.2193426,187.785762 100.112259,188.25575 C103.820104,188.703379 106.494285,189.817205 108.213859,190.786841 C109.075702,191.272343 109.700835,191.724079 110.097941,192.04075 C110.440667,192.314073 112.934346,194.861591 112.977301,194.905396 L115.334803,197.31648 L114.00868,190.708357 C113.677377,189.059292 113.043562,187.512895 112.131452,186.066883 C113.819494,186.987238 115.694894,188.252099 117.766334,189.900251 L120.312107,191.926676 L120.968314,188.742165 C121.540896,185.961022 120.882404,183.234635 119.280271,180.604984 L122.997255,181.607929 L120.484384,177.381231 C119.745922,176.138729 118.908299,174.951439 117.972427,173.820273 C121.621779,174.131013 126.317133,173.809322 130.799083,171.369491 C134.598321,169.300631 137.03168,169.766057 138.432289,170.437729 C139.187201,170.80003 139.747445,171.274125 140.118047,171.658329 C140.294437,171.841305 140.425587,172.001922 140.512411,172.116909 C140.567247,172.190373 145.167095,177.340164 145.167095,177.340164 L144.461078,171.429723 L144.200149,170.58922 C142.616295,165.47502 139.952167,161.271594 136.205023,158.037802 C143.389943,156.530647 149.211725,156.236334 153.740286,157.042158 L157.230156,157.663637 L155.955213,154.360488 C154.922921,151.687489 153.3642,149.465312 151.294132,147.721794 C153.722464,146.596104 156.470674,144.447848 158.477224,140.444737 C159.919874,137.567771 161.740438,137.204101 163.176234,137.40396 C164.76877,137.626178 166.072959,138.588512 166.150186,138.647375 L169.123225,140.900579 L169.352166,137.18083 C169.637772,132.548938 162.929927,129.830309 154.587506,130.42806 C161.877071,124.807369 167.113019,118.325185 170.191618,110.956411 L172.083012,106.429012 L167.564048,108.353225 C165.651176,109.167719 164.106165,109.678774 162.874634,109.96898 C166.760697,106.603775 169.997406,101.566234 172.785373,96.6409418 C174.723834,93.2168739 176.528861,89.6819252 178.257117,86.495589 C179.980803,83.31701 181.551861,80.6344279 183.050719,78.7709027 L185.126728,73.6822558 L180.268693,75.9445864 C176.018427,79.2340462 172.647825,81.2340049 170.078747,82.2132226 C178.077528,71.6252598 181.257117,62.4299216 182.640818,55.1136228 C183.403042,51.0845023 183.613704,47.6590655 183.807459,44.919081 C184.010353,42.0561696 184.193598,40.5810461 184.626347,39.7989039 L186.375167,32.8676303 L182.054984,36.817811 L181.445845,37.44253 C180.37014,38.5458611 179.24554,39.4370588 178.070216,40.1265266 C180.39436,35.8715381 181.213705,31.1666387 180.508602,26.0716037 L179.727642,20.4231235 L176.704794,25.5328058 C176.670064,25.5934023 176.607916,25.6878562 176.521092,25.7978243 C176.308602,26.0684096 175.878137,26.533789 175.088038,27.1018356 C173.502814,28.2408037 170.452547,29.8004338 164.805327,30.9868113 C158.920483,32.2229254 153.049806,33.2761548 148.38781,34.55183 C145.241124,35.4137789 142.17532,36.4820206 140.10708,38.063188 C133.039144,27.37525 122.238687,19.5614941 107.879358,14.5527452 L103.177606,12.9128977 L105.440972,17.3434701 C107.017971,20.4293748 107.83823,24.6643774 107.760089,30.1640585 C103.682556,25.6860766 95.5521682,18.9651112 81.116525,14.8086833 C73.0450858,12.2990386 69.1681628,8.48538251 68.2985512,3.74753379 L67.6108132,0 L64.9183533,2.69911375 C59.0897167,8.54100536 55.6313771,18.6845329 54.1818722,32.6385681 C51.8549873,28.9612542 50.2025882,24.4768842 49.2653453,19.1349914 L47.601522,12.3355882 L45.6429539,18.1179464 C45.6429539,18.1179464 44.5678435,21.3752827 42.7827864,25.2502654 C40.976526,29.1706955 38.2033197,34.4602052 34.3383693,39.934881 C30.041949,46.0218645 28.6647822,54.8329989 28.2863664,61.8143742 C28.1578668,64.1866729 28.1426497,66.3988106 28.1792529,68.2924516 L23.7213398,62.7771651 L24.3853612,69.4322866 C24.4501593,70.0793186 24.6641578,73.165269 24.7450413,76.0823887 C24.785026,77.5242937 24.7928859,78.9251317 24.7314693,79.9609305 C24.7232439,80.101927 24.7137846,80.23471 24.7030915,80.3588233 C23.5677983,79.3545091 21.5730383,76.4296323 22.0922919,71.3309469 L22.5847671,66.4964586 L18.8322768,69.5906223 C17.2430765,70.9020258 16.1438381,73.5097748 15.354516,77.0474612 C15.2634878,75.8013085 15.2004718,74.3744614 15.1747445,72.7500369 L15.1120941,68.801225 L11.9663211,71.1949698 C9.54475224,73.037049 7.5587203,77.2085348 5.79509506,83.0838412 L3.68574096,78.4181835 L1.9988819,82.9934939 C-0.848782919,90.7163551 -0.63386594,97.733778 2.9810083,103.794342 C2.96030305,104.885353 2.9449489,107.302369 3.13059246,109.832091 C3.26107989,111.613026 3.49402428,113.446435 3.87923524,114.943552 C4.22749571,116.296935 4.88385365,118.200615 6.41346519,119.059826 C7.85538442,119.869301 9.33217037,119.665335 10.4392229,118.762775 C11.329261,118.036804 11.8571056,116.966326 12.1753843,116.158677 C12.3447826,115.728387 12.4877225,115.283039 12.6062602,114.859137 C17.1702357,116.991423 19.9786286,125.274619 15.7890019,135.455563" id="path14" fill="#FFFFFF"></path>
                        <path d="M12.0513173,167.395127 C12.0513173,167.395127 6.34382315,171.196098 9.24022825,173.624977 C12.1364506,176.053857 24.1877679,180.583994 33.8576381,176.668036 C37.6408368,175.357089 40.0310119,173.419643 41.0284834,170.855699 C49.1419637,172.519821 54.0813391,172.2611 55.8470664,170.07999 L77.2135548,174.491489 C77.2135548,174.491489 75.1389166,180.682555 81.9637451,184.103885 C88.7885736,187.525671 92.3638972,185.310339 100.351711,186.274956 C108.339982,187.239116 112.049654,191.100318 112.049654,191.100318 C111.375626,187.742413 109.188116,184.754111 105.487583,182.135867 C109.066562,181.944678 113.575473,184.012625 119.011117,188.339709 C119.748664,184.760499 117.950949,180.984168 113.617057,177.01026 L118.766181,178.399691 C116.984917,175.402719 114.568009,172.733369 111.516829,170.392555 C111.516829,170.392555 121.228786,174.308057 129.84219,169.617759 C138.456508,164.927918 142.29139,171.178302 142.29139,171.178302 C140.363439,164.952102 136.762982,160.255872 131.492304,157.090069 C140.766942,154.717771 148.300529,154.047467 154.091238,155.078247 C152.622083,151.274538 149.987201,148.555452 146.187049,146.920989 C146.187049,146.920989 152.847826,147.21804 156.690476,139.55176 C160.53404,131.885479 167.358412,137.058085 167.358412,137.058085 C167.55765,133.822469 158.466257,129.413708 144.169532,134.861462 C156.228937,128.128313 164.288952,119.903067 168.347749,110.18846 C162.647521,112.615515 159.003195,112.928992 157.413857,111.128893 C168.159935,106.604231 174.994817,85.6026118 181.492912,77.5215559 C174.245388,83.1303837 168.896569,85.5610886 165.446911,84.8123019 C185.604717,60.9022324 180.095502,43.864437 182.877071,38.8347897 C179.977604,41.8074866 176.650871,43.4867127 172.896873,43.8727873 C177.569836,38.8228346 179.44752,32.9799255 178.52947,26.3439686 C178.52947,26.3439686 176.90129,30.4845173 165.216599,32.9389042 C153.531451,35.3938386 141.900225,37.1085191 139.816447,41.3644203 C133.101291,29.9835009 122.236402,21.6742042 107.220409,16.4363932 C109.529015,20.9541187 110.265191,27.3665347 109.429853,35.6735043 C109.429853,35.6735043 102.771818,23.1202615 80.5626789,16.7256868 C72.1421155,14.115702 67.3983228,9.90953743 66.3335855,4.1072252 C60.358719,10.0961637 56.8281783,21.3703091 55.7415066,37.930405 C51.464736,33.3349717 48.6498084,27.1849277 47.2971808,19.4798622 C47.2971808,19.4798622 43.8748961,29.8884995 35.9714842,41.0847546 C28.0678896,52.2809184 30.5190701,74.3625977 30.5190701,74.3625977 L26.3735408,69.2342528 C26.3735408,69.2342528 27.7365873,82.8949334 25.2368311,82.7489177 C22.7373947,82.6033583 19.4349272,77.7077259 20.1046606,71.1292627 C18.2027109,72.6975625 16.8614162,77.6214854 16.0808221,85.9010314 C14.2711801,85.1093526 13.3029547,80.7366389 13.1769227,72.7819778 C10.7503729,74.6281637 8.4496266,80.0321132 6.27527783,88.9942826 L3.87387957,83.6825055 C1.1044021,91.1941002 1.4774714,97.7182638 4.99329767,103.253627 C4.99329767,103.253627 4.53987955,115.718805 7.39270355,117.32087 C10.2457423,118.92248 11.0996798,112.334435 11.0996798,112.334435 C19.460426,113.371146 22.8998471,126.1425 16.4560392,138.780158 C16.4560392,138.780158 15.415567,138.567522 14.4270065,137.043027 C12.8656356,134.63605 11.0115306,130.464108 10.3737393,130.158844 C3.8731667,127.047341 7.59801961,144.858517 8.08852988,146.406284 C3.73964499,151.529153 5.43098235,156.202568 13.162117,160.425159 C13.162117,160.425159 9.33929908,163.205845 9.47926861,165.871088 L12.0513173,167.395127" id="path16" fill="#1A663C"></path>
                        <path d="M19.7933735,161.921363 L20.7504945,171.364016 C24.8118044,172.280264 28.8954144,172.711467 33.0011873,172.65808 C33.0011873,172.65808 36.7954446,167.574909 39.8423295,167.600005 C42.8893973,167.624645 49.9183537,167.902075 51.1873559,167.467222 C52.4568151,167.031913 60.0594044,157.142087 60.0594044,157.142087 L57.4898691,166.21605 C57.4898691,166.21605 64.3681629,168.896807 72.4720469,170.315897 C80.5763879,171.735443 82.5143925,169.975041 84.1133262,168.78547 C85.7122599,167.595898 87.8677815,166.469296 95.0371644,167.660693 C95.0371644,167.660693 88.9544532,160.790654 102.793752,162.462534 C102.793752,162.462534 100.755215,160.541971 102.973798,158.859141 C105.192838,157.17631 108.182328,156.098075 108.662602,152.939573 C108.662602,152.939573 109.176235,152.175729 105.532823,153.103841 C101.889868,154.031497 109.608527,146.346965 109.608527,146.346965 C109.608527,146.346965 115.46184,140.050494 113.956128,137.732952 C112.449959,135.415865 111.025131,138.162785 110.628025,135.879465 C110.231376,133.596601 111.146684,131.942973 110.725359,132.464979 C108.472503,135.255248 94.1488171,136.60133 90.5826329,137.297186 C103.3051,127.246743 103.996037,119.899416 92.6559002,115.255205 C92.9579565,106.945087 74.5850705,103.298801 64.1872033,112.689892 C64.1872033,112.689892 72.1252076,98.6349686 48.0452387,95.2871026 C43.0529007,95.3806439 31.9369527,80.2785147 29.7913473,78.0873667 C28.3820556,86.522967 25.0036856,87.8056236 19.6564199,81.9348802 C19.6564199,81.9348802 20.5041427,91.27304 18.7774862,91.5659839 C14.8439905,92.2321805 11.5134651,81.5315118 11.5134651,81.5315118 C11.5134651,81.5315118 9.80179717,89.3629722 10.174181,92.9376188 C10.5461536,96.5122655 9.02458469,99.1724889 5.12627558,93.4778769 C5.12627558,93.4778769 4.23392069,97.5795489 7.10604704,99.5489356 C9.97814141,101.518322 14.8086668,98.5929891 16.2527338,96.2133896 C17.6966637,93.8337902 25.0847518,92.1573475 27.8400907,95.4230797 C30.595658,98.6883556 32.8667471,103.269598 36.2911796,105.210238 C36.2911796,105.210238 40.6420249,101.941311 42.0170439,105.279139 C43.3920629,108.616966 43.5134338,107.412793 45.7077521,107.021289 C47.9022075,106.629784 49.7040353,109.300502 49.2671732,111.534999 C44.7190545,134.821307 33.1148811,147.33394 19.446717,153.553295 C19.446717,153.553295 19.0484687,158.274165 19.9056507,158.782482 C20.7629698,159.290343 22.0706773,159.590588 22.8750337,159.087746 C23.6792073,158.584905 36.2654523,153.963508 36.2654523,153.963508 L36.8854218,155.221068 C33.8649496,158.8272 30.2941957,161.717398 26.1728859,163.891663 C26.1728859,163.891663 25.3242949,167.069329 29.902345,166.36891 C34.4802581,165.668947 39.3830302,164.121637 39.3830302,164.121637 C39.3830302,164.121637 36.0489405,169.181081 27.0675393,170.387992 C27.0675393,170.387992 23.8364503,170.372934 23.3134495,169.202071 C22.7907687,168.031208 22.4286209,162.88963 22.4286209,162.88963 L19.7933735,161.921363" id="path18" fill="#F2CE2D"></path>
                        <path d="M50.0207147,78.411339 C50.0207147,78.411339 42.6840812,89.85395 57.76862,92.3823029 C72.8527019,94.9106559 73.0446288,102.088696 73.0446288,102.088696 C88.4590991,98.6897245 97.9051004,101.636047 101.381262,110.927665 L108.444628,108.346381 C108.444628,108.346381 100.534499,129.956703 112.161612,122.897301 C123.789182,115.837899 129.881946,122.891369 129.881946,122.891369 C126.683165,122.552795 124.361307,122.858972 122.915458,123.808986 C127.667476,125.013616 129.714239,126.504345 129.057118,128.279804 C125.801215,126.750746 123.398474,126.69234 121.848893,128.104129 C124.381413,128.3519 126.29657,129.664672 127.59299,132.042903 C127.59299,132.042903 120.502206,130.570882 119.377149,133.76315 C118.253005,136.955418 122.90312,137.633478 122.90312,137.633478 C138.783241,134.222187 132.247674,115.210944 127.907841,113.410388 C123.568009,111.609832 120.495351,116.378613 118.47098,116.484931 C116.445694,116.590336 113.587811,114.89701 113.587811,114.89701 C115.459098,114.236745 116.780195,111.279928 117.552472,106.026557 L119.053158,110.002747 C119.053158,110.002747 134.30449,101.647911 137.788877,118.791522 C142.044627,139.736104 122.33922,144.482527 122.33922,144.482527 L133.375016,143.720964 C128.126273,149.259065 121.634574,152.179379 113.899007,152.481449 C111.804719,152.693172 111.190553,153.892782 112.057423,156.079823 L114.672198,160.182408 L108.375169,159.774477 C106.417514,159.419932 105.780957,160.190621 106.465953,162.086087 L110.36938,166.12114 C103.770294,164.319671 100.043257,164.822056 99.1887256,167.627839 L101.803958,171.729968 C101.803958,171.729968 93.5003785,171.796131 90.1873549,171.969525 C86.8738744,172.142918 83.0275684,172.712836 81.7763879,177.017561 C80.5256644,181.322286 88.7314525,182.920245 92.9748644,182.882372 C97.2182763,182.844956 104.300378,184.133088 104.300378,184.133088 L93.7215514,179.525837 L102.431376,180.176063 L98.2368597,177.630827 C103.059251,176.983338 108.035641,178.013205 113.166029,180.719971 C110.926882,177.936091 108.04935,175.874988 104.534803,174.536663 C107.427415,173.804303 110.013859,173.853127 112.295504,174.683591 L106.260774,168.732083 L121.210507,168.687366 L113.97395,164.45793 C123.748512,167.817203 125.609746,164.58615 133.185831,164.74266 C129.448283,161.707359 124.568314,160.180583 118.54775,160.1637 L121.977758,158.69396 L119.033051,155.346094 L125.301749,155.20236 L124.953538,152.087207 L146.346074,151.704828 C144.307993,149.347587 139.680271,147.930779 132.463363,147.454859 C141.052091,145.815376 150.6265,140.738137 153.587201,137.34966 C153.587201,137.34966 141.164962,140.917006 138.482099,139.03021 C135.798321,137.142957 137.69794,134.647457 137.69794,134.647457 L153.861839,119.056176 C149.244627,120.210156 145.191771,120.360735 141.702357,119.508368 C153.097331,109.566981 160.197711,100.655461 163.003956,92.7733512 C157.323835,94.2663616 151.329775,93.7813158 145.022236,91.3186699 C161.91043,81.4507469 170.975776,68.934008 172.216447,53.7693659 C166.802738,58.9793883 160.27174,63.4990302 152.623454,67.3282917 C158.87433,58.7968686 162.544703,50.1874184 163.635487,41.5003974 C149.89992,41.3872352 141.847217,47.3998876 139.477834,59.537442 C135.64615,45.8594221 128.530233,36.8923247 118.130538,32.6382031 C117.1051,40.7484166 113.783394,50.1385944 108.164963,60.8073222 C108.757652,54.5094829 105.72932,35.4991524 85.4819476,29.5540779 C65.2345757,23.610281 65.4872794,17.8828155 65.4872794,17.8828155 C54.84402,43.6911803 62.8432581,58.9396902 77.2679341,64.7278435 C91.69261,70.5169094 97.3224652,86.3495734 97.3224652,86.3495734 L102.459251,78.7083897 C103.327035,86.8131732 105.574864,94.4675895 109.201825,101.671639 C110.043562,105.222558 109.350797,106.088157 107.123531,104.268437 C104.493676,100.47431 102.500378,95.9085819 101.144095,90.5735335 C101.144095,90.5735335 94.8392969,100.579715 94.9658773,97.7164387 C95.0924576,94.8527059 89.9606984,79.7309558 77.4694573,72.0902285 C64.9777592,64.4495011 63.0511789,59.3896011 63.0511789,59.3896011 C61.0263503,61.2508449 59.8496558,65.213802 59.5220092,71.2784725 L52.4124892,62.4344846 C50.4877367,61.803423 49.3996941,66.2838232 49.1492752,75.8761416 C45.271484,69.2588929 45.0469296,62.0511934 48.4761603,54.2539554 L55.692154,63.368985 C56.3734944,56.2835735 57.8910877,51.7808147 60.2435629,49.8597957 L47.148666,34.2329226 C32.5356275,50.6875222 30.3880571,75.3833386 45.36827,88.2391077 C45.5892601,82.4436536 47.1399836,79.1678828 50.0207147,78.411339" id="path20" fill="#F2CE2D"></path>
                        <path d="M44.188331,164.239363 L56.7856802,154.548484 L43.7535252,159.469669 C42.5773333,161.353727 42.9420401,162.440175 44.188331,164.239363" id="path22" fill="#1E6035"></path>
                        <path d="M41.643609,157.148932 L52.9640505,145.99744 L40.6298695,152.468216 C39.6925352,154.480951 40.1870211,155.515381 41.643609,157.148932" id="path24" fill="#1E6035"></path>
                        <path d="M39.223274,149.718558 L48.1663354,138.042322 L38.2093517,145.037387 C37.272063,147.050578 37.766686,148.084551 39.223274,149.718558" id="path26" fill="#1E6035"></path>
                        <polyline id="path28" fill="#1E6035" points="28.9698546 155.635388 32.1964653 153.80791 30.1916976 150.778997 27.1780344 153.148558 29.9393138 153.004368 28.9698546 155.635388"></polyline>
                        <polyline id="path30" fill="#1E6035" points="33.9891995 152.792189 37.2158102 150.964255 35.2108597 147.936254 32.1973792 150.305359 34.9584759 150.161168 33.9891995 152.792189"></polyline>
                        <path d="M52.7739515,114.031867 C53.3840048,118.844909 52.4024359,125.762403 49.8301587,134.782522 C54.2833193,127.304693 56.2464571,120.46614 55.7195721,114.266861 C54.7594807,112.961846 53.7769979,112.882906 52.7739515,114.031867" id="path32" fill="#1E6035"></path>
                        <path d="M74.9588709,163.182118 L87.012793,157.205969 L86.3364792,147.841344 L84.174103,155.879964 L75.5506455,160.386374 C74.6732655,161.395707 74.4763119,162.32747 74.9588709,163.182118" id="path34" fill="#1E6035"></path>
                        <path d="M10.3558718,145.642439 C10.3558718,145.642439 7.42377742,136.912982 9.13795864,132.988354 C9.2614773,132.705449 9.57847653,132.763855 9.8671437,132.811766 C10.2860927,132.882493 10.4376235,134.162868 10.6732366,134.620536 C11.9497331,137.100521 13.4127643,140.117114 15.0603195,142.078744 L11.6259251,141.705491 L10.3558718,145.642439" id="path36" fill="#F8EFB8"></path>
                        <path d="M12.7733279,144.225631 C12.7894132,146.392595 13.3168923,148.239237 14.3561306,149.764645 C14.3561306,149.764645 15.3125663,151.281383 16.3446759,149.844953 C17.3769683,148.408524 18.314257,147.806665 21.3227565,147.096208 C21.3227565,147.096208 21.8725813,147.021375 24.2362979,148.095503 C26.6002431,149.170087 25.1020253,143.488708 23.8185828,141.89668 C23.65348,141.691802 23.4450108,141.333151 23.3200299,141.185766 C23.0103422,140.737224 22.9294587,140.538734 22.549809,140.58117 C22.0128707,140.640489 22.6101289,141.163408 22.5292911,141.964213 C22.3634572,143.603695 21.6049804,146.158513 18.5229546,146.505301 C13.9353995,147.021831 13.7954757,144.356588 13.7954757,144.356588 C13.7954757,144.356588 13.3283165,143.367332 13.1028481,143.471368 C12.8112106,143.605976 12.7733279,144.225631 12.7733279,144.225631" id="path38" fill="#F8EFB8"></path>
                        <path d="M24.5725813,128.125575 C24.5725813,128.125575 23.6840055,137.572334 27.8781105,141.868846 C32.0722612,146.164901 34.093434,140.713953 33.8467623,139.528945 C33.6000449,138.34348 33.0283312,138.004906 30.6988416,135.822884 C28.3693519,133.640862 26.1807457,128.871168 25.672368,127.975909 C25.1639902,127.081107 24.5725813,128.125575 24.5725813,128.125575" id="path40" fill="#F8EFB8"></path>
                        <path d="M6.4264888,105.94351 C6.4264888,105.94351 6.44933723,111.655918 7.87791298,114.254085 C9.30626024,116.851795 9.66365551,110.231352 10.0251178,109.441499 C11.0182937,107.269972 17.5683012,105.452533 19.4524291,106.183524 C21.3368768,106.914058 22.5176841,111.828855 23.098857,112.351318 C23.6798928,112.874236 24.1156125,114.141379 24.4358562,111.452409 C24.7562827,108.762982 25.5763131,103.282374 25.1213093,101.647455 C24.6661228,100.012535 17.4770902,101.955457 15.4518046,103.812594 C14.5168009,104.669523 11.0265191,104.75257 9.14901729,105.063766 C6.96022831,105.42698 6.4264888,105.94351 6.4264888,105.94351" id="path42" fill="#F8EFB8"></path>
                        <path d="M16.4462144,161.451832 L13.3165267,163.366463 C15.9599996,164.191451 15.3234421,166.129353 11.8422541,170.447311 C11.6353843,171.069247 12.529855,171.698027 14.525529,172.334564 L16.9381869,170.826039 L16.4462144,161.451832" id="path44" fill="#E7CF24"></path>
                        <path d="M16.1854223,158.239487 L15.9978366,152.903982 C14.5980042,153.270846 12.2212183,151.951686 8.86789011,148.946044 C8.83558241,153.685622 11.2749731,156.783436 16.1854223,158.239487" id="path46" fill="#E7CF24"></path>
                        <path d="M69.5657256,131.958031 C68.2318338,131.449714 67.3498841,132.233179 66.9203334,134.307971 C72.997104,137.553626 72.1238367,144.357957 64.3000746,154.720052 L64.7547585,156.354972 L68.7765406,152.089488 L70.189488,151.618131 C69.9683151,152.134205 69.8586426,152.707317 69.8901734,153.305525 C69.8938292,153.381271 69.9002267,153.45656 69.9084522,153.530937 C70.1049487,153.357087 74.5599372,152.954175 74.5599372,152.954175 C74.5599372,152.954175 71.9817194,156.293371 71.8875839,156.346758 C72.3011406,156.474066 73.4175153,156.913025 73.875398,156.888841 C74.1998458,156.871502 68.5910112,159.103261 68.5910112,159.103261 L75.6050248,159.105086 C79.28865,155.219243 82.316068,150.759833 84.686365,145.727311 L69.9395261,149.632774 C74.8894117,139.605146 74.2839281,131.587972 68.1235322,125.582165 C68.1235322,125.582165 64.4901736,126.693709 66.078597,128.822344 C67.7232276,128.433121 68.8852991,129.478046 69.5657256,131.958031" id="path48" fill="#1A663C" fill-rule="nonzero"></path>
                        <path d="M74.7459235,150.592371 L81.0667154,148.246081 C80.8647352,149.759169 78.6109653,152.657124 76.7378503,154.2309 C77.5704474,152.23596 77.4036538,150.739756 74.7459235,150.592371" id="path50" fill="#F8EFB8" fill-rule="nonzero"></path>
                        <path d="M132.111497,91.8119291 C128.582784,87.4652245 123.753081,88.4325785 121.25986,83.2659045 C119.024369,78.6746236 120.265039,54.8462316 120.265039,54.8462316 C123.785983,64.748377 120.187811,79.1167773 128.675092,83.1737321 C135.481642,86.4189308 139.01401,88.5238383 139.001672,97.002787 C138.998016,99.4882478 138.946379,105.874153 137.607003,107.972672 C137.607003,107.972672 135.984764,96.5839044 132.111497,91.8119291" id="path52" fill="#1E6035"></path>
                    </g>
                </g>
            </g>
        </g>
    </g>
</svg>