<svg width="200" height="201" viewBox="0 0 200 201" fill="none" xmlns="http://www.w3.org/2000/svg">
<g clip-path="url(#clip0_5_234696)">
<g clip-path="url(#clip1_5_234696)">
<path d="M94.4849 20.6649L99.134 20.5972L99.24 12.8568L94.9322 12.9182L94.4849 20.6649Z" fill="#C10230"/>
<path d="M93.6326 35.468L98.9389 35.4469L99.0767 25.0572L94.2304 25.0974L93.6326 35.468Z" fill="#C10230"/>
<path d="M107.909 38.6553C107.798 36.6879 107.109 25.3749 107.109 25.3706C106.999 23.7103 104.517 22.6027 102.861 22.0606C104.383 21.1415 106.62 19.5595 106.531 18.0919C106.531 17.9479 106.446 14.3033 106.418 13.8099C106.342 12.5477 105.706 11.3109 104.648 10.3346C104.517 10.216 104.375 10.1038 104.233 9.99367C102.889 8.94327 101.101 8.36301 99.1065 8.35242C95.7314 8.37783 88.4725 8.79714 88.4725 8.79714L84.0142 43.0856H102.431C106.482 43.0856 108.019 40.6226 107.909 38.6553ZM100.001 41.5079L85.477 41.5333L89.3099 9.568L99.098 9.20163C100.696 9.2101 102.125 9.63154 103.247 10.3727C103.508 10.5464 103.768 10.7201 103.997 10.9297C104.86 11.7302 105.373 12.7277 105.43 13.7357C105.43 13.7463 105.433 13.7611 105.433 13.7611C105.454 14.2419 105.505 17.9924 105.505 18.0326C105.553 19.0259 102.984 20.7984 101.197 21.726C100.756 21.9611 100.313 22.1898 99.8697 22.4248C100.357 22.5371 100.849 22.6536 101.335 22.7679C103.249 23.2296 105.952 24.3943 106.007 25.3431C106.007 25.3431 106.626 33.579 106.626 37.7129C106.626 41.8467 102.632 41.4719 99.999 41.5079H100.001Z" fill="white"/>
<path d="M115.157 13.632L118.437 35.5655L124.646 35.7434L120.323 14.227L115.157 13.632Z" fill="black"/>
<path d="M133.626 38.4731C133.626 38.4731 128.649 18.6997 127.809 15.6226C127.436 14.2567 126.664 13.0983 125.524 12.1601C125.458 12.1008 125.38 12.05 125.308 11.9949C124.029 11.0123 122.359 10.3325 120.332 9.99577C117.977 9.63787 115.64 9.32868 113.317 9.07667C109.855 8.75901 107.832 10.144 108.034 12.7234C109.102 26.5481 109.946 38.8649 109.946 38.8649C110.207 40.9848 111.784 43.0856 116.806 43.0856H128.945C132.878 43.094 134.156 40.485 133.626 38.4731ZM128.159 41.6158L117.05 41.5502C115.723 41.5375 113.26 41.5502 111.909 39.7649C111.332 39.0047 111.218 37.6472 111.059 36.2643C110.497 30.9932 109.433 17.6366 109.013 12.7891C108.827 10.7137 110.487 9.64846 113.442 9.91742C115.778 10.1758 118.133 10.4765 120.516 10.8217C122.195 11.0928 123.552 11.6222 124.585 12.3571C124.708 12.446 124.845 12.5244 124.96 12.6154C125.852 13.3545 126.459 14.299 126.758 15.432C127.934 19.9238 130.991 31.5438 132.378 36.817C133.764 42.0923 128.157 41.6158 128.157 41.6158H128.159Z" fill="white"/>
<path d="M159.762 38.8268C159.293 37.8484 156.908 32.8611 155.585 30.0974C155.058 28.992 154.258 28.0686 153.15 27.2512C153.048 27.175 152.942 27.0966 152.832 27.0204C151.229 25.9318 149.122 25.1123 146.217 24.4812L140.953 23.4244L139.113 18.5049L150.714 21.5523L148.653 17.1834C148.653 17.1834 136.881 13.5727 134.778 13.0136C130.495 11.9674 129.185 13.4541 129.757 15.413L132.111 23.452C132.458 24.6358 133.258 25.773 134.426 26.7133C134.99 27.1707 135.628 27.5625 136.317 27.9077C137.646 28.5642 139.181 29.0132 140.864 29.2186L146.109 29.9196L148.509 35.9678L135.935 35.1038L138.299 43.0856H154.937C160.983 43.0856 160.228 39.8031 159.762 38.8268ZM154.536 41.9124L139.158 41.7133L137.529 36.4041L150.203 37.1622L146.927 29.1233C146.927 29.1233 142.613 28.4816 140.489 28.1872C138.88 27.9733 137.404 27.5117 136.204 26.8636C135.772 26.6265 135.369 26.3702 135.015 26.0928C134.116 25.377 133.529 24.5489 133.249 23.6447C133.247 23.6362 130.822 15.6269 130.822 15.6269C130.389 14.191 131.229 12.8675 135.051 13.7844C135.051 13.7844 137.847 14.5108 140.849 15.377C143.906 16.258 147.76 17.4736 147.76 17.4736L149.132 20.4448L137.684 17.4143L140.128 24.1318C140.128 24.1318 144.415 24.9238 146.592 25.3558C148.753 25.809 150.394 26.3808 151.619 27.0733C151.827 27.1898 152.049 27.3041 152.227 27.4291C153.162 28.0686 153.843 28.8374 154.303 29.8052C154.309 29.82 156.446 34.3816 158.261 38.2592C160.076 42.1368 154.536 41.9124 154.536 41.9124Z" fill="white"/>
<path d="M100.12 178.446C56.0216 119.752 33.9757 104.327 33.9757 104.327C36.3056 97.3444 41.5123 93.1406 41.5123 93.1406L30.0791 90.6099C35.0951 79.3477 48.9535 56.6307 48.9535 56.6307L32.9793 43.5007L47.9868 15.3113C47.9868 15.3113 69.3161 5.92971 100.118 5.92971C130.919 5.92971 151.222 15.4447 151.222 15.4447L164.996 45.1144L151.284 56.6286C151.284 56.6286 165.14 79.3456 170.152 90.6078L159.391 94.155C159.391 94.155 163.932 97.3422 166.257 104.324C166.257 104.324 144.212 119.748 100.118 178.443M167.82 96.4634C169.584 95.8789 176.735 93.5218 176.735 93.5218L174.566 88.6531C171.683 82.1728 166.096 72.2469 161.691 64.6887C159.999 61.7832 158.475 59.2165 157.356 57.3444C159.147 55.5295 169.105 45.3177 169.105 45.3177L154.932 13.8162C154.932 13.8162 133.185 3.03687 100.198 3.03687C67.211 3.03687 44.3637 13.6701 44.3637 13.6701L29.3923 43.4244C29.3923 43.4244 39.8163 54.2334 42.8861 57.3465C41.7815 59.1889 40.2827 61.709 38.6227 64.5616C34.2068 72.1347 28.5697 82.1389 25.6738 88.6531L23.2739 94.0449C23.2739 94.0449 31.0904 95.7751 32.6528 96.1182C31.4275 98.0009 30.2509 100.248 29.3986 102.806L28.2687 106.197L31.1985 108.27C31.419 108.427 53.3928 124.286 96.2571 181.341L100.12 186.482L103.98 181.341C146.849 124.286 168.825 108.429 169.039 108.27L171.96 106.203L170.841 102.806C170.004 100.297 168.929 98.1872 167.822 96.4634" fill="white"/>
<path d="M94.7604 109.886L96.1427 112.774L88.3008 95.0106L87.7369 98.2169C87.7369 98.2169 79.4752 91.9378 65.0656 103.926C67.8343 101.732 84.2664 89.9429 94.7583 109.888" fill="white"/>
<path d="M112.734 98.1554L112.166 94.947L104.402 112.772L105.729 109.96C116.054 89.947 132.41 101.499 135.407 103.863C120.995 91.8763 112.734 98.1554 112.734 98.1554Z" fill="white"/>
<path d="M114.945 91.08L113.45 93.31C113.45 93.31 114.481 92.1749 118.095 91.8657C123.51 91.402 123.569 82.9945 123.569 82.9945C119.781 82.6641 118.922 85.1588 118.922 85.1588L118.528 85.7433C118.841 86.2431 119.022 86.8403 119.013 87.4841C118.998 88.9369 117.608 91.2029 114.945 91.08Z" fill="white"/>
<path d="M81.6248 85.1589C81.6248 85.1589 80.7726 82.6663 76.9778 82.9945C76.9778 82.9945 77.0371 91.3999 82.4537 91.8658C86.0662 92.1749 87.0987 93.3101 87.0987 93.3101L85.5998 91.0801C82.9413 91.2029 81.5506 88.9348 81.5337 87.482C81.5273 86.8403 81.7075 86.2431 82.0213 85.7412L81.6248 85.1567V85.1589Z" fill="white"/>
<path d="M131.99 68.2529L136.491 58.5409C132.596 61.4401 127.96 65.3727 122.621 70.7074L131.992 68.2529H131.99Z" fill="white"/>
<path d="M77.9297 70.7052C65.992 62.1135 58.307 60.4659 58.307 60.4659C60.8128 64.1021 62.1972 67.033 62.1972 67.033C70.9867 68.4583 77.9319 70.7052 77.9319 70.7052" fill="white"/>
<path d="M61.6884 82.7806C55.8181 82.7722 46.6703 85.1589 43.2847 88.6616C43.2847 88.6616 57.5247 83.5663 63.8063 85.5676C63.1724 84.2313 61.6884 82.7785 61.6884 82.7785" fill="white"/>
<path d="M157.264 88.6616C153.879 85.1567 144.731 82.77 138.861 82.7806C138.861 82.7806 137.375 84.2313 136.743 85.5697C143.022 83.5705 157.262 88.6637 157.262 88.6637" fill="white"/>
<path d="M42.7228 100.748C42.7228 100.748 53.5496 96.0101 62.1081 96.0101L57.9804 93.166C54.4761 93.6298 49.4707 95.7433 42.7228 100.748Z" fill="white"/>
<path d="M138.439 96.0101C146.999 96.0101 157.828 100.748 157.828 100.748C151.08 95.7433 146.073 93.6319 142.566 93.166L138.439 96.0101Z" fill="white"/>
<path d="M163.253 122.706C163.253 122.706 144.212 135.493 100.118 194.183C56.0216 135.493 36.9797 122.706 36.9797 122.706L28.2665 106.197L23.2718 94.047L25.6695 88.6531C28.5676 82.1389 34.2025 72.1368 38.6206 64.5616L29.3923 43.4244L44.3637 13.6701C44.3637 13.6701 67.2089 3.03897 100.198 3.03897C133.188 3.03897 154.93 13.8204 154.93 13.8204L169.1 45.3219L161.691 64.6908C166.096 72.249 171.683 82.1749 174.566 88.6531L176.735 93.5239L171.958 106.203L163.253 122.706ZM165.594 63.5769L172.736 44.4939L157.385 10.8005L156.243 10.1482C155.359 9.64422 131.608 0 100.12 0C68.6314 0 44.5545 10.0868 43.6535 10.5845L42.5787 11.1796L25.4109 41.7577L34.5778 64.515L19 93.2719L33.5559 124.583C33.7489 124.712 54.3638 139.104 97.3193 196.279L100.118 200.002L102.914 196.279C145.869 139.104 165.982 125.074 165.982 125.074L180.998 93.1343L165.592 63.579L165.594 63.5769Z" fill="#A7A8A9"/>
<path d="M136.488 58.5409L131.988 68.2529C133.93 67.8272 136.079 67.4015 138.354 67.033C138.354 67.033 143.347 56.4168 151.636 50.4955C151.636 50.4955 148.532 50.8746 142.509 54.4833C140.824 55.4977 138.903 56.7556 136.764 58.3376C136.535 58.5091 136.488 58.5409 136.488 58.5409Z" fill="#A7A8A9"/>
<path d="M58.3049 60.468C58.3049 60.468 65.992 62.1135 77.9276 70.7073C58.926 51.7217 48.9111 50.4955 48.9111 50.4955C52.848 53.3079 56.0386 57.1749 58.3049 60.4659" fill="#A7A8A9"/>
<path d="M124.646 35.7434L120.321 14.227L115.157 13.632L118.435 35.5633L124.646 35.7434ZM119.422 34.2482L116.3 14.6485L119.484 15.0021L123.181 34.3816L119.422 34.2482Z" fill="white"/>
<path d="M99.0747 25.0572L94.2283 25.0974L93.6305 35.468L98.9369 35.449L99.0747 25.0593V25.0572ZM97.7687 34.0597L94.8961 34.0724L95.2693 26.2685L97.9553 26.2452L97.7709 34.0576L97.7687 34.0597Z" fill="white"/>
<path d="M99.24 12.8589L94.9322 12.9204L94.4849 20.665L99.134 20.5972L99.24 12.8589ZM95.5873 19.5722L95.8607 13.831L98.2415 13.795L98.1079 19.5341L95.5873 19.5722Z" fill="white"/>
<path d="M78.5572 14.2059L73.2826 14.981L67.4823 35.9911L73.7278 35.7518L78.553 14.2101L78.5572 14.2059ZM72.8247 34.4833L69.0447 34.6548L74.0819 15.7116L77.3318 15.2478L72.8247 34.4854V34.4833Z" fill="white"/>
<path d="M93.8383 123.935C91.254 126.04 95.8798 130.794 95.8798 130.794C95.8798 130.794 93.6877 123.679 99.4457 125.068C104.417 126.266 105.899 122.821 105.899 122.821C105.899 122.821 96.4225 121.83 93.8361 123.935" fill="#C10230"/>
<path d="M99.1318 20.5972L94.4827 20.665L94.93 12.9204L99.2378 12.8589L99.1318 20.5972ZM98.9368 35.4468L93.6304 35.468L94.2283 25.0974L99.0746 25.0572L98.9368 35.4468ZM101.337 22.7679C100.851 22.6535 100.359 22.537 99.8717 22.4248C100.315 22.1897 100.758 21.961 101.199 21.726C102.986 20.7984 105.553 19.0258 105.507 18.0326C105.507 17.9924 105.458 14.2418 105.435 13.7611C105.435 13.7611 105.432 13.7463 105.432 13.7357C105.373 12.7276 104.862 11.7323 103.999 10.9297C103.773 10.72 103.512 10.5443 103.249 10.3727C102.127 9.62938 100.699 9.20795 99.1 9.2016L89.312 9.56797L85.479 41.5332L100.003 41.5078C102.636 41.4718 106.63 41.8488 106.63 37.7128C106.63 33.5769 106.011 25.3431 106.011 25.3431C105.956 24.3943 103.253 23.2296 101.339 22.7679" fill="#C10230"/>
<path d="M118.435 35.5654L115.155 13.634L120.321 14.2291L124.646 35.7454L118.435 35.5654ZM124.96 12.6154C124.845 12.5222 124.708 12.446 124.585 12.357C123.552 11.62 122.195 11.0906 120.516 10.8217C118.134 10.4765 115.778 10.1757 113.442 9.91738C110.485 9.64631 108.827 10.7115 109.013 12.789C109.433 17.6387 110.497 30.9953 111.059 36.2643C111.218 37.6472 111.335 39.0046 111.909 39.7649C113.26 41.5502 115.723 41.5396 117.05 41.5502L128.159 41.6158C128.159 41.6158 133.766 42.0902 132.38 36.817C130.993 31.5417 127.936 19.9237 126.76 15.432C126.461 14.299 125.855 13.3566 124.962 12.6154" fill="#C10230"/>
<path d="M73.7322 35.7518L67.4845 35.9911L73.2848 14.9809L78.5594 14.208L73.7322 35.7518ZM83.8594 10.8683C83.1195 10.4405 82.0129 10.2965 80.5649 10.485C78.1842 10.8302 75.7695 11.2219 73.3251 11.6624C69.7296 12.3825 67.4718 13.9814 66.6471 16.4189C65.1631 20.7984 60.9867 33.1237 59.6469 37.1072C58.4851 40.6713 61.1436 41.673 63.5773 41.6688L74.6925 41.582C76.6408 41.5693 80.1473 42.1029 81.0758 36.3617C82.0044 30.6226 82.863 25.2986 84.8346 13.1258C84.9682 12.2681 84.7752 11.5968 84.2728 11.1309C84.1583 11.025 84.0078 10.9488 83.8615 10.8662" fill="#C10230"/>
<path d="M50.6156 17.5879L38.5719 41.9971L54.6903 41.7683L56.5622 36.6476L48.4935 37.1516L57.8894 15.3516L50.6156 17.5879Z" fill="#C10230"/>
<path d="M154.303 29.8052C153.843 28.8374 153.162 28.0686 152.227 27.4291C152.047 27.3041 151.825 27.1919 151.619 27.0733C150.396 26.3808 148.755 25.809 146.592 25.3558C144.417 24.9238 140.128 24.1317 140.128 24.1317L137.684 17.4143L149.132 20.4447L147.76 17.4735C147.76 17.4735 143.906 16.258 140.849 15.377C137.847 14.5129 135.051 13.7844 135.051 13.7844C131.229 12.8653 130.389 14.191 130.822 15.6269C130.822 15.6269 133.247 23.6362 133.249 23.6447C133.529 24.5489 134.118 25.377 135.015 26.0928C135.367 26.3723 135.77 26.6286 136.204 26.8636C137.404 27.5138 138.882 27.9733 140.489 28.1872C142.613 28.4816 146.927 29.1233 146.927 29.1233L150.203 37.1622L137.529 36.4041L139.158 41.7133L154.536 41.9123C154.536 41.9123 160.076 42.1347 158.261 38.2592C156.446 34.3816 154.309 29.82 154.303 29.8052Z" fill="#C10230"/>
<path d="M42.884 57.3465C39.8142 54.2334 29.3901 43.4265 29.3901 43.4265L38.6185 64.5637C40.2806 61.709 41.7773 59.1889 42.8818 57.3465" fill="black"/>
<path d="M161.691 64.6908L169.1 45.3219C169.1 45.3219 159.145 55.5316 157.351 57.3465C158.473 59.2186 159.997 61.7853 161.689 64.6908" fill="black"/>
<path d="M167.82 96.4633C168.929 98.1872 170.001 100.296 170.839 102.806L171.958 106.203L176.735 93.5218C176.735 93.5218 169.586 95.8767 167.82 96.4633Z" fill="black"/>
<path d="M32.6507 96.1182C31.0883 95.7751 23.2719 94.0449 23.2719 94.0449L28.2687 106.197L29.3987 102.806C30.2509 100.248 31.4254 98.0009 32.6507 96.1182Z" fill="black"/>
<path d="M103.978 181.341L100.12 186.48L96.255 181.341C53.3886 124.286 31.4148 108.429 31.1964 108.27L28.2687 106.194L36.9819 122.704C36.9819 122.704 56.0238 135.491 100.122 194.18C144.214 135.491 163.258 122.704 163.258 122.704L171.962 106.201L169.043 108.268C168.827 108.424 146.851 124.282 103.982 181.338" fill="black"/>
<path d="M97.9553 26.2474L95.2692 26.2686L94.8961 34.0724L97.7687 34.0597L97.9553 26.2474Z" fill="black"/>
<path d="M77.334 15.2457L74.084 15.7095L69.0448 34.6527L72.8248 34.4833L77.334 15.2457Z" fill="black"/>
<path d="M98.2414 13.795L95.8606 13.831L95.5872 19.5722L98.1078 19.5341L98.2414 13.795Z" fill="black"/>
<path d="M123.181 34.3816L119.484 15.0021L116.302 14.6484L119.422 34.2482L123.181 34.3816Z" fill="black"/>
<path d="M48.9133 50.4956C48.9133 50.4956 58.9261 51.7217 77.9276 70.7052C77.9276 70.7052 70.9825 68.4583 62.1951 67.0331C62.1951 67.0331 60.8107 64.1021 58.3028 60.468C56.0386 57.1749 52.848 53.3101 48.9112 50.4977M49.7464 17.2957L59.3373 14.2779L50.2171 35.953L58.2243 35.377L55.4832 43.0856H36.7614L49.7464 17.2978V17.2957ZM73.5477 10.8535C75.9793 10.3939 78.3728 9.99578 80.7366 9.65694C82.4305 9.43034 83.7598 9.604 84.6459 10.1546C84.7922 10.2457 84.93 10.3452 85.0508 10.4553C85.7144 11.0652 85.9836 11.9695 85.814 13.0729C85.3116 16.385 82.986 31.7048 82.1867 37.0098C81.3875 42.3126 78.5297 43.0835 76.1299 43.0835C73.7279 43.0835 63.9823 43.0835 62.7081 43.0835C61.434 43.0835 56.5495 42.5095 58.2095 37.7467C59.8695 32.9839 61.6163 27.9712 65.5659 16.6328C66.5729 13.7569 69.4201 11.709 73.5477 10.8535ZM99.1043 8.35241C101.099 8.363 102.889 8.94326 104.233 9.99366C104.375 10.1038 104.515 10.216 104.646 10.3346C105.704 11.3109 106.342 12.5477 106.416 13.8098C106.442 14.3033 106.529 17.9479 106.529 18.0919C106.618 19.5595 104.381 21.1415 102.859 22.0585C104.515 22.6027 106.997 23.7082 107.107 25.3706C107.107 25.3727 107.796 36.6879 107.907 38.6552C108.017 40.6226 106.48 43.0856 102.429 43.0856H84.012L88.4704 8.79714C88.4704 8.79714 95.7314 8.37782 99.1043 8.35241ZM113.317 9.07456C115.64 9.32657 117.977 9.63576 120.332 9.99366C122.359 10.3283 124.029 11.0102 125.308 11.9907C125.38 12.0458 125.458 12.0966 125.524 12.158C126.664 13.094 127.436 14.2525 127.807 15.6184C128.647 18.6955 133.624 38.471 133.624 38.471C134.154 40.4829 132.876 43.0919 128.943 43.0835H116.804C111.782 43.0835 110.205 40.9827 109.944 38.8628C109.944 38.8628 109.1 26.546 108.032 12.7213C107.83 10.1398 109.853 8.75478 113.315 9.07244M134.778 13.0115C136.879 13.5705 148.653 17.1834 148.653 17.1834L150.714 21.5502L139.113 18.5049L140.953 23.4223L146.217 24.479C149.122 25.108 151.227 25.9297 152.829 27.0182C152.94 27.0945 153.046 27.1707 153.147 27.2491C154.256 28.0665 155.055 28.9899 155.583 30.0953C156.908 32.8611 159.293 37.8484 159.76 38.8247C160.226 39.8009 160.983 43.0835 154.935 43.0835H138.297L135.933 35.1017L148.507 35.9657L146.105 29.9195L140.862 29.2186C139.177 29.011 137.644 28.5621 136.315 27.9056C135.626 27.5604 134.988 27.1686 134.424 26.7112C133.255 25.7709 132.454 24.6336 132.106 23.4498L129.755 15.4109C129.183 13.4519 130.493 11.9653 134.776 13.0093M138.354 67.0331C136.079 67.4015 133.93 67.8272 131.988 68.2529L122.617 70.7052C127.958 65.3706 132.592 61.438 136.486 58.5409C136.486 58.5409 136.535 58.5091 136.762 58.3376C138.903 56.7577 140.82 55.4977 142.507 54.4833C148.532 50.8746 151.634 50.4956 151.634 50.4956C143.342 56.4168 138.352 67.0331 138.352 67.0331M118.53 85.7412L118.922 85.1567C118.922 85.1567 119.781 82.6641 123.569 82.9924C123.569 82.9924 123.51 91.3977 118.097 91.8636C114.481 92.1728 113.453 93.3079 113.453 93.3079L114.945 91.0779C117.608 91.2008 118.998 88.9327 119.013 87.4799C119.022 86.8382 118.842 86.241 118.53 85.7391M85.5999 91.0801L87.0988 93.3101C87.0988 93.3101 86.0642 92.1749 82.4538 91.8658C77.0372 91.402 76.9779 82.9945 76.9779 82.9945C80.7727 82.6663 81.6249 85.1588 81.6249 85.1588L82.0214 85.7433C81.7097 86.2431 81.5295 86.8403 81.5338 87.4841C81.5507 88.9369 82.9436 91.2029 85.5999 91.0822M157.264 88.6616C157.264 88.6616 150.665 87.5455 142.567 93.1682C146.071 93.632 151.078 95.7433 157.828 100.75C157.828 100.75 150.514 101.031 129.132 115.364L131.939 119.297C131.939 119.297 122.316 122.363 119.692 134.352C117.835 142.819 114.099 153.128 111.21 157.77C109.111 161.144 105.549 163.532 100.353 163.532C100.328 163.532 100.302 163.532 100.277 163.532C100.247 163.532 100.226 163.532 100.194 163.532C94.9958 163.532 91.4384 161.144 89.3396 157.77C86.4522 153.13 82.7146 142.819 80.8617 134.352C78.2329 122.366 68.6081 119.297 68.6081 119.297L71.4192 115.364C50.0369 101.029 42.7229 100.75 42.7229 100.75C49.4708 95.7433 54.4783 93.632 57.9805 93.1682C49.9118 87.6006 43.2868 88.6616 43.2868 88.6616C46.6703 85.1567 55.8202 82.77 61.6884 82.7806C57.4633 78.3101 50.6008 75.1737 50.6008 75.1737C65.7949 70.6777 74.0268 81.5333 74.0268 81.5333C73.0771 86.0441 75.9263 91.4718 75.9263 91.4718C67.6838 97.4206 63.8233 104.964 63.8233 104.964C64.1073 104.723 64.9278 104.036 65.0656 103.926C79.4774 91.9378 87.739 98.2169 87.739 98.2169L88.3029 95.0106L96.1448 112.774L93.6496 96.2495L97.0289 93.4414C88.0273 94.8454 85.2098 86.9759 82.3945 82.4799C79.594 78.003 74.5653 74.0873 74.5165 74.047H74.5208C81.8899 75.1843 86.8783 78.687 89.8209 81.5184C83.8594 60.9191 51.3301 47.9818 51.3301 47.9818C72.4326 50.5104 84.0799 60.2753 84.0799 60.2753L79.5812 54.6548C80.5755 54.4727 81.4596 54.2863 82.2736 54.1063C87.686 52.9077 90.0032 51.8467 100.279 51.8467C112.094 51.8467 113.372 53.2508 120.968 54.6548L118.312 57.9733C129.885 48.4583 149.671 46.5057 149.671 46.5057C149.671 46.5057 116.711 60.845 110.733 81.5206C113.669 78.687 118.644 75.1843 126.033 74.047C126.033 74.047 120.97 77.9839 118.155 82.4799C115.341 86.978 112.528 94.8475 103.522 93.4414L106.897 96.2495L104.404 112.774L112.168 94.9471L112.736 98.1555C112.736 98.1555 120.995 91.8763 135.409 103.863C135.844 104.212 136.285 104.579 136.726 104.964C136.726 104.964 132.863 97.4206 124.629 91.4718C124.629 91.4718 127.476 86.0441 126.524 81.5333C126.524 81.5333 134.759 70.6756 149.95 75.1737C149.95 75.1737 143.092 78.3101 138.865 82.7806C144.733 82.7721 153.881 85.1588 157.267 88.6616M30.0813 90.612L41.5145 93.1428C41.5145 93.1428 36.3077 97.3465 33.9779 104.329C33.9779 104.329 56.0238 119.752 100.12 178.446C144.214 119.752 166.26 104.329 166.26 104.329C163.934 97.3465 159.393 94.1593 159.393 94.1593L170.154 90.612C165.142 79.3477 151.286 56.6328 151.286 56.6328L164.998 45.1186L151.225 15.449C151.225 15.449 130.921 5.93182 100.12 5.93182C69.3183 5.93182 47.989 15.3134 47.989 15.3134L32.9815 43.5049L48.9557 56.6328C48.9557 56.6328 35.0972 79.3499 30.0813 90.612Z" fill="black"/>
<path d="M109.62 148.575C109.62 148.575 107.815 140.756 106.893 138.263C107.262 138.174 107.875 137.98 108.543 137.753C109.431 137.45 110.147 137.067 110.147 137.067C111.01 136.607 111.761 136.072 112.418 135.44C112.308 143.079 109.62 148.573 109.62 148.573M106.618 155.576C105.933 156.023 105.231 156.351 104.527 156.593C105.363 154.244 107.095 148.083 107.095 148.083C107.095 148.083 108.047 150.565 108.655 153.778C108.013 154.524 107.326 155.11 106.618 155.576ZM102.236 157.283L100.567 157.346L102.543 152.37L103.675 156.91C103.542 156.927 102.369 157.27 102.236 157.283ZM103.283 138.74C103.217 138.74 103.355 138.725 103.52 138.708C104.298 138.628 105.011 138.507 105.655 138.34L103.291 144.856L100.565 138.825C100.565 138.825 102.791 138.782 103.283 138.74ZM98.1207 157.283C97.9892 157.268 96.8169 156.927 96.6833 156.91L97.8133 152.37L99.787 157.346L98.1207 157.283ZM93.7386 155.574C93.0326 155.11 92.3436 154.524 91.7013 153.776C92.3118 150.563 93.2658 148.081 93.2658 148.081C93.2658 148.081 94.9958 154.242 95.8289 156.59C95.1251 156.349 94.4213 156.019 93.7386 155.574ZM88.146 135.44C88.9601 136.22 89.9099 136.868 91.0462 137.382C91.3451 137.518 91.2158 137.463 91.3112 137.503C92.0193 137.802 92.8016 138.058 93.6708 138.268C92.7507 140.758 90.9487 148.581 90.9487 148.581C90.9487 148.581 88.2563 143.081 88.146 135.443M96.5201 138.772C96.713 138.795 96.9674 138.831 96.9186 138.82C97.4105 138.88 99.6322 138.969 99.6322 138.969L96.7321 144.943L94.5591 138.378C95.1548 138.541 95.8077 138.672 96.5201 138.772ZM119.948 100.945C115.857 104.091 117.453 110.974 115.863 119.858C114.012 130.239 114.57 136.917 100.279 136.917C85.9879 136.917 86.5391 130.239 84.6862 119.858C83.0962 110.974 84.6926 104.091 80.601 100.945C73.3887 95.3981 70.02 110.959 70.02 110.959C73.3993 109.869 78.004 111.33 78.004 111.33C75.7779 113.181 75.0359 117.45 75.0359 117.45C86.5391 128.941 84.436 137.785 88.0273 149.339C90.6476 157.772 96.1321 159.161 100.279 159.161C104.426 159.161 110.203 157.772 112.524 149.339C115.738 137.677 114.012 128.943 125.517 117.45C125.517 117.45 124.775 113.181 122.549 111.33C122.549 111.33 127.154 109.869 130.529 110.959C130.529 110.959 127.167 95.3981 119.95 100.945" fill="black"/>
<path d="M93.8382 123.935C96.4246 121.83 105.901 122.821 105.901 122.821C105.901 122.821 104.419 126.264 99.4478 125.068C93.6877 123.681 95.8819 130.794 95.8819 130.794C95.8819 130.794 91.254 126.04 93.8382 123.933M100.277 134.504C100.277 134.504 108.928 134.883 108.996 127.829C109.102 117.008 115.867 101.815 115.867 101.815C115.867 101.815 108.471 108.839 104.756 120.678C104.718 120.597 104.211 120.411 100.277 120.411C96.0324 120.411 95.6784 120.629 95.6678 120.695C91.9557 108.846 85.5914 101.815 85.5914 101.815C85.5914 101.815 90.7854 115.699 91.5486 127.829C91.9938 134.871 100.275 134.504 100.275 134.504" fill="black"/>
<path d="M117.152 193.282C115.324 193.282 113.843 191.802 113.843 189.977C113.843 188.151 115.324 186.671 117.152 186.671C118.979 186.671 120.461 188.155 120.461 189.977C120.461 191.798 118.979 193.282 117.152 193.282ZM117.152 185.769C114.828 185.769 112.942 187.654 112.942 189.975C112.942 192.296 114.828 194.183 117.152 194.183C119.475 194.183 121.364 192.298 121.364 189.975C121.364 187.651 119.477 185.769 117.152 185.769Z" fill="black"/>
<path d="M117.453 189.526H116.325V188.475H117.453C117.743 188.475 117.977 188.71 117.977 189C117.977 189.291 117.743 189.528 117.453 189.528M118.88 189C118.88 188.215 118.239 187.575 117.453 187.575H115.422V192.38H116.325V190.426H116.974L117.883 192.38H118.88L117.93 190.343C118.485 190.146 118.88 189.621 118.88 189Z" fill="black"/>
<path d="M157.826 100.75C157.826 100.75 146.997 96.0123 138.437 96.0123L142.564 93.1681C150.519 87.645 157.029 88.6256 157.258 88.6616C156.893 88.5324 142.94 83.5938 136.743 85.5696C137.375 84.2334 138.861 82.7806 138.861 82.7806C143.088 78.31 149.948 75.1715 149.948 75.1715C134.754 70.6777 126.52 81.5332 126.52 81.5332C127.472 86.044 124.627 91.4718 124.627 91.4718C132.859 97.4206 136.724 104.964 136.724 104.964C136.281 104.579 135.842 104.214 135.407 103.863C132.41 101.504 116.054 89.9513 105.729 109.962L104.4 112.776L106.895 96.2516L103.52 93.4434C112.526 94.8475 115.337 86.978 118.153 82.4799C120.889 78.1067 125.753 74.263 126.016 74.0555C126.024 74.0512 126.03 74.0491 126.03 74.0491C118.644 75.1842 113.669 78.687 110.733 81.5205C116.664 61.0038 149.155 46.7323 149.662 46.5099C149.649 46.512 149.637 46.5163 149.624 46.5184C149.639 46.5163 149.654 46.512 149.669 46.5078C149.669 46.5078 129.883 48.4604 118.312 57.9754L120.968 54.6569C113.372 53.2507 112.094 51.8488 100.279 51.8488C90.0032 51.8488 87.686 52.9076 82.2736 54.1105C81.4595 54.2905 80.5755 54.4748 79.5812 54.659L84.0799 60.2774C84.0799 60.2774 72.4326 50.5146 51.3301 47.986C51.3301 47.986 51.3364 47.986 51.3449 47.9902C51.3449 47.9902 51.3407 47.9902 51.3385 47.9902C51.9003 48.2168 83.9124 61.1054 89.823 81.5226C89.8505 81.5481 89.8738 81.5735 89.9014 81.601C89.8738 81.5756 89.8484 81.5502 89.8208 81.5248C86.8783 78.6933 81.8899 75.1885 74.5208 74.0533C74.5208 74.0533 74.5335 74.0597 74.5399 74.0618C74.5293 74.0576 74.5229 74.0555 74.5208 74.0533C74.6183 74.1317 79.6088 78.0326 82.3945 82.4841C85.2098 86.9822 88.0273 94.8517 97.0288 93.4477L93.6496 96.2558L96.1448 112.781L94.7626 109.892C84.2685 89.947 67.8364 101.737 65.0677 103.931C64.9299 104.041 64.1094 104.725 63.8254 104.968C63.8254 104.968 67.6859 97.4248 75.9263 91.476C75.9263 91.476 73.0771 86.0483 74.0289 81.5375C74.0289 81.5375 65.797 70.6819 50.6029 75.1758C50.6029 75.1758 57.4632 78.3142 61.6905 82.7848C61.6905 82.7848 63.1745 84.2376 63.8084 85.5739C57.6095 83.598 43.6599 88.5366 43.2953 88.6658C43.5179 88.634 50.0538 87.7001 57.9826 93.1724L62.1103 96.0165C53.5518 96.0165 42.725 100.754 42.725 100.754C42.725 100.754 50.039 101.036 71.4213 115.368L68.6102 119.301C68.6102 119.301 78.235 122.37 80.8638 134.356C82.7167 142.823 86.4543 153.134 89.3417 157.774C91.4426 161.148 94.9979 163.537 100.196 163.537C100.228 163.537 100.249 163.534 100.279 163.534C100.302 163.534 100.325 163.537 100.355 163.537C105.549 163.537 109.113 161.148 111.212 157.774C114.099 153.134 117.835 142.823 119.69 134.356C122.316 122.37 131.939 119.301 131.939 119.301L129.132 115.368C150.514 101.036 157.828 100.754 157.828 100.754L157.826 100.75ZM95.6678 120.695C95.6763 120.631 96.0324 120.411 100.277 120.411C104.214 120.411 104.716 120.599 104.754 120.68C108.426 108.979 115.693 101.984 115.865 101.819C115.761 102.054 109.102 117.092 108.996 127.831C108.928 134.886 100.277 134.507 100.277 134.507C100.277 134.507 91.996 134.873 91.5486 127.831C90.7918 115.798 85.672 102.033 85.5935 101.819C85.6911 101.927 91.9854 108.941 95.6678 120.695ZM125.515 117.45C114.01 128.941 115.736 137.675 112.522 149.337C110.203 157.77 104.419 159.161 100.277 159.161C96.1342 159.161 90.6455 157.77 88.0252 149.337C84.4318 137.785 86.5369 128.941 75.0317 117.45C75.0317 117.45 75.7758 113.181 78.0018 111.33C78.0018 111.33 73.3972 109.869 70.0179 110.959C70.0179 110.959 73.3866 95.3981 80.5988 100.944C84.6904 104.091 83.0941 110.976 84.6841 119.858C86.5369 130.239 85.9815 136.917 100.277 136.917C114.572 136.917 114.01 130.239 115.863 119.858C117.453 110.976 115.857 104.091 119.948 100.944C127.163 95.3981 130.527 110.959 130.527 110.959C127.152 109.869 122.545 111.33 122.545 111.33C124.773 113.181 125.515 117.45 125.515 117.45Z" fill="#A7A8A9"/>
<path d="M90.9487 148.579C90.9635 148.52 92.7528 140.75 93.6686 138.27C92.7994 138.06 92.0172 137.806 91.3091 137.505C91.2752 137.408 91.3451 137.52 91.0441 137.385C89.9078 136.87 88.958 136.222 88.1439 135.44C88.2542 143.062 90.9338 148.556 90.9466 148.579C90.9466 148.579 90.9466 148.579 90.9466 148.577L90.9487 148.579Z" fill="white"/>
<path d="M102.543 152.37L100.567 157.346L102.236 157.281C102.369 157.266 103.539 156.925 103.675 156.908L102.543 152.37Z" fill="white"/>
<path d="M107.092 148.083C107.092 148.083 105.363 154.244 104.525 156.593C105.229 156.351 105.931 156.021 106.615 155.576C107.324 155.11 108.01 154.524 108.653 153.78C108.046 150.565 107.092 148.086 107.092 148.086V148.083Z" fill="white"/>
<path d="M96.7342 144.941L99.6343 138.969C99.6343 138.969 97.4126 138.88 96.9207 138.82C96.891 138.82 96.6854 138.789 96.5222 138.77C95.8098 138.67 95.159 138.539 94.5612 138.376L96.7342 144.941Z" fill="white"/>
<path d="M112.42 135.44C111.763 136.069 111.014 136.607 110.149 137.067C110.149 137.067 109.433 137.45 108.545 137.753C107.877 137.982 107.264 138.177 106.895 138.263C107.817 140.756 109.622 148.577 109.622 148.577C109.622 148.566 109.626 148.558 109.626 148.547C109.626 148.556 109.624 148.566 109.622 148.575C109.622 148.575 112.31 143.079 112.42 135.44Z" fill="white"/>
<path d="M95.8289 156.59C94.9937 154.242 93.2659 148.081 93.2659 148.081C93.2659 148.081 92.3119 150.563 91.7013 153.776C92.3437 154.521 93.0327 155.108 93.7386 155.574C93.7386 155.574 93.7386 155.572 93.7386 155.57C93.7386 155.57 93.7386 155.572 93.7386 155.574C94.4213 156.021 95.1272 156.351 95.8289 156.59Z" fill="white"/>
<path d="M99.7869 157.346L97.8132 152.37L96.6832 156.908C96.8147 156.927 97.987 157.268 98.1206 157.281L99.7869 157.346Z" fill="white"/>
<path d="M103.291 144.852L105.655 138.34C105.008 138.505 104.298 138.626 103.52 138.706C103.353 138.725 103.215 138.74 103.281 138.738C102.789 138.782 100.565 138.825 100.565 138.825L103.291 144.854V144.85V144.852Z" fill="white"/>
<path d="M50.217 35.9509L59.3351 14.2778L49.7421 17.2956L36.7571 43.0813H36.7592H55.4788L58.22 35.3748L50.2127 35.9487L50.217 35.9509ZM54.6881 41.7662L38.5718 41.997L50.6113 17.5879L57.885 15.3515L48.4913 37.1516L56.5621 36.6476L54.6881 41.7662Z" fill="white"/>
<path d="M85.0529 10.4553C84.9321 10.3452 84.7943 10.2457 84.648 10.1546C83.7618 9.60399 82.4326 9.43033 80.7387 9.65693C78.3749 9.99577 75.9793 10.3918 73.5498 10.8535C69.4221 11.7069 66.5728 13.7569 65.568 16.6328C61.6184 27.9712 59.8715 32.9839 58.2116 37.7467C56.5516 42.5095 61.4361 43.0834 62.7102 43.0834C63.9843 43.0834 73.73 43.0813 76.1319 43.0834C78.5339 43.0856 81.3895 42.3147 82.1888 37.0097C82.9901 31.7069 85.3137 16.385 85.8161 13.075C85.9857 11.9695 85.7186 11.0652 85.0529 10.4553ZM84.8324 13.1279C82.8629 25.3028 82.0022 30.6247 81.0737 36.3638C80.1451 42.1029 76.6407 41.5714 74.6903 41.5841L63.5752 41.6709C61.1414 41.6751 58.4829 40.6734 59.6447 37.1093C60.9866 33.1258 65.1609 20.8005 66.6449 16.421C67.4696 13.9835 69.7274 12.3846 73.3229 11.6646C75.7673 11.2241 78.1841 10.8323 80.5627 10.4871C82.0107 10.2965 83.1173 10.4426 83.8572 10.8704C84.0035 10.953 84.154 11.0271 84.2685 11.1351C84.7709 11.601 84.966 12.2723 84.8303 13.13L84.8324 13.1279Z" fill="white"/>
</g>
</g>
<defs>
<clipPath id="clip0_5_234696">
<rect width="200" height="200" fill="white" transform="translate(0 0.299805)"/>
</clipPath>
<clipPath id="clip1_5_234696">
<rect width="162" height="200" fill="white" transform="translate(19)"/>
</clipPath>
</defs>
</svg>
