<svg width="200" height="200" viewBox="0 0 200 200" fill="none" xmlns="http://www.w3.org/2000/svg">
<g clip-path="url(#clip0_5_234618)">
<path d="M171.285 113.241C170.379 111.677 169.128 109.667 169.128 109.667L166.929 107.609L165.731 104.647C165.731 104.647 164.764 102.916 163.189 102.143C161.614 101.371 159.308 100.097 159.308 100.097C159.308 100.097 158.006 98.4804 156.702 96.3035C155.397 94.1257 153.988 93.2964 153.988 93.2964L152.305 92.7462L149.037 90.8653L148.579 89.523L145.01 88.1674L146.117 87.0599L141.934 85.4226L138.797 85.5573C138.797 85.5573 139.351 84.432 137.44 83.7729C135.526 83.1154 133.176 83.3555 133.176 83.3555C133.176 83.3555 132.55 82.0708 129.972 82.202C127.392 82.3322 122.807 83.7108 122.807 83.7108L121.005 82.8266L113.557 85.5094C113.557 85.5094 113.647 84.6482 115.772 83.7374C117.894 82.8257 119.808 79.8638 120.867 79.1276C121.928 78.3904 122.307 76.202 122.307 76.202C122.307 76.202 124.151 75.5721 125.313 73.4891C126.474 71.407 127.954 70.0044 127.954 70.0044L126.513 69.3329L128.184 67.6388C128.184 67.6388 128.79 66.1211 129.118 64.8851C129.443 63.6501 130.672 62.8562 130.672 62.8562L132.225 60.2656C132.225 60.2656 131.651 58.5875 130.985 59.3769C130.315 60.1681 130.449 58.7824 130.449 58.7824L132.08 56.0066L133.492 54.0565L135.042 50.5125L133.049 51.62C133.049 51.62 133.659 49.6602 133.484 48.597C133.309 47.532 133.474 46.9145 133.632 45.737C133.792 44.5577 132.939 43.1631 132.939 43.1631L133.71 41.027L133.645 39.7379L132.799 38.9033L131.702 34.5947L132.127 31.452L131.883 28.5398L131.643 26.1857L131.913 24.7831L131.335 22.5451L130.598 21.4846L130.686 20.7465C130.686 20.7465 130.612 19.5026 128.84 19.2811C129.558 18.3074 128.659 16.9022 128.659 16.9022L125.957 11.2982L125.25 12.9506L125.226 15.077L125.749 17.7084L125.704 19.2217C125.704 19.2217 124.875 20.6296 125.333 21.971C125.79 23.3133 127.261 26.673 127.261 26.673C127.261 26.673 126.54 27.8549 126.615 30.2657C126.689 32.6756 127.454 36.4189 127.454 36.4189L127.593 40.118L128.223 43.203C128.223 43.203 126.874 43.1011 127.227 45.2284C127.579 47.3566 127.511 49.405 127.511 49.405C127.511 49.405 125.903 50.8253 125.46 51.7254C125.019 52.6247 124.664 55.2818 124.664 55.2818C124.664 55.2818 122.773 55.6256 123.181 57.9212C123.589 60.2168 122.809 60.6696 122.809 60.6696L120.64 63.0954C120.64 63.0954 120.53 65.003 120.202 66.239C119.873 67.474 117.987 70.4474 117.987 70.4474C117.987 70.4474 116.589 70.7372 116.203 71.8057C115.82 72.8742 115.824 73.4341 115.824 73.4341C115.824 73.4341 114.92 72.4312 114.258 73.7815C113.591 75.1317 113.043 76.8178 113.043 76.8178C113.043 76.8178 111.754 76.8833 111.035 78.0653C110.312 79.2481 108.462 79.5289 108.462 79.5289L110.234 76.6494L109.901 74.4415L109.496 72.7059L111.031 69.114C111.031 69.114 110.806 67.7646 110.746 67.0355C110.684 66.3072 112.228 64.6885 112.228 64.6885C112.228 64.6885 111.782 62.936 111.544 61.1436C111.306 59.3521 111.184 57.8955 111.184 57.8955C111.184 57.8955 111.404 53.7889 111.12 52.949C110.833 52.11 110.595 53.9759 110.595 53.9759L109.965 52.1294L109.389 49.8914L107.859 47.6038L108.462 45.5261L107.385 44.019L106.297 40.8321C106.297 40.8321 106.899 38.7535 105.994 37.7506C105.087 36.7494 104.359 36.2488 104.359 36.2488C104.359 36.2488 104.291 34.9615 103.831 33.0575C103.367 31.1552 103.08 30.3171 102.235 29.4816C101.389 28.647 100.263 28.0941 100.263 28.0941L98.382 23.6783L98.3682 22.5088C98.3682 22.5088 98.3616 21.9807 96.8976 20.9831C95.4312 19.9846 94.5923 19.1659 94.5923 19.1659C94.5923 19.1659 94.7514 17.9875 93.7339 16.6497C92.7158 15.31 91.4262 15.3765 91.4262 15.3765L90.6177 13.5699C90.6177 13.5699 90.416 11.2956 89.1918 11.0856C88.5273 12.1931 87.6607 9.5865 87.6607 9.5865L85.689 8.19904C85.689 8.19904 86.2456 7.63465 85.0581 6.35439C83.8738 5.07235 81.8463 4.07825 81.8463 4.07825C81.8463 4.07825 79.9872 2.46574 79.4213 1.91022C78.8572 1.35292 77.6413 0.662735 77.6413 0.662735C77.6413 0.662735 75.4107 0.598944 75.7538 1.60632C76.0964 2.61193 76.059 1.93414 76.9578 2.37537C77.8586 2.81836 79.7082 5.94594 79.7082 5.94594L82.4939 8.16624L82.6735 9.27286C82.6735 9.27286 82.7022 10.6745 83.3224 11.3992C83.9464 12.1231 84.2943 13.6904 84.8574 14.2468C85.4243 14.8032 86.3743 14.8529 86.3743 14.8529C86.3743 14.8529 87.3766 16.5079 88.1702 17.735C88.9644 18.963 89.4178 19.7445 90.436 21.0823C91.4563 22.4211 91.9845 23.0528 91.9845 23.0528L92.9473 24.2223C92.9473 24.2223 92.5589 24.7309 93.238 25.6222C93.9167 26.5144 94.541 27.7991 94.541 27.7991C94.541 27.7991 94.9435 28.973 95.8434 29.4151C96.7443 29.8572 96.6937 30.8106 96.6937 30.8106C96.6937 30.8106 96.9796 31.6496 97.8881 33.2125C98.7966 34.7763 99.7674 37.0666 99.7674 37.0666C99.7674 37.0666 98.038 36.1017 98.4948 37.444C98.9551 38.7854 101.153 41.5382 101.153 41.5382L101.625 42.9541C101.625 42.9541 101.339 44.9599 101.739 46.1348C102.138 47.3096 103.211 48.2541 103.211 48.2541L103.791 51.053C103.791 51.053 103.066 51.6758 103.187 52.5716C103.305 53.4673 103.986 54.534 103.986 54.534V56.8943C103.986 56.8943 103.395 58.1188 103.68 58.9587C103.966 59.7969 104.11 59.8199 104.458 61.3864C104.805 62.9537 104.056 64.4492 104.056 64.4492C104.056 64.4492 102.883 64.8497 102.832 65.8039C102.784 66.7564 102.964 68.3813 102.964 68.3813C102.964 68.3813 102.86 69.728 102.756 70.513C102.649 71.298 103.099 71.5195 102.431 72.3089C101.763 73.0992 101.768 73.6601 102.17 74.8331C102.569 76.008 102.004 77.034 102.004 77.034C102.004 77.034 101.478 76.1382 100.633 74.7986C99.7269 73.3633 97.2309 72.4347 97.2309 72.4347L98.2169 70.9383L98.9378 69.1185L98.9167 66.9531L99.077 65.7747L98.5647 64.8258L97.3406 60.9823C97.3406 60.9823 95.7409 60.0875 95.1256 59.6533C93.2428 58.3243 93.5751 60.5393 93.5751 60.5393L94.6826 61.6468C94.6826 61.6468 95.2737 62.679 95.1723 64.024C95.0702 65.3707 94.7113 65.0074 95.3938 66.4604C96.0766 67.9135 93.7904 71.1385 93.7904 71.1385C93.7904 71.1385 92.9912 69.9876 91.0877 70.4501C89.1842 70.9135 89.2922 72.5295 89.2922 72.5295L87.8486 71.2936L85.6478 69.7829C85.6478 69.7829 85.4904 67.8497 85.0941 67.2357C84.6978 66.6217 84.775 65.4557 84.775 65.4557L84.9965 62.3547L83.4896 62.4903C83.4896 62.4903 82.2703 64.2517 81.9391 64.9268C81.6083 65.6019 81.7567 66.068 81.8744 66.9646C81.9934 67.8603 82.5662 69.5375 82.5662 69.5375L82.0678 70.2694C82.0678 70.2694 82.5247 71.6116 83.4872 72.7821C84.4476 73.9525 85.7586 74.9882 85.7586 74.9882L86.2016 76.3172C86.2016 76.3172 85.4194 77.7286 84.7618 79.6397C84.1018 81.5508 84.9989 83.515 84.0973 83.0729C83.1975 82.6317 81.6975 81.2602 81.6975 81.2602L80.5018 78.8591C80.5018 78.8591 80.8299 77.6231 79.7588 76.6769C78.6865 75.7324 77.7878 75.2894 77.7878 75.2894C77.7878 75.2894 77.8922 74.5044 76.9374 73.8949C75.9787 73.2853 74.8003 73.1258 74.8003 73.1258C74.8003 73.1258 75.2952 71.8323 74.449 70.9977C73.6017 70.1622 72.9829 69.9991 72.9829 69.9991L71.6169 67.0939C71.6169 67.0939 70.7638 65.2112 69.9695 63.9823C69.1738 62.7561 69.387 61.1117 69.387 61.1117L68.4149 58.2588C68.4149 58.2588 69.0188 56.7411 68.3889 54.8973C67.7579 53.0509 66.1268 52.11 66.1268 52.11C66.1268 52.11 67.0115 50.3105 66.6117 49.1348C66.211 47.9599 65.0186 46.1197 65.0186 46.1197L64.7123 42.4774L65.0051 40.5947C65.0051 40.5947 65.406 39.4003 65.0051 38.2264C64.6044 37.0524 64.1026 35.7544 64.1026 35.7544L64.1447 33.6803L64.4147 32.2778L63.3435 31.3315L63.22 29.875C63.22 29.875 63.8333 29.478 63.483 27.3499C63.1318 25.2226 61.6626 23.665 61.6626 23.665L61.4729 20.9193L62.1893 19.1748C62.1893 19.1748 61.2663 17.1414 61.9281 15.792C62.5918 14.4409 62.1163 14.2601 62.1654 13.3068C62.2153 12.3517 62.8815 10.2306 62.8815 10.2306C62.8815 10.2306 64.4299 6.36413 61.4577 8.8148L60.5139 11.6464L59.765 13.8446L59.4217 16.1863L58.9959 19.3289L57.6815 22.6346L58.6252 25.0029L58.8364 28.3741L58.7052 30.9169L59.4638 32.4062L58.5103 34.7302L57.5174 34.1216L59.0648 39.2851L59.0814 41.5276L59.5441 43.6168L60.0827 45.9301L60.3239 48.0964L59.9684 50.7154L60.3969 53.835L61.4577 58.0745L59.9539 57.6005L61.9474 60.7015L62.8815 63.9823L63.7381 65.4141L64.496 66.9026L65.2498 67.6441L65.4893 69.8095L66.3286 72.2699L68.5114 74.2723L69.3414 75.2389L69.504 77.181L70.2619 78.6713L71.2494 80.8305L72.2249 81.4967L72.6835 82.839L73.8942 84.9229L76.2943 86.1021L78.1168 89.0534L75.6803 89.2749L73.4653 89.0534L69.9213 87.7244L69.4898 89.0304L66.8938 87.6066L65.0238 88.2011C65.0238 88.2011 64.2658 86.7117 62.9882 85.8984C61.7117 85.0859 60.8164 85.3916 60.8164 85.3916L60.3758 86.2909L55.9354 82.0629L54.8418 83.3582C54.8418 83.3582 53.8346 81.0316 53.012 80.8136C52.1872 80.5948 48.8883 78.9743 48.8883 78.9743C48.8883 78.9743 48.953 77.7038 47.6708 76.1435C46.3895 74.5815 44.6528 72.4277 44.6528 72.4277L43.5142 69.8184C43.5142 69.8184 42.308 68.4832 41.185 68.1173C40.0592 67.7514 40.3502 66.4029 40.2689 65.4327C40.1875 64.4616 38.4684 60.2585 38.4684 60.2585L37.6981 61.5644L36.7937 60.3754L37.0121 59.5515L35.9538 57.9141L34.8238 56.8013L34.1368 54.7883L33.0026 52.9277L31.4106 49.7249L30.2737 48.3905C30.2737 48.3905 30.7987 47.936 30.4935 47.0412C30.1889 46.1472 29.4856 44.1121 27.9137 43.8985C26.3441 43.6859 27.2731 46.3917 27.2731 46.3917L27.4416 48.1549L28.4262 50.4939L28.8132 52.3598L30.7928 57.4286L30.4319 59.2998C30.4319 59.2998 31.2677 61.0125 32.1668 61.4546C33.0667 61.8967 33.5962 62.7153 33.5962 62.7153L34.4258 63.6802L34.1409 65.7756C34.1409 65.7756 34.676 67.342 35.1283 67.9356C35.5828 68.531 36.1102 69.3497 36.1102 69.3497L37.3918 70.9099L38.445 71.7995L39.4382 74.7073L40.7974 76.4908L42.9068 79.0177C42.9068 79.0177 44.0315 79.3827 44.0368 80.1305C44.0402 80.8783 42.4554 80.6364 42.4554 80.6364C42.4554 80.6364 44.3534 82.52 45.706 83.5567C47.0582 84.5942 48.8751 87.72 48.8751 87.72L49.7006 87.937L50.834 89.7976L52.4855 90.9822L57.2886 93.3399L58.4816 93.1813C58.4816 93.1813 58.4591 94.6423 59.8058 94.9302C61.1528 95.2199 63.5893 95.4104 63.5893 95.4104L65.7132 96.1183C65.7132 96.1183 66.6297 97.38 67.6019 97.2985C68.5734 97.2161 71.1493 96.8262 71.1493 96.8262L76.3448 96.8059L69.2534 100.367L68.7813 102.018L65.9496 104.15C65.9496 104.15 64.1039 105.997 63.888 106.82C63.6689 107.645 62.7794 108.697 62.7794 108.697L61.0715 110.279L59.4344 111.338L57.8794 113.368L55.0774 116.194C53.5304 116.519 54.9231 117.874 54.2569 118.849C53.5917 119.826 51.2885 121.861 50.3225 122.69C49.3573 123.52 49.5109 123.967 49.7404 124.638C49.9677 125.308 49.9677 125.308 49.9677 125.308L49.0084 126.884L49.4659 128.227L49.5483 129.199C49.5483 129.199 48.8122 130.701 48.3698 131.601C47.9275 132.498 46.6677 133.929 46.6677 133.929C46.6677 133.929 46.3781 135.275 46.6844 136.171C46.9883 137.066 47.5894 137.36 47.5894 137.36L46.404 139.012C46.404 139.012 45.9627 139.911 46.5684 140.955C47.1731 141.997 47.4032 142.669 47.4032 142.669C47.4032 142.669 46.8235 145.365 46.2282 145.817C45.6347 146.268 46.3874 147.011 46.0988 148.358C45.8098 149.705 45.3121 153.373 45.3121 153.373C45.3121 153.373 45.0231 154.718 45.3294 155.614C45.6339 156.509 47.1557 160.235 47.6528 156.568C48.1483 152.905 47.5434 151.862 47.5434 151.862L48.5751 149.761L49.1777 147.622C49.1777 147.622 50.7244 147.277 51.1663 146.378C51.6093 145.478 50.3921 142.646 51.276 140.846C52.1606 139.045 53.1217 137.469 53.1217 137.469L54.0734 135.146L53.7592 132.756C53.7592 132.756 54.7217 131.181 55.609 130.127C56.4995 129.073 57.1582 127.351 57.1582 127.351C57.1582 127.351 58.5069 127.639 58.647 126.592C58.79 125.543 59.1334 121.43 59.1334 121.43C59.1334 121.43 60.2526 123.257 60.8399 122.057C61.43 120.856 62.2492 118.12 63.22 118.037C64.1915 117.956 65.7569 117.42 66.565 115.398C67.3731 113.374 67.5202 113.073 68.3439 113.292C69.1682 113.51 69.9726 111.725 71.2503 109.653C72.9023 106.974 74.7943 107.216 74.7943 107.216L80.5533 103.451C80.5533 103.451 78.8568 106.082 77.8953 107.659C76.935 109.236 75.717 109.295 75.0158 111.868C77.489 111.067 73.2919 115.348 73.2961 116.096C73.303 116.844 71.6879 120.89 71.6879 120.89C71.6879 120.89 70.9444 121.644 71.3279 122.762C71.7093 123.882 71.791 124.853 71.791 124.853L69.9574 129.725C69.9574 129.725 69.7387 130.548 69.7452 131.295C69.7508 132.041 70.0542 132.937 70.0542 132.937L69.5473 135.109C69.5473 135.109 68.735 136.386 68.8914 137.58C69.0506 138.775 69.7331 140.041 69.7331 140.041C69.7331 140.041 69.5964 141.835 69.6777 142.809C69.7612 143.78 70.2855 144.984 70.2855 144.984L69.6414 148.949L69.2922 152.315C69.2922 152.315 68.7914 153.503 69.9213 154.617C71.0497 155.729 71.1127 156.19 71.1127 156.19L71.2503 158.826C72.3578 160.155 73.2158 162.007 72.0661 162.97L73.2124 166.326L74.5697 168.109L74.3513 171.894L75.6803 170.344L76.4888 175.196L77.4762 177.356L79.2056 178.766L78.9939 180.335L80.0511 181.972L81.0271 182.638C81.0271 182.638 81.4095 183.757 81.7159 184.651C82.0204 185.547 82.7022 186.813 82.7022 186.813L83.4654 189.05L84.0728 190.09L85.4232 191.129L85.806 192.247C85.806 192.247 86.4158 194.034 86.9454 194.855C87.4749 195.673 88.3439 196.366 88.3439 196.366L91.5843 200.005C91.5843 200.005 95.2443 199.755 93.2861 197.676C91.3272 195.598 89.3753 194.265 89.3753 194.265L89.6961 192.666L89.3154 191.55L88.6326 190.282L87.3493 188.723L87.5694 187.897L86.2705 184.096L85.4415 183.13L83.7665 178.956L83.0898 178.437L81.4754 172.246C81.4754 172.246 82.6756 172.835 81.9886 170.821C81.3016 168.81 80.6205 167.544 80.6205 167.544C80.6205 167.544 78.9513 164.116 79.0174 162.845C79.0832 161.574 79.8892 159.55 79.2777 157.761C78.6685 155.97 77.9047 153.735 77.9047 153.735C77.9047 153.735 79.6009 155.444 79.6673 154.174C79.7331 152.903 77.6371 147.832 77.6371 147.832L78.2965 146.109C78.2965 146.109 80.0823 144.748 78.7994 143.189C78.2653 142.54 78.0189 142.315 77.9113 142.271L78.0393 141.325L78.0801 139.251L78.5128 137.23L79.3486 136.382L79.5614 134.813L80.3436 134.359L80.1591 132.174L80.5533 129.366L81.4393 126.044L82.3253 123.829L82.5448 121.057C82.5448 121.057 83.4983 121.104 83.6014 119.76C83.7042 118.413 84.5123 115.443 84.5123 115.443L85.8953 113.152C85.6478 113.861 86.9197 114.977 87.2634 115.985C87.6067 116.99 88.2401 117.894 88.2401 117.894L88.5893 119.555C88.5893 119.555 90.2114 121.443 90.8274 121.607C91.4463 121.77 91.6172 123.055 92.2928 123.386C92.9677 123.72 93.8333 124.832 93.8333 124.832L95.8019 124.773C95.8019 124.773 95.9213 125.669 97.045 126.222C98.1709 126.773 99.2309 126.037 99.2309 126.037C99.2309 126.037 99.8027 127.683 100.754 127.731C101.706 127.779 103.589 128.923 103.589 128.923L106.176 129.086L110.456 127.816C112.021 127.385 113.335 125.158 113.335 125.158L113.557 123.846L115.55 122.5L116.006 120.506L116.674 118.942L117.765 116.962L118.494 114.302C118.494 114.302 119.101 111.218 119.094 110.096C119.085 108.975 118.328 107.899 118.43 106.552C118.533 105.206 117.864 103.381 118.874 103.597C119.884 103.813 120.797 103.71 121.536 104.77C122.271 105.83 122.85 105.236 123.361 106.187C123.873 107.136 125.271 106.846 125.271 106.846L126.974 109.635C126.974 109.635 128.045 110.581 128.665 110.743C129.28 110.909 129.796 112.418 129.796 112.418C129.796 112.418 130.918 112.411 131.305 111.903C131.697 111.396 132.484 112.063 132.484 112.063C132.484 112.063 132.661 113.127 133.451 113.793C134.24 114.46 135.644 114.731 135.644 114.731C135.644 114.731 136.274 116.577 136.615 117.021C136.952 117.469 137.407 118.25 138.249 118.523C139.093 118.798 139.539 118.458 139.539 118.458C139.539 118.458 139.999 120.362 140.624 121.085C141.245 121.811 142.375 122.923 142.375 122.923C142.375 122.923 142.775 124.096 143.391 124.261C144.01 124.423 144.01 124.423 144.01 124.423L145.374 126.77C145.374 126.77 146.217 127.042 146.445 127.714C146.673 128.385 148.266 131.402 148.725 132.744C149.183 134.085 149.141 136.16 149.141 136.16C149.141 136.16 150.446 138.337 150.564 139.233C150.682 140.129 149.74 141.761 149.74 141.761C149.74 141.761 150.482 143.381 150.768 144.22C151.054 145.06 151.235 146.685 151.235 146.685C151.235 146.685 150.063 147.645 150.24 148.709C150.415 149.774 150.932 151.281 150.932 151.281C150.932 151.281 150.497 153.304 150.893 153.917C151.292 154.532 152.754 155.531 152.754 155.531C152.754 155.531 151.877 157.891 152.275 159.065C152.679 160.24 153.14 162.143 153.14 162.143L153.89 164.882L153.398 166.738L153.069 167.972L153.769 171.667L153.102 172.457L152.677 175.599L153.199 178.231L152.549 181.262C152.549 181.262 152.338 182.834 153.569 183.163C154.807 183.49 155.136 182.253 155.293 181.076C155.454 179.897 155.994 177.09 155.994 177.09L156.868 173.608L156.35 172.099L156.8 164.64L156.34 162.736L156.89 161.611L156.085 158.702L157.635 158.826L156.224 154.159L155.53 151.587C155.53 151.587 157.266 151.181 157.031 149.95L156.169 146.874L155.704 144.41L155.243 143.067L155.518 142.226L155.395 140.768L155.724 139.533L155.49 138.301L155.867 136.112L154.562 133.935L153.642 130.69L152.908 130.191L153.237 128.956L152.718 126.884L151.655 125.379L152.984 124.715C152.098 123.829 151.655 121.171 150.653 120.285C148.961 118.786 147.886 117.67 147.886 117.67C147.886 117.67 147.548 117.223 147.26 116.384C146.973 115.546 147.309 115.432 146.348 114.261C145.384 113.091 144.885 113.262 144.885 113.262L144.706 112.2C144.706 112.2 144.865 111.02 143.739 109.907C142.609 108.793 141.65 108.185 141.65 108.185L140.851 105.837L137.355 103.283C137.355 103.283 138.521 101.76 136.552 100.934C134.585 100.107 132.506 99.5046 132.506 99.5046L131.099 98.6736C131.099 98.6736 131.82 97.4916 129.739 96.89C127.661 96.2893 127.102 96.2929 127.102 96.2929L125.974 95.1792C125.974 95.1792 126.132 95.9048 124.332 95.0206C122.531 94.1364 120.866 93.7049 120.866 93.7049C119.094 93.4834 116.099 92.6807 118.261 92.4663C118.261 92.4663 119.774 90.7394 122.409 90.7767C125.043 90.8139 126.045 89.9093 126.045 89.9093L128.232 89.7268L129.801 89.9385C129.801 89.9385 131.21 90.7696 132.053 91.0442C132.894 91.318 134.504 92.0915 135.178 91.8629C135.845 91.6334 137.051 91.9604 137.051 91.9604C137.051 91.9604 139.127 92.5628 140.027 93.0049C140.927 93.4479 141.655 93.3859 142.383 93.323C143.113 93.2619 143.113 93.2619 143.113 93.2619L146.094 94.8655L147.741 97.489L148.972 97.2551L150.844 100.55L153.035 100.926L154.553 101.532C154.553 101.532 154.838 102.371 155.968 103.485C157.098 104.598 158.444 104.701 158.444 104.701L159.692 106.708C159.692 106.708 160.208 108.219 161.047 107.932C161.884 107.646 161.884 107.646 161.884 107.646L164.473 109.197C164.473 109.197 164.598 110.653 165.669 111.6C166.74 112.544 167.129 112.037 167.129 112.037C167.129 112.037 167.99 114.553 168.327 114.999C168.669 115.446 170.361 118.857 171.368 118.513C172.374 118.169 172.193 114.803 171.285 113.241" fill="white"/>
<path fill-rule="evenodd" clip-rule="evenodd" d="M158.284 184.314C158.284 185.777 159.473 186.967 160.936 186.967C162.399 186.967 163.59 185.777 163.59 184.314C163.59 182.85 162.399 181.66 160.936 181.66C159.473 181.66 158.284 182.85 158.284 184.314ZM158.727 184.314C158.727 183.095 159.718 182.103 160.936 182.103C162.155 182.103 163.147 183.095 163.147 184.314C163.147 185.532 162.155 186.524 160.936 186.524C159.718 186.524 158.727 185.532 158.727 184.314Z" fill="white"/>
<path fill-rule="evenodd" clip-rule="evenodd" d="M159.939 183.015V185.664H160.289V184.489H160.695C160.786 184.489 160.851 184.492 160.891 184.502C160.946 184.513 160.998 184.538 161.051 184.572C161.103 184.606 161.163 184.664 161.229 184.748C161.295 184.833 161.379 184.954 161.482 185.113L161.833 185.664H162.273L161.812 184.944C161.721 184.802 161.624 184.685 161.522 184.591C161.473 184.548 161.402 184.505 161.31 184.459C161.565 184.425 161.753 184.342 161.874 184.213C161.995 184.085 162.056 183.927 162.056 183.738C162.056 183.592 162.019 183.46 161.946 183.339C161.873 183.218 161.774 183.135 161.651 183.087C161.529 183.039 161.349 183.015 161.113 183.015H159.939ZM161.043 184.185H160.289V183.309H161.128C161.324 183.309 161.468 183.349 161.558 183.43C161.649 183.51 161.695 183.613 161.695 183.738C161.695 183.823 161.672 183.904 161.624 183.977C161.577 184.048 161.509 184.101 161.418 184.135C161.328 184.169 161.204 184.185 161.043 184.185Z" fill="white"/>
</g>
<defs>
<clipPath id="clip0_5_234618">
<rect width="200" height="200" fill="white"/>
</clipPath>
</defs>
</svg>
