<svg width="200" height="201" viewBox="0 0 200 201" fill="none" xmlns="http://www.w3.org/2000/svg">
<g clip-path="url(#clip0_5_234750)">
<g clip-path="url(#clip1_5_234750)">
<path d="M158.029 67.7156C157.331 71.4442 156.374 75.0111 155.162 78.3483C157.117 77.9073 159.586 77.8917 160.917 78.5597C158.4 79.8434 155.494 82.7423 154.725 85.2916C155.483 86.2674 158.52 86.6432 160.18 86.163C164.678 93.709 167.754 104.357 167.132 115.598C166.016 106.351 161.264 94.5727 157.114 90.1944C152.752 90.7319 149.195 86.925 148.333 84.0991C150.962 79.2824 153.037 73.3359 154.265 66.591C154.265 66.591 154.26 66.591 154.257 66.591C155.35 60.5871 155.779 53.9595 155.321 46.925C155.321 46.9041 155.321 46.8858 155.319 46.8649C155.253 45.8578 155.167 44.8402 155.065 43.8173C155.062 43.8173 155.06 43.8173 155.055 43.8173C154.095 43.9008 153.139 44.0104 152.185 44.1304V44.1226C140.377 45.5942 129.032 49.8134 119.105 56.3105C119.053 56.3444 119.001 56.3783 118.949 56.4148C117.443 57.4064 115.969 58.4475 114.532 59.5407C114.529 59.5407 114.524 59.5407 114.521 59.5407C111.586 61.7743 108.8 64.2191 106.197 66.8675C106.869 64.1513 107.812 61.589 109.096 59.225C106.082 59.0841 103.05 59.0032 100 59.0032C96.9505 59.0032 93.9214 59.0841 90.9054 59.225C92.1912 61.5916 93.1321 64.1513 93.8038 66.8675C91.2007 64.2191 88.4147 61.7743 85.4797 59.5407C85.4771 59.5407 85.4718 59.5407 85.4692 59.5407C84.0318 58.4475 82.5577 57.4038 81.0523 56.4148C81.0001 56.3809 80.9478 56.3444 80.8955 56.3105C70.9693 49.8134 59.624 45.5916 47.816 44.1226V44.1304C46.8621 44.0104 45.9082 43.9008 44.949 43.8173C44.9464 43.8173 44.9411 43.8173 44.9385 43.8173C44.834 44.8402 44.7504 45.8552 44.685 46.8623C44.685 46.8989 44.6824 46.9354 44.6798 46.9745C44.2277 53.9908 44.6563 60.6027 45.7461 66.591H45.7383C46.9666 73.3385 49.0444 79.2876 51.671 84.1017C50.8085 86.9276 47.2489 90.7345 42.8895 90.197C38.7392 94.5753 33.9904 106.354 32.8718 115.601C32.2498 104.36 35.3233 93.7116 39.8238 86.1657C41.4808 86.6458 44.5178 86.27 45.2783 85.2942C44.5099 82.7449 41.6037 79.846 39.0868 78.5623C40.4171 77.8943 42.8869 77.91 44.8418 78.3509C43.6292 75.0137 42.6726 71.4468 41.9748 67.7182C35.3704 69.756 28.9123 72.1252 22.6294 74.818C21.6258 95.4442 25.2978 115.431 32.8091 133.646C34.6151 131.431 36.6536 129.409 38.8882 127.616C50.7667 156.37 72.2526 180.681 100.003 196.036C127.754 180.678 149.239 156.37 161.118 127.616C163.353 129.406 165.394 131.429 167.197 133.646C174.706 115.431 178.38 95.4442 177.377 74.818C171.094 72.1252 164.636 69.756 158.031 67.7182L158.029 67.7156ZM150.491 51.7025C150.554 58.3274 149.791 64.7358 148.288 70.5023C146.595 69.7925 143.21 69.4925 141.642 69.9126C144.109 72.4696 145.473 75.8878 145.774 77.9387C145.774 77.9387 145.774 77.9413 145.774 77.9439C142.4 74.591 138.391 71.8382 134.551 69.8813C137.544 62.7423 144.415 55.6347 150.494 51.7025H150.491ZM49.507 51.7025C55.5861 55.6321 62.4571 62.7423 65.4469 69.8813C61.6077 71.8382 57.5985 74.591 54.2244 77.9439C54.2244 77.9439 54.2244 77.9413 54.2244 77.9387C54.525 75.8878 55.8919 72.4696 58.3564 69.9126C56.7883 69.4925 53.4038 69.7951 51.7102 70.5023C50.2048 64.7358 49.4443 58.3274 49.507 51.7025ZM152.222 121.746C151.464 129.511 148.696 136.159 143.853 141.649C143.594 137.195 142.486 133.323 140.67 129.941C138.825 153.56 120.572 174.601 100 180.918C79.4293 174.601 61.1764 153.563 59.3313 129.941C57.5122 133.323 56.4067 137.195 56.148 141.649C51.3051 136.157 48.5374 129.511 47.7794 121.746C46.7157 121.558 45.3201 121.469 43.5952 121.474C48.9085 117.054 55.4632 113.918 61.8795 112.647C61.6077 110.291 61.7148 108.044 62.1513 105.892C66.738 111.83 72.7335 115.979 80.4356 117.96V127.235C77.9684 129.965 75.394 133.125 72.6132 137.143C73.4705 150.878 82.2807 163.603 91.5352 168.034C91.1223 167.019 90.8505 166.043 90.7982 164.965C92.8917 166.142 96.4095 166.682 99.9979 166.682C103.586 166.682 107.104 166.142 109.197 164.965C109.145 166.043 108.873 167.019 108.46 168.034C117.715 163.603 126.525 150.875 127.382 137.143C124.599 133.125 122.027 129.965 119.56 127.235V117.96C127.262 115.976 133.26 111.83 137.844 105.892C138.281 108.044 138.388 110.291 138.116 112.647C144.535 113.918 151.09 117.054 156.401 121.474C154.673 121.466 153.28 121.558 152.216 121.746H152.222ZM78.2559 106.354C79.1941 106.354 80.0226 105.913 80.5662 105.239C81.2327 105.701 81.9148 106.15 82.6283 106.567C81.0706 108.136 78.4911 108.548 76.5388 107.945C72.723 106.766 71.0713 102.382 72.365 97.0098C73.9775 99.2824 75.7861 101.318 77.8325 103.108C77.3934 103.577 76.7714 103.875 76.0736 103.875C75.8122 103.875 75.5639 103.823 75.3261 103.747C75.4934 105.213 76.7322 106.356 78.2585 106.356L78.2559 106.354ZM123.93 103.875C123.232 103.875 122.61 103.577 122.171 103.108C124.217 101.318 126.023 99.285 127.639 97.0098C128.932 102.382 127.281 106.766 123.465 107.945C121.512 108.548 118.933 108.136 117.375 106.567C118.091 106.15 118.771 105.704 119.437 105.239C119.981 105.913 120.807 106.354 121.748 106.354C123.271 106.354 124.513 105.211 124.68 103.744C124.445 103.82 124.197 103.872 123.933 103.872L123.93 103.875ZM145.181 106.34C144.075 100.545 141.65 95.6295 138.268 91.3477C137.089 92.7045 135.683 93.7899 134.099 94.6692C133.049 90.8154 130.649 86.5336 128.815 84.7071C123.261 92.908 117.025 99.2068 110.112 103.624L106.555 124.052C108.296 123.619 109.927 122.865 111.435 121.738C113.923 128.6 115.752 135.718 116.719 143.17C118.005 142.035 119.294 139.89 120.582 137.333C121.052 145.571 118.763 152.496 112.349 157.459C110.073 157.057 106.558 154.826 104.93 152.527C108.447 150.993 111.165 149.015 113.264 146.69C112.389 142.338 110.76 138.998 108.487 136.527C108.534 138.001 108.165 140.663 107.674 142.21C105.915 143.554 103.087 144.444 100 144.444C96.9139 144.444 94.086 143.556 92.3271 142.21C91.8358 140.663 91.4673 138.001 91.5143 136.527C89.2406 138.998 87.6123 142.338 86.7368 146.69C88.8355 149.015 91.5535 150.993 95.0714 152.527C93.4431 154.826 89.9279 157.057 87.6515 157.459C81.2379 152.496 78.9485 145.571 79.4189 137.333C80.7074 139.89 81.9932 142.033 83.2817 143.17C84.2513 135.716 86.0782 128.597 88.5663 121.738C90.0717 122.865 91.7051 123.619 93.4457 124.052L89.8887 103.624C82.9759 99.2068 76.74 92.908 71.1863 84.7071C69.3516 86.5336 66.9523 90.8154 65.9017 94.6692C64.3205 93.7899 62.9118 92.7045 61.7331 91.3477C58.3512 95.6295 55.9258 100.545 54.8203 106.34C49.8311 106.826 44.7765 108.718 39.6749 111.572C42.1603 108.013 45.2809 105.385 48.9242 103.522C52.5178 92.2139 60.6589 81.7038 70.2689 75.045C78.7472 77.2263 88.8538 83.0659 94.8675 88.5297L100 115.499L105.133 88.5297C111.147 83.0659 121.254 77.2263 129.732 75.045C139.342 81.7038 147.483 92.2139 151.077 103.522C154.72 105.385 157.841 108.013 160.326 111.572C155.227 108.715 150.172 106.823 145.181 106.34Z" fill="#513629"/>
<path d="M151.074 103.522C147.48 92.2139 139.339 81.7038 129.729 75.045C121.251 77.2263 111.144 83.0659 105.13 88.5297L99.9975 115.499L94.8645 88.5297C88.8507 83.0659 78.7442 77.2263 70.2659 75.045C60.6559 81.7038 52.5148 92.2139 48.9212 103.522C45.2779 105.385 42.1573 108.013 39.6719 111.572C44.7709 108.715 49.8255 106.823 54.8173 106.34C55.9228 100.545 58.3482 95.6295 61.7301 91.3477C62.9088 92.7045 64.3149 93.7899 65.8987 94.6693C66.9493 90.8154 69.3486 86.5336 71.1833 84.7071C76.737 92.908 82.9729 99.2068 89.8857 103.624L93.4427 124.052C91.7021 123.619 90.0713 122.865 88.5633 121.738C86.0752 128.6 84.2457 135.718 83.2787 143.17C81.9928 142.035 80.7044 139.89 79.4159 137.333C78.9454 145.571 81.2349 152.496 87.6485 157.459C89.9249 157.057 93.4401 154.826 95.0683 152.527C91.5505 150.993 88.8324 149.015 86.7338 146.69C87.6093 142.338 89.2375 138.998 91.5113 136.527L93.657 140.404C95.5806 140.991 97.4153 141.208 100 141.208C102.585 141.208 104.42 140.991 106.343 140.404L108.489 136.527C110.763 138.998 112.391 142.338 113.266 146.69C111.168 149.015 108.45 150.993 104.932 152.527C106.56 154.826 110.075 157.057 112.352 157.459C118.765 152.496 121.055 145.571 120.584 137.333C119.296 139.89 118.01 142.033 116.721 143.17C115.752 135.716 113.925 128.597 111.437 121.738C109.932 122.865 108.298 123.619 106.557 124.052L110.114 103.624C117.027 99.2068 123.263 92.908 128.817 84.7071C130.652 86.5336 133.051 90.8154 134.101 94.6693C135.683 93.7899 137.091 92.7045 138.27 91.3477C141.652 95.6295 144.077 100.545 145.183 106.34C150.172 106.826 155.227 108.718 160.328 111.572C157.843 108.013 154.722 105.385 151.079 103.522H151.074Z" fill="#B5ADA5"/>
<path d="M32.0586 55.5904V38.5336C31.1072 37.8709 30.1559 37.2133 29.2072 36.5636C30.1559 35.2877 31.1072 34.0196 32.0586 32.7567V15.6973C30.3258 14.4893 28.5956 13.302 26.8733 12.1357C20.7864 14.2153 14.7648 16.561 8.82947 19.1729C8.44267 19.3425 8.05848 19.5147 7.67168 19.6869C7.44691 19.7861 7.22476 19.8878 7 19.987V23.3294C7.02614 23.3164 7.05488 23.306 7.08102 23.2929C8.04541 22.8598 8.82686 23.3321 8.82947 24.3418V64.4201C8.82947 65.4299 8.04541 66.591 7.08102 67.0242C7.05488 67.0372 7.02614 67.0476 7 67.0607V70.4032C7.22476 70.3014 7.44691 70.2022 7.67168 70.1031C8.05587 69.9309 8.44267 69.7587 8.82947 69.5891C14.7648 66.9772 20.7864 64.6289 26.8733 62.5519C28.5956 60.2088 30.3258 57.8891 32.0586 55.5878V55.5904ZM25.0334 55.8383C25.0334 56.7489 24.3094 57.7404 23.4182 58.0613C23.298 58.1057 23.1752 58.1474 23.0549 58.1918C20.985 58.9407 18.9229 59.7208 16.8687 60.5323C16.4793 60.6863 16.0873 60.8428 15.6978 60.9994V44.3444C18.2565 43.3164 20.8308 42.3379 23.4182 41.4064C24.3094 41.0855 25.0308 41.5708 25.0334 42.4814V55.8383ZM25.0334 20.4958V33.4821C25.0334 34.3927 24.3094 35.3842 23.4182 35.7052C20.8308 36.6367 18.2565 37.6152 15.6978 38.6432V21.9883C16.0873 21.8317 16.4767 21.6752 16.8687 21.5212C18.9229 20.7097 20.985 19.9296 23.0549 19.1807C23.1752 19.1364 23.298 19.092 23.4182 19.0503C24.3094 18.7293 25.0308 19.2146 25.0334 20.1253V20.4958ZM108.815 42.7528V39.6347C107.736 39.593 106.858 38.711 106.858 37.6569V19.2068C110.357 27.2146 113.854 35.3007 117.349 43.4703C120.205 43.6895 123.057 43.9635 125.905 44.2923V40.9498C125.877 40.9472 125.848 40.942 125.819 40.9394C124.789 40.8219 123.956 39.9165 123.956 38.9067V6.43968C123.956 5.4299 124.789 4.70191 125.819 4.81933C125.848 4.82194 125.877 4.82716 125.905 4.82977V1.4873C122.181 1.05938 118.449 0.722788 114.712 0.480126C114.712 1.59428 114.712 2.70844 114.712 3.82259C114.74 3.82259 114.769 3.8252 114.798 3.82781C115.83 3.89565 116.667 4.77497 116.667 5.78476V24.3184C113.175 16.1592 109.675 8.08352 106.176 0.0861275C103.314 0.00784958 100.452 -0.0156338 97.5903 0.0156774V3.35814C97.6191 3.35814 97.6478 3.35814 97.6766 3.35814C98.7089 3.34771 99.5479 4.16441 99.5479 5.17419V37.6412C99.5479 38.651 98.7115 39.4677 97.6766 39.4782C97.6478 39.4782 97.6191 39.4782 97.5903 39.4782V42.8206C101.333 42.7815 105.075 42.8337 108.815 42.9798V42.7554V42.7528ZM193 28.9394V25.2525C191.325 22.7424 189.642 20.2557 187.953 17.79C183.675 15.9844 179.357 14.317 175.001 12.788C173.281 13.9387 171.556 15.1103 169.826 16.3027V35.4208C171.02 37.0176 172.212 38.6276 173.401 40.2453C177.146 41.5291 180.865 42.9146 184.553 44.3992C185.434 44.7541 186.147 45.7874 186.147 46.698C186.147 51.1337 186.147 55.5721 186.147 60.0079C186.147 60.9185 185.434 61.3621 184.553 61.0072C184.595 61.0229 184.637 61.0411 184.679 61.0568C182.569 60.2062 180.45 59.3868 178.32 58.6015C178.362 58.6171 178.403 58.6328 178.445 58.6484C177.557 58.3197 176.835 57.3229 176.835 56.4123V54.8128C174.509 53.9726 172.173 53.1716 169.826 52.4123V56.0992C171.556 58.4136 173.281 60.7515 175.001 63.1077C179.355 64.6367 183.675 66.304 187.953 68.1096C189.642 67.0685 191.325 66.0483 193 65.0489V45.9309C191.845 44.1983 190.684 42.4788 189.521 40.7671C185.86 39.1912 182.167 37.7143 178.445 36.3392C177.557 36.0105 176.835 35.0137 176.835 34.1031V20.7932C176.835 19.8826 177.559 19.4051 178.445 19.7339C180.489 20.4906 182.525 21.276 184.553 22.0927C185.434 22.4475 186.147 23.4808 186.147 24.3914V25.9909C188.445 26.9354 190.729 27.9217 193 28.9446V28.9394ZM180.737 72.4827L178.743 71.6269C172.371 68.8976 165.746 66.4658 159.053 64.4019L158.169 64.1305C158.789 59.7443 159.045 55.2251 158.948 50.6328C161.408 51.2955 163.862 51.987 166.305 52.7358V45.122C166.232 45.0985 166.156 45.0776 166.083 45.0542C165.053 44.7411 164.021 44.4332 162.989 44.1331C162.989 45.1872 162.139 45.7952 161.089 45.503C160.271 45.2733 159.45 45.0568 158.632 44.8376C158.593 44.381 158.564 43.9191 158.517 43.4677L158.169 40.0209L155.658 40.2714V40.2009L153.358 40.4827V30.6328C156.039 31.2825 158.713 31.9844 161.374 32.7332V27.032C158.713 26.2831 156.039 25.5812 153.358 24.9315V12.0809C155.943 12.7071 158.522 13.3829 161.089 14.1005C162.139 14.3953 162.989 15.4964 162.989 16.5506C164.097 16.8715 165.202 17.2003 166.305 17.5395V9.92566C159.032 7.69735 151.672 5.84216 144.255 4.36532V7.70779C145.319 7.91914 146.181 8.95501 146.181 10.0118V41.5838C144.171 41.9805 142.175 42.4501 140.196 43.0007C139.349 42.6432 138.72 41.7874 138.72 40.8872C138.72 39.032 138.72 37.1768 138.72 35.319C138.72 31.0242 138.72 26.7319 138.72 22.4371C138.72 17.7926 138.72 13.1455 138.72 8.501C138.72 7.49383 139.551 6.82064 140.57 7.00589C140.599 7.01111 140.627 7.01633 140.656 7.02155V3.67908C139.786 3.51992 138.918 3.36597 138.045 3.21724C135.215 2.73453 132.376 2.30661 129.533 1.93349V5.27595C129.533 5.27595 129.533 5.27595 129.536 5.27595C130.61 5.41946 131.477 6.39533 131.477 7.44947V39.8356C131.477 40.8428 130.644 41.5421 129.619 41.4064C129.59 41.4038 129.562 41.3986 129.533 41.396V44.7384C130.408 44.8533 131.281 44.9733 132.154 45.0985C132.523 45.1507 132.889 45.2133 133.257 45.2681C127.641 47.3816 122.236 50.1109 117.2 53.409L117.019 53.5264C115.838 54.304 114.665 55.1181 113.53 55.9557H113.502H113.496L109.255 55.76C106.003 55.6086 103 55.533 99.9974 55.533C96.9944 55.533 93.9915 55.6086 90.7403 55.76L86.4985 55.9557H86.4933H86.4645C85.3276 55.1207 84.1568 54.304 82.9754 53.5264L82.7951 53.409C77.7588 50.1135 72.3593 47.3868 66.7428 45.2707C70.0986 44.7724 73.4648 44.3392 76.8362 43.9922V40.6497C75.7595 40.7593 74.8866 40.0026 74.8866 38.9485V20.4984C78.3704 28.0105 81.8621 35.6034 85.3564 43.2773C88.213 43.092 91.0748 42.9615 93.9366 42.8859V39.5434C93.9079 39.5434 93.8791 39.5434 93.8504 39.5434C92.8154 39.5721 91.9791 38.7841 91.9791 37.7743V5.31248C91.9791 4.3027 92.8154 3.45469 93.8504 3.42859C93.8791 3.42859 93.9079 3.42859 93.9366 3.42859V0.0809089C90.194 0.180061 86.4541 0.373146 82.7193 0.660165V4.00263C82.7481 4.00263 82.7768 3.99741 82.8056 3.9948C83.8353 3.91653 84.6742 4.67843 84.6742 5.68822V24.2218C81.1799 16.5584 77.6909 8.97589 74.207 1.47426C71.3583 1.80041 68.5148 2.18137 65.6791 2.61711V5.95958C65.7078 5.95436 65.7366 5.95175 65.7653 5.94653C66.7898 5.78998 67.6209 6.48926 67.6209 7.49643V39.9635C67.6209 40.9733 66.7898 41.91 65.7653 42.0666C65.7366 42.0718 65.7078 42.0744 65.6791 42.0796V44.8793C63.7085 44.167 61.7117 43.5277 59.6941 42.9694C60.3004 42.2623 60.9041 41.5395 61.5105 40.8376V8.5558C59.7333 7.10765 57.9587 5.683 56.1867 4.2766C51.6993 5.16114 47.2354 6.18398 42.795 7.34249C41.0413 9.55514 39.2928 11.7887 37.5496 14.0431V46.3249C38.7283 47.1703 39.9096 48.0418 41.0936 48.908C40.8845 54.0927 41.1275 59.1938 41.8227 64.1279L40.9394 64.3992C34.2461 66.4632 27.6208 68.895 21.249 71.6243L19.2549 72.4801L19.1503 74.6432C18.1389 95.4182 21.6515 115.71 29.5862 134.959L31.7319 139.893C33.3941 137.9 35.6757 135.28 37.6202 133.435C50.2017 161.096 71.5987 184.282 98.309 199.063L99.9922 199.995L101.675 199.063C128.386 184.282 149.783 161.099 162.364 133.435C164.309 135.277 166.59 137.9 168.252 139.893L170.398 134.959C178.333 115.71 181.845 95.4156 180.834 74.6432L180.729 72.4801L180.737 72.4827ZM44.6741 14.2153C44.6741 13.3047 45.4111 12.381 46.3259 12.1566C48.4245 11.6452 50.531 11.1624 52.6402 10.711C53.5575 10.5154 54.3024 11.0998 54.3024 12.0105V40.1148C54.3024 40.6471 54.0436 41.1664 53.649 41.5499C51.8561 41.2003 50.0554 40.9028 48.2468 40.6784L44.6741 40.2401V14.2153ZM167.194 133.644C165.388 131.429 163.349 129.406 161.115 127.614C149.236 156.368 127.751 180.678 100 196.034C72.2495 180.676 50.7636 156.368 38.8851 127.614C36.6505 129.404 34.6094 131.426 32.806 133.644C25.2974 115.429 21.6227 95.4416 22.6263 74.8154C28.9093 72.1227 35.3673 69.7534 41.9717 67.7156C42.6695 71.4442 43.6261 75.0111 44.8387 78.3484C42.8838 77.9074 40.414 77.8917 39.0837 78.5597C41.6006 79.8435 44.5068 82.7424 45.2752 85.2916C44.5173 86.2675 41.4804 86.6432 39.8208 86.1631C35.3229 93.7091 32.2467 104.357 32.8688 115.598C33.9847 106.351 38.7361 94.5728 42.8864 90.1944C47.2484 90.7319 50.8054 86.925 51.6679 84.0992C49.0387 79.2825 46.9636 73.336 45.7352 66.591H45.743C44.6532 60.6002 44.2246 53.9909 44.6767 46.9746C44.6767 46.9381 44.6793 46.9015 44.6819 46.8624C44.7473 45.8552 44.8335 44.8402 44.9354 43.8174C44.9381 43.8174 44.9433 43.8174 44.9459 43.8174C45.9051 43.9009 46.859 44.0105 47.813 44.1305V44.1227C59.6209 45.5943 70.9663 49.8135 80.8925 56.3105C80.9447 56.3444 80.997 56.3784 81.0493 56.4149C82.5547 57.4064 84.0287 58.4475 85.4661 59.5408C85.4688 59.5408 85.474 59.5408 85.4766 59.5408C88.4116 61.7743 91.1976 64.2192 93.8007 66.8676C93.129 64.1514 92.1855 61.5891 90.9023 59.2251C93.9183 59.0842 96.9474 59.0033 99.9974 59.0033C103.047 59.0033 106.079 59.0842 109.092 59.2251C107.807 61.5917 106.866 64.1514 106.194 66.8676C108.797 64.2192 111.583 61.7743 114.518 59.5408C114.521 59.5408 114.526 59.5408 114.529 59.5408C115.966 58.4475 117.44 57.4038 118.946 56.4149C118.998 56.381 119.05 56.3444 119.102 56.3105C129.029 49.8135 140.374 45.5917 152.182 44.1227V44.1305C153.136 44.0105 154.09 43.9009 155.051 43.8174C155.054 43.8174 155.057 43.8174 155.062 43.8174C155.166 44.8402 155.25 45.8578 155.315 46.865C155.315 46.8859 155.315 46.9041 155.318 46.925C155.775 53.9596 155.347 60.5897 154.254 66.591C154.254 66.591 154.26 66.591 154.262 66.591C153.034 73.336 150.956 79.2851 148.329 84.0992C149.192 86.925 152.752 90.7319 157.111 90.1944C161.261 94.5728 166.01 106.351 167.129 115.598C167.751 104.357 164.677 93.7091 160.177 86.1631C158.52 86.6432 155.483 86.2675 154.722 85.2916C155.491 82.7424 158.397 79.8435 160.914 78.5597C159.583 77.8917 157.114 77.9074 155.159 78.3484C156.371 75.0111 157.328 71.4442 158.026 67.7156C164.63 69.7534 171.088 72.1227 177.371 74.8154C178.375 95.4416 174.703 115.429 167.191 133.644H167.194ZM58.3586 69.91C55.8914 72.4671 54.5271 75.8852 54.2266 77.9361C54.2266 77.9361 54.2266 77.9387 54.2266 77.9413C57.6006 74.5884 61.6098 71.8356 65.4491 69.8787C62.4566 62.7398 55.5856 55.6321 49.5091 51.7C49.4464 58.3249 50.2096 64.7332 51.7123 70.4997C53.4059 69.79 56.7904 69.4899 58.3586 69.91ZM145.776 77.9361C145.476 75.8852 144.109 72.4671 141.644 69.91C143.212 69.4899 146.597 69.7926 148.29 70.4997C149.796 64.7332 150.556 58.3249 150.493 51.7C144.414 55.6295 137.543 62.7398 134.551 69.8787C138.39 71.8356 142.399 74.5884 145.773 77.9413C145.773 77.9413 145.773 77.9387 145.773 77.9361H145.776ZM137.849 105.894C133.262 111.833 127.267 115.982 119.565 117.962V127.238C122.032 129.967 124.606 133.127 127.387 137.146C126.53 150.881 117.72 163.606 108.465 168.037C108.878 167.022 109.15 166.046 109.202 164.968C107.109 166.145 103.591 166.685 100.003 166.685C96.4142 166.685 92.8964 166.145 90.803 164.968C90.8552 166.046 91.1271 167.022 91.54 168.037C82.2855 163.606 73.4752 150.878 72.618 137.146C75.4014 133.127 77.9731 129.967 80.4403 127.238V117.962C72.7382 115.979 66.7402 111.833 62.156 105.894C61.7196 108.047 61.6124 110.294 61.8842 112.65C55.4654 113.92 48.9106 117.057 43.5999 121.477C45.3275 121.469 46.7205 121.56 47.7842 121.748C48.5421 129.513 51.3099 136.162 56.1527 141.652C56.4115 137.198 57.5196 133.326 59.336 129.944C61.1812 153.563 79.4341 174.604 100.005 180.921C120.576 174.604 138.829 153.566 140.674 129.944C142.493 133.326 143.599 137.198 143.858 141.652C148.701 136.159 151.468 129.513 152.226 121.748C153.29 121.56 154.686 121.472 156.411 121.477C151.097 117.057 144.542 113.92 138.126 112.65C138.398 110.294 138.291 108.047 137.854 105.894H137.849ZM76.5383 107.945C78.4906 108.548 81.0702 108.136 82.6278 106.568C81.9117 106.15 81.2322 105.704 80.5658 105.239C80.0222 105.913 79.1963 106.354 78.2554 106.354C76.7317 106.354 75.4903 105.211 75.323 103.744C75.5582 103.82 75.8065 103.872 76.0705 103.872C76.7683 103.872 77.3903 103.575 77.8294 103.105C75.783 101.315 73.977 99.2825 72.3619 97.0072C71.0682 102.38 72.7199 106.763 76.5357 107.943L76.5383 107.945ZM123.462 107.945C127.277 106.766 128.929 102.382 127.636 97.0098C126.023 99.2825 124.214 101.318 122.168 103.108C122.607 103.577 123.229 103.875 123.927 103.875C124.188 103.875 124.437 103.823 124.674 103.747C124.507 105.213 123.268 106.356 121.742 106.356C120.804 106.356 119.975 105.915 119.432 105.242C118.765 105.704 118.083 106.153 117.37 106.57C118.927 108.138 121.507 108.551 123.459 107.948L123.462 107.945ZM100 144.444C103.087 144.444 105.914 143.556 107.673 142.21C108.165 140.663 108.533 138.001 108.486 136.527L106.34 140.404C104.417 140.992 102.582 141.208 99.9974 141.208C97.4126 141.208 95.5779 140.992 93.6543 140.404L91.5086 136.527C91.4616 138.001 91.8301 140.663 92.3214 142.21C94.0803 143.554 96.9082 144.444 99.9948 144.444H100Z" fill="white"/>
<path d="M162.5 145.284V148.59H161.588V145.284H160.325V144.444H163.765V145.284H162.502H162.5Z" fill="white"/>
<path d="M168.052 148.59V145.884L166.883 147.653H166.86L165.702 145.9V148.587H164.806V144.441H165.791L166.881 146.194L167.973 144.441H168.959V148.587H168.052V148.59Z" fill="white"/>
</g>
</g>
<defs>
<clipPath id="clip0_5_234750">
<rect width="200" height="200" fill="white" transform="translate(0 0.299805)"/>
</clipPath>
<clipPath id="clip1_5_234750">
<rect width="186" height="200" fill="white" transform="translate(7)"/>
</clipPath>
</defs>
</svg>
