<?xml version="1.0" encoding="UTF-8"?>
<svg width="200px" height="200px" viewBox="0 0 200 200" version="1.1" xmlns="http://www.w3.org/2000/svg" xmlns:xlink="http://www.w3.org/1999/xlink">
    <!-- Generator: Sketch 54.1 (76490) - https://sketchapp.com -->
    <title>umass-lowell</title>
    <desc>Created with Sketch.</desc>
    <g id="umass-lowell" stroke="none" stroke-width="1" fill="none" fill-rule="evenodd">
        <g id="umass-lowell_BGD">
            <g id="umass-lowell" transform="translate(2.000000, 55.000000)">
                <g id="g10" transform="translate(98.500000, 45.922908) scale(-1, 1) rotate(-180.000000) translate(-98.500000, -45.922908) translate(0.000000, 0.922908)" fill-rule="nonzero">
                    <g id="g12">
                        <path d="M97.7784447,20.1107311 C97.7990796,20.1058193 97.8173336,20.101999 97.8387622,20.0966505 C97.8070161,20.0676708 97.7689209,20.0392915 97.7387622,20.0103117 L97.7784447,20.1107311 Z M196.620933,39.4018405 C196.167387,44.980639 194.198425,50.1660567 191.200996,53.8327494 C191.186057,54.6286788 191.166762,55.6192151 191.166762,55.6192151 C190.798489,60.1558045 188.894052,66.9076613 181.907451,73.3230192 C161.047237,92.4736647 101.084339,93.0343574 67.4007629,83.8194948 C74.7326069,81.7309093 80.9959411,78.944948 81.571484,78.7320056 C67.7476655,76.9372056 47.1173364,71.612396 25.3711926,56.5834982 C25.3711926,56.5834982 17.2660381,50.5179742 12.9729528,41.3820795 C23.0314676,48.061636 34.6002119,50.359205 37.4802086,50.6317379 C33.8306774,46.1193181 29.5201225,39.5249803 25.7535739,30.3647077 L5.57473677,30.3647077 L1.31440388,14.3969257 C-0.279771115,8.42370452 -0.51083271,6.878768 1.1031979,4.23009405 C3.0585935,1.00972399 7.25028449,0 10.8434648,0 L166.260112,0 L169.277459,11.0296441 L165.212765,11.0296441 L168.510414,23.3871986 C171.449334,25.0019769 174.295927,26.8622015 177.013884,29.0003763 C177.759144,28.3644662 178.744662,27.6091667 179.923135,26.8986642 C179.932886,25.2247121 179.824376,22.1380895 179.033056,19.1658973 L176.367591,9.16525239 L185.01754,14.7990784 C192.357683,19.580489 195.097425,26.2200406 196.104314,30.9474864 C196.681309,33.6596888 196.855798,36.5041989 196.620933,39.4018405 L196.620933,39.4018405 Z" id="path14" fill="#1A64B7"></path>
                        <path d="M97.7784447,20.1107311 C97.7990796,20.1058193 97.8173336,20.101999 97.8387622,20.0966505 C97.8070161,20.0676708 97.7689209,20.0392915 97.7387622,20.0103117 L97.7784447,20.1107311 Z M98.7684782,19.0781864 L100.667666,20.8118806 L98.1727062,21.4346051 C98.1326758,21.4443144 98.1326758,21.4443144 98.1096865,21.4495261 C98.0988991,21.4519823 98.0988991,21.4519823 98.0977718,21.4522493 L96.9351625,21.72899 L94.1298931,14.6300671 L98.6745988,18.9971029 C98.7058037,19.0228323 98.7058672,19.0228885 98.7684782,19.0781864 Z M196.620933,39.4018405 C196.855798,36.5041989 196.681309,33.6596888 196.104314,30.9474864 C195.097425,26.2200406 192.357683,19.580489 185.01754,14.7990784 L176.367591,9.16525239 L179.033056,19.1658973 C179.824376,22.1380895 179.932886,25.2247121 179.923135,26.8986642 C178.744662,27.6091667 177.759144,28.3644662 177.013884,29.0003763 C174.295927,26.8622015 171.449334,25.0019769 168.510414,23.3871986 L165.212765,11.0296441 L169.277459,11.0296441 L166.260112,-2.22044605e-15 L10.8434648,-2.22044605e-15 C7.25028449,-2.22044605e-15 3.0585935,1.00972399 1.1031979,4.23009405 C-0.51083271,6.878768 -0.279771115,8.42370452 1.31440388,14.3969257 L5.57473677,30.3647077 L25.7535739,30.3647077 C29.5201225,39.5249803 33.8306774,46.1193181 37.4802086,50.6317379 C34.6002119,50.359205 23.0314676,48.061636 12.9729528,41.3820795 C17.2660381,50.5179742 25.3711926,56.5834982 25.3711926,56.5834982 C47.1173364,71.612396 67.7476655,76.9372056 81.571484,78.7320056 C80.9959411,78.944948 74.7326069,81.7309093 67.4007629,83.8194948 C101.084339,93.0343574 161.047237,92.4736647 181.907451,73.3230192 C188.894052,66.9076613 190.798489,60.1558045 191.166762,55.6192151 C191.166762,55.6192151 191.186057,54.6286788 191.200996,53.8327494 C194.198425,50.1660567 196.167387,44.980639 196.620933,39.4018405 Z M192.55353,55.2318789 C192.547107,55.5635843 192.547107,55.5635843 192.541241,55.730793 C192.018461,62.1706806 189.078961,68.6100433 182.840037,74.3388563 C172.802833,83.5534751 153.57488,89.0619684 129.550088,90.5845614 C107.908093,91.9561425 84.2883435,89.8691257 67.0368791,85.1496187 L62.2729943,83.8463561 L67.022964,82.4932562 C68.4834134,82.0772253 69.9658629,81.6146899 71.4617512,81.1126365 C73.1471792,80.5469694 74.7850223,79.9538663 76.3814936,79.3405913 C59.3759201,76.3973003 41.7504726,69.5794964 24.5449562,57.6875699 C24.4119862,57.5880613 24.1764143,57.4039644 23.8528203,57.1388254 C23.3214975,56.7034821 22.7315677,56.1943422 22.0976049,55.614882 C20.290714,53.9633321 18.4850914,52.0736246 16.7976182,49.9720825 C14.7622628,47.4372956 13.0379924,44.7629236 11.7248838,41.9685647 L9.62740944,37.505037 L13.7358179,40.2333072 C20.2164022,44.5368679 28.3929309,47.53422 34.2934918,48.7437274 C30.8174695,43.9728268 27.6109154,38.3257167 24.8341195,31.7437077 L4.51542571,31.7437077 L4.24234571,30.7202004 L-0.0179609863,14.7525165 C-1.80374527,8.06135373 -1.86458397,6.45027285 -0.0755263314,3.51437749 C1.95775646,0.165733863 6.06499206,-1.379 10.8434648,-1.379 L167.312533,-1.379 L171.084378,12.4086441 L167.00801,12.4086441 L169.691814,22.4658847 C172.245463,23.8988515 174.680378,25.4887381 176.991883,27.2410934 C177.484951,26.8589409 178.001631,26.4895917 178.540586,26.1382633 C178.506218,23.9086741 178.257366,21.6123581 177.700573,19.5210432 L174.109902,6.04908776 L177.120197,8.0097325 L185.770221,13.6436074 C192.376786,17.9471611 196.026504,23.9623886 197.453129,30.6605388 C198.058634,33.5067534 198.240834,36.4855238 197.995426,39.5132482 C197.537257,45.1489142 195.594841,50.4465929 192.570897,54.3268456 C192.561558,54.8158162 192.561475,54.8201067 192.55353,55.2318789 Z M36.4079953,51.498917 L37.6101225,49.2588711 C36.6238277,49.1655384 35.506774,48.9924281 34.2934918,48.7437274 C34.9879954,49.6969457 35.6932561,50.6151862 36.4079953,51.498917 Z M166.545141,10.6740957 L165.212765,12.4086441 L167.00801,12.4086441 L166.545141,10.6740957 Z" id="path16" fill="#FFFFFF"></path>
                        <path d="M152.373842,51.5978963 C155.819838,49.6122399 160.146784,51.8668871 162.119273,53.1368321 C161.520286,53.5237538 160.821086,53.9596397 160.028522,54.4226123 C160.032671,54.425321 160.034746,54.4271962 160.036198,54.4301132 C159.817724,54.2688437 159.58203,54.119034 159.319156,54.0106876 C157.575929,53.2968514 155.59099,54.1390364 154.878097,55.8882059 C154.653606,56.4482735 154.6007,57.0248015 154.668545,57.5807019 C154.655474,57.4654797 154.634933,57.3519243 154.634933,57.23316 C152.529658,58.2003601 150.165036,59.149433 147.583184,59.9507797 C147.656631,56.9185386 149.367699,53.332064 152.373842,51.5978963" id="path18" fill="#FFFFFF"></path>
                        <path d="M158.771622,56.0598933 C159.113753,56.198035 159.349862,56.4843195 159.451734,56.8110257 C158.821832,57.2435779 158.191307,57.6546692 157.556633,58.0465915 C157.188568,57.7200937 157.041466,57.1910715 157.234628,56.7110136 C157.479867,56.106774 158.168692,55.8102798 158.771622,56.0598933" id="path20" fill="#FFFFFF"></path>
                        <path d="M127.651432,42.697655 C128.014726,41.7856699 128.507277,40.9124395 129.158342,40.1213023 C131.047011,37.8264419 133.521804,36.4200221 136.380223,35.6109661 C135.643885,37.8993674 135.161085,40.0073302 134.871446,41.9167274 C131.872772,42.0827891 129.430345,42.3044826 127.651432,42.697655" id="path22" fill="#FFFFFF"></path>
                        <path d="M175.408837,36.9290419 C172.623658,38.0243825 169.476015,38.8501072 166.139982,39.4751826 C166.384598,38.6650848 166.694362,37.8118568 167.080893,36.9338341 C170.039939,37.1688625 172.856447,37.2242859 175.408837,36.9290419" id="path24" fill="#FFFFFF"></path>
                        <path d="M163.751915,41.7006597 C163.588422,42.5774322 163.502527,43.3218971 163.455014,43.9046758 C159.134293,44.4128621 154.535344,44.6737269 150.384132,44.9950157 C150.388282,44.3432704 150.423345,43.6838158 150.503017,43.0216525 C154.868553,42.7630796 159.402769,42.3734492 163.751915,41.7006597" id="path26" fill="#FFFFFF"></path>
                        <path d="M152.657049,35.2294617 C156.845815,35.7018104 161.125456,36.3558477 165.201768,36.7642303 C164.756106,37.8360264 164.424142,38.8665675 164.172887,39.8191825 C159.823326,40.5261429 155.235789,40.9324419 150.805104,41.1999742 C151.271514,38.9132398 152.032542,36.7696477 152.657049,35.2294617" id="path28" fill="#FFFFFF"></path>
                        <path d="M150.792863,35.0356883 C150.136196,36.7110989 149.390107,38.9347007 148.954196,41.3076956 C146.28313,41.4489626 143.691734,41.5498081 141.268603,41.6414859 C139.65173,41.7042018 138.135899,41.764209 136.716129,41.8271333 C137.038342,39.8191825 137.581518,37.5828708 138.432592,35.14591 C142.15806,34.4735371 146.393715,34.6085534 150.792863,35.0356883" id="path30" fill="#FFFFFF"></path>
                        <path d="M134.821236,51.0186597 C134.816464,51.0007408 134.814389,50.9855307 134.810862,50.9676118 C132.980702,52.4534162 130.742226,52.7313664 129.101286,52.6788601 C127.352042,50.8365543 126.550349,47.7313878 127.084811,44.7081061 C128.612261,44.20242 131.30947,43.9313456 134.64322,43.7384057 C134.34798,46.7587703 134.522468,49.199065 134.821236,51.0186597" id="path32" fill="#FFFFFF"></path>
                        <path d="M148.585301,45.1454506 C142.571355,45.6669719 137.815138,46.4283138 136.793726,48.4548084 C136.745799,48.5498199 136.59185,48.8306872 136.415287,49.1459336 C136.278766,47.6297088 136.252624,45.7924037 136.477115,43.6411023 C138.008922,43.5685935 139.645713,43.5058776 141.335826,43.4396196 C143.65999,43.3512756 146.134783,43.2560558 148.687795,43.1218729 C148.555009,44.379108 148.585301,45.1454506 148.585301,45.1454506" id="path34" fill="#FFFFFF"></path>
                        <path d="M165.274593,43.7129859 C165.341193,43.0843684 165.451156,42.2961482 165.645563,41.3897888 C170.636022,40.5069739 175.296799,39.2080671 179.066875,37.2434549 C175.720054,40.7551288 170.730009,42.5155497 165.274593,43.7129859" id="path36" fill="#FFFFFF"></path>
                        <path d="M177.738396,46.6898037 C178.07036,46.0945235 178.000855,44.2453419 179.171859,44.2668028 C180.343692,44.290139 182.147918,45.2087915 182.147918,45.2087915 C182.147918,45.2087915 178.395062,46.2649607 177.224889,48.5948254 C176.826532,48.3587552 176.418423,48.1464379 176.021519,47.9735003 C176.281073,47.7824356 176.523614,47.5194872 176.533988,47.19799 C176.553076,46.4787365 177.406224,47.2827919 177.738396,46.6898037" id="path38" fill="#D11C2E"></path>
                        <path d="M180.039323,50.6350717 C180.039323,50.6350717 179.178913,49.886648 178.06538,49.132807 C178.997577,48.0789297 181.209911,45.8296998 182.652918,46.4201878 C184.522291,47.1836133 183.532623,48.50919 180.039323,50.6350717" id="path40" fill="#D11C2E"></path>
                        <path d="M163.455014,43.9046758 C163.448997,43.9680167 163.438624,44.03615 163.437171,44.0957405 C159.103379,44.9487601 154.582027,45.5482075 150.437661,46.4608177 C150.388282,45.9805514 150.371061,45.4932009 150.375003,44.9970993 C150.377285,44.9964742 150.37936,44.9950157 150.384132,44.9950157 C154.535344,44.6737269 159.134293,44.4128621 163.455014,43.9046758" id="path42" fill="#FFFFFF"></path>
                        <path d="M162.119273,53.1368321 L162.119273,53.1368321 C162.124045,53.1395407 162.128195,53.1422494 162.132345,53.1457915 C162.794406,53.5735514 163.186538,53.8852557 163.186538,53.8852557 C162.510161,54.502622 161.796438,55.0854006 161.06425,55.6454683 C160.950345,55.4212745 160.809467,55.212291 160.649502,55.0170591 C160.624812,54.9880972 160.596595,54.9597605 160.569831,54.9289234 C160.409243,54.7468181 160.234547,54.5770059 160.036198,54.4301132 C160.034746,54.4271962 160.032671,54.425321 160.028522,54.4226123 C160.821086,53.9596397 161.520286,53.5237538 162.119273,53.1368321" id="path44" fill="#FFFFFF"></path>
                        <path d="M154.668545,57.5807019 C154.676844,57.6352918 154.678296,57.6925904 154.687218,57.7457218 C154.730373,57.9953353 154.80797,58.2332807 154.903617,58.4643503 C154.926854,58.5264411 154.955694,58.5870734 154.983081,58.6458305 C155.099268,58.8808589 155.227697,59.1079696 155.391812,59.3136195 C152.456419,60.9461082 149.739292,62.1193749 148.093372,62.7740373 C147.907472,62.371697 147.773441,61.9283101 147.68962,61.4559615 C147.673852,61.380744 147.681529,61.2965672 147.669702,61.2198913 C147.612024,60.8144257 147.570943,60.4010424 147.581317,59.966615 C147.580487,59.9611977 147.579035,59.9582806 147.579035,59.9528633 C147.581317,59.9522382 147.581317,59.9522382 147.583184,59.9507797 C150.165036,59.149433 152.529658,58.2003601 154.634933,57.23316 C154.634933,57.3519243 154.655474,57.4654797 154.668545,57.5807019" id="path46" fill="#FFFFFF"></path>
                        <path d="M148.585301,45.1454506 C142.571355,45.6669719 137.815138,46.4283138 136.793726,48.4548084 C136.745799,48.5498199 136.59185,48.8306872 136.415287,49.1459336 C136.415287,49.1459336 136.639985,51.5751852 137.076933,52.860132 C137.076933,52.860132 140.511517,48.8202692 148.685513,46.8767012 L148.585301,45.1454506" id="path48" fill="#FFFFFF"></path>
                        <path d="M129.101286,52.6788601 C130.742226,52.7313664 132.980702,52.4534162 134.810862,50.9676118 C134.810862,50.9676118 135.131,52.6138522 135.460682,53.7521147 C135.460682,53.7521147 131.808039,55.4737809 129.101286,52.6788601" id="path50" fill="#FFFFFF"></path>
                        <path d="M179.261074,58.7189643 C162.054125,89.6816609 99.8666526,81.3364867 99.6286758,81.2983571 C104.568303,79.613362 111.618807,73.5986775 111.618807,73.5986775 C73.141876,74.3077214 44.4923296,58.4580995 44.4923296,58.4580995 C56.2857722,60.3185325 69.4537539,60.4977208 78.8118243,60.2908208 C57.2961881,51.2028486 45.7066961,33.638853 45.7066961,33.638853 C68.8912821,48.6052433 89.8093827,51.9525224 99.5409127,52.6636499 C99.5409127,52.6636499 79.551482,45.7813607 71.2482278,30.1969791 C71.2482278,30.1969791 90.8793448,36.6988058 106.320451,33.3277738 C119.019949,22.628357 145.936227,22.1353808 165.370033,32.8918878 C159.317703,33.0621167 152.092918,31.2929448 146.969051,31.2819018 C120.965674,31.2296038 118.456854,49.9943693 126.814883,55.0570639 C134.69343,59.8307652 142.40724,51.2157668 147.407451,49.5370224 C143.290472,53.5429228 143.605838,60.0053697 143.605838,60.0053697 C132.230463,66.3344671 115.895543,67.8898632 108.915996,68.2713676 C108.617436,69.1733515 106.233933,70.9081443 106.233933,70.9081443 C145.063161,73.7643225 167.064502,56.8897852 167.064502,56.8897852 C169.898232,58.6837518 166.873623,62.3883657 166.873623,62.3883657 C168.624112,61.3736598 169.903834,57.9084498 169.903834,57.9084498 C171.193722,58.7195894 170.690796,60.5039715 170.690796,60.5039715 C174.10318,52.4009099 164.898229,52.4534162 164.898229,52.4534162 C163.159151,49.7866359 157.547919,46.9994244 157.547919,46.9994244 L167.629049,45.2737994 C167.629049,45.2737994 182.743378,52.4540413 179.261074,58.7189643" id="path52" fill="#D11C2E"></path>
                        <path d="M81.7235651,19.125184 C80.9807952,21.5676039 77.9225752,22.4712547 74.9407069,22.4712547 C72.4042931,22.4712547 69.7326038,21.8228431 68.0165565,20.0680062 C66.9221121,21.6938692 64.5135044,22.4712547 61.6835098,22.4712547 C58.7701091,22.4712547 55.8585757,21.6049001 54.2898375,19.5261283 L54.5103862,22.1318387 L25.664151,22.1318387 L27.3806133,28.5644904 L6.95008513,28.5644904 L3.04554316,13.9299943 C1.50494303,8.15560965 1.42835474,7.14507098 2.63309841,5.16810313 C3.95487605,2.99059023 7.01129103,1.80018401 10.8434648,1.80018401 C13.7071331,1.80018401 16.1584604,2.43404387 18.147237,3.71569861 L17.6358462,1.80083617 L52.792679,1.80083617 L52.8605242,2.60927336 C53.6974889,2.09212759 55.1205779,1.46225363 57.6628011,1.46225363 C60.457732,1.46225363 63.2358573,2.35428424 64.7269989,3.8583825 C65.856922,2.31611297 68.0705007,1.46225363 70.9199982,1.46225363 C77.3530491,1.46225363 79.1022929,4.75578251 79.8303319,7.48234087 C80.7507026,10.9329658 79.810414,12.3835784 79.2782339,13.0501589 L79.2836283,13.0501589 L80.8880527,13.0501589 L81.4739695,15.2435487 C81.9362297,16.9760079 82.0132038,18.172194 81.7235651,19.125184" id="path54" fill="#D11C2E"></path>
                        <path d="M162.876774,9.22963516 L166.319243,22.1318387 L156.851209,22.1318387 L153.408948,9.22963516 L152.004325,9.22963516 L155.446793,22.1318387 L112.226509,22.1318387 L112.09808,21.1027561 C111.003429,21.921605 109.375559,22.4712547 107.117995,22.4712547 C104.282606,22.4712547 99.9919691,21.4505065 98.4228159,17.581706 C98.1145041,16.8208017 97.7408369,15.6137809 97.2806516,13.8893644 L96.3835184,10.5171448 L93.3506106,10.5171448 L98.1680334,28.5728247 L86.6486687,28.5728247 L79.5047995,1.80018401 L96.7154826,1.80018401 L97.114462,3.29621046 C98.4286252,1.98917349 100.439706,1.46225363 102.632952,1.46225363 C106.432697,1.46225363 108.71744,2.92035258 110.006084,4.30406131 L109.693415,1.80083617 L164.95238,1.80083617 L166.934621,9.22963516 L162.876774,9.22963516" id="path56" fill="#D11C2E"></path>
                        <path d="M80.5803634,18.775621 C80.0747405,20.4406137 77.7246416,21.2711098 74.9407069,21.2711098 C72.6495316,21.2711098 70.245281,20.6908106 68.8066312,19.1667099 C68.1578487,18.4783143 67.6611473,17.4656504 67.2889325,16.0704611 C66.769616,14.1273515 67.1233654,12.665925 68.0725754,11.7733173 C68.3738329,11.4897414 68.9085028,11.0967981 69.6969177,10.5800482 L65.7455065,10.5800482 C65.6977867,11.0925684 65.5699805,11.5359761 65.3569009,11.9106255 C64.9618636,12.6038134 64.0943997,13.3597588 62.6657088,14.2500955 L66.7142195,14.2500955 L67.0625744,15.5543779 C67.4578193,17.0359943 67.5401879,18.0597221 67.3231663,18.775621 C66.9117382,20.1310138 65.0631126,21.2711098 61.6835098,21.2711098 C60.3722513,21.2711098 59.1811223,21.0923382 58.1437342,20.7399623 C55.9102377,19.9805165 54.7525126,18.7693494 54.0313204,16.0704611 C53.2868907,13.2782906 54.2095437,11.8718708 56.439928,10.5800482 L52.7252488,10.5800482 L52.1505358,8.39497189 L53.2095016,20.9316938 L44.2120273,20.9316938 L37.5217042,5.32543462 L41.6855724,20.9316938 L33.2248428,20.9316938 L32.04554,18.1402943 L32.2976253,20.9316938 L24.107239,20.9316938 L25.8237013,27.3643455 L7.8670532,27.3643455 L4.19972038,13.619811 C3.51699454,11.0594394 3.13550545,9.41365738 3.03388292,8.58999543 C2.65401215,5.51401989 5.28013931,3.00036224 10.8434648,3.00036224 C15.7305378,3.00036224 19.3924347,5.15085105 20.6208474,8.34996645 L19.1936296,3.00036224 L25.5398719,3.00036224 L25.8757782,4.25905588 L25.7637403,3.00036224 L43.8294386,3.00036224 L44.9076998,5.90012901 L45.0574986,5.90012901 L44.5400494,3.00036224 L51.6942925,3.00036224 L51.9320619,5.81320185 C52.2077996,3.90403385 54.377808,2.66242561 57.6628011,2.66242561 C58.4630422,2.66242561 63.6169937,2.44446179 65.1699636,6.97667565 C65.1268083,6.47596937 65.1398794,6.03595791 65.2129115,5.65441184 C65.5714328,3.77503911 67.8617782,2.66242561 70.9199982,2.66242561 C72.2683952,2.66242561 73.5265395,2.86534594 74.6606121,3.26601932 C77.0185952,4.1005159 77.9848185,5.20081541 78.6755115,7.79285752 C79.1655736,9.62885002 79.1456557,10.9752834 78.6147205,11.9106255 C78.2198906,12.6038134 77.3515968,13.3597588 75.9229059,14.2500955 L79.9712092,14.2500955 L80.3197716,15.5543779 C80.7146015,17.0359943 80.797385,18.0597221 80.5803634,18.775621" id="path58" fill="#1A64B7"></path>
                        <path d="M138.946306,8.0292819 L139.412093,9.77576359 L142.993157,9.77576359 L144.291967,14.6446639 L140.711526,14.6446639 L141.04681,15.9036076 L145.554261,15.9036076 L143.453342,8.0292819 L138.946306,8.0292819 Z M161.31924,8.0292819 L164.762123,20.9316938 L157.768883,20.9316938 L154.325792,8.0292819 L150.447205,8.0292819 L153.889051,20.9316938 L128.856255,20.9316938 L127.424659,17.6342124 L127.888372,20.9316938 L120.953432,20.9316938 L119.56603,17.6823015 L120.129954,20.9316938 L113.281533,20.9316938 L112.864503,17.5857065 C112.587935,20.1240963 110.146131,21.2711098 107.117995,21.2711098 C104.43531,21.2711098 100.819805,20.311619 99.5297089,17.1285263 C99.2402777,16.4145026 98.8819638,15.2537166 98.4356795,13.5791186 L97.3153004,9.31720823 L91.7928687,9.31720823 L96.6102914,27.3726798 L87.5655123,27.3726798 L81.061919,3.00036224 L95.798224,3.00036224 L96.878145,7.0477259 C96.7407948,5.32753905 97.7943662,2.66242561 102.632952,2.66242561 C106.589757,2.66242561 109.288211,4.50616904 110.221653,6.80436318 C111.072104,8.90169973 112.131692,13.2651015 112.559096,15.1337438 L111.047414,3.00036224 L119.028455,3.00036224 L120.669811,6.72785394 L120.498642,3.00036224 L128.443167,3.00036224 L134.700484,18.3259417 L130.6111,3.00036224 L164.035537,3.00036224 L165.376879,8.0292819 L161.31924,8.0292819 L161.31924,8.0292819 Z" id="path60" fill="#1A64B7"></path>
                        <path d="M17.6166338,26.4640284 L24.6556023,26.4640284 L20.7145235,11.6938702 C20.2678035,10.0193555 19.8872896,8.84319267 19.5727535,8.16513164 C18.1218003,5.04350475 14.143334,3.90045008 10.8434648,3.90045008 C6.4309139,3.90045008 3.56917516,5.61232343 3.92327721,8.47896119 C4.01940158,9.2575552 4.4006417,10.8931693 5.06552447,13.3866162 L8.55521495,26.4640284 L15.593893,26.4640284 L11.1721094,9.89223599 C10.6611127,7.97704643 10.7705987,7.63967236 11.5410253,7.63967236 C12.5083897,7.63967236 12.7394575,8.18246706 13.2714301,10.1785622 L17.6166338,26.4640284" id="path62" fill="#FFFFFF"></path>
                        <polyline id="path64" fill="#FFFFFF" points="33.8182287 20.0315435 40.5178884 20.0315435 36.2135578 3.90045008 31.7227048 3.90045008 34.6286363 14.7909316 29.9294758 3.90045008 26.7438645 3.90045008 27.6916223 14.541964 24.8522911 3.90045008 20.3615004 3.90045008 24.6655613 20.0315435 31.3162562 20.0315435 30.6361446 12.50028 33.8182287 20.0315435"></polyline>
                        <path d="M37.8864498,3.90045008 L43.2072132,3.90045008 L44.2858894,6.80021685 L46.1282906,6.80021685 L45.6110489,3.90045008 L50.8708139,3.90045008 L52.2341493,20.0315435 L44.8020937,20.0315435 L37.8864498,3.90045008 Z M47.7690236,16.4249205 L46.7451215,9.65912451 L44.9877861,9.65912451 L47.7690236,16.4249205 Z" id="path66" fill="#FFFFFF"></path>
                        <path d="M79.4539675,15.7875519 L79.2836283,15.15035 L74.5122656,15.15035 L74.8313662,16.3457235 C75.083244,17.2904209 75.060629,17.6402339 74.383837,17.6402339 C73.8443952,17.6402339 73.3601425,17.3271336 73.1117917,16.395292 C72.7889566,15.1881045 73.0043183,14.8813592 74.2450345,14.1929636 C76.2347448,13.0838505 77.4318906,12.1739906 77.836472,11.4628006 C78.2406384,10.7523607 78.2321318,9.60597226 77.8099149,8.02578148 C77.5036779,6.87608017 77.1125826,6.02904041 76.6380813,5.48487054 C75.5459191,4.23155256 73.0636569,3.56251345 70.9199982,3.56251345 C68.0389641,3.56251345 66.329556,4.58201154 66.0926166,5.82361977 C65.9673001,6.48140752 66.065852,7.41487439 66.3884796,8.6231036 L66.6700268,9.67996036 L71.4418044,9.67996036 L70.917716,7.7169942 C70.6482026,6.70418442 70.6461278,6.29178046 71.4534232,6.29178046 C72.1268955,6.29178046 72.5818939,6.72354092 72.8144763,7.59760478 C73.0678065,8.5466777 73.0750682,9.16819024 72.8350166,9.46053804 C72.5877033,9.75223992 71.9167207,10.2405697 70.8218613,10.9254649 C69.1960667,11.9518805 67.3011737,12.6410887 68.1543216,15.8371204 C68.4840036,17.072457 68.9180467,17.9761287 69.457281,18.5472393 C70.6633484,19.8259562 72.7964258,20.371022 74.9407069,20.371022 C78.3887774,20.371022 79.5203603,19.1804616 79.7232734,18.5126518 C79.8857284,17.9775872 79.7956831,17.0691233 79.4539675,15.7875519" id="path68" fill="#FFFFFF"></path>
                        <polyline id="path70" fill="#FFFFFF" points="88.2528856 26.4723628 95.4423999 26.4723628 90.6249772 8.41687036 96.3156732 8.41687036 95.1110582 3.90045008 82.2302254 3.90045008 88.2528856 26.4723628"></polyline>
                        <path d="M111.971104,16.8332407 C112.229414,18.9941474 110.328296,20.371022 107.117995,20.371022 C105.162519,20.371022 101.573363,19.7786796 100.359412,16.7891312 C100.085749,16.1146539 98.5643156,10.5860698 98.5643156,10.5860698 C98.1215584,8.92547344 97.8603441,7.76322895 97.7810876,7.10023223 C97.489789,4.67846068 99.7573119,3.56251345 102.632952,3.56251345 C105.37954,3.56251345 108.359749,4.59993037 109.39195,7.14442507 C109.664783,7.81823559 110.017702,8.96526991 110.451123,10.5860698 L111.186839,13.3457779 C111.630426,15.0067702 111.891433,16.1690355 111.971104,16.8332407 Z M103.349372,6.29178046 C102.703079,6.29178046 102.617806,6.52560036 103.10683,8.35411279 L105.116666,15.8869181 C105.541788,17.4829858 105.822505,17.6402339 106.414646,17.6402339 C107.148909,17.6402339 107.058864,17.1291931 106.727107,15.8869181 L104.749638,8.47433564 C104.299827,6.79184084 104.120566,6.29178046 103.349372,6.29178046 L103.349372,6.29178046 Z" id="path72" fill="#FFFFFF"></path>
                        <path d="M129.437192,20.0315435 L134.428274,20.0315435 L127.842312,3.90045008 L121.423162,3.90045008 L122.127133,12.3506995 L118.445858,3.90045008 L112.062394,3.90045008 L114.072852,20.0315435 L119.063934,20.0315435 L117.174643,8.97210407 L121.541424,20.0315435 L126.886462,20.0315435 L124.954223,8.58395304 C124.954223,8.58395304 127.773637,16.2985928 129.437192,20.0315435" id="path74" fill="#FFFFFF"></path>
                        <polyline id="path76" fill="#FFFFFF" points="131.779407 3.90045008 136.083115 20.0315435 145.895769 20.0315435 145.034322 16.8034662 140.359021 16.8034662 139.543012 13.7445761 143.124283 13.7445761 142.305576 10.6758514 138.724513 10.6758514 137.778207 7.1294441 142.482762 7.1294441 141.6209 3.90045008 131.779407 3.90045008"></polyline>
                        <polyline id="path78" fill="#FFFFFF" points="147.583807 20.0315435 152.721367 20.0315435 149.278899 7.1294441 153.336746 7.1294441 152.475506 3.90045008 143.279476 3.90045008 147.583807 20.0315435"></polyline>
                        <polyline id="path80" fill="#FFFFFF" points="158.456464 20.0315435 163.593817 20.0315435 160.151556 7.1294441 164.208573 7.1294441 163.347333 3.90045008 154.152133 3.90045008 158.456464 20.0315435"></polyline>
                        <path d="M66.1967703,15.7875519 L66.0264312,15.15035 L61.2550685,15.15035 L61.574584,16.3457235 C61.8264619,17.2904209 61.8034318,17.6402339 61.1266399,17.6402339 C60.5871981,17.6402339 60.1029453,17.3271336 59.8545946,16.395292 C59.5317594,15.1881045 59.7475362,14.8813592 60.9878373,14.1929636 C62.9775477,13.0838505 64.1746935,12.1739906 64.5792748,11.4628006 C64.9834412,10.7523607 64.9749347,9.60597226 64.5531327,8.02578148 C64.2464808,6.87608017 63.8558004,6.02904041 63.3808841,5.48487054 C62.288307,4.23155256 59.8066673,3.56251345 57.6628011,3.56251345 C54.7817669,3.56251345 53.0723589,4.58201154 52.8358344,5.82361977 C52.7101029,6.48140752 52.8090698,7.41487439 53.1316975,8.6231036 L53.4128296,9.67996036 L58.1846073,9.67996036 L57.6609338,7.7169942 C57.3910054,6.70418442 57.3889306,6.29178046 58.196226,6.29178046 C58.8696984,6.29178046 59.3246968,6.72354092 59.5570717,7.59760478 C59.8106094,8.5466777 59.8178711,9.16819024 59.5778195,9.46053804 C59.3305062,9.75223992 58.6595235,10.2405697 57.5646642,10.9254649 C55.9388696,11.9518805 54.0439765,12.6410887 54.8971245,15.8371204 C55.2268064,17.072457 55.6608496,17.9761287 56.2000839,18.5472393 C57.4061513,19.8259562 59.5392286,20.371022 61.6835098,20.371022 C65.1311653,20.371022 66.2633706,19.1804616 66.4660763,18.5126518 C66.6283238,17.9775872 66.5389009,17.0691233 66.1967703,15.7875519" id="path82" fill="#FFFFFF"></path>
                        <polyline id="path86" fill="#1A64B7" points="97.1885315 15.7711124 95.2527654 16.6020253 97.4495384 21.7622108 99.385097 20.9312771 97.1885315 15.7711124"></polyline>
                        <path d="M137.514296,48.6812941 C137.514296,47.7784768 137.268435,47.0469301 136.964895,47.0469301 C136.661355,47.0469301 136.415287,47.7784768 136.415287,48.6812941 C136.415287,49.5839031 136.661355,50.3156581 136.964895,50.3156581 C137.268435,50.3156581 137.514296,49.5839031 137.514296,48.6812941" id="path88" fill="#FFFFFF"></path>
                        <polyline id="path90" fill="#FFFFFF" points="145.760079 44.0617781 136.847463 44.8793768 137.119466 47.8689044 146.032082 47.0513057 145.760079 44.0617781"></polyline>
                        <polyline id="path92" fill="#FFFFFF" points="148.507912 44.332019 145.035359 44.332019 145.035359 46.1339032 148.507912 46.1339032 148.507912 44.332019"></polyline>
                        <path d="M134.821236,51.2115996 C134.821236,50.3012814 133.634257,49.5630672 132.16988,49.5630672 C130.70571,49.5630672 129.518523,50.3012814 129.518523,51.2115996 C129.518523,52.1221262 130.70571,52.860132 132.16988,52.860132 C133.634257,52.860132 134.821236,52.1221262 134.821236,51.2115996" id="path94" fill="#FFFFFF"></path>
                        <path d="M131.598279,52.0752456 C131.598279,51.463505 131.009872,50.9676118 130.283701,50.9676118 C129.557737,50.9676118 128.969123,51.463505 128.969123,52.0752456 C128.969123,52.6871944 129.557737,53.183296 130.283701,53.183296 C131.009872,53.183296 131.598279,52.6871944 131.598279,52.0752456" id="path96" fill="#FFFFFF"></path>
                        <path d="M151.856601,44.9716796 C151.856601,44.422655 151.526919,43.9776012 151.12047,43.9776012 C150.713814,43.9776012 150.384132,44.422655 150.384132,44.9716796 C150.384132,45.5202875 150.713814,45.9653412 151.12047,45.9653412 C151.526919,45.9653412 151.856601,45.5202875 151.856601,44.9716796" id="path98" fill="#FFFFFF"></path>
                        <polyline id="path100" fill="#FFFFFF" points="160.330401 43.8267497 151.463638 44.2980566 151.499117 44.97543 160.366088 44.5039148 160.330401 43.8267497"></polyline>
                        <polyline id="path102" fill="#FFFFFF" points="163.257911 43.4442035 154.43202 44.4199463 154.50111 45.0518976 163.327208 44.0761548 163.257911 43.4442035"></polyline>
                        <path d="M148.132793,59.9507797 C148.132793,59.7253358 148.009758,59.5423971 147.858092,59.5423971 C147.706219,59.5423971 147.583184,59.7253358 147.583184,59.9507797 C147.583184,60.1762236 147.706219,60.3591624 147.858092,60.3591624 C148.009758,60.3591624 148.132793,60.1762236 148.132793,59.9507797" id="path104" fill="#FFFFFF"></path>
                        <polyline id="path106" fill="#FFFFFF" points="154.352349 57.277332 147.753938 59.519686 148.03922 60.3662466 154.637631 58.1243092 154.352349 57.277332"></polyline>
                        <path d="M154.645307,57.1797084 C154.645307,57.0568817 154.580159,56.957085 154.499866,56.957085 C154.419572,56.957085 154.354216,57.0568817 154.354216,57.1797084 C154.354216,57.3025352 154.419572,57.4023319 154.499866,57.4023319 C154.580159,57.4023319 154.645307,57.3025352 154.645307,57.1797084" id="path108" fill="#FFFFFF"></path>
                        <path d="M160.15861,54.2624906 C160.098441,54.1944379 160.015243,54.1693331 159.973332,54.2064716 C159.931215,54.2438176 159.945945,54.3292984 160.006321,54.397351 C160.06649,54.4656112 160.149688,54.490716 160.191806,54.45337 C160.233717,54.416439 160.218986,54.3307507 160.15861,54.2624906" id="path110" fill="#FFFFFF"></path>
                        <polyline id="path112" fill="#FFFFFF" points="161.96325 53.0634899 160.059851 54.248633 160.242431 54.5440853 162.145623 53.3589422 161.96325 53.0634899"></polyline>
                        <path d="M162.046034,53.0968931 C161.967607,53.0506256 161.881089,53.0524929 161.852665,53.1006277 C161.824033,53.1491774 161.864283,53.2259442 161.94271,53.2720042 C162.021344,53.3182717 162.107862,53.3166119 162.136494,53.2682696 C162.165126,53.2197198 162.12446,53.1431606 162.046034,53.0968931" id="path114" fill="#FFFFFF"></path>
                    </g>
                </g>
            </g>
        </g>
    </g>
</svg>