<svg xmlns="http://www.w3.org/2000/svg" height="115.84" width="248" viewBox="0 0 248 115.84">
 <g transform="matrix(.47163 0 0 .47163 1.1219 1.1219)">
  <path d="m259.88 175c6.2 0 14.43-3.24 19.17-6.65l-1.87-1.87c5.13 0.18 9.49-2.28 13.29-6.27l-1.64-1.35c4.9-2.4 6.32-4.64 7.81-9.32 0 0-11.14-15.49-15-21.12 25.45-17.21 101.57-9.29 119.45-54.46l-5.25 0.16c22.16-10.81 36.01-36.52 31.16-70.29-5.36 6.59-12.94 14.77-20 18.71 0.62-10.67-2.14-14.19-3.6-22.54-6.64 7.7-13.4 14.9-22.57 20.63l2.08-6.7-10.28 7.89c-14.63 11.25-33.08 17.39-54.63 18.29-11.41 0.7-30.24 8.64-39.94 16.21-4.75-6.14-11.26-9.66-18.16-9.66h-0.06c-6.91 0-13.41 3.52-18.17 9.66-9.69-7.57-28.52-15.51-39.93-16.21-21.54-0.9-39.95-7-54.57-18.26l-10.26-7.85 2.08 6.7c-9.18-5.8-15.99-13-22.66-20.7-1.45 8.35-4.21 11.87-3.59 22.54-7-3.94-14.6-12.12-20-18.71-4.86 33.77 9 59.48 31.15 70.33l-5.21-0.16c17.88 45.17 94 37.25 119.46 54.46-3.87 5.63-15 21.12-15 21.12 1.48 4.68 2.91 6.92 7.81 9.32l-1.65 1.35c3.81 4 8.17 6.45 13.29 6.27l-1.86 1.87c4.74 3.41 13 6.65 19.17 6.65zm115.45-149.58m-132.77 37.86" fill="#d9d9d6"/>
  <path d="m401.65 9.5293c-7.73 8.6-17.66 15.751-29.33 21.521a23.27 23.27 0 0 0 2.9395-5.6309c-16.87 12.98-36.77 18.339-57 19.189-12.23 0.74-35.07 11.091-41.07 18.691-4.24-8.14-10.77-12.121-17.33-12.141-6.56-0.02-13.1 4.0206-17.33 12.141-6.01-7.6-28.84-17.951-41.08-18.691-20.19-0.85-40.09-6.1895-57-19.189a23.27 23.27 0 0 0 2.9414 5.6504c-11.67-5.77-21.6-12.92-29.33-21.52a31.27 31.27 0 0 0 0.65039 21.729c-3.9-1.49-15.791-7.9589-23.531-16.879-1.58 11.42 4.1406 30.1 20.311 39a36.67 36.67 0 0 1-12.07-3.9297c3.5 7.36 6.2594 14.5 33.109 27a23.47 23.47 0 0 1-6.6602 2.1699 25 25 0 0 1-3.6797 0.35938c21.64 36 98.881 28.29 117.29 48.15-2.42 3.48-15.061 22.85-15.061 22.85a9.29 9.29 0 0 0 8.5195 6.8906l-2 2c5.67 5.72 14 4.4199 14 4.4199l-2.0996 2.7188c5 3.14 7.68 4.5 13 4.5 5.32 0 8.05-1.36 13-4.5l-2.1094-2.7188s8.3388 1.3001 14.049-4.4199l-2-2a9.29 9.29 0 0 0 8.5215-6.8906s-12.641-19.379-15.061-22.859c18.46-19.85 95.76-12.14 117.27-48.16a24.9 24.9 0 0 1-3.6699-0.36133 23.27 23.27 0 0 1-6.6602-2.1699c26.85-12.48 29.61-19.62 33.1-27a36.55 36.55 0 0 1-12.059 3.9316c16.17-8.93 21.879-27.61 20.309-39-7.74 8.88-19.629 15.389-23.529 16.879a31.34 31.34 0 0 0 0.65039-21.73zm-151.07 58.92c0.35 0.28 0.71031 0.56984 1.0703 0.83984a1.22 1.22 0 0 0-0.26953 0.25 1.4 1.4 0 0 0 0.11914 1.8613 1.14 1.14 0 0 0 1.7207-0.07031 1.37 1.37 0 0 0 0.28907-0.79102c0.31 0.22 0.65 0.43086 1 0.63086a2.38 2.38 0 0 1-0.5 1 2.25 2.25 0 0 1-3.3692 0.14062 2.76 2.76 0 0 1-0.24023-3.6699zm18.619 0 0.18164 0.19141a2.77 2.77 0 0 1-0.24024 3.6699 2.26 2.26 0 0 1-3.3808-0.14062 2.49 2.49 0 0 1-0.49024-1c0.34-0.2 0.69-0.41086 1-0.63086a1.3 1.3 0 0 0 0.29102 0.79102 1.14 1.14 0 0 0 1.7188 0.07031 1.41 1.41 0 0 0 0.12109-1.8613 1.26 1.26 0 0 0-0.28125-0.25c0.37-0.27 0.73008-0.55984 1.0801-0.83984zm-9.2695 1.4414 0.32031 0.36914c0.5 0.6 1.02 1.181 1.5 1.791a6 6 0 0 1 0.90039 1.5 6.37 6.37 0 0 1 0.44922 2v0.81836l2.6406-0.18945c0.43-0.03 0.50977 0.16992 0.25977 0.41992l-1.8106 1.5312a11.44 11.44 0 0 0-1.7793 2.0586c-0.49 0.88-1.5695 4.2305-2.4395 4.2305s-1.9514-3.3505-2.4414-4.2305a11.44 11.44 0 0 0-1.7793-2.0586l-2.4004-2 3.4102 0.23828v-0.81836a6.66 6.66 0 0 1 0.45117-2 6.36 6.36 0 0 1 0.89844-1.5c0.49999-0.61 1-1.191 1.5-1.791zm-1.2852 4.0664a0.38 0.38 0 0 0-0.29492 0.11328 1.76 1.76 0 0 0-0.62891 1.1191 1.87 1.87 0 0 0 0 0.88086 0.19 0.19 0 0 0 0 0.08008 2.45 2.45 0 0 1 0.43946-0.84961c0.16-0.22 0.44007-0.50023 0.58007-0.74023h0.0391a0.48 0.48 0 0 0 0.02145-0.56055 0.38 0.38 0 0 0-0.15625-0.04297zm2.5 0a0.38 0.38 0 0 0-0.1543 0.042969 0.48 0.48 0 0 0 0 0.56055c0.14 0.24 0.42008 0.52023 0.58008 0.74023a2.3 2.3 0 0 1 0.43946 0.84961v-0.08008h0.041a2 2 0 0 0 0.0195-0.88086 1.76 1.76 0 0 0-0.63086-1.1191 0.38 0.38 0 0 0-0.29492-0.11328zm-16.771 29.611c0.5842 2e-3 1.086 0.48117 1.377 1.0215 0.87 1.61-0.68969 2.24-0.17969 4.5-3.32-1.41-3.3407-3.5607-2.4707-4.7207 0.43469-0.58094 0.87372-0.80202 1.2734-0.80078zm31 0c0.39919-1e-3 0.83859 0.21984 1.2773 0.80078 0.87 1.16 0.84929 3.3107-2.4707 4.7207 0.54-2.26-1.0297-2.89-0.17969-4.5 0.29094-0.54031 0.78961-1.0197 1.373-1.0215zm-34.547 3.418c0.58344 8.3e-4 1.0821 0.4793 1.373 1.0137 0.88 1.57-0.68969 2.19-0.17969 4.5-3.32-1.41-3.3388-3.5609-2.4688-4.7109 0.43875-0.58093 0.8762-0.8033 1.2754-0.80273zm38.123 0c0.40115-5.7e-4 0.8425 0.2218 1.2812 0.80273 0.86 1.15 0.84929 3.3009-2.4707 4.7109 0.51-2.31-1.0595-2.93-0.18946-4.5 0.29094-0.53437 0.79261-1.0128 1.3789-1.0137zm-41.033 4.1816c0.58343 2e-3 1.0821 0.48117 1.373 1.0215 0.87 1.61-0.68968 2.2302-0.17968 4.4902-3.32-1.41-3.3388-3.559-2.4688-4.709 0.43875-0.58093 0.8762-0.80397 1.2754-0.80273zm43.947 0c0.39986-1e-3 0.8386 0.2218 1.2773 0.80273 0.87 1.15 0.8493 3.299-2.4707 4.709 0.51-2.26-1.0594-2.8802-0.18945-4.4902 0.29687-0.54031 0.7984-1.0197 1.3828-1.0215zm-29.383 5.0859c0.54641-0.0255 1.0766 0.29398 1.3691 1.2559 0.41 1.38-0.33922 3.4003-3.9492 3.5703 1.26-1.94 9e-3 -3.0693 1.3789-4.2793 0.34125-0.2975 0.77618-0.52703 1.2012-0.54687zm14.723 0c0.45323-0.0115 0.92618 0.22812 1.2871 0.54687 1.38 1.21 0.12891 2.3393 1.3789 4.2793-3.6-0.17-4.3594-2.1903-3.9394-3.5703 0.27093-0.90844 0.75978-1.2429 1.2734-1.2559z" fill="#651d32"/>
  <path d="m125.99 25.68c0.46 3.37 5.5502 15.509 6.7402 18.939-9-3.56-16.87-5.5991-26-11.869 18.17 40.25 103.52 27.069 133.36 36.949-34.24-27.28-44.3-7.6285-93.32-30.898a113.27 113.27 0 0 1-20.779-13.121zm268.82 0a112.6 112.6 0 0 1-20.811 13.121c-49 23.27-59.071 3.6185-93.311 30.898 29.85-9.88 115.19 3.3007 133.39-36.949-9.17 6.27-17.08 8.3091-26 11.869 1.19-3.43 6.2705-15.569 6.7305-18.939zm-134.92 28.609c-7.17-0.09-14.32 5.0003-15.08 15.32l5.0703 3.0898 0.34961 0.21094-0.31055-0.2793a10.23 10.23 0 0 1-3-7.3301 10.09 10.09 0 0 1 0.11914-1.5703 28.62 28.62 0 0 0 8 7.0488 6.65 6.65 0 0 1 1.9609-1.4395 7.95 7.95 0 0 1 5.8594 0 6.93 6.93 0 0 1 1.9102 1.4395 28.62 28.62 0 0 0 7.9512-7.0488 11.48 11.48 0 0 1 0.11914 1.5703 10.14 10.14 0 0 1-3.2891 7.6094l5.4199-3.3008c-0.76-10.33-7.9201-15.41-15.08-15.32zm-141.03 4.6016c4.87 5.15 20.8 13.44 33 14.27-3.44 3.25-13 8.4208-14.91 8.8008 20.32 0.32 26.001-1.8608 50.361-12.551-27.63 2.36-44.751-2.8495-68.451-10.52zm282.89 0.49023c-23.7 7.67-40.819 12.879-68.449 10.529 24.36 10.68 30.039 12.869 50.359 12.539-1.91-0.38-11.48-5.5488-14.91-8.7988 12.2-0.82 28.13-9.1195 33-14.27zm-153.62 47.35c2.28 3.88-0.83015 6.64 1.5898 9a3.12 3.12 0 0 1 3.709-1.291c-0.28-1.92-3.9988-6.939-5.2988-7.709zm23.52 0c-1.3 0.77-5.0208 5.789-5.3008 7.709a3.11 3.11 0 0 1 3.7012 1.291c2.43-2.36-0.69039-5.12 1.5996-9zm-64.83 18.26a5.3 5.3 0 1 0 0 10.59 5.87 5.87 0 0 0 3.1797-0.84961 4.51 4.51 0 0 0 0-1.8301 5.65 5.65 0 0 1-3.0703 0.99023 3.6104 3.6104 0 1 1 0-7.2207 5.66 5.66 0 0 1 3.0703 1 4.56 4.56 0 0 0 0-1.8398 5.88 5.88 0 0 0-3.1797-0.83985zm101.29 0c-2.12 0-3.4102 1.2002-3.4102 2.7402a2.61 2.61 0 0 0 1.4609 2.4004 2.62 2.62 0 0 0-1.7109 2.5293c0 1.84 1.5702 2.9297 3.6602 2.9297 2.09 0 3.6602-1.0897 3.6602-2.9297a2.62 2.62 0 0 0-1.709-2.5293 2.61 2.61 0 0 0 1.459-2.4004c0-1.54-1.2902-2.7402-3.4102-2.7402zm9.4805 0c-2.12 0-3.4102 1.2002-3.4102 2.7402a2.6 2.6 0 0 0 1.4707 2.4004 2.63 2.63 0 0 0-1.7207 2.5293c0 1.84 1.5702 2.9297 3.6602 2.9297 2.09 0 3.6602-1.0897 3.6602-2.9297a2.62 2.62 0 0 0-1.7109-2.5293 2.61 2.61 0 0 0 1.4609-2.4004c0-1.54-1.2902-2.7402-3.4102-2.7402zm-138.66 0.23047v10.08a6.29 6.29 0 0 0 2 0v-4.3008h4.9004v4.3398a6.16 6.16 0 0 0 2 0v-10.119a6.16 6.16 0 0 0-2 0v4.1387h-4.9004v-4.1387a6.29 6.29 0 0 0-2 0zm12.23 0v10.119h4.25c2.12 0 3.459-1.0901 3.459-2.8301a2.52 2.52 0 0 0-1.6797-2.4199 2.38 2.38 0 0 0 1.4297-2.25c0-1.55-1.3283-2.6191-3.2383-2.6191zm22.16 0v6c0 2.97 1.5805 4.3594 4.2305 4.3594s4.2188-1.3594 4.2188-4.3594v-6a6.41 6.41 0 0 0-2 0l-0.0996 6.2891a2.18 2.18 0 1 1-4.3496 0v-6.2891a6.41 6.41 0 0 0-2 0zm86.82 0-2.6113 1.8691a5.12 5.12 0 0 0 0 1.9492l2.2012-1.5781v7.8789a6.16 6.16 0 0 0 2 0v-10.119a3.87 3.87 0 0 0-1.5898 0zm27.66 0c-1.12 0.63-4.25 3.4089-4.25 6.6289a3.54 3.54 0 0 0 3.7383 3.7305 3.49 3.49 0 0 0 3.7109-3.5098 3 3 0 0 0-2.9805-3.2109 2.79 2.79 0 0 0-1.6504 0.49023 14.05 14.05 0 0 1 3.8906-4.1289 9.21 9.21 0 0 0-2.459 0zm-19.721 1.3594a1.42 1.42 0 0 1 1.4199 1.4199 1.33 1.33 0 0 1-1.3398 1.3906h-0.16016a1.32 1.32 0 0 1-1.3398-1.3906 1.42 1.42 0 0 1 1.4199-1.4199zm9.4844 0.11914a1.42 1.42 0 0 1 1.416 1.3008 1.33 1.33 0 0 1-1.3398 1.3906h-0.16015a1.32 1.32 0 0 1-1.3301-1.3906 1.42 1.42 0 0 1 1.4141-1.3008zm-124.45 0.20117h2a1.26 1.26 0 0 1 1.4316 1.3106 1.23 1.23 0 0 1-1.3809 1.2891h-2zm134.17 3.4902a1.57 1.57 0 0 1 1.6484 1.6719 1.67 1.67 0 1 1-3.3281-2e-3 4.54 4.54 0 0 1 0.11132-1 2.25 2.25 0 0 1 1.5684-0.66993zm-134.12 0.54883h2.0898c1.02 0 1.5508 0.45008 1.5508 1.3301s-0.52149 1.3906-1.5215 1.3906h-2.1191zm114.83 0.06055h0.16016a1.4 1.4 0 0 1 1.5195 1.4394 1.61 1.61 0 0 1-3.1992 0 1.4 1.4 0 0 1 1.5195-1.4394zm9.4805 0h0.16015a1.41 1.41 0 0 1 1.5293 1.4394 1.61 1.61 0 0 1-3.209 0 1.41 1.41 0 0 1 1.5195-1.4394zm-74.111 3.3691c0.05 0-10.76 16.861-10.76 16.861 2 3.39 8.08 4.8301 10 3.5801l-3.0898 2.8496c3.83 3.47 11.63 2.8289 14.1 2.1289l-2.8184 4.2109a12.22 12.22 0 0 0 8.9297 3 12.86 12.86 0 0 0 8.8789-3.0606l-2.7891-4.1699c2.51 0.9 10.42 1.1411 14.25-2.1289l-3.0703-2.8105c1.86 1.25 7.7498-0.19008 9.7598-3.5801 0 0-9.5105-14.929-10.73-16.859l8.4199 16.77c-2.55 3-10.22 2.5701-12.09 1.3301l4.4102 4.6797c-4 2.88-11.749 1.2293-14.219 0.5293l3.3184 5.7812c-2.62 2.29-9.1186 2.6-12.309 0l3.2988-5.8008c-2.46 0.7-10.19 2.5702-14.27-0.50977l4.4395-4.6992c-1.88 1.24-9.5 1.7299-12-1.3301 0 0 8.2898-16.771 8.3398-16.771zm-86.51 42.961c-6.07 0-9.3789 3.8298-9.3789 8.3398 0 4.99 4.0297 6.9004 7.1797 7.9004 3.59 1.16 4.7891 1.6002 4.7891 3.1602 0 1.43-1.0286 2.4297-3.3086 2.4297-2.28 0-4.6701-1.04-7.5801-2.75-0.44 0.56-0.32 5.2205 0 6.0605a16 16 0 0 0 7.8203 2c5.26 0 9.5293-2.8307 9.5293-8.2207s-4.1498-7.0996-7.3398-8.0996c-3.19-1-4.6309-1.6111-4.6309-3.1211s1.05-2.3887 3-2.3887c1.95 1e-5 4.2306 1.04 7.1406 2.75 0.44-0.54999 0.32-5.0605 0-6.0605a13.92 13.92 0 0 0-7.2207-2zm49.391 0.53906 9.4609 17v9a21.39 21.39 0 0 0 6.3887 0v-9l9.4512-17a24.35 24.35 0 0 0-6.8203 0l-5.8301 11-5.8203-11a24.42 24.42 0 0 0-6.8301 0zm179.29 0 9.4512 17v9a21.39 21.39 0 0 0 6.3906 0v-9l9.4492-17a24.35 24.35 0 0 0-6.8203 0l-5.8203 11-5.8301-11a24.35 24.35 0 0 0-6.8203 0zm-369.94 0.0606v16.07c0 3-1.5588 5.1894-4.5488 5.1894-2.99 0-4.5508-2.1894-4.5508-5.1894v-16a22.13 22.13 0 0 0-6.5 0v15c0 8 4.0608 11.42 11.051 11.42 6.99 0 11.059-3.4902 11.059-11.49v-15a22.19 22.19 0 0 0-6.5098 0zm12.43 0v25.939a21.39 21.39 0 0 0 6.3906 0v-15.199l12.09 15.199a13 13 0 0 0 5 0l-0.009766-25.94a21.32 21.32 0 0 0-6.3809 0v15.201l-12.09-15.201a13.09 13.09 0 0 0-5 0zm29.59 0v25.939a21.32 21.32 0 0 0 6.3809 0v-25.939a21.32 21.32 0 0 0-6.3809 0zm11.012 0 10.34 25.939a14.53 14.53 0 0 0 5.2598 0l10.359-25.939a22.74 22.74 0 0 0-6.5898 0l-6.4004 16.4-6.3789-16.4a22.74 22.74 0 0 0-6.5898 0zm30.609 0v25.939h18.07a14.81 14.81 0 0 0 0-5.3086h-11.691v-5.1504h10.381a15.22 15.22 0 0 0 0-5.3008h-10.381v-4.8692h11.691a14.81 14.81 0 0 0 0-5.3105zm23.049 0v25.939a21.32 21.32 0 0 0 6.3809 0v-8.7793h2.4805l5.6992 8.7793a25.28 25.28 0 0 0 6.9512 0l-6.3106-9.7383a8 8 0 0 0 5-7.6211c0-5.11-3.9893-8.5801-9.7793-8.5801zm48.852 0v25.939a21.39 21.39 0 0 0 6.3887 0v-25.939a21.39 21.39 0 0 0-6.3887 0zm11.34 0a14.81 14.81 0 0 0 0 5.3105h7v20.629a21.32 21.32 0 0 0 6.3789 0v-20.629h7a14.81 14.81 0 0 0 0-5.3105zm115.87 0-6.1504 25.939a20.34 20.34 0 0 0 6.2305 0l3.1894-14.568 5.2715 14.568a13.72 13.72 0 0 0 5.1094 0l5.3008-14.568 3.1992 14.568a20.27 20.27 0 0 0 6.2207 0l-6.1816-25.939a15 15 0 0 0-5.3496 0l-5.75 15.881-5.7402-15.881a15 15 0 0 0-5.3496 0zm62.531 0v25.939a21.32 21.32 0 0 0 6.3789 0v-8.7793h2.4805l5.6992 8.7793a25.21 25.21 0 0 0 6.9414 0l-6.3008-9.7383a8 8 0 0 0 4.9492-7.6211c0-5.11-3.9893-8.5801-9.7793-8.5801zm54.619 0v25.939h17.08a14.81 14.81 0 0 0 0-5.3086h-10.689v-20.631a21.39 21.39 0 0 0-6.3906 0zm52.949 0v25.939a21.32 21.32 0 0 0 6.3809 0v-15.199l12.09 15.199a13.09 13.09 0 0 0 5 0l0.01-25.939a21.39 21.39 0 0 0-6.3906 0v15.201l-12.09-15.201a13 13 0 0 0-5 0zm29.551 0v26h9.8398c8.22 0 13.76-5.51 13.76-13 0-7.49-5.5398-13-13.76-13zm-157.59 0.041-10.541 25.939a22.74 22.74 0 0 0 6.5918 0l1.8281-4.9102h9.5l1.8301 4.8691a22.74 22.74 0 0 0 6.5918 0l-10.541-25.898a14.53 14.53 0 0 0-5.2598 0zm107.7 0-10.529 25.939a22.67 22.67 0 0 0 6.5801 0l1.8398-4.9102h9.4902l1.8301 4.8691a22.74 22.74 0 0 0 6.5898 0l-10.529-25.898a14.59 14.59 0 0 0-5.2715 0zm-319.4 5.2695h4a3.27 3.27 0 1 1 0 6.5391h-4zm238.54 0h4a3.27 3.27 0 0 1 0 6.5391h-4zm137.12 0h3.4707c3.91 0 7.2598 2.4702 7.2598 7.6602 0 5.19-3.3498 7.6602-7.2598 7.6602h-3.4707zm-251.23 2.5801a9.36 9.36 0 1 0 9.3594 9.2305 9.05 9.05 0 0 0-9.3594-9.2305zm89.859 0.33004 2.7891 7.4199h-5.5391zm107.74 0 2.75 7.4199h-5.4902zm-184.68 0.0801v17.639a14.35 14.35 0 0 0 4.3398 0v-6.9199h7a10.42 10.42 0 0 0 0-3.6094h-7v-3.5h7.9492a10 10 0 0 0 0-3.6094zm-12.92 3.1992c2.66 0 4.9395 2.0911 4.9395 5.6211s-2.2795 5.6191-4.9395 5.6191c-2.66 0-4.9414-2.0891-4.9414-5.6191s2.2814-5.6211 4.9414-5.6211zm-88.93 24.391c-6.06 0-9.3809 3.8298-9.3809 8.3398 0 4.99 4.0294 6.9004 7.1894 7.9004 3.59 1.15 4.7812 1.6004 4.7812 3.1504 0 1.43-1.0406 2.4297-3.3106 2.4297-2.27 0-4.6701-1.03-7.5801-2.75-0.44 0.56-0.32 5.2303 0 6.0703a16.2 16.2 0 0 0 7.8203 2c5.27 0 9.5391-2.8407 9.5391-8.2207 0-5.38-4.1398-7.1096-7.3398-8.0996-3.2-0.98999-4.6289-1.6013-4.6289-3.1113s1.05-2.3887 3-2.3887c1.95 1e-5 4.2287 1.04 7.1387 2.75 0.44-0.55999 0.32-5.1105 0-6.0605a13.89 13.89 0 0 0-7.2285-2.0098zm191.86 0.01a13.77 13.77 0 1 0 13.76 13.57 13.3 13.3 0 0 0-13.76-13.57zm-55.49 0.0293c-6.07-1e-5 -9.3809 3.8298-9.3809 8.3398 0 4.99 4.0316 6.9004 7.1816 7.9004 3.59 1.15 4.7891 1.6004 4.7891 3.1504 0 1.43-1.0306 2.4297-3.3105 2.4297-2.28 0-4.6701-1.03-7.5801-2.75-0.44 0.56-0.32 5.2303 0 6.0703a16.17 16.17 0 0 0 7.8203 2c5.26 0 9.4902-2.8798 9.4902-8.2598 0-5.38-4.1498-7.1096-7.3398-8.0996-3.19-0.98999-4.6309-1.6013-4.6309-3.1113s1.05-2.3887 3-2.3887c1.95 1e-5 4.2306 1.04 7.1406 2.75 0.44-0.55999 0.32-5.1105 0-6.0605a13.92 13.92 0 0 0-7.1797-1.9707zm-196.88 0.57031v25.93h18.07a14.75 14.75 0 0 0 0-5.2988h-11.689v-5.1504h10.34a14.81 14.81 0 0 0 0-5.3106h-10.34v-4.8594h11.689a14.81 14.81 0 0 0 0-5.3105zm32.301 0-10.52 25.93a22.74 22.74 0 0 0 6.5898 0l1.8301-4.8984h9.5l1.8301 4.8984a22.67 22.67 0 0 0 6.5801 0l-10.541-25.93a14.59 14.59 0 0 0-5.2695 0zm41.471 0a15.28 15.28 0 0 0 0 5.3105h7v20.619a21.32 21.32 0 0 0 6.3789 0v-20.619h7a14.81 14.81 0 0 0 0-5.3105zm25.529 0v25.93h18a14.75 14.75 0 0 0 0-5.2988h-11.66v-5.1504h10.33a14.81 14.81 0 0 0 0-5.3106h-10.33v-4.8594h11.66a14.81 14.81 0 0 0 0-5.3105zm23.199 0v25.93a21.39 21.39 0 0 0 6.3906 0v-8.7695h2.4707l5.709 8.7695a25.21 25.21 0 0 0 6.9414 0l-6.3106-9.7285a8 8 0 0 0 5-7.6211c0-5.11-3.9895-8.5801-9.7695-8.5801zm25.49 0v25.93a21.32 21.32 0 0 0 6.3809 0v-15.199l12.09 15.199a13 13 0 0 0 5 0v-25.93a21.32 21.32 0 0 0-6.3809 0v15.201l-12.09-15.201a13 13 0 0 0-5 0zm63.33 0v25.93a21.32 21.32 0 0 0 6.3809 0v-10.449h10.73v10.449a21.39 21.39 0 0 0 6.3887 0v-25.93a21.39 21.39 0 0 0-6.3887 0v10.17h-10.73v-10.17a21.32 21.32 0 0 0-6.3809 0zm58.6 0v25.93a21.32 21.32 0 0 0 6.3809 0v-8.7695h2.4902l5.6992 8.7695a25.21 25.21 0 0 0 6.9414 0l-6.3008-9.7285a8 8 0 0 0 4.9492-7.6211c0-5.11-3.9893-8.5801-9.7793-8.5801zm26.381 0v25.93h18.061a14.75 14.75 0 0 0 0-5.2988h-11.691v-5.1504h10.342a14.81 14.81 0 0 0 0-5.3106h-10.342v-4.8594h11.701a14.81 14.81 0 0 0 0-5.3105zm-43.91 4.7109c3.91 0 7.2598 3.0798 7.2598 8.2598 0 5.18-3.3498 8.25-7.2598 8.25-3.91 0-7.2598-3.07-7.2598-8.25h-0.0195c0-5.19 3.3693-8.2598 7.2793-8.2598zm-123.46 0.59961h4a3.27 3.27 0 1 1 0 6.5391h-4zm147.37 0h4a3.27 3.27 0 1 1 0 6.5391h-4zm-241.35 2.9102 2.75 7.4199h-5.5z" fill="#888b8d"/>
 </g>
</svg>